<?xml version="1.0" encoding="UTF-8" standalone="no"?>
<svg
   xmlns:dc="http://purl.org/dc/elements/1.1/"
   xmlns:cc="http://creativecommons.org/ns#"
   xmlns:rdf="http://www.w3.org/1999/02/22-rdf-syntax-ns#"
   xmlns:svg="http://www.w3.org/2000/svg"
   xmlns="http://www.w3.org/2000/svg"
   xmlns:sodipodi="http://sodipodi.sourceforge.net/DTD/sodipodi-0.dtd"
   xmlns:inkscape="http://www.inkscape.org/namespaces/inkscape"
   id="svg"
   version="1.1"
   width="400"
   height="376"
   viewBox="0, 0, 400,376"
   sodipodi:docname="3_wiki.svg"
   inkscape:version="0.92.5 (2060ec1f9f, 2020-04-08)">
  <metadata
     id="metadata13">
    <rdf:RDF>
      <cc:Work
         rdf:about="">
        <dc:format>image/svg+xml</dc:format>
        <dc:type
           rdf:resource="http://purl.org/dc/dcmitype/StillImage" />
      </cc:Work>
    </rdf:RDF>
  </metadata>
  <defs
     id="defs11" />
  <sodipodi:namedview
     pagecolor="#ffffff"
     bordercolor="#666666"
     borderopacity="1"
     objecttolerance="10"
     gridtolerance="10"
     guidetolerance="10"
     inkscape:pageopacity="0"
     inkscape:pageshadow="2"
     inkscape:window-width="1306"
     inkscape:window-height="704"
     id="namedview9"
     showgrid="false"
     inkscape:zoom="0.62765957"
     inkscape:cx="56.148463"
     inkscape:cy="142.05137"
     inkscape:window-x="60"
     inkscape:window-y="27"
     inkscape:window-maximized="1"
     inkscape:current-layer="svg" />
  <g
     transform="matrix(1.2288646,0,0,1.2288646,-44.154505,-43.705603)"
     id="svgg">
    <path
       style="fill:#ededed;fill-rule:evenodd;stroke:none"
       inkscape:connector-curvature="0"
       id="path0"
       d="m 237.814,79.711 c -0.726,0.345 -1.912,0.987 -2.634,1.426 -0.89,0.541 -2.239,0.872 -4.185,1.026 -3.744,0.297 -8.421,2.531 -10.014,4.783 -1.184,1.674 -1.455,1.785 -1.79,0.73 -0.93,-2.931 -3.417,-1.813 -10.28,4.621 l -3.13,2.935 -2.514,-1.8 c -7.988,-5.717 -13.818,-8.956 -15.182,-8.438 -0.497,0.189 -3.014,2.413 -5.595,4.942 -5.914,5.796 -6.606,6.25 -9.967,6.536 -7.088,0.603 -10.346,3.747 -11.73,11.32 -0.074,0.405 -0.342,0.868 -0.596,1.029 -0.702,0.446 -40.073,0.377 -40.911,-0.072 -0.566,-0.303 -0.752,-0.222 -0.954,0.414 -0.137,0.434 -0.574,1.113 -0.971,1.51 -0.396,0.396 -0.99,1.395 -1.32,2.22 -0.331,0.825 -0.752,1.5 -0.936,1.5 -0.185,0 -0.335,0.27 -0.335,0.6 0,0.33 -0.342,0.689 -0.759,0.798 -0.417,0.109 -0.714,0.422 -0.659,0.696 0.055,0.274 -0.2,0.719 -0.567,0.99 -0.552,0.407 0.87,0.451 8.279,0.257 11.788,-0.31 149.636,-0.314 158.24,-0.005 5.376,0.192 6.68,0.143 6.68,-0.254 -10e-4,-0.27 -0.158,-0.395 -0.35,-0.276 -0.192,0.118 -0.458,-0.126 -0.59,-0.543 -0.132,-0.416 -0.363,-0.758 -0.512,-0.758 -0.15,0 -0.682,-0.931 -1.183,-2.069 -0.501,-1.139 -1.06,-2.07 -1.242,-2.07 -0.434,0 -1.74,-1.574 -1.756,-2.117 -0.02,-0.676 -1.032,-1.375 -1.318,-0.911 -0.163,0.263 -4.941,0.394 -14.43,0.394 -13.531,0 -14.207,0.033 -14.633,0.715 -1.3,2.08 -8.353,3.703 -12.618,2.903 l -1.302,-0.244 -0.227,-4.244 c -0.317,-5.907 1.169,-21.856 2.267,-24.342 0.137,-0.31 0.275,-0.733 0.306,-0.94 0.031,-0.207 0.252,-0.853 0.492,-1.436 0.239,-0.582 0.435,-1.217 0.435,-1.411 0,-0.193 0.169,-0.352 0.376,-0.352 0.207,0 0.376,-0.169 0.376,-0.376 0,-0.523 -0.712,-0.424 -2.261,0.313 M 197.291,93.21 c 0.662,0.353 1.331,0.607 1.486,0.564 0.155,-0.042 0.282,0.101 0.282,0.319 0,0.218 0.508,0.573 1.129,0.789 0.621,0.217 1.129,0.535 1.129,0.708 0,0.173 0.319,0.415 0.708,0.539 0.389,0.123 1.057,0.516 1.484,0.872 0.427,0.356 1.311,1.061 1.964,1.566 4.205,3.254 4.416,4.323 1.112,5.635 -1.242,0.494 -2.26,0.999 -2.262,1.123 -0.003,0.124 -1.099,0.733 -2.437,1.354 -1.337,0.621 -2.436,1.256 -2.441,1.411 -0.016,0.488 -1.513,0.307 -1.554,-0.188 -0.021,-0.259 -0.072,-1.994 -0.113,-3.857 -0.073,-3.338 -1.508,-10.398 -2.168,-10.661 -0.451,-0.181 -0.388,-0.816 0.081,-0.816 0.218,0 0.937,0.289 1.6,0.642 m 81.172,13.563 c -0.003,0.466 0.164,0.847 0.37,0.847 0.472,0 0.472,-0.399 0,-1.129 -0.294,-0.456 -0.365,-0.402 -0.37,0.282 m -150.379,13.641 c 0.111,0.931 0.304,2.709 0.428,3.951 0.139,1.383 0.742,3.387 1.556,5.173 0.731,1.603 1.525,4.059 1.764,5.459 l 0.435,2.544 1.57,-0.333 c 2.544,-0.538 3.94,-0.06 6.197,2.122 4.272,4.129 12.992,6.661 22.965,6.668 l 5.521,0.004 0.198,2.352 c 0.785,9.28 0.997,15.584 0.991,29.445 -0.005,8.692 -0.18,19.084 -0.39,23.094 l -0.382,7.29 1.221,1.929 c 0.671,1.061 2.812,4.385 4.758,7.386 1.945,3.001 4.659,7.203 6.032,9.339 5.569,8.666 6.225,9.567 7.641,10.504 2.279,1.509 4.594,1.555 6.801,0.136 2.263,-1.453 2.243,-1.758 -0.131,-2.04 -4.522,-0.535 -5.518,-1.958 -5.575,-7.968 -0.067,-6.918 1.335,-11.313 4.337,-13.603 2.075,-1.583 2.481,-2.946 2.695,-9.053 l 0.188,-5.347 1.736,-0.862 1.736,-0.862 -0.014,-2.069 c -0.015,-2.188 -1.952,-6.839 -4.83,-11.597 -0.712,-1.176 -2.124,-3.662 -3.139,-5.525 -1.014,-1.862 -3.824,-6.889 -6.244,-11.17 -2.419,-4.281 -4.399,-7.88 -4.399,-7.996 0,-1.565 19.676,15.376 32.267,27.78 8.907,8.775 8.953,8.852 6.893,11.446 -2.17,2.734 -3.036,8.969 -3.036,21.864 0,10.971 0.079,10.78 -5.019,12.029 -3.591,0.88 -4.058,2.207 -1.116,3.172 6.654,2.182 8.502,4.442 6.919,8.459 -1.591,4.037 -0.992,4.637 3.271,3.275 3.715,-1.186 5.747,-1.185 8.306,0.007 2.396,1.115 2.44,1.121 1.988,0.278 -0.193,-0.362 -0.467,-1.426 -0.608,-2.363 -0.244,-1.631 -0.357,-1.758 -2.577,-2.91 -2.53,-1.313 -6.272,-4.378 -6.272,-5.139 0,-0.261 0.661,-0.673 1.47,-0.916 3.129,-0.937 5.183,-4.68 5.709,-10.403 0.609,-6.629 1.251,-8.466 2.957,-8.466 0.646,0 0.647,-0.104 0.035,-2.352 -1.052,-3.866 -0.781,-9.244 0.784,-15.522 0.365,-1.467 0.33,-1.553 -1.345,-3.351 -3.608,-3.873 -6.224,-10.856 -6.224,-16.615 0,-2.48 -0.381,-3.903 -0.983,-3.672 -2.246,0.862 -8.203,-5.424 -8.959,-9.454 -0.296,-1.576 -1.329,-1.725 -5.297,-0.767 -5.58,1.347 -9.823,0.043 -10.544,-3.24 -0.164,-0.748 -2.812,-3.492 -9.049,-9.382 -9.316,-8.795 -9.448,-8.971 -9.039,-12.053 l 0.247,-1.861 h -1.529 c -0.841,0 -2.572,0.438 -3.846,0.975 -7.272,3.06 -14.218,0.768 -14.218,-4.694 0,-3.601 -1.965,-4.251 -9.219,-3.047 -3.803,0.631 -12.316,0.286 -14.487,-0.587 -3.287,-1.322 -9.031,-7.037 -9.031,-8.986 0,-0.135 -0.521,-1.128 -1.158,-2.207 l -1.157,-1.962 0.201,1.693 m 125.605,8.511 c -5.484,2.808 -6.508,13.345 -1.931,19.879 0.818,1.168 1.488,2.167 1.488,2.22 0,0.054 -1.27,0.582 -2.823,1.174 -2.573,0.983 -2.822,1.169 -2.822,2.12 0,3.284 -3.177,6.359 -6.57,6.359 h -1.209 l -1.043,5.363 c -2.144,11.028 -2.141,21.436 0.008,28.082 l 1.019,3.154 -0.618,2.876 c -2.115,9.844 1.437,18.893 9.314,23.725 l 1.466,0.899 3.447,-3.545 c 6.583,-6.769 8.334,-10.463 8.727,-18.409 0.188,-3.783 0.416,-5.145 1.164,-6.961 0.76,-1.841 0.947,-2.993 1.017,-6.237 0.047,-2.188 0.186,-4.143 0.31,-4.343 0.124,-0.201 0.58,-2.559 1.013,-5.241 0.434,-2.681 1.037,-6.094 1.342,-7.583 1.568,-7.657 1.094,-31.429 -0.726,-36.444 -2.337,-6.437 -7.813,-9.525 -12.573,-7.088 M 166.51,279.61 c -2.133,0.746 -3.907,2.21 -3.938,3.25 -0.007,0.248 -0.31,0.617 -0.672,0.82 -0.554,0.31 -0.658,0.928 -0.658,3.903 0,2.864 0.125,3.659 0.658,4.192 0.362,0.362 0.659,0.871 0.659,1.131 0,0.59 1.584,2.108 2.2,2.108 0.251,0 0.549,0.239 0.661,0.531 0.112,0.292 1.377,0.916 2.811,1.386 1.433,0.47 2.606,0.993 2.606,1.162 0,0.169 0.179,0.308 0.397,0.308 1.041,0 3.667,1.553 3.858,2.282 0.264,1.011 -0.049,1.857 -0.689,1.857 -0.271,0 -0.563,0.212 -0.65,0.47 -0.23,0.69 -5.371,0.516 -6.093,-0.207 -0.302,-0.302 -1.107,-0.654 -1.79,-0.782 -0.683,-0.129 -1.734,-0.657 -2.335,-1.174 -1.902,-1.637 -2.105,-1.364 -2.105,2.822 0,3.094 0.1,3.763 0.564,3.763 0.311,0 0.565,0.179 0.565,0.398 0,0.219 0.169,0.294 0.376,0.166 0.207,-0.128 0.376,-0.069 0.376,0.131 0,2.478 14.875,2.42 17.256,-0.067 0.43,-0.449 1.099,-1.115 1.488,-1.479 2.108,-1.977 1.898,-11.943 -0.251,-11.943 -0.158,0 -0.785,-0.481 -1.394,-1.069 -0.608,-0.588 -1.953,-1.379 -2.988,-1.757 -1.034,-0.379 -2.148,-0.914 -2.475,-1.189 -0.327,-0.275 -0.779,-0.501 -1.004,-0.501 -2.564,0 -4.688,-2.372 -3.426,-3.828 0.785,-0.904 5.741,-1.244 6.285,-0.431 0.234,0.348 3.076,1.452 4.854,1.884 0.833,0.202 0.846,0.147 0.846,-3.361 v -3.566 l -2.728,-0.881 c -3.942,-1.273 -10.129,-1.427 -13.264,-0.329 m 32.229,-0.01 c -1.943,0.508 -3.113,1.062 -3.929,1.86 -0.639,0.625 -1.325,1.136 -1.524,1.136 -0.675,0 -3.18,3.141 -3.657,4.585 -0.261,0.79 -0.599,1.436 -0.753,1.436 -1.777,0 -1.37,10.944 0.482,12.959 0.369,0.401 0.67,0.922 0.67,1.158 0,0.564 3.113,3.945 3.633,3.945 0.222,0 0.829,0.425 1.348,0.944 2.763,2.764 17.23,3.292 19.327,0.707 0.228,-0.281 0.524,-0.4 0.659,-0.265 0.135,0.135 0.245,0.047 0.245,-0.194 0,-0.242 0.157,-0.439 0.35,-0.439 1.181,0 4.918,-3.721 4.918,-4.897 0,-0.204 0.146,-0.371 0.324,-0.371 0.866,0 1.934,-4.258 1.934,-7.714 0,-3.457 -1.068,-7.714 -1.934,-7.714 -0.178,0 -0.324,-0.247 -0.324,-0.548 0,-0.669 -3.892,-4.72 -4.536,-4.72 -0.253,0 -0.652,-0.261 -0.885,-0.58 -1.371,-1.875 -11.161,-2.647 -16.348,-1.288 m 107.376,-0.353 c -2.109,0.475 -4.693,1.472 -5.413,2.091 -2.722,2.339 -4.868,4.67 -5.313,5.774 -0.292,0.724 -0.765,1.555 -1.05,1.847 -0.285,0.291 -0.443,0.926 -0.35,1.411 0.092,0.485 0.004,0.881 -0.198,0.881 -1.027,0 -0.124,8.03 1.132,10.072 0.671,1.089 1.22,2.06 1.22,2.157 0,0.384 3.285,3.576 3.68,3.576 0.232,0 0.564,0.254 0.738,0.565 1.739,3.107 19.041,3.122 22.145,0.019 0.776,-0.776 0.762,-7.734 -0.016,-7.734 -0.3,0 -0.681,0.23 -0.846,0.51 -0.166,0.281 -1.19,0.802 -2.277,1.159 -1.086,0.357 -1.975,0.815 -1.975,1.017 0,0.203 -0.189,0.252 -0.419,0.11 -0.23,-0.142 -0.55,-0.044 -0.712,0.217 -0.473,0.765 -7.269,0.682 -8.05,-0.098 -0.334,-0.335 -0.987,-0.725 -1.452,-0.868 -1.467,-0.451 -3.979,-3.378 -4.246,-4.949 -0.133,-0.784 -0.382,-1.976 -0.553,-2.648 -0.172,-0.673 -0.175,-1.223 -0.008,-1.223 0.167,0 0.417,-0.599 0.554,-1.331 0.303,-1.615 2.838,-4.337 4.726,-5.074 0.724,-0.283 1.436,-0.69 1.581,-0.905 0.345,-0.51 7.428,-0.477 7.763,0.036 0.138,0.211 1.267,0.69 2.509,1.064 1.242,0.373 2.446,0.907 2.676,1.186 1.004,1.221 1.275,0.497 1.275,-3.397 v -3.906 l -1.035,-0.407 c -3.77,-1.482 -11.995,-2.071 -16.086,-1.152 m -260.583,0.315 c 0,0.521 0.759,2.425 1.058,2.65 0.142,0.108 0.47,0.747 0.729,1.419 0.259,0.673 0.682,1.774 0.941,2.446 0.258,0.673 0.57,1.308 0.691,1.411 0.122,0.104 0.687,1.416 1.256,2.917 0.569,1.5 1.169,2.728 1.334,2.728 0.165,0 0.384,0.381 0.487,0.846 0.324,1.465 1.575,4.59 2.032,5.075 0.24,0.255 0.805,1.567 1.253,2.916 0.449,1.348 0.972,2.451 1.162,2.451 0.19,0 0.346,0.212 0.347,0.471 10e-4,0.259 0.415,1.486 0.92,2.728 l 0.918,2.258 2.09,0.113 c 1.926,0.104 2.124,0.037 2.527,-0.847 0.241,-0.528 0.556,-0.96 0.702,-0.96 0.145,0 0.559,-0.936 0.919,-2.081 0.36,-1.145 0.857,-2.288 1.104,-2.54 0.431,-0.44 1.796,-3.678 2.295,-5.444 0.131,-0.466 0.372,-0.847 0.533,-0.847 0.162,0 0.698,-1.016 1.192,-2.258 0.493,-1.242 1.044,-2.258 1.225,-2.258 0.181,0 0.232,-0.254 0.113,-0.564 -0.125,-0.325 -0.008,-0.565 0.276,-0.565 0.271,0 0.694,0.67 0.939,1.489 0.245,0.818 0.653,1.707 0.906,1.975 0.603,0.638 1.778,3.19 1.778,3.86 0,0.289 0.219,0.749 0.488,1.022 0.268,0.274 0.88,1.471 1.36,2.661 0.48,1.19 1.018,2.164 1.194,2.164 0.176,0 0.217,0.271 0.09,0.602 -0.128,0.331 -0.062,0.712 0.146,0.847 0.208,0.134 0.735,1.057 1.171,2.051 l 0.793,1.806 2.147,-0.113 c 2.008,-0.106 2.171,-0.186 2.519,-1.235 0.205,-0.618 0.599,-1.349 0.877,-1.627 0.277,-0.277 0.504,-0.7 0.504,-0.94 0,-0.479 1.571,-4.477 1.877,-4.778 0.375,-0.368 1.509,-3.044 1.509,-3.561 0,-0.288 0.238,-0.762 0.528,-1.052 0.291,-0.291 0.783,-1.277 1.093,-2.191 0.725,-2.133 1.493,-3.869 1.817,-4.109 0.139,-0.103 0.625,-1.288 1.078,-2.633 0.453,-1.346 0.981,-2.543 1.174,-2.662 0.337,-0.209 2.212,-5.016 2.212,-5.672 0,-0.177 -1.911,-0.321 -4.246,-0.321 h -4.247 l -0.992,1.975 c -0.546,1.087 -1.298,2.738 -1.67,3.669 -0.373,0.932 -0.767,1.778 -0.876,1.882 -0.109,0.103 -0.41,0.738 -0.669,1.411 -0.258,0.672 -0.682,1.773 -0.94,2.446 -0.259,0.672 -0.682,1.446 -0.941,1.72 -0.259,0.273 -0.47,0.739 -0.47,1.035 0,0.882 -0.654,0.609 -0.901,-0.377 -0.126,-0.503 -0.441,-1.138 -0.699,-1.411 -0.61,-0.645 -1.787,-3.194 -1.787,-3.87 0,-0.288 -0.227,-0.751 -0.504,-1.028 -0.45,-0.45 -2.506,-5.163 -2.506,-5.745 0,-1.243 -1.489,-1.734 -4.93,-1.628 l -3.53,0.109 -0.732,2.07 c -0.403,1.138 -0.86,2.157 -1.015,2.265 -0.39,0.27 -1.835,3.697 -1.835,4.351 0,0.293 -0.179,0.533 -0.398,0.533 -0.219,0 -0.294,0.169 -0.166,0.376 0.128,0.207 0.078,0.377 -0.11,0.377 -0.188,0 -0.745,1.016 -1.238,2.257 -1.094,2.754 -1.554,2.824 -2.35,0.358 -0.338,-1.046 -0.86,-2.146 -1.16,-2.446 -0.3,-0.301 -0.813,-1.467 -1.14,-2.592 -0.327,-1.126 -0.847,-2.299 -1.156,-2.607 -0.308,-0.309 -0.56,-0.72 -0.56,-0.914 0,-0.194 -0.362,-1.222 -0.803,-2.285 l -0.803,-1.931 h -4.465 c -2.519,0 -4.465,0.153 -4.465,0.352 m 55.691,14.888 v 15.24 h 3.951 3.951 v -15.24 -15.24 h -3.951 -3.951 v 15.24 m 14.675,0 v 15.24 h 3.951 3.952 v -6.608 -6.608 l 1.411,1.655 c 0.776,0.911 1.919,2.304 2.54,3.096 0.621,0.791 1.489,1.821 1.928,2.288 0.44,0.467 1.179,1.38 1.641,2.03 0.462,0.649 1.33,1.716 1.928,2.371 0.598,0.655 1.088,1.322 1.088,1.483 0,0.161 2.455,0.293 5.456,0.293 4.928,0 6.475,-0.282 4.892,-0.889 -0.311,-0.119 -0.565,-0.461 -0.565,-0.76 0,-0.298 -0.508,-0.97 -1.128,-1.492 -0.621,-0.523 -1.129,-1.104 -1.129,-1.292 0,-0.189 -0.339,-0.649 -0.753,-1.024 -0.414,-0.374 -0.753,-0.835 -0.753,-1.023 0,-0.188 -0.508,-0.77 -1.128,-1.292 -0.621,-0.523 -1.129,-1.17 -1.129,-1.438 0,-0.268 -0.424,-0.765 -0.941,-1.104 -0.517,-0.339 -0.941,-0.855 -0.941,-1.146 0,-0.292 -0.508,-0.892 -1.129,-1.334 -0.621,-0.443 -1.129,-1.034 -1.129,-1.316 0,-0.281 -0.55,-0.949 -1.222,-1.485 l -1.223,-0.973 0.806,-0.653 c 0.443,-0.36 1.087,-1.212 1.43,-1.896 0.344,-0.683 0.87,-1.336 1.17,-1.451 0.3,-0.115 0.545,-0.367 0.545,-0.56 0,-0.384 1.29,-2.287 2.376,-3.506 0.376,-0.421 0.946,-1.317 1.266,-1.989 0.321,-0.673 0.728,-1.223 0.906,-1.223 0.296,0 1.472,-1.94 1.472,-2.427 0,-0.114 -1.94,-0.207 -4.312,-0.207 -4.466,0 -5.848,0.505 -5.848,2.137 0,0.27 -0.338,0.702 -0.752,0.96 -0.414,0.259 -0.753,0.625 -0.753,0.815 0,0.189 -0.423,0.899 -0.94,1.577 -0.518,0.679 -0.941,1.396 -0.941,1.595 0,0.199 -0.254,0.459 -0.565,0.578 -0.31,0.119 -0.564,0.447 -0.564,0.73 0,0.282 -0.57,1.092 -1.266,1.799 -0.696,0.707 -1.36,1.54 -1.475,1.85 -0.116,0.311 -0.223,-2.272 -0.24,-5.738 l -0.029,-6.303 h -3.952 -3.951 v 15.24 m 31.985,0 v 15.24 h 3.951 3.952 v -15.24 -15.24 h -3.952 -3.951 v 15.24 m 80.596,-4.045 c 0.123,11.551 0.595,14.769 2.168,14.769 0.218,0 0.397,0.222 0.397,0.494 0,0.492 1.769,2 2.404,2.05 0.184,0.014 0.438,0.191 0.564,0.392 1.961,3.118 16.312,2.465 19.949,-0.907 0.534,-0.495 1.117,-0.9 1.296,-0.9 0.18,0 0.229,-0.254 0.11,-0.565 -0.119,-0.31 -0.046,-0.564 0.161,-0.564 0.454,0 1.857,-3.151 1.857,-4.17 0,-0.397 0.169,-0.722 0.376,-0.722 0.242,0 0.376,-3.763 0.376,-10.536 V 279.21 h -4.139 -4.139 v 8.592 c 0,10.505 -0.308,12.435 -2.215,13.865 -0.748,0.562 -1.47,1.182 -1.604,1.377 -0.57,0.834 -5.348,0.451 -6.502,-0.521 -3.176,-2.675 -3.221,-2.874 -3.224,-14.188 l -0.002,-9.125 h -3.976 -3.976 l 0.119,11.195 m 36.055,4.045 v 15.24 h 4.14 4.139 v -6.021 -6.021 h 1.317 c 0.724,0 1.317,0.184 1.317,0.408 0,0.224 0.192,0.344 0.426,0.265 0.505,-0.168 2.584,1.572 2.584,2.162 0,0.226 0.332,0.767 0.739,1.202 0.406,0.436 1.085,1.781 1.509,2.988 0.424,1.207 0.929,2.248 1.122,2.313 0.193,0.065 0.264,0.345 0.157,0.623 -0.106,0.277 0.11,0.859 0.481,1.293 0.762,0.889 9.162,1.245 9.162,0.387 0,-0.722 -1.589,-4.115 -1.927,-4.115 -0.182,0 -0.33,-0.275 -0.33,-0.611 0,-0.779 -1.895,-5.062 -2.53,-5.719 -0.264,-0.273 -0.481,-0.687 -0.481,-0.92 0,-0.232 -0.436,-0.878 -0.968,-1.434 l -0.969,-1.011 1.525,-1.079 c 0.838,-0.594 1.471,-1.249 1.405,-1.456 -0.065,-0.206 0.132,-0.56 0.438,-0.786 0.932,-0.686 1.087,-5.852 0.233,-7.746 -0.747,-1.656 -2.609,-3.755 -2.992,-3.372 -0.128,0.128 -0.395,-0.055 -0.592,-0.407 -0.632,-1.13 -2.975,-1.419 -11.532,-1.421 l -8.373,-0.002 v 15.24 m 64.723,0 v 15.24 h 11.289 11.288 v -3.011 -3.01 h -7.337 -7.338 v -3.199 -3.198 h 6.773 6.774 v -3.01 -3.011 h -6.774 -6.773 v -3.01 -3.011 h 7.15 7.149 v -3.01 -3.01 h -11.101 -11.1 v 15.24 m -120.414,-8.503 c 0.103,0.145 0.823,0.65 1.599,1.121 0.776,0.472 1.411,0.973 1.411,1.113 0,0.141 0.429,0.718 0.953,1.283 1.981,2.137 2.011,7.802 0.053,9.914 -0.553,0.597 -1.006,1.2 -1.006,1.34 0,0.141 -0.635,0.641 -1.411,1.113 -0.776,0.472 -1.525,1.025 -1.664,1.229 -0.373,0.547 -6.438,0.479 -6.623,-0.074 -0.081,-0.245 -0.388,-0.446 -0.68,-0.446 -1.577,0 -4.673,-3.976 -4.673,-6.002 0,-0.631 -0.17,-1.148 -0.377,-1.148 -0.207,0 -0.376,-0.423 -0.376,-0.94 0,-0.518 0.169,-0.941 0.376,-0.941 0.207,0 0.377,-0.429 0.377,-0.953 0,-2.151 3.071,-6.197 4.704,-6.197 0.31,0 0.564,-0.158 0.564,-0.352 0,-0.72 6.263,-0.775 6.773,-0.06 m 70.298,0.344 c 1.379,1.378 1.326,4.208 -0.079,4.208 -0.298,0 -0.605,0.189 -0.682,0.42 -0.078,0.233 -1.354,0.508 -2.854,0.615 l -2.713,0.195 v -3.304 -3.303 l 2.791,0.211 c 2.087,0.158 2.979,0.399 3.537,0.958" />
    <path
       style="fill:#545454;fill-rule:evenodd;stroke:none"
       inkscape:connector-curvature="0"
       id="path1"
       d="m 246.95,118.064 -38.092,0.096 0.209,1.785 c 2.51,21.381 13.898,33.976 30.704,33.956 2.677,-0.003 7.04,-0.633 7.629,-1.102 0.214,-0.17 1.354,-0.586 2.534,-0.924 2.678,-0.768 2.865,-1.074 1.586,-2.588 -4.825,-5.71 -3.996,-16.973 1.501,-20.382 5.352,-3.32 11.525,0.104 13.947,7.735 1.845,5.813 2.075,28.241 0.38,37.019 -0.28,1.449 -0.788,4.325 -1.129,6.392 -0.342,2.067 -0.714,3.908 -0.828,4.093 -0.896,1.449 -0.737,10.671 0.218,12.658 2.198,4.573 0.676,25.964 -1.848,25.964 -1.577,0 -1.427,2.14 0.422,5.998 2.136,4.457 2.166,4.622 0.955,5.27 -1.913,1.023 -2.651,2.602 -2.691,5.759 -0.038,2.931 0.31,3.68 0.94,2.025 0.418,-1.1 2.225,-2.571 2.755,-2.244 0.214,0.133 0.283,0.068 0.153,-0.143 -0.265,-0.428 0.681,-1.363 1.774,-1.753 0.392,-0.14 0.603,-0.364 0.469,-0.497 -0.315,-0.316 0.866,-1.621 1.466,-1.621 0.494,0 2.433,-2.345 2.433,-2.942 0,-0.197 0.423,-0.636 0.94,-0.975 0.518,-0.339 0.941,-0.805 0.941,-1.036 0,-0.231 0.692,-1.2 1.539,-2.155 2.666,-3.006 3.146,-3.631 3.882,-5.053 0.395,-0.762 0.834,-1.386 0.975,-1.386 0.141,0 0.449,-0.423 0.685,-0.941 0.236,-0.517 0.67,-0.94 0.966,-0.94 0.352,0 0.469,-0.26 0.34,-0.753 -0.108,-0.414 -0.028,-0.752 0.178,-0.752 0.206,0 0.584,-0.506 0.84,-1.125 0.256,-0.618 0.614,-1.032 0.794,-0.921 0.181,0.112 0.236,-0.038 0.123,-0.332 -0.113,-0.295 0.064,-0.806 0.394,-1.135 0.33,-0.33 0.591,-0.692 0.581,-0.804 -0.033,-0.364 1.94,-4.082 2.421,-4.563 0.256,-0.257 0.683,-1.239 0.947,-2.184 0.264,-0.944 0.627,-1.626 0.806,-1.516 0.178,0.111 0.213,-0.091 0.076,-0.448 -0.192,-0.5 -0.103,-0.593 0.389,-0.405 0.526,0.202 0.573,0.123 0.267,-0.449 -0.205,-0.382 -0.251,-0.816 -0.103,-0.964 0.148,-0.148 0.292,-0.382 0.319,-0.52 0.225,-1.113 0.66,-1.875 1.022,-1.791 0.238,0.055 0.306,0.029 0.151,-0.058 -0.549,-0.307 -0.274,-1.224 0.376,-1.254 0.393,-0.017 0.469,-0.106 0.188,-0.219 -0.647,-0.261 -0.592,-1.129 0.088,-1.39 0.317,-0.122 0.462,-0.463 0.336,-0.793 -0.122,-0.318 -0.023,-0.578 0.22,-0.578 0.27,0 0.349,-0.292 0.203,-0.753 -0.257,-0.809 0.373,-1.064 0.696,-0.282 0.106,0.259 0.099,-0.083 -0.017,-0.759 -0.16,-0.93 -0.085,-1.198 0.307,-1.097 0.286,0.073 0.392,0.062 0.237,-0.024 -0.419,-0.235 -0.342,-1.896 0.1,-2.169 0.21,-0.13 0.269,-0.42 0.131,-0.644 -0.139,-0.224 0.041,-0.621 0.4,-0.884 0.525,-0.384 0.57,-0.628 0.232,-1.26 -0.34,-0.635 -0.31,-0.783 0.158,-0.783 0.682,0 0.711,-0.178 0.185,-1.159 -0.293,-0.549 -0.265,-0.782 0.112,-0.927 0.331,-0.127 0.452,-0.64 0.351,-1.5 -0.118,-1.012 -0.016,-1.306 0.453,-1.306 0.333,0 0.603,-0.296 0.6,-0.658 -0.005,-0.563 -0.059,-0.577 -0.37,-0.094 -0.272,0.419 -0.367,0.203 -0.371,-0.847 -0.004,-1.006 0.156,-1.411 0.559,-1.411 0.31,0 0.564,-0.169 0.564,-0.376 0,-0.207 -0.169,-0.377 -0.376,-0.377 -0.62,0 -0.448,-2.63 0.188,-2.874 0.651,-0.25 0.77,-1.265 0.148,-1.265 -0.506,0 -0.06,-6.891 0.46,-7.087 0.429,-0.162 0.438,-4.202 0.008,-4.202 -0.552,0 -0.915,-6.375 -0.398,-6.997 0.356,-0.429 0.321,-0.686 -0.166,-1.224 -0.667,-0.737 -0.856,-3.444 -0.24,-3.444 0.207,0 0.376,-0.169 0.376,-0.376 0,-0.207 -0.254,-0.376 -0.564,-0.376 -0.707,0 -0.791,-2.48 -0.094,-2.762 0.266,-0.107 0.167,-0.202 -0.23,-0.219 -0.573,-0.024 -0.672,-0.266 -0.547,-1.336 0.101,-0.86 -0.02,-1.372 -0.351,-1.5 -0.377,-0.144 -0.405,-0.377 -0.112,-0.926 0.512,-0.956 0.496,-1.18 -0.077,-1.066 -0.492,0.099 -0.511,-0.214 -0.082,-1.317 0.183,-0.47 0.072,-0.658 -0.389,-0.658 -0.501,0 -0.593,-0.211 -0.41,-0.941 0.13,-0.517 0.079,-0.941 -0.114,-0.941 -0.193,0 -0.465,-0.676 -0.604,-1.503 -0.14,-0.826 -0.416,-1.603 -0.613,-1.725 -0.197,-0.122 -0.256,-0.546 -0.13,-0.942 0.126,-0.397 0.075,-0.721 -0.113,-0.721 -0.704,0 -1.271,-1.923 -0.755,-2.559 0.409,-0.504 0.383,-0.556 -0.177,-0.346 -0.432,0.162 -0.659,0.065 -0.659,-0.281 0,-0.291 -0.149,-0.92 -0.331,-1.399 -0.182,-0.48 -0.348,-1 -0.368,-1.158 -0.021,-0.157 -0.3,-0.792 -0.62,-1.411 -0.32,-0.619 -0.45,-1.127 -0.289,-1.131 0.16,-0.003 0.081,-0.139 -0.177,-0.303 -0.258,-0.164 -0.506,-0.754 -0.553,-1.311 -0.046,-0.558 -0.216,-1.014 -0.378,-1.014 -0.161,0 -0.294,-0.219 -0.294,-0.488 0,-0.268 -0.263,-0.818 -0.585,-1.223 -0.321,-0.404 -1.125,-1.666 -1.787,-2.804 l -1.203,-2.07 -38.092,0.096 m -134.072,0.756 c -0.305,0.364 -1.059,1.761 -1.676,3.104 -0.616,1.343 -1.481,3.034 -1.92,3.758 -0.44,0.724 -0.791,1.402 -0.78,1.505 0.118,1.072 -1.087,3.763 -1.684,3.763 -0.769,0 -0.997,0.745 -0.233,0.765 0.275,0.007 0.181,0.231 -0.226,0.539 -0.383,0.29 -0.589,0.7 -0.459,0.912 0.414,0.668 -0.181,2.268 -0.76,2.046 -0.656,-0.251 -0.693,0.317 -0.063,0.947 0.318,0.318 0.341,0.552 0.071,0.733 -0.218,0.147 -0.414,0.606 -0.436,1.02 -0.058,1.093 -0.294,2.009 -0.593,2.309 -0.144,0.144 -0.262,0.657 -0.262,1.14 0,0.53 -0.224,0.878 -0.564,0.878 -0.642,0 -0.77,0.621 -0.17,0.821 0.662,0.221 -0.007,3.313 -0.725,3.348 -0.39,0.019 -0.441,0.098 -0.14,0.219 0.699,0.282 0.569,1.913 -0.188,2.36 -0.52,0.306 -0.555,0.456 -0.167,0.713 0.534,0.352 0.247,2.323 -0.337,2.323 -0.181,0 -0.228,0.737 -0.104,1.637 0.156,1.143 0.069,1.783 -0.29,2.117 -0.389,0.364 -0.483,1.467 -0.386,4.571 0.086,2.777 -0.004,4.092 -0.282,4.092 -0.547,0 -0.537,3.862 0.01,4.409 0.276,0.276 0.37,1.778 0.274,4.374 -0.095,2.564 -0.011,3.931 0.238,3.889 0.225,-0.039 0.36,0.68 0.324,1.721 -0.033,0.984 0.074,1.788 0.239,1.788 0.478,0 0.735,2.042 0.291,2.317 -0.265,0.164 -0.189,0.462 0.223,0.874 0.738,0.738 0.822,1.935 0.155,2.204 -0.281,0.113 -0.205,0.202 0.188,0.22 0.774,0.034 0.931,1.738 0.188,2.038 -0.281,0.113 -0.205,0.202 0.188,0.219 0.759,0.035 0.911,1.371 0.188,1.662 -0.281,0.114 -0.205,0.202 0.188,0.22 0.44,0.02 0.659,0.335 0.659,0.948 0,0.505 0.172,1.025 0.382,1.155 0.211,0.13 0.281,0.401 0.156,0.603 -0.124,0.202 -0.028,0.606 0.215,0.898 0.242,0.293 0.32,0.727 0.172,0.967 -0.148,0.239 -0.037,0.578 0.247,0.753 0.41,0.254 0.42,0.414 0.048,0.786 -0.644,0.644 -0.587,1.195 0.097,0.933 0.344,-0.132 0.564,-0.001 0.564,0.336 0,0.304 -0.169,0.553 -0.376,0.553 -0.207,0 -0.376,0.187 -0.376,0.416 0,0.229 0.265,0.315 0.589,0.191 0.452,-0.174 0.534,-0.052 0.351,0.524 -0.172,0.541 -0.066,0.75 0.377,0.75 0.444,0 0.549,0.21 0.376,0.753 -0.161,0.508 -0.067,0.752 0.288,0.752 0.686,0 1.55,2.689 0.978,3.042 -0.288,0.178 -0.284,0.326 0.011,0.508 0.229,0.142 0.417,0.138 0.417,-0.009 0,-0.146 0.43,0.543 0.955,1.531 0.526,0.989 0.877,1.876 0.781,1.972 -0.095,0.096 0.239,0.95 0.743,1.898 0.547,1.029 0.829,2.04 0.699,2.506 -0.177,0.635 -0.141,0.676 0.191,0.217 0.487,-0.674 1.68,0.553 1.356,1.396 -0.101,0.262 0.019,0.437 0.265,0.387 0.246,-0.049 0.506,0.292 0.577,0.757 0.071,0.466 0.256,0.847 0.41,0.847 0.155,0 0.662,0.677 1.127,1.505 0.465,0.828 0.724,1.505 0.576,1.505 -0.148,0 0.101,0.322 0.553,0.714 0.453,0.393 0.775,0.943 0.716,1.223 -0.058,0.28 0.105,0.467 0.364,0.415 0.385,-0.077 0.589,0.272 0.441,0.753 -0.016,0.052 0.661,0.842 1.505,1.756 0.844,0.914 1.535,1.972 1.535,2.352 0,0.379 0.254,0.69 0.564,0.69 0.517,0 0.737,0.459 0.6,1.25 -0.03,0.171 0.1,0.215 0.289,0.099 0.37,-0.229 3.815,3.598 3.815,4.238 0,0.213 1.096,1.287 2.435,2.386 1.34,1.099 2.626,2.452 2.857,3.007 0.232,0.554 0.956,1.27 1.61,1.59 0.653,0.32 1.761,1.094 2.462,1.72 0.701,0.626 1.393,1.138 1.539,1.138 0.145,0 0.458,0.423 0.693,0.94 0.236,0.518 0.693,0.941 1.017,0.941 0.858,0 2.814,1.549 2.82,2.235 0.005,0.417 0.09,0.456 0.295,0.133 0.205,-0.322 0.639,-0.126 1.499,0.678 0.666,0.622 1.216,0.996 1.223,0.83 0.007,-0.166 0.218,-0.047 0.47,0.263 0.252,0.311 1.221,0.968 2.152,1.461 2.655,1.406 5.268,3.105 5.268,3.425 0,0.399 2.241,1.296 3.081,1.233 0.375,-0.028 0.682,0.081 0.682,0.242 0,0.161 0.677,0.496 1.505,0.744 0.828,0.248 1.505,0.605 1.505,0.793 0,0.188 1.016,0.627 2.258,0.975 1.242,0.349 2.258,0.799 2.258,1.001 0,0.202 0.233,0.277 0.518,0.168 0.284,-0.109 0.924,0.012 1.421,0.27 0.496,0.258 1.11,0.4 1.363,0.315 0.254,-0.084 0.461,0.048 0.461,0.295 0,0.246 0.248,0.352 0.552,0.236 0.304,-0.117 0.638,-0.075 0.742,0.094 0.104,0.168 1.21,0.523 2.458,0.787 1.248,0.265 2.269,0.623 2.269,0.795 0,0.172 0.256,0.215 0.569,0.095 0.313,-0.121 0.779,-0.054 1.035,0.148 0.256,0.202 0.719,0.391 1.03,0.419 2.159,0.198 3.386,0.572 3.386,1.033 0,0.288 0.17,0.523 0.377,0.523 0.207,0 0.376,-0.169 0.376,-0.376 0,-0.637 1.444,-0.416 1.851,0.282 0.213,0.365 0.389,0.449 0.395,0.188 0.014,-0.554 1.517,-0.647 1.517,-0.094 0,0.245 5.205,0.376 14.863,0.376 9.659,0 14.864,-0.131 14.864,-0.376 0,-0.553 1.503,-0.46 1.517,0.094 0.006,0.261 0.182,0.177 0.395,-0.188 0.211,-0.362 0.808,-0.659 1.327,-0.659 0.534,0 0.844,0.164 0.712,0.377 -0.128,0.207 -0.071,0.376 0.126,0.376 0.197,0 0.447,-0.233 0.557,-0.517 0.109,-0.285 0.762,-0.628 1.451,-0.763 1.896,-0.37 2.331,-0.477 2.946,-0.721 0.31,-0.124 2.427,-0.68 4.704,-1.237 2.276,-0.556 4.263,-1.199 4.415,-1.427 0.181,-0.271 0.283,-0.219 0.294,0.15 0.013,0.436 0.106,0.411 0.41,-0.111 0.269,-0.463 0.636,-0.598 1.165,-0.43 0.45,0.143 0.679,0.096 0.55,-0.113 -0.245,-0.397 2.325,-1.309 2.823,-1.001 0.173,0.106 0.314,0.014 0.314,-0.205 0,-0.219 0.339,-0.398 0.753,-0.398 0.414,0 0.753,-0.158 0.753,-0.351 0,-0.193 0.338,-0.459 0.752,-0.59 1.114,-0.353 0.938,-0.656 -0.971,-1.668 -0.948,-0.503 -2.628,-1.914 -3.733,-3.135 -3.648,-4.032 -8.48,-5.617 -12.218,-4.009 -4.444,1.912 -6.762,0.989 -5.512,-2.194 2.017,-5.137 0.542,-7.318 -6.28,-9.282 l -2.185,-0.63 0.116,-1.369 c 0.115,-1.366 0.12,-1.37 2.836,-2.035 5.308,-1.301 5.16,-0.96 5.053,-11.614 -0.097,-9.609 -0.14,-9.782 -3.036,-12.179 -2.248,-1.86 -4.637,-2.771 -6.738,-2.569 -2.93,0.282 -7.141,-1.277 -8.811,-3.263 l -0.934,-1.11 -0.203,4.389 c -0.231,5.022 -1.02,7.242 -3.047,8.57 -2.868,1.88 -4.382,7.832 -3.85,15.133 0.323,4.442 1.145,5.319 4.986,5.326 2.632,0.005 3.066,0.847 1.175,2.283 -3.033,2.305 -5.48,2.536 -8.251,0.778 -1.77,-1.123 -1.741,-1.083 -9.921,-13.781 -2.069,-3.213 -5.163,-7.999 -6.875,-10.636 l -3.112,-4.794 0.29,-6.397 c 0.499,-11.007 0.348,-41.411 -0.244,-48.946 l -0.533,-6.801 -5.676,-0.011 c -9.578,-0.019 -20.869,-3.416 -22.926,-6.899 -0.914,-1.547 -3.061,-2.285 -5.273,-1.813 -2.401,0.512 -2.876,0.267 -2.876,-1.49 0,-1.899 -0.96,-5.134 -2.121,-7.142 -0.677,-1.172 -1.026,-2.545 -1.289,-5.08 -0.198,-1.911 -0.451,-4.024 -0.562,-4.697 l -0.201,-1.223 h -6.861 c -6.092,0 -6.922,0.074 -7.414,0.664 m 124.751,42.566 c -2.124,1.035 -5.207,4.607 -7.135,8.267 -1.019,1.935 -2.35,4.05 -2.957,4.699 -2.8,2.998 0.72,17.031 5.437,21.674 l 1.903,1.873 -0.822,3.496 c -1.232,5.239 -1.422,11.175 -0.451,14.023 0.861,2.524 0.803,2.832 -0.532,2.832 -1.352,0 -1.946,1.734 -2.41,7.036 -0.579,6.609 -2.936,11.003 -6.235,11.622 l -1.32,0.247 1.24,1.211 c 1.447,1.412 4.301,3.392 6.043,4.192 0.67,0.308 1.794,0.976 2.497,1.485 2.759,1.994 4.651,0.859 6.616,-3.968 1.101,-2.704 1.671,-3.547 3.691,-5.456 2.688,-2.54 3.753,-3.923 5.437,-7.064 l 1.165,-2.172 -1.984,-1.269 c -7.846,-5.019 -11.273,-13.614 -9.376,-23.517 l 0.619,-3.231 -1.07,-3.575 c -0.982,-3.282 -1.082,-4.175 -1.216,-10.912 -0.147,-7.387 -0.02,-8.903 1.423,-17.071 0.914,-5.177 0.918,-5.144 -0.563,-4.422 M 196.99,265.663 c -0.147,0.238 0.756,0.377 2.446,0.377 1.689,0 2.592,-0.139 2.445,-0.377 -0.127,-0.207 -1.228,-0.376 -2.445,-0.376 -1.218,0 -2.318,0.169 -2.446,0.376" />
    <path
       style="fill:#848484;fill-rule:evenodd;stroke:none"
       inkscape:connector-curvature="0"
       id="path2"
       d="m 189.543,67.733 c 0.176,0.672 0.011,0.752 -1.541,0.752 -0.955,0 -1.737,-0.169 -1.737,-0.376 0,-0.207 -0.164,-0.376 -0.364,-0.376 -0.201,0 -0.267,0.254 -0.148,0.564 0.168,0.438 -0.089,0.565 -1.141,0.565 -0.746,0 -1.357,-0.17 -1.357,-0.377 0,-0.207 -0.164,-0.376 -0.365,-0.376 -0.2,0 -0.267,0.254 -0.147,0.565 0.134,0.349 -0.014,0.582 -0.389,0.611 -0.332,0.026 -0.901,0.071 -1.263,0.1 -0.362,0.029 -0.87,0.187 -1.129,0.351 -0.258,0.165 -0.647,0.19 -0.863,0.056 -0.216,-0.133 -0.637,-0.04 -0.936,0.208 -0.298,0.248 -0.794,0.355 -1.1,0.237 -0.307,-0.117 -0.666,-0.038 -0.798,0.177 -0.133,0.215 -0.647,0.289 -1.141,0.164 -0.495,-0.124 -0.9,-0.072 -0.9,0.115 0,0.188 -1.101,0.549 -2.446,0.803 -1.345,0.254 -2.446,0.596 -2.446,0.76 0,0.164 -0.339,0.21 -0.753,0.101 -0.437,-0.114 -0.752,-0.011 -0.752,0.246 0,0.243 -0.169,0.338 -0.376,0.21 -0.207,-0.128 -0.377,-0.035 -0.377,0.207 0,0.28 -0.339,0.354 -0.94,0.203 -0.543,-0.136 -0.941,-0.074 -0.941,0.147 0,0.211 -0.318,0.384 -0.707,0.384 -0.388,0 -0.902,0.236 -1.142,0.525 -0.24,0.289 -0.749,0.444 -1.13,0.344 -0.382,-0.1 -0.921,0.062 -1.198,0.358 -0.278,0.297 -0.832,0.454 -1.233,0.35 -0.45,-0.118 -0.635,-0.04 -0.484,0.205 0.136,0.22 -0.171,0.499 -0.694,0.63 -0.516,0.13 -0.938,0.412 -0.938,0.627 0,0.215 -0.169,0.287 -0.376,0.159 -0.207,-0.128 -0.377,-0.059 -0.377,0.154 0,0.213 -0.232,0.298 -0.516,0.189 -0.283,-0.109 -0.75,0.037 -1.038,0.324 -0.287,0.287 -0.745,0.448 -1.019,0.357 -0.273,-0.091 -0.754,0.202 -1.069,0.652 -0.315,0.45 -0.937,0.976 -1.381,1.169 -0.915,0.398 -1.892,0.993 -3.201,1.948 -0.492,0.359 -1.027,0.572 -1.188,0.472 -0.161,-0.099 -0.396,0.09 -0.523,0.421 -0.127,0.33 -0.469,0.509 -0.761,0.398 -0.292,-0.112 -0.623,0.039 -0.738,0.337 -0.114,0.297 -0.448,0.54 -0.743,0.54 -0.295,0 -0.638,0.265 -0.762,0.589 -0.124,0.323 -0.388,0.488 -0.586,0.365 -0.198,-0.122 -0.543,0.121 -0.768,0.541 -0.225,0.42 -0.632,0.763 -0.905,0.763 -0.273,0 -0.953,0.424 -1.511,0.941 -0.558,0.517 -1.135,0.941 -1.282,0.941 -0.147,0 -0.769,0.465 -1.384,1.034 -0.615,0.57 -1.248,0.993 -1.407,0.941 -0.16,-0.052 -0.29,0.062 -0.29,0.253 0,0.581 -2.296,2.684 -2.675,2.45 -0.195,-0.12 -0.308,-0.068 -0.251,0.116 0.113,0.363 -2.297,2.92 -2.752,2.92 -0.389,0 -3.731,3.427 -3.724,3.819 0.004,0.176 -0.716,0.956 -1.599,1.733 -0.883,0.778 -1.308,1.31 -0.946,1.183 0.442,-0.155 0.299,0.155 -0.433,0.938 -0.601,0.643 -1.238,1.17 -1.417,1.17 -0.179,0 -0.618,0.677 -0.977,1.505 -0.358,0.828 -0.822,1.505 -1.029,1.505 -0.208,0 -0.378,0.169 -0.378,0.376 0,0.246 6.949,0.377 20.095,0.377 h 20.094 l 0.468,-1.952 c 1.505,-6.273 5.473,-10.191 10.38,-10.247 1.522,-0.017 2.769,-0.158 2.771,-0.313 0.001,-0.155 0.484,-0.282 1.074,-0.282 1.252,0 1.508,-0.205 7.224,-5.754 6.457,-6.27 6.928,-6.554 8.681,-5.238 0.493,0.37 1.401,0.892 2.016,1.159 0.923,0.401 6.655,4.124 12.02,7.807 1.383,0.95 1.134,1.096 6.378,-3.74 4.703,-4.339 6.399,-5.007 8.181,-3.225 l 0.793,0.793 1.747,-1.688 c 2.8,-2.705 5.332,-3.811 8.709,-3.804 1.552,0.003 2.906,-0.09 3.01,-0.208 0.103,-0.117 0.611,-0.458 1.129,-0.757 7.054,-4.079 8.746,-3.901 10.122,1.062 0.903,3.258 1.37,3.93 2.573,3.7 1.206,-0.231 2.515,1.536 3.764,5.078 1.097,3.112 1.46,15.014 0.511,16.787 l -0.44,0.822 h 13.925 c 12.222,0 13.897,-0.069 13.707,-0.565 -0.119,-0.31 -0.368,-0.564 -0.552,-0.564 -0.185,0 -0.336,-0.17 -0.336,-0.377 0,-0.207 -0.255,-0.672 -0.567,-1.034 -0.94,-1.093 -4.335,-5.142 -4.719,-5.629 -0.197,-0.25 -0.36,-0.589 -0.361,-0.753 -0.002,-0.164 -0.595,-0.701 -1.318,-1.193 -0.724,-0.493 -2.841,-2.499 -4.705,-4.459 -3.798,-3.992 -6.745,-6.558 -7.206,-6.273 -0.169,0.104 -0.997,-0.514 -1.84,-1.374 -0.843,-0.861 -1.621,-1.476 -1.729,-1.368 -0.108,0.107 -0.52,-0.129 -0.917,-0.526 -0.397,-0.396 -0.985,-0.721 -1.308,-0.721 -0.322,0 -0.482,-0.169 -0.354,-0.376 0.128,-0.207 -0.116,-0.376 -0.542,-0.376 -0.426,0 -0.775,-0.17 -0.775,-0.377 0,-0.207 -0.339,-0.376 -0.753,-0.376 -0.413,0 -0.752,-0.135 -0.752,-0.301 0,-0.165 -0.593,-0.515 -1.317,-0.777 -0.725,-0.262 -1.317,-0.719 -1.317,-1.016 0,-0.297 -0.169,-0.561 -0.376,-0.587 -1.271,-0.159 -3.019,-1.141 -2.764,-1.554 0.133,-0.215 -0.1,-0.258 -0.576,-0.107 -0.446,0.141 -0.8,0.09 -0.8,-0.117 0,-0.204 -0.804,-0.674 -1.787,-1.045 -0.983,-0.37 -2.012,-0.935 -2.286,-1.254 -0.274,-0.319 -0.391,-0.368 -0.26,-0.109 0.332,0.654 -0.119,0.587 -0.83,-0.124 -0.326,-0.326 -0.869,-0.521 -1.207,-0.433 -0.337,0.088 -0.827,-0.068 -1.087,-0.347 -0.261,-0.279 -0.891,-0.507 -1.4,-0.507 -0.51,0 -0.926,-0.188 -0.926,-0.417 0,-0.229 -0.242,-0.324 -0.537,-0.211 -0.296,0.114 -0.749,-0.049 -1.009,-0.362 -0.259,-0.312 -0.779,-0.487 -1.156,-0.389 -0.376,0.098 -0.773,0.035 -0.882,-0.14 -0.108,-0.176 -0.955,-0.433 -1.881,-0.572 -0.927,-0.139 -1.685,-0.413 -1.685,-0.608 0,-0.196 -0.165,-0.254 -0.368,-0.129 -0.202,0.125 -1.091,0.021 -1.975,-0.23 -0.884,-0.252 -1.904,-0.418 -2.266,-0.37 -0.363,0.049 -0.659,-0.11 -0.659,-0.353 0,-0.279 -0.336,-0.356 -0.918,-0.21 -0.944,0.237 -1.718,-0.325 -0.872,-0.632 0.26,-0.095 -0.359,-0.084 -1.376,0.023 -1.607,0.17 -1.818,0.115 -1.611,-0.425 0.131,-0.341 0.074,-0.62 -0.127,-0.62 -0.2,0 -0.364,0.169 -0.364,0.376 0,0.207 -0.599,0.377 -1.33,0.377 -1.209,0 -1.294,-0.068 -0.932,-0.744 0.324,-0.607 0.292,-0.704 -0.175,-0.525 -0.316,0.121 -0.573,0.372 -0.573,0.556 0,0.185 -0.762,0.336 -1.694,0.336 -1.254,0 -1.693,-0.146 -1.693,-0.564 0,-0.681 -1.001,-0.758 -1.225,-0.094 -0.125,0.372 -0.274,0.374 -0.718,0.008 -0.386,-0.318 -1.326,-0.391 -3.019,-0.233 -1.653,0.155 -2.545,0.09 -2.722,-0.196 -0.349,-0.566 -3.981,-0.564 -3.981,0.003 0,0.302 -0.729,0.353 -2.484,0.173 -1.754,-0.179 -2.65,-0.117 -3.047,0.213 -0.458,0.379 -0.63,0.347 -0.921,-0.174 -0.511,-0.913 -1.429,-0.827 -1.183,0.112 m -76.572,50.49 c -0.252,0.253 -0.454,0.638 -0.448,0.855 0.006,0.217 0.184,0.099 0.395,-0.263 0.343,-0.59 1.11,-0.659 7.299,-0.659 6.261,0 6.933,0.062 7.109,0.659 0.151,0.512 0.177,0.491 0.117,-0.094 -0.095,-0.927 -13.579,-1.39 -14.472,-0.498 m 55.866,-0.161 -40.194,0.098 0.251,0.845 c 1.353,4.548 5.947,10.197 9.77,12.012 l 2.634,1.25 6.397,-0.023 c 3.519,-0.013 6.99,-0.197 7.714,-0.41 4.12,-1.209 7.677,0.354 8.09,3.554 0.707,5.486 6.268,7.328 13.317,4.411 4.527,-1.874 6.537,-1.319 6.179,1.703 -0.35,2.951 0.949,4.512 11.925,14.326 3.906,3.493 5.609,5.338 5.822,6.309 0.666,3.031 4.372,4.447 8.817,3.367 6.162,-1.496 6.773,-1.36 7.592,1.681 1.068,3.967 5.162,8.351 7.731,8.278 1.105,-0.031 1.243,0.085 1.377,1.151 l 0.149,1.185 0.06,-1.183 c 0.037,-0.716 0.478,-1.63 1.117,-2.314 0.58,-0.622 1.89,-2.714 2.909,-4.649 2.696,-5.118 8.365,-10.522 8.497,-8.1 0.032,0.595 0.11,0.51 0.285,-0.311 0.221,-1.039 0.392,-1.144 2.141,-1.321 3.133,-0.316 5.098,-2.175 5.63,-5.327 0.134,-0.793 0.525,-1.606 0.869,-1.807 0.344,-0.201 0.448,-0.37 0.231,-0.377 -0.218,-0.006 -0.556,0.148 -0.753,0.343 -0.502,0.498 -4.796,1.145 -7.623,1.148 -16.806,0.02 -28.194,-12.575 -30.704,-33.956 l -0.209,-1.785 38.092,-0.098 38.092,-0.098 h -38.005 c -20.903,0.001 -56.093,0.044 -78.2,0.098 m 116.393,0 c 0,0.603 1.065,1.79 1.349,1.505 0.155,-0.155 0.085,-0.282 -0.157,-0.282 -0.241,0 -0.439,-0.244 -0.439,-0.542 0,-0.298 -0.169,-0.647 -0.376,-0.775 -0.207,-0.128 -0.377,-0.086 -0.377,0.094 m 1.778,3.31 c 0.637,1.336 1.015,1.581 1.421,0.923 0.128,-0.207 0.065,-0.376 -0.141,-0.376 -0.205,0 -0.475,-0.323 -0.601,-0.718 -0.125,-0.395 -0.469,-0.81 -0.763,-0.923 -0.436,-0.167 -0.421,0.036 0.084,1.094 m 2.362,5.063 c 0,0.207 0.197,0.376 0.439,0.376 0.241,0 0.333,0.106 0.203,0.236 -0.13,0.129 0.015,0.72 0.321,1.313 0.306,0.592 0.541,1.202 0.521,1.354 -0.019,0.152 0.189,0.336 0.463,0.409 0.307,0.081 0.354,0.012 0.122,-0.179 -0.383,-0.317 -0.648,-1.066 -0.675,-1.91 -0.008,-0.259 -0.156,-0.471 -0.328,-0.471 -0.173,0 -0.294,-0.126 -0.269,-0.282 0.109,-0.69 -0.075,-1.223 -0.421,-1.223 -0.207,0 -0.376,0.17 -0.376,0.377 m -181.188,1.04 c -0.347,0.254 -1.315,2.623 -1.315,3.22 0,0.903 0.705,-0.043 1.211,-1.626 0.331,-1.035 0.575,-1.879 0.542,-1.876 -0.033,0.003 -0.23,0.13 -0.438,0.282 m 183.417,3.896 c 0.19,0.233 0.25,0.699 0.132,1.036 -0.175,0.5 -0.12,0.526 0.295,0.14 0.427,-0.396 0.406,-0.565 -0.131,-1.036 -0.353,-0.31 -0.486,-0.373 -0.296,-0.14 m 0.626,1.784 c -0.266,0.43 0.506,2.311 0.948,2.311 0.163,0 0.111,-0.551 -0.116,-1.223 -0.507,-1.503 -0.545,-1.553 -0.832,-1.088 m -160.899,3.229 c 0,0.712 0.131,1.375 0.29,1.474 0.159,0.098 0.225,-0.485 0.148,-1.295 -0.173,-1.82 -0.438,-1.928 -0.438,-0.179 m -26.842,0.085 c -0.457,0.457 -0.26,0.858 0.314,0.638 0.31,-0.119 0.564,-0.368 0.564,-0.553 0,-0.394 -0.518,-0.445 -0.878,-0.085 m -0.09,1.542 c -0.222,0.152 -0.4,0.737 -0.395,1.299 0.008,0.994 0.302,1.115 0.46,0.19 0.043,-0.253 0.197,-0.756 0.343,-1.118 0.288,-0.718 0.208,-0.792 -0.408,-0.371 m -1.29,3.664 c -0.383,0.462 -0.358,0.564 0.142,0.564 0.336,0 0.611,-0.254 0.611,-0.564 0,-0.311 -0.064,-0.565 -0.142,-0.565 -0.078,0 -0.353,0.254 -0.611,0.565 m 191.534,0 c 0,0.31 0.296,0.551 0.658,0.534 0.398,-0.018 0.471,-0.105 0.186,-0.22 -0.26,-0.105 -0.377,-0.345 -0.26,-0.535 0.117,-0.189 0.033,-0.344 -0.186,-0.344 -0.219,0 -0.398,0.254 -0.398,0.565 m -192.422,4.139 c -0.132,0.344 -10e-4,0.564 0.336,0.564 0.304,0 0.552,-0.254 0.552,-0.564 0,-0.311 -0.151,-0.565 -0.336,-0.565 -0.184,0 -0.433,0.254 -0.552,0.565 m 59.127,0.837 c 0.676,0.084 1.692,0.082 2.257,-0.004 0.566,-0.086 0.012,-0.154 -1.229,-0.152 -1.242,0.002 -1.705,0.072 -1.028,0.156 m 107.099,4.243 c 0,2.587 0.06,3.645 0.134,2.352 0.073,-1.294 0.073,-3.411 0,-4.704 -0.074,-1.294 -0.134,-0.235 -0.134,2.352 m -166.283,-3.771 c 0.125,0.203 0.034,0.73 -0.203,1.172 -0.344,0.644 -0.328,0.771 0.077,0.638 0.623,-0.205 0.914,-2.179 0.322,-2.179 -0.233,0 -0.321,0.166 -0.196,0.369 m 66.147,2.642 c 0,0.931 0.073,1.312 0.163,0.846 0.089,-0.465 0.089,-1.227 0,-1.693 -0.09,-0.466 -0.163,-0.085 -0.163,0.847 m -66.787,1.129 c -0.193,1.313 0.262,1.528 0.596,0.282 0.31,-1.157 0.292,-1.411 -0.097,-1.411 -0.183,0 -0.408,0.508 -0.499,1.129 m 67.155,3.198 c 0.005,0.828 0.082,1.122 0.172,0.654 0.09,-0.468 0.086,-1.145 -0.008,-1.505 -0.094,-0.36 -0.168,0.023 -0.164,0.851 m -67.395,-0.125 c -0.031,0.553 -0.153,1.315 -0.273,1.694 -0.204,0.651 -0.193,0.652 0.213,0.021 0.235,-0.368 0.358,-1.13 0.273,-1.693 l -0.156,-1.026 -0.057,1.004 m 195.617,0.756 c 0,0.534 0.282,1.203 0.626,1.487 0.568,0.468 0.601,0.41 0.35,-0.613 -0.383,-1.558 -0.976,-2.09 -0.976,-0.874 m 0.566,2.94 c -0.362,0.587 0.246,6.777 0.666,6.777 0.244,0 0.274,-1.027 0.084,-2.916 -0.161,-1.604 -0.305,-3.213 -0.321,-3.575 -0.032,-0.756 -0.107,-0.806 -0.429,-0.286 m -128.399,3.579 c 0.003,1.035 0.076,1.413 0.163,0.841 0.086,-0.572 0.084,-1.418 -0.005,-1.881 -0.09,-0.463 -0.16,0.005 -0.158,1.04 m -68.963,1.035 c -0.003,1.195 0.162,2.163 0.37,2.163 0.482,0 0.482,-3.017 0,-3.763 -0.259,-0.4 -0.366,0.064 -0.37,1.6 m 83.155,-1.329 c 0,0.169 0.396,0.897 0.879,1.618 0.484,0.72 1.712,2.834 2.729,4.696 1.016,1.863 2.018,3.668 2.224,4.012 0.207,0.343 1.439,2.544 2.737,4.891 1.297,2.347 2.956,5.284 3.685,6.525 6.138,10.455 7.114,14.941 3.61,16.587 -1.901,0.892 -1.939,0.999 -1.857,5.239 l 0.072,3.762 0.124,-3.492 0.125,-3.493 0.973,1.158 c 1.709,2.03 5.891,3.594 8.851,3.309 2.101,-0.202 4.49,0.709 6.738,2.569 2.834,2.346 2.958,2.768 3.084,10.486 l 0.111,6.773 0.063,-8.278 c 0.09,-11.739 0.965,-16.676 3.509,-19.805 0.522,-0.642 0.72,-1.255 0.564,-1.747 -0.302,-0.952 -12.979,-13.416 -19.971,-19.636 -2.897,-2.577 -5.46,-4.863 -5.696,-5.079 -4.345,-3.998 -12.554,-10.599 -12.554,-10.095 m 84.768,1.987 c 0,0.931 0.074,1.312 0.164,0.847 0.089,-0.466 0.089,-1.228 0,-1.694 -0.09,-0.465 -0.164,-0.084 -0.164,0.847 m -167.929,7.316 c 0,0.943 0.169,1.715 0.376,1.715 0.207,0 0.377,-0.667 0.377,-1.483 0,-0.815 -0.17,-1.587 -0.377,-1.715 -0.229,-0.142 -0.376,0.435 -0.376,1.483 m 197.551,-0.637 c -10e-4,0.569 -0.11,2.178 -0.242,3.575 -0.134,1.422 -0.092,2.54 0.097,2.54 0.185,0 0.363,-0.466 0.396,-1.035 0.032,-0.569 0.183,-2.178 0.334,-3.575 0.195,-1.807 0.15,-2.54 -0.154,-2.54 -0.235,0 -0.429,0.466 -0.431,1.035 m -60.485,2.54 c 0.004,0.828 0.081,1.122 0.171,0.654 0.09,-0.468 0.087,-1.145 -0.008,-1.505 -0.094,-0.36 -0.167,0.023 -0.163,0.851 m -0.376,3.011 c 0.004,0.827 0.081,1.122 0.171,0.654 0.09,-0.468 0.086,-1.146 -0.008,-1.505 -0.094,-0.36 -0.168,0.023 -0.163,0.851 m -135.689,2.897 c 0.316,1.664 0.504,1.807 0.504,0.386 0,-0.643 -0.167,-1.272 -0.37,-1.398 -0.232,-0.144 -0.282,0.236 -0.134,1.012 m 196.051,-0.953 c -0.405,0.405 -0.287,1.697 0.132,1.438 0.21,-0.13 0.285,-0.394 0.166,-0.586 -0.119,-0.193 -0.037,-0.35 0.182,-0.35 0.219,0 0.398,-0.17 0.398,-0.377 0,-0.428 -0.503,-0.5 -0.878,-0.125 m -195.689,4.547 c 0.273,1.136 0.438,1.429 0.673,1.191 0.277,-0.28 -0.232,-2.226 -0.582,-2.226 -0.187,0 -0.228,0.466 -0.091,1.035 m 195.062,-0.471 c 0,0.311 0.254,0.565 0.565,0.565 0.31,0 0.564,-0.254 0.564,-0.565 0,-0.31 -0.254,-0.564 -0.564,-0.564 -0.311,0 -0.565,0.254 -0.565,0.564 m -194.558,3.348 c 0.188,0.496 0.241,1.004 0.116,1.129 -0.125,0.125 -0.029,0.227 0.212,0.227 0.242,0 0.439,-0.24 0.439,-0.534 0,-0.808 -0.416,-1.724 -0.783,-1.724 -0.181,0 -0.173,0.405 0.016,0.902 m 0.255,2.297 c 0.119,0.31 0.368,0.564 0.552,0.564 0.185,0 0.336,-0.254 0.336,-0.564 0,-0.311 -0.248,-0.565 -0.552,-0.565 -0.337,0 -0.468,0.221 -0.336,0.565 m 134.568,0.752 c 0.004,0.828 0.081,1.123 0.171,0.654 0.09,-0.468 0.086,-1.145 -0.008,-1.505 -0.094,-0.36 -0.168,0.023 -0.163,0.851 m -8.347,1.505 c 0,0.207 0.242,0.8 0.538,1.318 0.295,0.517 0.537,0.771 0.537,0.564 0,-0.207 -0.242,-0.8 -0.537,-1.317 -0.296,-0.517 -0.538,-0.771 -0.538,-0.565 m 8.654,0.973 c 0.015,0.5 0.18,1.248 0.368,1.662 0.237,0.524 0.271,0.296 0.112,-0.753 -0.266,-1.747 -0.518,-2.224 -0.48,-0.909 m -68.015,3.731 c 0,1.345 0.069,1.896 0.152,1.223 0.083,-0.673 0.083,-1.773 0,-2.446 -0.083,-0.672 -0.152,-0.122 -0.152,1.223 m -65.219,0.102 c 0,0.314 0.254,0.668 0.564,0.787 0.311,0.119 0.565,0.073 0.565,-0.102 0,-0.175 -0.254,-0.529 -0.565,-0.787 -0.459,-0.381 -0.564,-0.362 -0.564,0.102 m 159.794,2.293 c -0.434,1.203 -0.809,3.708 -0.996,6.636 -0.409,6.423 -0.813,7.93 -3.178,11.843 -2.268,3.753 -8.879,10.577 -9.877,10.197 -0.504,-0.192 -0.572,-0.149 -0.261,0.165 0.874,0.881 -2.5,6.149 -6.145,9.592 -2.02,1.909 -2.59,2.752 -3.691,5.456 -2.161,5.308 -4.315,6.22 -7.666,3.246 l -0.901,-0.8 0.591,0.941 c 0.325,0.517 0.714,1.618 0.865,2.446 0.622,3.401 3.473,7.156 6.739,8.874 1.255,0.66 1.682,1.09 1.56,1.568 -0.196,0.765 0.336,0.884 0.777,0.173 0.428,-0.691 4.252,-0.391 4.252,0.334 0,0.29 0.356,0.528 0.793,0.528 0.572,0 0.728,-0.168 0.561,-0.603 -0.195,-0.508 0.033,-0.581 1.465,-0.467 0.933,0.074 1.696,0.006 1.696,-0.15 0,-0.157 0.311,-0.285 0.69,-0.285 0.379,0 0.807,-0.118 0.95,-0.261 0.144,-0.143 0.63,-0.317 1.082,-0.386 0.451,-0.069 0.912,-0.263 1.025,-0.432 0.112,-0.17 1.644,-1.054 3.403,-1.967 1.759,-0.912 3.334,-1.87 3.499,-2.128 0.166,-0.259 0.454,-0.471 0.642,-0.471 1.125,0 3.385,-3.359 3.385,-5.031 0,-1.087 -0.115,-1.265 -0.714,-1.109 -0.933,0.244 -2.397,-0.542 -2.052,-1.101 0.147,-0.237 0.283,-1.71 0.303,-3.274 0.039,-3.078 0.793,-4.671 2.69,-5.686 1.211,-0.648 1.181,-0.813 -0.955,-5.27 -1.849,-3.858 -1.999,-5.998 -0.422,-5.998 2.634,0 4.037,-21.452 1.714,-26.204 l -1.129,-2.309 -0.695,1.933 m -159.418,-0.137 c 0,0.207 0.254,0.376 0.565,0.376 0.31,0 0.564,-0.169 0.564,-0.376 0,-0.207 -0.254,-0.376 -0.564,-0.376 -0.311,0 -0.565,0.169 -0.565,0.376 m 129.5,0.941 c 0.341,0.414 0.703,1.091 0.804,1.505 0.176,0.724 0.185,0.722 0.226,-0.036 0.025,-0.434 -0.337,-1.111 -0.803,-1.505 -0.839,-0.711 -0.841,-0.711 -0.227,0.036 m 58.741,1.588 c -0.534,0.19 -0.648,1.234 -0.134,1.234 0.317,0 0.929,-1.142 0.707,-1.32 -0.056,-0.045 -0.314,-0.007 -0.573,0.086 m -0.948,2.335 c -0.129,0.491 -0.031,0.663 0.303,0.535 0.698,-0.268 1.009,-1.26 0.395,-1.26 -0.28,0 -0.594,0.326 -0.698,0.725 m -184.653,1.251 c 0.008,0.629 0.656,1.627 0.9,1.383 0.291,-0.291 -0.192,-1.854 -0.573,-1.854 -0.183,0 -0.33,0.212 -0.327,0.471 m 61.83,4.233 c 0.002,1.449 0.07,1.995 0.151,1.215 0.082,-0.781 0.08,-1.966 -0.003,-2.635 -0.083,-0.668 -0.15,-0.029 -0.148,1.42 m 64.31,-0.564 c 0,0.724 0.077,1.02 0.172,0.658 0.095,-0.362 0.095,-0.955 0,-1.317 -0.095,-0.362 -0.172,-0.066 -0.172,0.659 m -124.262,0.846 c -0.001,0.362 0.177,0.659 0.396,0.659 0.22,0 0.306,0.15 0.193,0.333 -0.114,0.184 0.046,0.543 0.354,0.799 0.785,0.652 0.693,0.016 -0.193,-1.32 -0.534,-0.808 -0.748,-0.942 -0.75,-0.471 m 123.919,3.293 c 0,1.345 0.068,1.895 0.152,1.223 0.083,-0.673 0.083,-1.774 0,-2.446 -0.084,-0.673 -0.152,-0.122 -0.152,1.223 m -35.812,-0.69 c -0.031,0.553 -0.154,1.315 -0.273,1.694 -0.205,0.651 -0.193,0.653 0.212,0.021 0.236,-0.367 0.359,-1.129 0.273,-1.693 l -0.156,-1.026 -0.056,1.004 m 89.643,2.951 c -0.646,1.24 -1.047,2.254 -0.892,2.254 0.156,0 0.493,-0.508 0.75,-1.129 0.258,-0.62 0.59,-1.128 0.738,-1.128 0.24,0 1.144,-1.65 1.144,-2.088 0,-0.708 -0.752,0.195 -1.74,2.091 m -174.297,1.69 c 0.236,0.517 0.576,0.941 0.757,0.941 0.18,0 0.481,0.381 0.668,0.846 0.187,0.466 0.351,0.645 0.364,0.398 0.033,-0.619 -1.48,-3.126 -1.887,-3.126 -0.182,0 -0.138,0.423 0.098,0.941 m 79.702,2.916 c -0.411,0.673 -0.747,1.378 -0.747,1.568 -0.002,0.429 0.051,0.359 1.046,-1.38 0.99,-1.728 0.737,-1.887 -0.299,-0.188 m -77.889,0.471 c 0,0.31 0.157,0.522 0.35,0.47 0.192,-0.052 0.627,0.244 0.967,0.658 0.498,0.607 0.487,0.515 -0.054,-0.47 -0.716,-1.302 -1.263,-1.587 -1.263,-0.658 m 120.038,0.125 c 0,0.241 -0.414,0.439 -0.92,0.439 -0.959,0 -2.102,1.237 -2.076,2.247 0.008,0.316 0.254,0.025 0.546,-0.648 0.396,-0.91 0.772,-1.223 1.468,-1.223 0.934,0 1.637,-0.599 1.207,-1.028 -0.124,-0.124 -0.225,-0.029 -0.225,0.213 m 49.491,0.411 c -0.136,0.429 -0.406,0.781 -0.599,0.781 -0.193,0 -0.348,0.296 -0.344,0.658 0.004,0.448 0.26,0.263 0.799,-0.58 0.437,-0.681 0.703,-1.329 0.593,-1.44 -0.111,-0.11 -0.313,0.151 -0.449,0.581 m -42.046,0.22 c 0.213,0.417 0.784,1.093 1.269,1.503 0.85,0.719 0.848,0.706 -0.054,-0.381 -1.499,-1.805 -1.625,-1.921 -1.215,-1.122 m 39.924,2.912 c -0.245,0.466 -0.547,0.932 -0.671,1.035 -0.861,0.717 -1.237,1.505 -0.718,1.505 0.297,0 0.823,-0.592 1.169,-1.317 0.345,-0.724 0.8,-1.317 1.01,-1.317 0.21,0 0.382,-0.169 0.382,-0.376 0,-0.681 -0.717,-0.393 -1.172,0.47 m -162.638,3.199 c 0.116,0.466 0.36,0.847 0.543,0.847 0.183,0 0.332,0.264 0.332,0.586 0,0.323 0.155,0.491 0.344,0.374 0.19,-0.117 0.421,0 0.513,0.26 0.093,0.26 0.267,0.384 0.386,0.276 0.12,-0.108 -0.356,-0.87 -1.056,-1.693 -0.98,-1.153 -1.225,-1.302 -1.062,-0.65 m 159.091,1.889 c -0.405,0.556 -1.397,1.738 -2.203,2.626 -1.332,1.468 -1.726,2.332 -0.763,1.673 0.598,-0.409 4.02,-4.993 3.852,-5.161 -0.083,-0.083 -0.481,0.305 -0.886,0.862 m -156.24,2.062 c 0.052,0.259 0.394,0.593 0.761,0.743 0.367,0.151 0.777,0.574 0.911,0.941 0.134,0.367 0.723,1.135 1.309,1.706 0.585,0.571 1.064,1.206 1.064,1.411 0,0.205 0.169,0.373 0.376,0.373 0.658,0 0.426,-0.392 -1.787,-3.022 -2.12,-2.52 -2.822,-3.094 -2.634,-2.152 m 95.28,1.129 c -0.246,0.836 -0.777,1.431 -1.677,1.881 -0.817,0.408 -1.056,0.658 -0.63,0.658 0.935,0.001 2.888,-2.015 2.888,-2.981 0,-1.099 -0.164,-0.974 -0.581,0.442 m 55.681,3.037 c -0.301,0.785 0.076,1.298 0.582,0.792 0.213,-0.214 0.219,-0.573 0.014,-0.906 -0.289,-0.467 -0.379,-0.449 -0.596,0.114 m -63.231,0.788 c -0.112,0.293 -0.143,1.013 -0.069,1.599 0.111,0.871 0.17,0.773 0.321,-0.532 0.19,-1.646 0.106,-2 -0.252,-1.067 m 55.92,6.653 c -1.226,1.122 -1.609,1.616 -0.941,1.213 1.124,-0.678 3.686,-3.141 3.243,-3.119 -0.128,0.007 -1.164,0.865 -2.302,1.906 m -131.327,1.281 c 0.258,0.31 0.638,0.564 0.845,0.564 0.21,0 0.169,-0.249 -0.092,-0.564 -0.258,-0.31 -0.638,-0.564 -0.845,-0.564 -0.21,0 -0.169,0.249 0.092,0.564 m 1.888,1.196 c -0.009,0.667 1.128,1.668 1.578,1.389 0.238,-0.147 0.115,-0.396 -0.313,-0.629 -0.389,-0.213 -0.831,-0.57 -0.983,-0.795 -0.193,-0.284 -0.278,-0.274 -0.282,0.035 m 3.46,3.28 c 0.267,0.289 0.593,0.46 0.725,0.38 0.351,-0.211 1.114,0.814 0.823,1.105 -0.136,0.136 0.035,0.248 0.379,0.248 0.936,0 0.762,-0.512 -0.486,-1.435 -1.257,-0.929 -2.206,-1.125 -1.441,-0.298 m 2.931,1.529 c 0,0.408 1.523,1.709 2.002,1.709 0.209,0 0.311,-0.042 0.224,-0.094 -0.086,-0.052 -0.622,-0.505 -1.191,-1.006 -0.569,-0.502 -1.035,-0.776 -1.035,-0.609 m 6.012,4.395 c 0.512,0.489 1.02,0.896 1.129,0.905 0.108,0.008 0.739,0.305 1.401,0.658 0.662,0.354 1.34,0.642 1.505,0.64 0.414,-0.003 -1.635,-1.374 -3.462,-2.315 l -1.505,-0.776 0.932,0.888 m 9.792,5.393 c 0,0.335 0.221,0.467 0.563,0.336 0.309,-0.118 0.468,-0.367 0.354,-0.552 -0.329,-0.532 -0.917,-0.393 -0.917,0.216 m 6.774,2.669 c 0,0.305 0.231,0.428 0.564,0.301 0.31,-0.12 0.564,-0.031 0.564,0.195 0,0.227 0.424,0.378 0.941,0.335 0.518,-0.043 0.941,-0.229 0.941,-0.413 0,-0.183 -0.249,-0.239 -0.552,-0.122 -0.304,0.117 -0.64,0.07 -0.747,-0.102 -0.363,-0.587 -1.711,-0.74 -1.711,-0.194 m 68.36,-0.337 c -0.433,0.433 -0.274,0.878 0.313,0.878 0.311,0 0.565,-0.254 0.565,-0.565 0,-0.587 -0.445,-0.746 -0.878,-0.313 m -61.963,2.328 c 0,0.467 1.366,0.938 1.852,0.638 0.194,-0.121 0.461,-0.044 0.593,0.17 0.133,0.213 0.406,0.286 0.607,0.161 0.202,-0.124 0.612,-0.023 0.91,0.225 0.299,0.248 0.794,0.354 1.101,0.237 0.306,-0.118 0.657,-0.052 0.779,0.146 0.123,0.198 0.509,0.353 0.859,0.346 0.461,-0.01 0.378,-0.156 -0.3,-0.531 -0.515,-0.285 -1.072,-0.434 -1.239,-0.331 -0.167,0.103 -0.548,-0.015 -0.847,-0.263 -0.299,-0.248 -0.788,-0.357 -1.088,-0.242 -0.3,0.115 -0.598,0.07 -0.663,-0.1 -0.183,-0.478 -2.564,-0.901 -2.564,-0.456 m 53.81,0.105 c -0.725,0.197 -1.572,0.46 -1.882,0.583 -0.31,0.123 -0.818,0.275 -1.129,0.338 -2.24,0.454 -3.165,0.816 -3.311,1.296 -0.137,0.448 -0.073,0.464 0.329,0.085 0.274,-0.259 0.973,-0.471 1.552,-0.471 0.58,0 1.054,-0.172 1.054,-0.383 0,-0.221 0.398,-0.284 0.941,-0.147 0.617,0.154 0.94,0.078 0.94,-0.222 0,-0.263 0.254,-0.36 0.599,-0.227 0.329,0.126 0.795,0.106 1.035,-0.044 0.446,-0.28 0.628,-0.32 1.941,-0.43 0.629,-0.053 0.66,-0.123 0.188,-0.428 -0.646,-0.418 -0.529,-0.421 -2.257,0.05 m -44.403,2.138 c 0,0.197 0.43,0.441 0.956,0.541 0.603,0.115 0.904,0.027 0.817,-0.238 -0.172,-0.523 -1.773,-0.796 -1.773,-0.303 m 35.544,0.095 c -0.136,0.221 -0.146,0.503 -0.022,0.627 0.124,0.124 0.226,0.017 0.226,-0.239 0,-0.286 0.276,-0.376 0.721,-0.235 0.396,0.126 0.83,0.052 0.963,-0.163 0.143,-0.231 -0.143,-0.392 -0.699,-0.392 -0.517,0 -1.052,0.181 -1.189,0.402 m -33.286,0.351 c 0,0.207 0.338,0.376 0.752,0.376 0.414,0 0.753,-0.169 0.753,-0.376 0,-0.207 -0.339,-0.376 -0.753,-0.376 -0.414,0 -0.752,0.169 -0.752,0.376 m 31.232,0 c 0,0.207 0.339,0.376 0.753,0.376 0.414,0 0.752,-0.169 0.752,-0.376 0,-0.207 -0.338,-0.376 -0.752,-0.376 -0.414,0 -0.753,0.169 -0.753,0.376" />
    <path
       style="fill:#b4b4b4;fill-rule:evenodd;stroke:none"
       inkscape:connector-curvature="0"
       id="path3"
       d="m 239.582,78.682 c -1.61,0.379 -3.047,1.064 -2.784,1.327 0.096,0.096 0.785,-0.118 1.533,-0.474 0.747,-0.357 1.488,-0.51 1.645,-0.341 0.158,0.169 0.076,0.383 -0.183,0.475 -0.259,0.092 -0.47,0.312 -0.47,0.488 0,0.177 -0.196,0.798 -0.435,1.38 -0.24,0.583 -0.461,1.229 -0.492,1.436 -0.031,0.207 -0.169,0.63 -0.306,0.94 -1.098,2.486 -2.584,18.435 -2.267,24.342 l 0.227,4.244 1.302,0.244 c 4.265,0.8 11.318,-0.823 12.618,-2.903 0.426,-0.682 1.102,-0.715 14.633,-0.715 8.619,0 14.273,-0.141 14.408,-0.36 0.123,-0.198 0.471,-0.264 0.775,-0.148 0.721,0.277 0.713,-0.396 -0.012,-0.997 -0.561,-0.466 -0.615,-0.43 -0.705,0.47 -0.049,0.483 -25.732,0.932 -27.581,0.482 -0.745,-0.181 -0.783,-0.318 -0.435,-1.58 1.802,-6.525 -0.844,-20.772 -3.864,-20.809 -1.391,-0.017 -2.214,-1.119 -3.018,-4.045 -0.666,-2.425 -1.729,-3.919 -2.726,-3.831 -0.236,0.021 -1.074,0.189 -1.863,0.375 m -4.681,2.125 c -0.672,0.335 -1.223,0.754 -1.223,0.93 0,0.351 0.886,-0.07 2.07,-0.983 0.953,-0.734 0.704,-0.718 -0.847,0.053 m -5.738,1.225 c -0.748,0.483 0.192,0.483 1.317,0 l 0.752,-0.323 -0.752,-0.021 c -0.414,-0.011 -1.007,0.143 -1.317,0.344 m -4.035,1.335 c -1.058,0.528 -2.102,1.174 -2.32,1.437 -0.341,0.41 4.334,-1.755 4.805,-2.225 0.457,-0.458 -0.759,-0.072 -2.485,0.788 m -37.263,1.311 c -0.466,0.187 -3.059,2.504 -5.763,5.15 -4.741,4.639 -5.452,5.213 -7.502,6.062 -0.852,0.353 -0.866,0.393 -0.15,0.416 1.14,0.036 3.13,-1.548 8.225,-6.549 2.475,-2.429 4.908,-4.572 5.406,-4.761 1.369,-0.521 7.189,2.713 15.186,8.436 l 2.514,1.8 3.13,-2.935 c 6.06,-5.682 7.609,-6.631 9.398,-5.761 0.84,0.409 0.847,0.402 0.152,-0.156 -1.65,-1.321 -3.456,-0.291 -9.327,5.317 l -3.283,3.136 -3.114,-2.195 c -5.125,-3.614 -10.446,-6.941 -12.419,-7.766 -0.767,-0.32 -1.442,-0.572 -1.501,-0.558 -0.058,0.013 -0.487,0.177 -0.952,0.364 m 33.002,1.893 c -0.457,0.642 -1.043,1.068 -1.323,0.96 -0.322,-0.123 -0.428,0.004 -0.294,0.353 0.115,0.3 0.319,0.541 0.452,0.537 0.283,-0.009 2.45,-3.002 2.173,-3.002 -0.103,0 -0.556,0.518 -1.008,1.152 m -25.571,6.342 c 0,0.19 0.142,0.402 0.314,0.471 0.66,0.263 2.095,7.323 2.168,10.661 0.041,1.863 0.092,3.598 0.113,3.857 0.041,0.495 1.538,0.676 1.554,0.188 0.005,-0.155 1.104,-0.79 2.441,-1.411 1.338,-0.621 2.434,-1.23 2.437,-1.354 0.002,-0.124 1.02,-0.629 2.262,-1.123 3.304,-1.312 3.093,-2.381 -1.112,-5.635 -0.653,-0.505 -1.537,-1.21 -1.964,-1.566 -0.427,-0.356 -1.095,-0.749 -1.484,-0.872 -0.389,-0.124 -0.708,-0.366 -0.708,-0.539 0,-0.173 -0.508,-0.491 -1.129,-0.708 -0.621,-0.216 -1.129,-0.571 -1.129,-0.789 0,-0.218 -0.127,-0.361 -0.282,-0.319 -0.155,0.043 -0.824,-0.211 -1.486,-0.564 -1.344,-0.716 -1.995,-0.813 -1.995,-0.297 m -24.835,3.418 c -0.741,0.479 0.579,0.479 1.693,0 0.69,-0.296 0.674,-0.325 -0.188,-0.344 -0.517,-0.011 -1.195,0.144 -1.505,0.344 m -4.045,1.169 c -0.88,0.435 -1.599,0.902 -1.599,1.038 0,0.136 -0.441,0.722 -0.979,1.302 -0.539,0.581 -0.91,1.125 -0.825,1.21 0.085,0.085 0.785,-0.6 1.556,-1.522 1.009,-1.208 1.897,-1.829 3.176,-2.222 0.976,-0.3 1.437,-0.558 1.023,-0.572 -0.414,-0.014 -1.473,0.33 -2.352,0.766 m 106.397,2.712 c 0,0.896 2.015,2.523 2.638,2.13 0.426,-0.27 0.44,-0.356 0.055,-0.361 -0.777,-0.009 -2.208,-1.273 -2.033,-1.797 0.085,-0.256 -0.028,-0.466 -0.253,-0.466 -0.224,0 -0.407,0.222 -0.407,0.494 m 2.258,2.846 c 0,0.182 0.24,0.53 0.534,0.774 0.439,0.365 0.499,0.305 0.333,-0.33 -0.198,-0.756 -0.867,-1.099 -0.867,-0.444 m -113.445,0.409 c -0.496,0.804 -1.233,3.789 -0.975,3.949 0.153,0.094 0.288,-0.033 0.302,-0.283 0.014,-0.25 0.28,-1.258 0.591,-2.241 0.539,-1.706 0.569,-2.211 0.082,-1.425 m 114.95,1.039 c 0,0.185 0.232,0.654 0.516,1.042 0.491,0.671 0.514,0.662 0.471,-0.179 -0.043,-0.81 -0.987,-1.636 -0.987,-0.863 m -157.501,4.067 c 1.426,1.079 41.602,0.774 41.602,-0.316 0,-0.275 -0.149,-0.262 -0.451,0.04 -0.585,0.585 -40.392,0.659 -40.753,0.076 -0.128,-0.207 -0.434,-0.371 -0.681,-0.365 -0.246,0.007 -0.119,0.261 0.283,0.565 m 8.739,9.081 c -0.138,0.138 -0.233,0.773 -0.212,1.412 l 0.038,1.16 0.392,-1.222 0.392,-1.222 73.041,-0.096 73.041,-0.096 -73.22,-0.093 c -40.272,-0.052 -73.334,0.019 -73.472,0.157 m -15.549,0.801 c -0.12,0.456 -0.377,0.83 -0.572,0.83 -0.195,0 -0.235,0.194 -0.089,0.43 0.169,0.274 0.462,0.056 0.804,-0.598 0.297,-0.565 0.434,-1.132 0.306,-1.26 -0.127,-0.128 -0.33,0.141 -0.449,0.598 m 16.051,0.585 c 0,0.394 1.111,2.503 1.319,2.503 0.212,0 -0.599,-1.94 -1.014,-2.427 -0.168,-0.197 -0.305,-0.231 -0.305,-0.076 m -18.247,3.176 c -0.394,0.768 -0.777,1.523 -0.852,1.679 -0.075,0.155 0.101,0.282 0.39,0.282 0.504,0 1.704,-2.831 1.35,-3.186 -0.094,-0.094 -0.494,0.457 -0.888,1.225 m 17.973,0.079 c 0,0.932 0.074,1.313 0.163,0.847 0.09,-0.466 0.09,-1.228 0,-1.693 -0.089,-0.466 -0.163,-0.085 -0.163,0.846 m 2.159,0.514 c -0.005,0.476 3.267,5.319 4.005,5.928 0.571,0.471 0.589,0.443 0.19,-0.306 -0.242,-0.454 -0.625,-0.94 -0.853,-1.081 -0.227,-0.14 -1.071,-1.293 -1.875,-2.561 -0.805,-1.268 -1.465,-2.159 -1.467,-1.98 m -1.835,2.609 c -0.045,1.278 0.794,3.651 1.29,3.651 0.105,0 -0.018,-0.381 -0.275,-0.847 -0.256,-0.466 -0.578,-1.609 -0.715,-2.54 l -0.249,-1.693 -0.051,1.429 m 127.608,2.791 c 0.569,0.087 1.5,0.087 2.069,0 0.569,-0.086 0.104,-0.156 -1.035,-0.156 -1.138,0 -1.603,0.07 -1.034,0.156 m -119.77,1.961 c 0.717,0.636 1.464,1.156 1.662,1.156 0.198,0 0.289,-0.049 0.202,-0.109 -0.086,-0.06 -0.834,-0.58 -1.662,-1.156 l -1.505,-1.047 1.303,1.156 m -6.356,-0.537 c 0,0.207 0.242,0.8 0.538,1.317 0.295,0.518 0.537,0.772 0.537,0.565 0,-0.207 -0.242,-0.8 -0.537,-1.317 -0.296,-0.518 -0.538,-0.772 -0.538,-0.565 m 120.383,2.54 c -0.41,0.673 -0.746,1.378 -0.747,1.568 -0.002,0.429 0.052,0.359 1.047,-1.38 0.989,-1.728 0.736,-1.887 -0.3,-0.188 m -110.062,0.007 c 1.05,0.646 14.745,0.643 15.805,-0.005 0.648,-0.396 0.57,-0.422 -0.565,-0.185 -1.716,0.357 -12.972,0.358 -14.675,0.001 -1.14,-0.238 -1.216,-0.213 -0.565,0.189 m 20.969,0.109 c 1.27,0.689 1.797,1.634 1.797,3.221 0,2.885 2.792,6.032 5.268,5.938 0.311,-0.011 -0.151,-0.274 -1.025,-0.584 -2.244,-0.795 -3.339,-2.249 -3.667,-4.871 -0.275,-2.199 -1.707,-4.311 -2.899,-4.275 -0.274,0.008 -0.038,0.265 0.526,0.571 m -29.34,4.117 c 0.004,0.828 0.081,1.123 0.171,0.655 0.09,-0.469 0.086,-1.146 -0.008,-1.506 -0.094,-0.359 -0.168,0.024 -0.163,0.851 m 2.821,0.83 c 0.466,0.09 1.228,0.09 1.693,0 0.466,-0.089 0.085,-0.163 -0.846,-0.163 -0.932,0 -1.313,0.074 -0.847,0.163 m 113.842,2.181 c 0.003,1.035 0.076,1.413 0.163,0.841 0.086,-0.572 0.084,-1.418 -0.005,-1.881 -0.09,-0.463 -0.16,0.005 -0.158,1.04 m -68.122,-0.305 c 0.362,0.094 0.955,0.094 1.317,0 0.362,-0.095 0.066,-0.172 -0.659,-0.172 -0.724,0 -1.021,0.077 -0.658,0.172 m -40.171,0.81 c 0.41,0.485 1.086,1.056 1.502,1.269 0.8,0.409 0.683,0.283 -1.122,-1.215 -1.086,-0.903 -1.1,-0.904 -0.38,-0.054 m 42.193,0.483 c -0.744,3.721 -1.024,3.325 9.138,12.91 6.291,5.934 8.702,8.444 8.877,9.244 0.217,0.988 2.449,3.404 3.118,3.375 0.148,-0.007 -0.22,-0.377 -0.817,-0.822 -0.597,-0.445 -1.478,-1.697 -1.958,-2.782 -0.48,-1.085 -1.118,-2.112 -1.418,-2.283 -0.575,-0.327 -9.896,-9.028 -14.312,-13.359 l -2.593,-2.544 0.252,-2.458 c 0.265,-2.586 0.111,-3.272 -0.287,-1.281 m -5.246,-0.555 c -0.135,0.134 -1.052,0.462 -2.038,0.727 -1.13,0.304 -1.446,0.488 -0.853,0.498 0.918,0.015 4.351,-1.379 3.543,-1.44 -0.224,-0.016 -0.517,0.08 -0.652,0.215 m -32.242,2.953 c 0.517,0.296 1.11,0.538 1.317,0.538 0.207,0 -0.047,-0.242 -0.564,-0.538 -0.518,-0.295 -1.11,-0.537 -1.317,-0.537 -0.207,0 0.047,0.242 0.564,0.537 m 123.205,8.843 c 0,4.036 0.056,5.687 0.124,3.669 0.067,-2.018 0.067,-5.32 0,-7.338 -0.068,-2.017 -0.124,-0.366 -0.124,3.669 M 160.409,146.28 c 1.197,0.075 3.06,0.075 4.139,-0.001 1.079,-0.076 0.099,-0.137 -2.177,-0.136 -2.277,0 -3.16,0.062 -1.962,0.137 m 8.273,3.485 c 0,0.931 0.073,1.312 0.163,0.846 0.09,-0.465 0.09,-1.227 0,-1.693 -0.09,-0.466 -0.163,-0.085 -0.163,0.847 m 78.748,3.481 c -0.08,0.258 -0.245,1.063 -0.365,1.787 -0.492,2.966 -2.519,4.795 -5.861,5.292 -1.633,0.243 -1.645,0.254 -0.328,0.302 3.478,0.128 6.725,-2.933 6.725,-6.34 0,-0.59 0.212,-1.158 0.47,-1.263 0.369,-0.148 0.366,-0.196 -0.011,-0.219 -0.266,-0.016 -0.549,0.182 -0.63,0.441 m -78.387,2.916 c 0,0.724 0.078,1.021 0.172,0.658 0.095,-0.362 0.095,-0.955 0,-1.317 -0.094,-0.362 -0.172,-0.066 -0.172,0.659 m 12.707,3.223 c 0,0.116 1.98,3.715 4.399,7.996 2.42,4.281 5.23,9.308 6.244,11.17 1.015,1.863 2.427,4.349 3.139,5.525 2.878,4.758 4.815,9.409 4.83,11.597 l 0.014,2.069 -1.787,0.887 -1.787,0.886 0.076,3.253 0.077,3.253 0.126,-3.078 0.126,-3.078 1.649,-0.798 c 4.075,-1.973 3.441,-3.824 -8.656,-25.303 -4.218,-7.489 -7.6,-13.686 -7.516,-13.77 0.514,-0.514 21.897,18.313 31.241,27.507 8.549,8.411 8.54,8.398 6.624,11.014 -1.043,1.423 -1.954,3.867 -1.886,5.06 0.017,0.31 0.281,-0.367 0.586,-1.505 0.304,-1.139 1.051,-2.695 1.659,-3.459 2.063,-2.593 2.018,-2.669 -6.891,-11.446 -12.591,-12.404 -32.267,-29.345 -32.267,-27.78 m -12.277,4.115 c 10e-4,2.276 0.063,3.159 0.138,1.961 0.074,-1.197 0.074,-3.06 -0.002,-4.139 -0.076,-1.079 -0.137,-0.099 -0.136,2.178 m 98.203,0.94 c 0,1.759 0.065,2.479 0.144,1.6 0.079,-0.88 0.079,-2.319 0,-3.199 -0.079,-0.88 -0.144,-0.16 -0.144,1.599 m -56.146,0.8 c -0.696,0.204 -1.192,0.444 -1.104,0.532 0.088,0.088 0.74,-0.006 1.45,-0.209 2.696,-0.774 4.027,-0.51 4.312,0.853 0.255,1.225 1.916,4.421 2.297,4.421 0.112,0 -0.158,-0.583 -0.598,-1.296 -0.441,-0.713 -1.012,-2.025 -1.269,-2.916 -0.518,-1.798 -2.166,-2.246 -5.088,-1.385 m 26.493,2.792 c -0.144,0.96 -0.185,1.822 -0.091,1.916 0.094,0.094 0.289,-0.614 0.433,-1.574 0.144,-0.96 0.185,-1.822 0.09,-1.916 -0.094,-0.094 -0.288,0.614 -0.432,1.574 m -19.022,3.746 c 1.86,2.656 4.119,4.353 5.722,4.298 0.942,-0.033 0.718,-0.149 -1.017,-0.528 -0.678,-0.148 -1.947,-1.099 -3.18,-2.385 -1.129,-1.176 -1.815,-1.799 -1.525,-1.385 m 18.172,4.516 c 0.002,1.034 0.075,1.413 0.162,0.841 0.086,-0.572 0.084,-1.419 -0.005,-1.881 -0.09,-0.463 -0.16,0.005 -0.157,1.04 m -10.933,4.703 c 0,0.725 0.077,1.021 0.172,0.659 0.094,-0.362 0.094,-0.955 0,-1.317 -0.095,-0.363 -0.172,-0.066 -0.172,0.658 m 0.729,4.328 c -0.006,0.413 0.134,1.091 0.312,1.505 0.412,0.959 0.412,-0.031 0,-1.317 -0.242,-0.757 -0.303,-0.793 -0.312,-0.188 m -57.485,5.456 c 0,3.208 0.057,4.52 0.128,2.916 0.07,-1.604 0.07,-4.229 0,-5.832 -0.071,-1.604 -0.128,-0.292 -0.128,2.916 m 94.848,-3.589 c -0.146,1.165 -0.184,2.199 -0.084,2.299 0.099,0.099 0.293,-0.779 0.431,-1.952 0.138,-1.173 0.176,-2.208 0.084,-2.299 -0.092,-0.092 -0.286,0.786 -0.431,1.952 M 237.16,186.83 c 0.004,0.828 0.081,1.122 0.171,0.654 0.09,-0.468 0.087,-1.146 -0.008,-1.505 -0.094,-0.36 -0.167,0.023 -0.163,0.851 m -8.746,3.341 c -0.007,0.581 2.235,4.266 2.915,4.793 0.615,0.475 0.617,0.46 0.044,-0.239 -0.336,-0.41 -1.139,-1.677 -1.784,-2.815 -0.644,-1.139 -1.173,-1.921 -1.175,-1.739 m 9.437,1.927 c 0.009,0.761 1.422,4.459 1.438,3.763 0.005,-0.207 -0.319,-1.308 -0.719,-2.446 -0.4,-1.138 -0.724,-1.731 -0.719,-1.317 m 24.871,5.149 c -0.211,0.686 -0.452,3.195 -0.537,5.575 -0.085,2.38 -0.034,3.82 0.112,3.199 0.147,-0.621 0.287,-2.6 0.311,-4.397 0.025,-1.798 0.219,-3.726 0.432,-4.286 0.212,-0.559 0.314,-1.09 0.225,-1.178 -0.088,-0.089 -0.333,0.4 -0.543,1.087 m -23.312,0.307 c 0,0.724 0.077,1.021 0.172,0.659 0.095,-0.363 0.095,-0.955 0,-1.317 -0.095,-0.363 -0.172,-0.066 -0.172,0.658 m -70.334,4.892 c 0,1.345 0.069,1.895 0.152,1.223 0.083,-0.673 0.083,-1.773 0,-2.446 -0.083,-0.673 -0.152,-0.122 -0.152,1.223 m 69.359,-0.674 c -0.127,0.474 -0.204,2.471 -0.171,4.437 l 0.06,3.575 0.235,-4.328 c 0.25,-4.623 0.237,-5.031 -0.124,-3.684 m -20.34,4.155 c -0.132,0.672 -0.3,5.287 -0.375,10.254 l -0.135,9.031 0.282,-8.655 c 0.155,-4.76 0.41,-9.374 0.568,-10.254 0.158,-0.88 0.201,-1.599 0.094,-1.599 -0.106,0 -0.301,0.55 -0.434,1.223 m 14.202,3.857 c 0.001,1.448 0.069,1.995 0.151,1.214 0.081,-0.781 0.08,-1.966 -0.003,-2.634 -0.083,-0.668 -0.15,-0.029 -0.148,1.42 m -35.784,-0.565 c 0,0.725 0.077,1.021 0.172,0.659 0.094,-0.362 0.094,-0.955 0,-1.317 -0.095,-0.363 -0.172,-0.066 -0.172,0.658 m 64.5,0.807 c -0.32,1.093 -0.517,2.053 -0.438,2.133 0.08,0.08 0.41,-0.747 0.734,-1.838 0.324,-1.09 0.521,-2.05 0.438,-2.133 -0.083,-0.083 -0.413,0.744 -0.734,1.838 m -91.353,-0.242 c 0.203,0.414 0.645,1.091 0.982,1.505 l 0.613,0.752 -0.369,-0.752 c -0.204,-0.414 -0.646,-1.091 -0.983,-1.505 l -0.612,-0.753 0.369,0.753 m 68.92,0.644 c -0.011,0.704 1.495,4.938 1.687,4.744 0.065,-0.066 -0.285,-1.306 -0.779,-2.754 -0.494,-1.449 -0.903,-2.344 -0.908,-1.99 m -42.673,1.187 c -0.123,0.491 -0.988,1.518 -1.923,2.284 -0.934,0.765 -1.879,1.728 -2.099,2.14 -0.22,0.411 0.711,-0.342 2.07,-1.675 1.359,-1.332 2.47,-2.696 2.47,-3.031 0,-0.887 -0.26,-0.745 -0.518,0.282 m 62.666,3.532 c -1.306,2.036 -1.719,2.522 -5.666,6.678 l -2.86,3.01 2.949,-2.822 c 2.865,-2.743 5.693,-6.086 6.602,-7.808 0.781,-1.479 0.166,-0.913 -1.025,0.942 m -17.484,1.627 c 0.374,0.637 0.92,1.356 1.214,1.599 0.294,0.243 0.06,-0.278 -0.52,-1.158 -1.219,-1.846 -1.699,-2.152 -0.694,-0.441 m -66.315,1.006 c 0.58,0.879 1.127,1.599 1.214,1.599 0.272,0 -1.169,-2.29 -1.734,-2.757 -0.294,-0.243 -0.06,0.278 0.52,1.158 m 16.186,-0.268 c -1.608,2.602 -1.589,15.216 0.025,16.556 0.377,0.313 0.343,0.078 -0.12,-0.822 -0.858,-1.669 -0.864,-10.288 -0.009,-13.773 0.565,-2.304 0.588,-2.745 0.104,-1.961 m 53.443,3.372 c 1.019,1.035 1.937,1.882 2.041,1.882 0.103,0 -0.646,-0.847 -1.665,-1.882 -1.019,-1.035 -1.938,-1.881 -2.041,-1.881 -0.104,0 0.645,0.846 1.665,1.881 m -67.724,-0.163 c 0.35,0.635 0.97,1.566 1.379,2.07 l 0.744,0.915 -0.636,-1.153 c -0.35,-0.635 -0.971,-1.566 -1.38,-2.07 l -0.743,-0.916 0.636,1.154 m 53.715,1.668 c 0,0.932 0.073,1.313 0.163,0.847 0.09,-0.466 0.09,-1.228 0,-1.693 -0.09,-0.466 -0.163,-0.085 -0.163,0.846 m 17.395,1.285 c 0.621,0.533 1.284,0.97 1.474,0.971 0.408,0.003 0.404,-0.001 -1.286,-1.091 l -1.317,-0.85 1.129,0.97 m -17.808,2.478 c -0.042,1.139 -0.163,2.493 -0.27,3.011 l -0.193,0.94 0.403,-0.923 c 0.222,-0.509 0.344,-1.863 0.27,-3.011 l -0.133,-2.086 -0.077,2.069 m -48.411,2.095 c 0.35,0.634 0.971,1.566 1.38,2.069 l 0.744,0.916 -0.636,-1.153 c -0.35,-0.635 -0.971,-1.566 -1.38,-2.07 l -0.744,-0.916 0.636,1.154 m 34.684,2.621 c -0.581,0.511 -0.909,0.929 -0.73,0.929 0.344,0 1.974,-1.411 1.974,-1.708 0,-0.281 -0.134,-0.197 -1.244,0.779 m 12.594,0.38 c -0.631,1.384 -0.511,1.679 0.171,0.421 0.318,-0.587 0.509,-1.138 0.422,-1.224 -0.086,-0.086 -0.353,0.275 -0.593,0.803 m -17.626,1.187 c -1.589,0.309 -2.265,2.655 -0.874,3.03 0.45,0.121 0.463,0.081 0.061,-0.201 -1.165,-0.819 -0.339,-2.127 1.632,-2.583 1.736,-0.402 1.046,-0.609 -0.819,-0.246 m 15.466,2.213 c -0.844,0.915 -1.414,1.664 -1.267,1.664 0.289,0 2.989,-2.89 2.989,-3.199 0,-0.309 -0.125,-0.198 -1.722,1.535 m -31.019,0.8 c 0.723,0.095 1.455,0.371 1.628,0.613 0.215,0.3 0.266,0.26 0.163,-0.125 -0.1,-0.368 -0.665,-0.581 -1.628,-0.612 -1.414,-0.046 -1.421,-0.041 -0.163,0.124 m 27.661,2.712 c 0.786,0.908 3.575,3.216 3.575,2.959 0,-0.081 -0.974,-0.976 -2.164,-1.988 -1.19,-1.012 -1.825,-1.449 -1.411,-0.971 m -31.703,0.669 c 0.363,0.095 0.955,0.095 1.317,0 0.363,-0.094 0.066,-0.172 -0.658,-0.172 -0.724,0 -1.021,0.078 -0.659,0.172 m 38.89,4.314 c 0.7,0.34 1.426,2.49 1.728,5.117 0.029,0.258 0.213,0.47 0.407,0.47 0.195,0 0.229,-0.296 0.076,-0.659 -0.153,-0.362 -0.447,-1.505 -0.653,-2.539 -0.359,-1.799 -1.092,-2.852 -1.949,-2.797 -0.22,0.014 -0.044,0.198 0.391,0.408 m -12.891,3.865 c 0.034,0.62 0.306,1.166 0.624,1.251 0.378,0.102 0.421,0.049 0.132,-0.159 -0.238,-0.171 -0.518,-0.734 -0.624,-1.251 -0.165,-0.811 -0.183,-0.789 -0.132,0.159 m 3.07,0.792 c -0.828,0.273 -1.166,0.501 -0.752,0.508 0.413,0.006 1.26,-0.221 1.881,-0.505 1.422,-0.651 0.843,-0.653 -1.129,-0.003" />
    <path
       style="fill:#929292;fill-rule:evenodd;stroke:none"
       inkscape:connector-curvature="0"
       id="path4"
       d="m 194.167,67.357 c 0,0.206 0.678,0.376 1.506,0.376 0.827,0 1.505,-0.17 1.505,-0.376 0,-0.207 -0.678,-0.377 -1.505,-0.377 -0.828,0 -1.506,0.17 -1.506,0.377 m 6.962,0 c 0.128,0.206 0.984,0.376 1.904,0.376 0.919,0 1.671,-0.17 1.671,-0.376 0,-0.207 -0.857,-0.377 -1.904,-0.377 -1.173,0 -1.814,0.145 -1.671,0.377 m -13.453,0.274 c -1.978,0.207 -1.764,0.854 0.283,0.854 1.254,0 1.693,-0.146 1.693,-0.564 0,-0.31 -0.127,-0.536 -0.282,-0.501 -0.156,0.035 -0.918,0.129 -1.694,0.211 m 21.167,0.246 c 0,0.47 0.385,0.608 1.693,0.608 0.932,0 1.694,-0.169 1.694,-0.376 0,-0.207 -0.381,-0.378 -0.847,-0.381 -0.466,-0.003 -1.228,-0.108 -1.693,-0.232 -0.623,-0.167 -0.847,-0.066 -0.847,0.381 m -24.741,0.124 c -1.339,0.254 -0.985,0.861 0.501,0.861 0.874,0 1.296,-0.158 1.2,-0.447 -0.178,-0.534 -0.568,-0.629 -1.701,-0.414 m 28.718,0.364 c -0.135,0.353 0.188,0.497 1.115,0.497 1.593,0 1.732,-0.605 0.19,-0.831 -0.703,-0.103 -1.184,0.02 -1.305,0.334 m -30.694,0.045 c 0,0.264 -0.539,0.452 -1.295,0.452 -0.712,0 -1.406,0.18 -1.543,0.401 -0.345,0.559 0.053,0.865 0.648,0.497 0.272,-0.168 0.977,-0.342 1.567,-0.387 1.327,-0.101 1.647,-0.391 1.068,-0.969 -0.343,-0.343 -0.445,-0.342 -0.445,0.006 m 33.738,-0.047 c -0.551,0.551 -0.182,0.875 0.994,0.875 0.683,0 1.445,0.203 1.693,0.452 0.322,0.322 0.568,0.335 0.856,0.047 0.289,-0.289 -0.008,-0.482 -1.035,-0.674 -0.791,-0.148 -1.624,-0.421 -1.85,-0.608 -0.226,-0.187 -0.522,-0.228 -0.658,-0.092 m -38.536,1.124 c -0.258,0.105 -0.47,0.345 -0.47,0.535 0,0.546 0.99,0.401 1.505,-0.22 0.494,-0.594 0.018,-0.739 -1.035,-0.315 m 43.033,0.288 c 0.267,0.696 1.412,0.813 1.182,0.122 -0.086,-0.259 -0.438,-0.525 -0.783,-0.592 -0.436,-0.085 -0.557,0.057 -0.399,0.47 m -45.212,0.241 c -0.136,0.22 -0.154,0.495 -0.038,0.611 0.309,0.309 1.371,-0.174 1.371,-0.625 0,-0.51 -1.015,-0.5 -1.333,0.014 m 46.864,-0.095 c 0,0.218 0.339,0.491 0.753,0.609 0.414,0.117 1.091,0.309 1.505,0.427 0.523,0.148 0.753,0.033 0.753,-0.377 0,-0.324 -0.297,-0.592 -0.659,-0.595 -0.362,-0.002 -1.04,-0.107 -1.505,-0.232 -0.484,-0.129 -0.847,-0.057 -0.847,0.168 m -48.542,0.404 c 0,0.184 -0.278,0.311 -0.618,0.282 -0.34,-0.028 -0.701,0.187 -0.804,0.478 -0.131,0.374 0.005,0.458 0.461,0.283 0.356,-0.137 0.887,-0.249 1.18,-0.249 0.294,0 0.534,-0.254 0.534,-0.564 0,-0.31 -0.169,-0.564 -0.376,-0.564 -0.207,0 -0.377,0.15 -0.377,0.334 m 52.305,0.606 c 0,0.311 0.275,0.565 0.611,0.565 0.5,0 0.525,-0.102 0.142,-0.565 -0.258,-0.31 -0.533,-0.564 -0.611,-0.564 -0.078,0 -0.142,0.254 -0.142,0.564 m -59.58,1.568 c -0.433,0.433 -0.274,0.878 0.314,0.878 0.31,0 0.564,-0.179 0.564,-0.398 0,-0.219 0.17,-0.294 0.377,-0.166 0.207,0.128 0.376,0.053 0.376,-0.166 0,-0.437 -1.23,-0.549 -1.631,-0.148 m 72.374,6.152 c -0.397,0.26 -0.174,0.298 0.753,0.128 1.623,-0.298 1.929,-0.512 0.721,-0.504 -0.5,0.003 -1.163,0.172 -1.474,0.376 m 4.102,0.277 c 0.465,0.384 1.09,1.721 1.499,3.21 0.804,2.926 1.627,4.028 3.018,4.045 3.043,0.037 5.651,14.201 3.849,20.902 -0.336,1.251 -0.32,1.375 0.102,0.815 0.67,-0.889 1.09,-9.062 0.653,-12.698 -0.642,-5.335 -2.862,-9.861 -4.667,-9.516 -1.203,0.23 -1.67,-0.442 -2.573,-3.7 -0.825,-2.977 -1.247,-3.717 -2.12,-3.717 -0.405,0 -0.339,0.182 0.239,0.659 m -91.026,0.402 c -2.24,1.12 -4.139,2.383 -4.139,2.752 0,0.354 0.305,0.206 2.446,-1.186 0.621,-0.404 1.493,-0.896 1.939,-1.093 0.446,-0.197 0.921,-0.538 1.057,-0.758 0.316,-0.512 0.27,-0.502 -1.303,0.285 m 95.579,0.735 c 0,0.342 1.875,1.347 2.098,1.124 0.065,-0.066 0.001,-0.303 -0.143,-0.528 -0.347,-0.542 -1.955,-1.032 -1.955,-0.596 m 2.634,1.591 c 0,0.207 0.254,0.376 0.564,0.376 0.311,0 0.565,-0.169 0.565,-0.376 0,-0.207 -0.254,-0.377 -0.565,-0.377 -0.31,0 -0.564,0.17 -0.564,0.377 m -22.484,0.421 c -0.672,0.194 -1.223,0.428 -1.223,0.521 0,0.238 2.335,-0.232 3.011,-0.606 0.788,-0.438 -0.13,-0.394 -1.788,0.085 m -81.2,0.356 c -0.137,0.221 -0.158,0.492 -0.048,0.602 0.27,0.27 1.004,-0.205 1.004,-0.649 0,-0.481 -0.65,-0.449 -0.956,0.047 m 76.706,2.072 -1.056,0.969 1.223,-0.851 c 0.673,-0.468 1.223,-0.904 1.223,-0.968 0,-0.297 -0.416,-0.043 -1.39,0.85 m -34.962,-0.151 c -0.183,0.296 -0.066,0.361 0.357,0.198 0.347,-0.132 1.094,-0.076 1.661,0.127 0.966,0.344 0.985,0.332 0.302,-0.199 -0.873,-0.677 -1.944,-0.735 -2.32,-0.126 m -46.223,1.284 c -0.61,0.446 -0.629,0.533 -0.116,0.533 0.338,0 0.726,-0.18 0.863,-0.401 0.398,-0.645 0.041,-0.709 -0.747,-0.132 m 41.01,3.261 c -1.895,1.915 -3.402,3.481 -3.349,3.481 0.053,0 1.701,-1.566 3.661,-3.481 1.961,-1.914 3.468,-3.48 3.35,-3.48 -0.118,0 -1.766,1.566 -3.662,3.48 m 10.521,-2.53 c 1.143,0.926 2.215,1.471 1.903,0.966 -0.142,-0.229 -0.797,-0.678 -1.457,-0.997 -1.113,-0.538 -1.145,-0.536 -0.446,0.031 m 20.42,0.965 -1.229,1.163 1.411,-1.02 c 0.776,-0.56 1.411,-1.083 1.411,-1.162 0,-0.351 -0.45,-0.063 -1.593,1.019 m 5.348,-0.504 c 0.494,1.018 0.874,1.064 1.561,0.188 0.47,-0.599 0.456,-0.611 -0.154,-0.132 -0.585,0.459 -0.743,0.435 -1.244,-0.189 -0.543,-0.677 -0.552,-0.67 -0.163,0.133 m 38.766,0.022 c 0,0.202 0.268,0.47 0.596,0.596 0.366,0.141 0.538,0.057 0.447,-0.218 -0.188,-0.563 -1.043,-0.872 -1.043,-0.378 m -50.017,5.726 c -1.714,1.561 -2.134,1.784 -2.634,1.394 -0.524,-0.408 -0.534,-0.386 -0.082,0.191 0.605,0.771 1.485,0.278 3.795,-2.127 1.823,-1.898 1.326,-1.648 -1.079,0.542 M 132.61,93.05 c -2.394,2.457 -3.144,3.683 -0.881,1.442 0.917,-0.908 2.048,-1.901 2.514,-2.207 0.818,-0.537 1.143,-1.234 0.564,-1.21 -0.155,0.006 -1.144,0.895 -2.197,1.975 m 68.331,-1.85 c 0,0.103 0.508,0.55 1.129,0.992 0.62,0.442 1.128,0.719 1.128,0.616 0,-0.104 -0.508,-0.55 -1.128,-0.992 -0.621,-0.442 -1.129,-0.72 -1.129,-0.616 m 63.593,0.907 c 0,0.316 4.862,5.108 6.397,6.305 1.36,1.06 0.959,0.601 -2.788,-3.198 -3.4,-3.446 -3.609,-3.626 -3.609,-3.107 m -87.039,1.79 c -0.58,0.511 -0.906,0.929 -0.724,0.929 0.183,0 0.73,-0.423 1.216,-0.941 1.124,-1.197 0.876,-1.191 -0.492,0.012 m -9.233,2.432 c -0.691,0.164 -1.425,0.465 -1.63,0.67 -0.387,0.387 2.177,-0.098 3.641,-0.689 l 0.752,-0.304 -0.752,0.013 c -0.414,0.007 -1.319,0.147 -2.011,0.31 m -6.23,5.684 c -0.371,0.629 -0.592,1.227 -0.49,1.329 0.102,0.102 0.458,-0.36 0.791,-1.028 0.784,-1.571 0.574,-1.781 -0.301,-0.301 m -39.157,1.276 c -0.613,0.501 -0.999,1.026 -0.858,1.167 0.141,0.141 0.752,-0.274 1.359,-0.924 1.307,-1.399 1.06,-1.519 -0.501,-0.243 m 38.057,0.85 c -0.26,0.443 -0.742,2.939 -0.526,2.728 0.247,-0.24 1.008,-3.01 0.828,-3.01 -0.075,0 -0.211,0.127 -0.302,0.282 m -1.007,3.675 c 0,0.505 -2.36,0.56 -20.284,0.471 -11.156,-0.055 -20.206,0.026 -20.11,0.182 0.315,0.508 40.183,0.342 40.695,-0.17 0.549,-0.549 0.585,-1.053 0.075,-1.053 -0.207,0 -0.376,0.257 -0.376,0.57 m 118.684,0.124 c 0.201,0.325 -3.227,0.457 -13.582,0.524 l -13.851,0.089 13.711,0.104 c 12.709,0.096 15.22,-0.06 13.921,-0.863 -0.301,-0.186 -0.372,-0.134 -0.199,0.146 m -150.293,10.384 c 0,0.298 0.167,0.646 0.372,0.772 0.213,0.132 0.277,-0.019 0.149,-0.352 -0.201,-0.523 3.877,-0.592 39.985,-0.68 l 40.209,-0.097 -40.357,-0.093 c -34.931,-0.08 -40.358,-0.019 -40.358,0.45 m 8.818,12.212 c 0.117,0.188 0.759,0.533 1.427,0.766 1.409,0.491 0.982,0.007 -0.579,-0.658 -0.583,-0.247 -0.964,-0.296 -0.848,-0.108 m 33.139,10.576 -1.882,0.258 1.694,0.022 c 0.931,0.012 2.116,-0.114 2.634,-0.28 1.17,-0.375 0.287,-0.375 -2.446,0 m 12.28,1.339 c -0.03,0.897 0.194,1.829 0.542,2.258 0.325,0.402 0.457,0.476 0.292,0.166 -0.166,-0.31 -0.409,-1.326 -0.542,-2.258 l -0.242,-1.693 -0.05,1.527 m -79.825,0.919 c -0.298,0.184 -0.418,0.46 -0.265,0.613 0.153,0.152 0.475,0.08 0.717,-0.162 0.568,-0.568 0.251,-0.886 -0.452,-0.451 m 82.769,3.857 c 0.923,0.983 1.727,1.787 1.787,1.787 0.283,0 -0.016,-0.338 -1.677,-1.897 l -1.788,-1.678 1.678,1.788 m -18.163,-0.954 c 0.518,0.096 0.884,0.494 0.986,1.075 0.142,0.804 0.157,0.789 0.117,-0.117 -0.037,-0.835 -0.231,-1.046 -0.986,-1.075 -0.772,-0.03 -0.793,-0.009 -0.117,0.117 m 128.815,1.079 c 0.003,0.397 0.177,0.975 0.387,1.286 0.279,0.412 0.314,0.26 0.13,-0.565 -0.31,-1.383 -0.525,-1.683 -0.517,-0.721 m 0.382,3.239 c -0.006,0.35 0.169,0.748 0.39,0.885 0.663,0.41 0.756,-0.023 0.171,-0.796 -0.482,-0.637 -0.55,-0.647 -0.561,-0.089 M 191.91,153.34 c 0.702,0.724 1.361,1.317 1.464,1.317 0.104,0 -0.386,-0.593 -1.088,-1.317 -0.702,-0.725 -1.361,-1.317 -1.465,-1.317 -0.103,0 0.387,0.592 1.089,1.317 m 5.252,4.797 c 0.923,0.983 1.727,1.788 1.787,1.788 0.283,0 -0.016,-0.338 -1.677,-1.897 l -1.788,-1.678 1.678,1.787 m -28.119,0.283 c 0,0.724 0.078,1.02 0.172,0.658 0.095,-0.362 0.095,-0.955 0,-1.317 -0.094,-0.362 -0.172,-0.066 -0.172,0.659 m 98.973,1.693 c 0.004,0.828 0.081,1.122 0.171,0.654 0.09,-0.468 0.087,-1.145 -0.007,-1.505 -0.095,-0.36 -0.168,0.023 -0.164,0.851 m -85.297,0.313 c 0.105,0.276 0.436,0.502 0.734,0.502 0.41,0 0.44,-0.123 0.126,-0.502 -0.229,-0.275 -0.559,-0.501 -0.735,-0.501 -0.175,0 -0.231,0.226 -0.125,0.501 m 56.855,-0.25 c -0.138,0.138 -0.249,0.434 -0.246,0.658 0.004,0.263 0.106,0.251 0.288,-0.035 0.154,-0.243 0.956,-0.511 1.781,-0.595 l 1.5,-0.153 -1.536,-0.063 c -0.845,-0.035 -1.649,0.05 -1.787,0.188 m -54.438,4.641 c 0.423,0.827 0.853,1.505 0.956,1.505 0.104,0 -0.157,-0.678 -0.579,-1.505 -0.423,-0.828 -0.853,-1.506 -0.956,-1.506 -0.104,0 0.157,0.678 0.579,1.506 m 18.292,0.756 c 0.22,0.22 1.063,0.473 1.873,0.562 0.81,0.09 1.134,0.074 0.72,-0.035 -0.414,-0.109 -1.257,-0.362 -1.873,-0.563 -0.792,-0.258 -1.003,-0.247 -0.72,0.036 m 5.227,0.2 -1.882,0.507 1.694,-0.209 c 0.931,-0.116 1.947,-0.355 2.257,-0.533 0.766,-0.437 0.171,-0.37 -2.069,0.235 m 7.948,0.737 c 0.134,0.621 0.392,1.383 0.574,1.693 0.212,0.361 0.243,0.158 0.087,-0.564 -0.134,-0.621 -0.393,-1.383 -0.575,-1.694 -0.211,-0.361 -0.243,-0.158 -0.086,0.565 m -29.773,1.317 c 0.321,0.621 0.668,1.129 0.772,1.129 0.103,0 -0.075,-0.508 -0.396,-1.129 -0.321,-0.621 -0.668,-1.129 -0.772,-1.129 -0.103,0 0.075,0.508 0.396,1.129 m -17.336,8.467 c 0.001,4.967 0.054,6.947 0.119,4.399 0.066,-2.547 0.065,-6.611 0,-9.031 -0.066,-2.42 -0.119,-0.336 -0.119,4.632 m 22.416,-8.726 c 0,0.065 0.55,0.615 1.223,1.223 l 1.223,1.106 -1.106,-1.223 c -1.03,-1.14 -1.34,-1.396 -1.34,-1.106 m -2.016,5.706 c 0.523,0.936 1.025,1.702 1.115,1.702 0.264,0 -1.312,-2.937 -1.706,-3.181 -0.199,-0.123 0.067,0.543 0.591,1.479 m -89.682,-0.565 c 0.172,1.123 0.464,1.219 0.55,0.18 0.042,-0.508 -0.09,-0.923 -0.293,-0.923 -0.204,0 -0.319,0.334 -0.257,0.743 m 97.342,-0.249 c 0,0.065 0.55,0.615 1.223,1.223 l 1.223,1.105 -1.105,-1.223 c -1.03,-1.14 -1.341,-1.396 -1.341,-1.105 m 3.951,3.645 c 0.809,0.828 1.555,1.506 1.658,1.506 0.104,0 -0.473,-0.678 -1.282,-1.506 -0.808,-0.827 -1.554,-1.505 -1.657,-1.505 -0.104,0 0.473,0.678 1.281,1.505 m -9.407,1.129 c 0.321,0.621 0.668,1.129 0.772,1.129 0.103,0 -0.075,-0.508 -0.396,-1.129 -0.321,-0.621 -0.668,-1.129 -0.772,-1.129 -0.103,0 0.075,0.508 0.396,1.129 m 44.738,4.139 c 0,2.794 0.059,3.937 0.132,2.54 0.072,-1.397 0.072,-3.683 0,-5.08 -0.073,-1.396 -0.132,-0.254 -0.132,2.54 m -31.003,-1.317 c 1.333,1.346 2.508,2.446 2.612,2.446 0.103,0 -0.903,-1.1 -2.236,-2.446 -1.333,-1.345 -2.509,-2.445 -2.612,-2.445 -0.104,0 0.902,1.1 2.236,2.445 m 20.407,-1.317 c 0,0.725 0.077,1.021 0.172,0.659 0.094,-0.362 0.094,-0.955 0,-1.317 -0.095,-0.362 -0.172,-0.066 -0.172,0.658 m -11.188,10.16 c 3.306,3.312 6.096,6.021 6.2,6.021 0.103,0 -2.517,-2.709 -5.824,-6.021 -3.306,-3.311 -6.097,-6.02 -6.2,-6.02 -0.103,0 2.517,2.709 5.824,6.02 m -18.062,-3.01 c 0.321,0.621 0.668,1.129 0.772,1.129 0.103,0 -0.075,-0.508 -0.396,-1.129 -0.321,-0.621 -0.668,-1.129 -0.772,-1.129 -0.103,0 0.075,0.508 0.396,1.129 m 1.352,2.446 c 0,0.207 0.492,1.308 1.094,2.446 0.601,1.138 1.093,1.9 1.093,1.693 0,-0.207 -0.492,-1.307 -1.093,-2.446 -0.602,-1.138 -1.094,-1.9 -1.094,-1.693 m -95.716,0.969 c 0.218,0.833 0.855,0.982 0.855,0.2 0,-0.288 -0.235,-0.614 -0.522,-0.724 -0.366,-0.141 -0.465,0.016 -0.333,0.524 m 192.106,3.231 c -0.533,0.215 -0.647,1.256 -0.138,1.256 0.183,0 0.421,-0.339 0.529,-0.752 0.108,-0.414 0.17,-0.74 0.138,-0.723 -0.032,0.016 -0.27,0.115 -0.529,0.219 m -62.935,2.879 c 0,0.065 0.55,0.615 1.223,1.223 l 1.223,1.105 -1.105,-1.223 c -1.031,-1.14 -1.341,-1.396 -1.341,-1.105 m 31.589,0.875 c -0.208,0.546 -0.308,1.063 -0.223,1.148 0.086,0.086 0.336,-0.361 0.556,-0.993 0.489,-1.403 0.194,-1.541 -0.333,-0.155 m -94.314,1.83 c 0.002,1.241 0.073,1.704 0.156,1.028 0.084,-0.677 0.083,-1.693 -0.003,-2.258 -0.086,-0.566 -0.155,-0.012 -0.153,1.23 m 51.363,0.094 c -0.663,0.772 -1.16,1.599 -0.961,1.599 0.077,0 0.515,-0.508 0.974,-1.129 0.907,-1.227 0.899,-1.532 -0.013,-0.47 m 17.49,7.808 c 0.003,1.035 0.076,1.413 0.163,0.841 0.086,-0.572 0.084,-1.418 -0.006,-1.881 -0.089,-0.463 -0.16,0.005 -0.157,1.04 m -41.029,1.129 c 0.005,0.827 0.082,1.122 0.172,0.654 0.09,-0.468 0.086,-1.146 -0.008,-1.505 -0.094,-0.36 -0.168,0.023 -0.164,0.851 m 20.658,1.756 c -0.031,0.552 -0.154,1.314 -0.273,1.694 -0.205,0.651 -0.193,0.652 0.212,0.021 0.236,-0.368 0.359,-1.13 0.273,-1.694 l -0.156,-1.025 -0.056,1.004 m 44.014,0.376 c -0.024,0.346 -0.141,0.938 -0.261,1.318 -0.205,0.653 -0.194,0.654 0.214,0.018 0.236,-0.368 0.353,-0.961 0.26,-1.317 -0.153,-0.582 -0.174,-0.584 -0.213,-0.019 m -7.954,12.261 -3.191,3.292 3.293,-3.19 c 3.058,-2.963 3.464,-3.395 3.19,-3.395 -0.056,0 -1.538,1.482 -3.292,3.293 m -63.45,5.738 c 0,1.966 0.063,2.771 0.141,1.788 0.077,-0.983 0.077,-2.592 0,-3.575 -0.078,-0.983 -0.141,-0.179 -0.141,1.787 m 27.436,-0.376 c 0,0.931 0.074,1.312 0.163,0.847 0.09,-0.466 0.09,-1.228 0,-1.694 -0.089,-0.465 -0.163,-0.084 -0.163,0.847 M 129.615,237 c 0.819,0.864 1.548,1.57 1.621,1.57 0.341,0 -1.018,-1.565 -2.005,-2.308 -0.844,-0.636 -0.753,-0.462 0.384,0.738 m 132.828,6.662 c 0.806,0.61 2.091,0.743 2.091,0.216 0,-0.426 -0.95,-0.796 -2.006,-0.78 -0.798,0.011 -0.8,0.023 -0.085,0.564 m 2.468,1.506 c 0,0.732 -0.274,1.748 -0.608,2.258 -0.334,0.51 -0.506,0.928 -0.381,0.928 0.51,0 1.741,-1.337 1.741,-1.89 0,-0.327 0.203,-0.797 0.452,-1.045 0.351,-0.352 0.351,-0.452 0,-0.452 -0.249,0 -0.452,-0.254 -0.452,-0.564 0,-0.311 -0.169,-0.565 -0.376,-0.565 -0.207,0 -0.376,0.599 -0.376,1.33 m -2.183,4.014 c -0.616,0.615 -0.569,1.075 0.084,0.824 0.584,-0.224 1.125,-1.276 0.657,-1.276 -0.159,0 -0.493,0.203 -0.741,0.452 m -5.808,3.795 c -1.601,0.872 -2.913,1.724 -2.916,1.893 -0.007,0.352 1.591,-0.076 1.876,-0.503 0.103,-0.155 0.983,-0.655 1.956,-1.11 1.656,-0.776 3.057,-1.91 2.323,-1.879 -0.181,0.007 -1.638,0.727 -3.239,1.599 m -12.329,3.843 c 0.257,0.311 0.617,0.565 0.798,0.565 0.182,0 0.331,-0.254 0.331,-0.565 0,-0.324 -0.34,-0.564 -0.799,-0.564 -0.667,0 -0.722,0.093 -0.33,0.564 m 2.482,-0.041 c 0.116,0.302 0.508,0.442 0.929,0.332 1.038,-0.271 0.901,-0.855 -0.201,-0.855 -0.638,0 -0.866,0.163 -0.728,0.523 m -77.058,4.56 c 0.479,0.351 0.973,0.536 1.097,0.412 0.302,-0.302 0.097,-0.457 -1.027,-0.78 l -0.941,-0.269 0.871,0.637 m 57.831,-0.231 c -0.745,0.164 -0.937,0.322 -0.565,0.463 0.311,0.119 1.073,-0.005 1.694,-0.275 1.197,-0.52 0.735,-0.597 -1.129,-0.188" />
  </g>
</svg>
