<?xml version="1.0" encoding="UTF-8" standalone="no"?>
<svg
   xmlns:dc="http://purl.org/dc/elements/1.1/"
   xmlns:cc="http://creativecommons.org/ns#"
   xmlns:rdf="http://www.w3.org/1999/02/22-rdf-syntax-ns#"
   xmlns:svg="http://www.w3.org/2000/svg"
   xmlns="http://www.w3.org/2000/svg"
   xmlns:sodipodi="http://sodipodi.sourceforge.net/DTD/sodipodi-0.dtd"
   xmlns:inkscape="http://www.inkscape.org/namespaces/inkscape"
   id="svg"
   version="1.1"
   width="400"
   height="376"
   viewBox="0, 0, 400,376"
   sodipodi:docname="6_Bodleian.svg"
   inkscape:version="0.92.5 (2060ec1f9f, 2020-04-08)">
  <metadata
     id="metadata13">
    <rdf:RDF>
      <cc:Work
         rdf:about="">
        <dc:format>image/svg+xml</dc:format>
        <dc:type
           rdf:resource="http://purl.org/dc/dcmitype/StillImage" />
        <dc:title />
      </cc:Work>
    </rdf:RDF>
  </metadata>
  <defs
     id="defs11">
    <clipPath
       id="clip-path"
       transform="translate(-11.23 -18.81)">
      <rect
         class="cls-1"
         x="11.23"
         y="18.809999"
         width="226.12"
         height="176.42"
         id="rect4" />
    </clipPath>
  </defs>
  <sodipodi:namedview
     pagecolor="#ffffff"
     bordercolor="#666666"
     borderopacity="1"
     objecttolerance="10"
     gridtolerance="10"
     guidetolerance="10"
     inkscape:pageopacity="0"
     inkscape:pageshadow="2"
     inkscape:window-width="1306"
     inkscape:window-height="704"
     id="namedview9"
     showgrid="false"
     inkscape:zoom="0.88764468"
     inkscape:cx="175.83068"
     inkscape:cy="161.18919"
     inkscape:window-x="60"
     inkscape:window-y="27"
     inkscape:window-maximized="1"
     inkscape:current-layer="svg" />
  <g
     id="g1114"
     transform="matrix(1.3815235,0,0,1.3815235,-76.3047,-156.54982)"
     style="fill:#ffffff">
    <g
       transform="translate(133.61917,19.151807)"
       id="g990"
       style="fill:#ffffff">
      <polygon
         style="fill:#ffffff"
         transform="matrix(0.54716709,0,0,0.54716709,8.2721929,134.32213)"
         class="cls-2"
         points="40.69,62.3 40.69,49.59 40.62,49.59 40.62,62.3 "
         id="polygon11" />
      <path
         inkscape:connector-curvature="0"
         class="cls-2"
         d="m 31.302456,169.22044 v 0.10396 h -0.175094 -0.114905 0.415847 v -0.26263 a 0.57452545,0.57452545 0 0 1 -0.109434,0.14773 z"
         id="path13"
         style="fill:#ffffff;stroke-width:0.54716712" />
      <path
         inkscape:connector-curvature="0"
         class="cls-2"
         d="m 31.302456,169.3244 v -0.10396 a 0.50339372,0.50339372 0 0 1 -0.19151,0.10396 z"
         id="path15"
         style="fill:#ffffff;stroke-width:0.54716712" />
      <path
         inkscape:connector-curvature="0"
         class="cls-2"
         d="m 30.881137,169.3244 h 0.109433 v 0 h 0.114906 z"
         id="path17"
         style="fill:#ffffff;stroke-width:0.54716712" />
      <g
         style="fill:#ffffff"
         transform="matrix(0.54716709,0,0,0.54716709,8.2721929,134.32213)"
         class="cls-3"
         clip-path="url(#clip-path)"
         id="g23">
        <polygon
           style="fill:#ffffff"
           class="cls-2"
           points="40.69,62.3 40.74,62.3 40.74,49.59 40.69,49.59 "
           id="polygon19" />
        <path
           style="fill:#ffffff"
           inkscape:connector-curvature="0"
           class="cls-2"
           d="m 205.79,81.11 h -31 V 68.4 h 3.31 v 7.48 h 6 V 68.4 h 3.31 v 7.48 h 5.95 V 68.4 h 3.31 v 7.48 h 6 V 68.4 h 3.2 v 12.71 z m -38.5,0 h -31 V 68.4 h 3.32 v 7.48 h 6 V 68.4 h 3.31 v 7.48 h 6 V 68.4 h 3.32 v 7.48 h 6 V 68.4 h 3.18 v 12.71 z m -38.47,0 h -31 V 68.4 h 3.31 v 7.48 h 5.95 V 68.4 h 3.31 v 7.48 h 6 V 68.4 h 3.31 v 7.48 h 6 V 68.4 h 3.23 v 12.71 z m -69.5,0 V 68.4 h 3.32 v 7.48 h 6 V 68.4 h 3.32 v 7.48 h 6 V 68.4 h 3.24 v 7.48 h 6 V 68.4 h 3.2 v 12.71 z m -7.35,0 H 20.8 V 68.4 h 3.32 v 7.48 h 6 V 68.4 h 3.28 v 7.48 h 6 V 68.4 h 3.32 v 7.48 h 6 V 68.4 H 52 V 81.11 Z M 214.08,52.53 h -1.17 L 212.29,47 h 0.87 a 1.19,1.19 0 1 0 0,-2.37 H 212 l -0.52,-4.72 h 0.91 a 1.19,1.19 0 0 0 0,-2.37 h -1.18 L 210.8,33.8 h 1 a 1.19,1.19 0 0 0 0,-2.38 h -1.26 l -0.2,-1.79 v -2.26 h 0.79 a 1.19,1.19 0 1 0 0,-2.37 h -0.79 v -1.91 a 2.23,2.23 0 1 0 -1.66,0 V 25 h -1 a 1.19,1.19 0 1 0 0,2.37 h 1 v 1.29 a 1.09,1.09 0 0 0 -0.07,0.24 l -0.27,2.48 h -1.28 a 1.19,1.19 0 1 0 0,2.38 h 1 l -0.41,3.74 h -1.2 a 1.19,1.19 0 0 0 0,2.37 h 0.94 l -0.52,4.72 h -1.15 a 1.19,1.19 0 1 0 0,2.37 h 0.89 L 206,52.53 h -1.2 a 1.19,1.19 0 1 0 0,2.37 h 1 v 11.84 h -4.86 v 7.48 h -2.64 v -7.48 h -6.64 v 7.48 H 189 v -7.48 h -6.64 v 7.48 h -2.63 v -7.48 h -5.1 V 54.9 h 0.94 a 1.19,1.19 0 1 0 0,-2.37 h -1.18 L 173.79,47 h 0.87 a 1.19,1.19 0 1 0 0,-2.37 h -1.13 L 173,39.87 h 0.91 a 1.19,1.19 0 1 0 0,-2.37 h -1.17 l -0.42,-3.74 h 1 a 1.19,1.19 0 0 0 0,-2.38 h -1.26 l -0.19,-1.77 v -2.24 h 0.79 a 1.19,1.19 0 0 0 0,-2.37 h -0.79 v -1.91 a 2.23,2.23 0 1 0 -1.67,0 V 25 h -1 a 1.19,1.19 0 1 0 0,2.37 h 1 v 1.29 a 1.09,1.09 0 0 0 -0.07,0.24 l -0.27,2.48 h -1.28 a 1.19,1.19 0 1 0 0,2.38 h 1 l -0.42,3.74 H 168 a 1.19,1.19 0 1 0 0,2.37 h 0.93 l -0.52,4.72 h -1.15 a 1.19,1.19 0 1 0 0,2.37 h 0.89 l -0.62,5.57 h -1.2 a 1.19,1.19 0 0 0 0,2.37 h 1 v 11.84 h -4.85 v 7.48 h -2.63 v -7.48 h -6.64 v 7.48 h -2.64 v -7.48 h -6.64 v 7.48 h -2.63 v -7.48 h -5.08 V 54.9 h 0.91 a 1.19,1.19 0 1 0 0,-2.37 h -1.15 L 135.32,47 h 0.85 a 1.19,1.19 0 1 0 0,-2.37 h -1.11 l -0.52,-4.72 h 0.89 a 1.19,1.19 0 1 0 0,-2.37 h -1.15 l -0.42,-3.74 h 1 a 1.19,1.19 0 0 0 0,-2.38 h -1.26 l -0.22,-2 v -2 h 0.79 a 1.19,1.19 0 1 0 0,-2.37 h -0.79 v -1.96 a 2.22,2.22 0 1 0 -1.66,0 V 25 h -1 a 1.19,1.19 0 1 0 0,2.37 h 1 v 1.35 a 1.21,1.21 0 0 0 -0.05,0.18 l -0.27,2.48 h -1.3 a 1.19,1.19 0 1 0 0,2.38 h 1 l -0.41,3.74 h -1.22 a 1.19,1.19 0 1 0 0,2.37 h 1 l -0.52,4.72 h -1.17 a 1.19,1.19 0 1 0 0,2.37 h 0.91 l -0.62,5.57 h -1.22 a 1.19,1.19 0 1 0 0,2.37 h 1 v 11.84 h -4.89 v 7.48 h -2.66 v -7.48 h -6.63 v 7.48 H 112 v -7.48 h -6.63 v 7.48 h -2.63 V 66.74 H 97.69 V 54.9 h 0.92 a 1.19,1.19 0 1 0 0,-2.37 H 97.45 L 96.83,47 h 0.84 a 1.19,1.19 0 1 0 0,-2.37 h -1.1 l -0.52,-4.72 h 0.88 a 1.19,1.19 0 1 0 0,-2.37 H 95.78 L 95.37,33.8 h 1 a 1.19,1.19 0 0 0 0,-2.38 h -1.26 l -0.22,-2 v -2 h 0.79 a 1.19,1.19 0 1 0 0,-2.37 h -0.79 v -1.96 a 2.23,2.23 0 1 0 -1.67,0 V 25 h -1 a 1.19,1.19 0 1 0 0,2.37 h 1 v 1.35 a 1.16,1.16 0 0 0 0,0.18 l -0.27,2.48 H 91.6 a 1.19,1.19 0 0 0 0,2.38 h 1 L 92.19,37.5 H 91 a 1.19,1.19 0 1 0 0,2.37 h 1 l -0.52,4.72 h -1.21 a 1.19,1.19 0 1 0 0,2.37 h 0.92 l -0.55,5 -0.06,0.6 h -1.23 a 1.19,1.19 0 1 0 0,2.37 h 1 V 66.74 H 85.5 v 7.48 h -2.63 v -7.48 h -6.65 v 7.48 h -2.64 v -7.48 h -6.64 v 7.48 H 64.3 V 66.74 H 59.2 V 54.9 h 0.9 a 1.19,1.19 0 1 0 0,-2.37 H 59 L 58.35,47 h 0.83 a 1.19,1.19 0 1 0 0,-2.37 h -1.09 l -0.53,-4.72 h 0.88 a 1.19,1.19 0 1 0 0,-2.37 H 57.3 L 56.89,33.8 h 1 a 1.19,1.19 0 0 0 0,-2.38 h -1.27 l -0.23,-2.1 v -1.95 h 0.79 a 1.19,1.19 0 1 0 0,-2.37 h -0.79 v -1.91 a 2.22,2.22 0 1 0 -1.66,0 V 25 h -1 a 1.19,1.19 0 1 0 0,2.37 h 1 v 1.38 a 0.4,0.4 0 0 0 0,0.15 l -0.28,2.48 h -1.34 a 1.19,1.19 0 0 0 0,2.38 h 1 L 53.7,37.5 h -1.18 a 1.19,1.19 0 1 0 0,2.37 h 1 L 53,44.59 h -1.22 a 1.19,1.19 0 1 0 0,2.37 h 0.92 l -0.61,5.57 h -1.24 a 1.19,1.19 0 1 0 0,2.37 h 1 V 66.74 H 47 v 7.48 h -2.65 v -7.48 h -6.64 v 7.48 h -2.64 v -7.48 h -6.65 v 7.48 h -2.63 v -7.48 h -5.1 V 54.9 h 1 a 1.19,1.19 0 1 0 0,-2.37 H 20.48 L 19.86,47 h 0.89 a 1.19,1.19 0 1 0 0,-2.37 H 19.6 L 19.08,39.91 H 20 a 1.19,1.19 0 1 0 0,-2.37 H 18.82 L 18.4,33.8 h 1 a 1.19,1.19 0 0 0 0,-2.38 H 18.14 L 18,29.76 v -2.39 h 0.79 a 1.19,1.19 0 1 0 0,-2.37 H 18 v -1.91 a 2.22,2.22 0 1 0 -1.66,0 V 25 h -1 a 1.19,1.19 0 1 0 0,2.37 h 1 v 1.25 a 0.92,0.92 0 0 0 -0.09,0.28 l -0.27,2.48 h -1.3 a 1.19,1.19 0 0 0 0,2.38 h 1 l -0.42,3.74 h -1.17 a 1.19,1.19 0 1 0 0,2.37 H 15 l -0.52,4.72 h -1.13 a 1.19,1.19 0 1 0 0,2.37 h 0.87 l -0.62,5.57 h -1.18 a 1.19,1.19 0 1 0 0,2.37 h 1 v 139.63 h 1.67 v -140 l 2,-17.95 2,17.95 V 82.8 H 52.75 52.55 53 a 0.92,0.92 0 0 0 0.35,-0.19 1.05,1.05 0 0 0 0.2,-0.27 V 54.73 54.42 l 2,-17.86 2,18.17 V 82.8 H 61.75 92 v -28 l 2,-18.2 2,18.17 V 82.8 h 34.45 v -28 l 2,-18.27 2,18.24 v 28 H 169 v -28 l 2,-18.27 2,18.24 v 28 h 34.49 v -28 l 2,-18.27 2,18.24 v 139.82 h 1.67 V 54.9 h 0.93 a 1.19,1.19 0 1 0 0,-2.37 z"
           transform="translate(-11.23,-18.81)"
           id="path21" />
      </g>
      <polygon
         style="fill:#ffffff"
         transform="matrix(0.54716709,0,0,0.54716709,8.2721929,134.32213)"
         class="cls-2"
         points="122.12,175.72 122.12,67.91 120.46,67.91 120.46,175.72 "
         id="polygon25" />
      <polygon
         style="fill:#ffffff"
         transform="matrix(0.54716709,0,0,0.54716709,8.2721929,134.32213)"
         class="cls-2"
         points="160.62,175.72 160.62,67.91 158.96,67.91 158.96,175.72 "
         id="polygon27" />
      <polygon
         style="fill:#ffffff"
         transform="matrix(0.54716709,0,0,0.54716709,8.2721929,134.32213)"
         class="cls-2"
         points="83.62,175.72 83.62,67.88 81.96,67.88 81.96,175.72 "
         id="polygon29" />
      <polygon
         style="fill:#ffffff"
         transform="matrix(0.54716709,0,0,0.54716709,8.2721929,134.32213)"
         class="cls-2"
         points="45.12,175.72 45.12,67.88 43.46,67.88 43.46,175.72 "
         id="polygon31" />
      <polygon
         style="fill:#ffffff"
         transform="matrix(0.54716709,0,0,0.54716709,8.2721929,134.32213)"
         class="cls-2"
         points="8.92,113.23 41.19,113.23 41.19,114.89 8.92,114.89 "
         id="polygon33" />
      <polygon
         style="fill:#ffffff"
         transform="matrix(0.54716709,0,0,0.54716709,8.2721929,134.32213)"
         class="cls-2"
         points="34.51,80.95 32.85,80.95 32.85,91.19 34.51,91.19 "
         id="polygon35" />
      <path
         inkscape:connector-curvature="0"
         class="cls-2"
         d="m 23.828153,184.98433 v -4.77677 a 2.8726275,2.8726275 0 1 1 5.745255,0 v 4.77677 z m 2.872627,-8.55769 a 3.7863962,3.7863962 0 0 0 -3.780925,3.78092 v 13.31257 h 0.908298 v -7.66034 h 5.745255 v 7.66034 h 0.913768 v -13.31257 a 3.7918679,3.7918679 0 0 0 -3.786396,-3.78092 z"
         id="path37"
         style="fill:#ffffff;stroke-width:0.54716712" />
      <polygon
         style="fill:#ffffff"
         transform="matrix(0.54716709,0,0,0.54716709,8.2721929,134.32213)"
         class="cls-2"
         points="34.51,95.46 32.85,95.46 32.85,108.21 34.51,108.21 "
         id="polygon39" />
      <polygon
         style="fill:#ffffff"
         transform="matrix(0.54716709,0,0,0.54716709,8.2721929,134.32213)"
         class="cls-2"
         points="17.27,80.95 15.6,80.95 15.6,91.19 17.27,91.19 "
         id="polygon41" />
      <path
         inkscape:connector-curvature="0"
         class="cls-2"
         d="m 14.394992,184.98433 v -4.77677 a 2.8726272,2.8726272 0 0 1 5.745254,0 v 4.77677 z m 2.872628,-8.55769 a 3.7918679,3.7918679 0 0 0 -3.786397,3.78092 v 13.31257 h 0.913769 v -7.66034 h 5.745254 v 7.66034 h 0.908298 v -13.31257 a 3.7863962,3.7863962 0 0 0 -3.780924,-3.78092 z"
         id="path43"
         style="fill:#ffffff;stroke-width:0.54716712" />
      <polygon
         style="fill:#ffffff"
         transform="matrix(0.54716709,0,0,0.54716709,8.2721929,134.32213)"
         class="cls-2"
         points="17.27,95.46 15.6,95.46 15.6,108.21 17.27,108.21 "
         id="polygon45" />
      <path
         inkscape:connector-curvature="0"
         class="cls-2"
         d="m 31.187551,205.13649 -0.908298,-0.0602 0.454149,0.0328 -0.454149,-0.0274 c 0,-0.0492 0,-1.28584 -1.789237,-1.93697 a 59.411402,59.411402 0 0 0 -6.505816,-2.28169 60.440077,60.440077 0 0 0 -6.483931,2.27075 c -1.838481,0.66207 -1.811123,1.89867 -1.811123,1.94791 l -0.908297,0.0547 c 0,-0.0766 -0.09302,-1.95885 2.391121,-2.85073 a 61.736863,61.736863 0 0 1 6.68091,-2.33094 h 0.175093 0.08755 a 61.972145,61.972145 0 0 1 6.708269,2.31999 c 2.462252,0.88094 2.369233,2.76319 2.363762,2.8398 z"
         id="path47"
         style="fill:#ffffff;stroke-width:0.54716712" />
      <path
         inkscape:connector-curvature="0"
         class="cls-2"
         d="m 28.615865,207.05705 v 3.14621 a 2.8616839,2.8616839 0 0 0 -1.89867,-0.71679 v 0 a 2.8562122,2.8562122 0 0 0 -1.909613,0.72226 v -6.08996 l 0.279055,0.0985 2.112065,0.76603 a 2.2816867,2.2816867 0 0 1 1.417163,2.07377 z m -4.722052,3.15168 c -0.06019,-0.0602 -0.125849,-0.10943 -0.191509,-0.16415 A 2.8945139,2.8945139 0 0 0 21.9842,209.49742 v 0 a 2.8616839,2.8616839 0 0 0 -1.712633,0.54716 1.9588581,1.9588581 0 0 0 -0.19698,0.16415 v -6.4128 c 0.62377,-0.21887 1.274899,-0.44867 1.909613,-0.66207 0.634714,0.2134 1.291314,0.4432 1.909613,0.66207 z m -4.732995,0 a 2.8562122,2.8562122 0 0 0 -1.909614,-0.72226 v 0 a 2.8616839,2.8616839 0 0 0 -1.898669,0.71679 v -3.14621 a 2.2816867,2.2816867 0 0 1 1.417162,-2.0464 l 2.112066,-0.76604 0.279055,-0.0985 z m 10.363344,-3.15168 a 3.1626258,3.1626258 0 0 0 -1.953386,-2.90545 v 0 0 c 0,0 -1.641501,-0.59642 -3.490926,-1.24755 -0.623771,-0.22433 -1.2749,-0.44867 -1.904142,-0.66207 h -0.07113 -0.175093 -0.07113 c -0.629243,0.2134 -1.280371,0.43774 -1.904142,0.66207 -1.849425,0.65113 -3.469039,1.24207 -3.485455,1.24755 v 0 h -0.02735 a 3.1626258,3.1626258 0 0 0 -1.953387,2.90545 v 5.1379 18.27538 h 0.91377 v -18.27538 a 1.745463,1.745463 0 0 1 0.147734,-0.70038 1.9205565,1.9205565 0 0 1 1.761879,-1.09433 1.9807449,1.9807449 0 0 1 1.351502,0.54717 1.8330098,1.8330098 0 0 1 0.328301,0.41585 1.8986698,1.8986698 0 0 1 0.147734,0.32282 1.745463,1.745463 0 0 1 0.08207,0.54717 v 18.27538 h 0.853581 v -18.27538 a 1.5539546,1.5539546 0 0 1 0.0383,-0.36113 1.6688596,1.6688596 0 0 1 0.399432,-0.84264 1.8275381,1.8275381 0 0 1 0.257169,-0.24622 2.0026316,2.0026316 0 0 1 2.429422,0 2.2214984,2.2214984 0 0 1 0.268111,0.24622 1.7126329,1.7126329 0 0 1 0.39396,0.78246 1.5539546,1.5539546 0 0 1 0.0383,0.36113 v 18.27537 h 0.91377 v -18.27537 a 1.745463,1.745463 0 0 1 0.08207,-0.54717 1.8986698,1.8986698 0 0 1 0.147735,-0.32284 1.8330098,1.8330098 0 0 1 0.328301,-0.41584 1.9807449,1.9807449 0 0 1 1.351502,-0.54716 1.9150848,1.9150848 0 0 1 1.761879,1.09433 1.6415013,1.6415013 0 0 1 0.147734,0.70037 v 18.27538 h 0.908297 v -18.27538 -5.1379 z"
         id="path49"
         style="fill:#ffffff;stroke-width:0.54716712" />
      <polygon
         style="fill:#ffffff"
         transform="matrix(0.54716709,0,0,0.54716709,8.2721929,134.32213)"
         class="cls-2"
         points="162.88,113.23 195.15,113.23 195.15,114.89 162.88,114.89 "
         id="polygon51" />
      <polygon
         style="fill:#ffffff"
         transform="matrix(0.54716709,0,0,0.54716709,8.2721929,134.32213)"
         class="cls-2"
         points="188.47,80.95 186.81,80.95 186.81,91.19 188.47,91.19 "
         id="polygon53" />
      <path
         inkscape:connector-curvature="0"
         class="cls-2"
         d="m 108.07,184.98433 v -4.77677 a 2.8726272,2.8726272 0 0 1 5.74525,0 v 4.77677 z m 2.87263,-8.55769 a 3.7863962,3.7863962 0 0 0 -3.78093,3.78092 v 13.31257 h 0.9083 v -7.66034 h 5.74525 v 7.66034 h 0.91378 v -13.31257 a 3.7863962,3.7863962 0 0 0 -3.7864,-3.78092 z"
         id="path55"
         style="fill:#ffffff;stroke-width:0.54716712" />
      <polygon
         style="fill:#ffffff"
         transform="matrix(0.54716709,0,0,0.54716709,8.2721929,134.32213)"
         class="cls-2"
         points="188.47,95.46 186.81,95.46 186.81,108.21 188.47,108.21 "
         id="polygon57" />
      <polygon
         style="fill:#ffffff"
         transform="matrix(0.54716709,0,0,0.54716709,8.2721929,134.32213)"
         class="cls-2"
         points="171.23,80.95 169.56,80.95 169.56,91.19 171.23,91.19 "
         id="polygon59" />
      <path
         inkscape:connector-curvature="0"
         class="cls-2"
         d="m 98.636838,184.98433 v -4.77677 a 2.8726283,2.8726283 0 0 1 5.745252,0 v 4.77677 z m 2.872622,-8.55769 a 3.7863962,3.7863962 0 0 0 -3.780922,3.78092 v 13.31257 h 0.9083 v -7.66034 h 5.745252 v 7.66034 h 0.9083 v -13.31257 a 3.7863962,3.7863962 0 0 0 -3.78093,-3.78092 z"
         id="path61"
         style="fill:#ffffff;stroke-width:0.54716712" />
      <polygon
         style="fill:#ffffff"
         transform="matrix(0.54716709,0,0,0.54716709,8.2721929,134.32213)"
         class="cls-2"
         points="171.23,95.46 169.56,95.46 169.56,108.21 171.23,108.21 "
         id="polygon63" />
      <path
         inkscape:connector-curvature="0"
         class="cls-2"
         d="m 115.4294,205.13649 -0.9083,-0.0602 0.45415,0.0328 -0.45415,-0.0274 c 0,-0.0492 0.0274,-1.28584 -1.78924,-1.93697 a 59.411402,59.411402 0 0 0 -6.50581,-2.28169 60.440077,60.440077 0 0 0 -6.483937,2.27075 c -1.838478,0.66207 -1.811123,1.89867 -1.805647,1.94791 l -0.908299,0.0547 c 0,-0.0766 -0.09849,-1.95885 2.385647,-2.85073 a 61.736863,61.736863 0 0 1 6.675446,-2.33094 h 0.17509 0.0876 a 61.972145,61.972145 0 0 1 6.71374,2.31999 c 2.46225,0.88094 2.36923,2.76319 2.36376,2.8398 z"
         id="path65"
         style="fill:#ffffff;stroke-width:0.54716712" />
      <path
         inkscape:connector-curvature="0"
         class="cls-2"
         d="m 112.85771,207.05705 v 3.14621 a 2.8616839,2.8616839 0 0 0 -1.89866,-0.71679 v 0 a 2.8562122,2.8562122 0 0 0 -1.90962,0.72226 v -6.08996 l 0.27906,0.0985 2.11206,0.76603 a 2.2816867,2.2816867 0 0 1 1.41716,2.07377 z m -4.71658,3.15168 c -0.0656,-0.0602 -0.13132,-0.10943 -0.19698,-0.16415 a 2.8945139,2.8945139 0 0 0 -1.7181,-0.54716 v 0 a 2.8780989,2.8780989 0 0 0 -1.71263,0.54716 1.9588581,1.9588581 0 0 0 -0.19699,0.16415 v -6.4128 c 0.62377,-0.21887 1.2749,-0.44867 1.90962,-0.66207 0.63471,0.2134 1.29131,0.4432 1.91508,0.66207 z m -4.733,0 a 2.8726272,2.8726272 0 0 0 -1.91508,-0.72226 v 0 a 2.8616839,2.8616839 0 0 0 -1.898671,0.71679 v -3.14621 a 2.2981017,2.2981017 0 0 1 1.417161,-2.07377 l 2.11207,-0.76603 0.28452,-0.0985 z m 10.34147,-3.15168 a 3.1626258,3.1626258 0 0 0 -1.95339,-2.90545 v 0 0 c 0,0 -1.6415,-0.59642 -3.49093,-1.24755 -0.62377,-0.22433 -1.2749,-0.44867 -1.89867,-0.66207 h -0.0766 -0.1751 -0.0712 c -0.62377,0.2134 -1.28037,0.43774 -1.90414,0.66207 -1.84943,0.65113 -3.46357,1.24207 -3.48546,1.24755 v 0 0 a 3.1626258,3.1626258 0 0 0 -1.958853,2.90545 v 5.1379 18.27538 h 0.913767 v -18.27538 a 1.745463,1.745463 0 0 1 0.147734,-0.70038 1.9205565,1.9205565 0 0 1 1.761882,-1.09433 1.9807449,1.9807449 0 0 1 1.3515,0.54717 1.8330098,1.8330098 0 0 1 0.3283,0.41585 1.8986698,1.8986698 0 0 1 0.14773,0.32282 1.745463,1.745463 0 0 1 0.0876,0.54717 v 18.27538 h 0.90831 v -18.27538 a 1.5539546,1.5539546 0 0 1 0.0383,-0.36113 1.7235764,1.7235764 0 0 1 0.39943,-0.78245 1.8275381,1.8275381 0 0 1 0.25717,-0.24623 2.0026316,2.0026316 0 0 1 2.42943,0 1.8658397,1.8658397 0 0 1 0.26263,0.24623 1.7126329,1.7126329 0 0 1 0.39396,0.78245 1.5539546,1.5539546 0 0 1 0.0438,0.36113 v 18.27538 h 0.9083 v -18.27538 a 1.5977279,1.5977279 0 0 1 0.0876,-0.54717 1.5265962,1.5265962 0 0 1 0.14226,-0.32282 1.8986698,1.8986698 0 0 1 1.6798,-0.94113 1.9150848,1.9150848 0 0 1 1.76189,1.09433 1.6415013,1.6415013 0 0 1 0.14773,0.70038 v 18.27537 h 0.91377 v -18.27537 -5.1379 z"
         id="path67"
         style="fill:#ffffff;stroke-width:0.54716712" />
      <polygon
         style="fill:#ffffff"
         transform="matrix(0.54716709,0,0,0.54716709,8.2721929,134.32213)"
         class="cls-2"
         points="124.39,113.23 156.66,113.23 156.66,114.89 124.39,114.89 "
         id="polygon69" />
      <polygon
         style="fill:#ffffff"
         transform="matrix(0.54716709,0,0,0.54716709,8.2721929,134.32213)"
         class="cls-2"
         points="149.98,80.95 148.32,80.95 148.32,91.19 149.98,91.19 "
         id="polygon71" />
      <path
         inkscape:connector-curvature="0"
         class="cls-2"
         d="m 87.009534,184.98433 v -4.77677 a 2.8726285,2.8726285 0 0 1 5.745257,0 v 4.77677 z m 2.872633,-8.55769 a 3.7863962,3.7863962 0 0 0 -3.780924,3.78092 v 13.31257 h 0.908291 v -7.66034 h 5.745257 v 7.66034 h 0.913767 v -13.31257 a 3.7863962,3.7863962 0 0 0 -3.786391,-3.78092 z"
         id="path73"
         style="fill:#ffffff;stroke-width:0.54716712" />
      <polygon
         style="fill:#ffffff"
         transform="matrix(0.54716709,0,0,0.54716709,8.2721929,134.32213)"
         class="cls-2"
         points="149.98,95.46 148.32,95.46 148.32,108.21 149.98,108.21 "
         id="polygon75" />
      <polygon
         style="fill:#ffffff"
         transform="matrix(0.54716709,0,0,0.54716709,8.2721929,134.32213)"
         class="cls-2"
         points="132.74,80.95 131.07,80.95 131.07,91.19 132.74,91.19 "
         id="polygon77" />
      <path
         inkscape:connector-curvature="0"
         class="cls-2"
         d="m 77.576379,184.98433 v -4.77677 a 2.8726285,2.8726285 0 0 1 5.745257,0 v 4.77677 z m 2.872624,-8.55769 a 3.7863962,3.7863962 0 0 0 -3.780924,3.78092 v 13.31257 h 0.9083 v -7.66034 h 5.745257 v 7.66034 h 0.90829 v -13.31257 a 3.7863962,3.7863962 0 0 0 -3.780923,-3.78092 z"
         id="path79"
         style="fill:#ffffff;stroke-width:0.54716712" />
      <polygon
         style="fill:#ffffff"
         transform="matrix(0.54716709,0,0,0.54716709,8.2721929,134.32213)"
         class="cls-2"
         points="132.74,95.46 131.07,95.46 131.07,108.21 132.74,108.21 "
         id="polygon81" />
      <path
         inkscape:connector-curvature="0"
         class="cls-2"
         d="m 94.368938,205.13649 -0.9083,-0.0602 0.454146,0.0328 -0.454146,-0.0274 c 0,-0.0492 0.02738,-1.28584 -1.789235,-1.93697 a 59.411402,59.411402 0 0 0 -6.505823,-2.28169 60.440077,60.440077 0 0 0 -6.483926,2.27075 c -1.838477,0.66207 -1.811123,1.89867 -1.805647,1.94791 l -0.908299,0.0547 c 0,-0.0766 -0.09849,-1.95885 2.385648,-2.85073 a 61.736863,61.736863 0 0 1 6.68091,-2.33094 h 0.175089 0.09302 a 62.152709,62.152709 0 0 1 6.702797,2.31999 c 2.462244,0.88094 2.369228,2.76319 2.363761,2.8398 z"
         id="path83"
         style="fill:#ffffff;stroke-width:0.54716712" />
      <path
         inkscape:connector-curvature="0"
         class="cls-2"
         d="m 91.797249,207.05705 v 3.14621 a 2.8616839,2.8616839 0 0 0 -1.898671,-0.71679 v 0 a 2.8562122,2.8562122 0 0 0 -1.909615,0.72226 v -6.08996 l 0.279057,0.0985 2.112067,0.76603 a 2.2816867,2.2816867 0 0 1 1.417162,2.07377 z m -4.716577,3.15168 -0.196985,-0.16415 a 2.8945139,2.8945139 0 0 0 -1.718107,-0.54716 v 0 a 2.8780989,2.8780989 0 0 0 -1.71263,0.54716 1.9588581,1.9588581 0 0 0 -0.196976,0.16415 v -6.4128 c 0.623767,-0.21887 1.274896,-0.44867 1.909606,-0.66207 0.634719,0.2134 1.291317,0.4432 1.915092,0.66207 z m -4.732998,0 a 2.8726272,2.8726272 0 0 0 -1.915082,-0.72226 v 0 a 2.8616839,2.8616839 0 0 0 -1.898672,0.71679 v -3.14621 a 2.2816867,2.2816867 0 0 1 1.417163,-2.07377 l 2.112067,-0.76603 0.284524,-0.0985 z m 10.357875,-3.15168 A 3.1626258,3.1626258 0 0 0 90.75216,204.1516 v 0 0 c 0,0 -1.641502,-0.59642 -3.490923,-1.24755 -0.623776,-0.22433 -1.274906,-0.44867 -1.898672,-0.66207 h -0.07661 -0.175088 -0.07117 c -0.629243,0.2134 -1.280373,0.43774 -1.904139,0.66207 -1.849421,0.65113 -3.463569,1.24207 -3.485456,1.24755 v 0 0 a 3.1626258,3.1626258 0 0 0 -1.953389,2.90545 v 5.1379 18.27538 h 0.908299 v -18.27538 a 1.745463,1.745463 0 0 1 0.147734,-0.70038 1.9205565,1.9205565 0 0 1 1.761881,-1.09433 1.9698015,1.9698015 0 0 1 1.351502,0.54717 1.8330098,1.8330098 0 0 1 0.328298,0.41585 1.8986698,1.8986698 0 0 1 0.147734,0.32282 1.745463,1.745463 0 0 1 0.08758,0.54717 v 18.27538 h 0.9083 v -18.27538 a 1.5539546,1.5539546 0 0 1 0.03826,-0.36113 1.7235764,1.7235764 0 0 1 0.399436,-0.78245 1.8275381,1.8275381 0 0 1 0.25717,-0.24623 2.0026316,2.0026316 0 0 1 2.429422,0 1.8658397,1.8658397 0 0 1 0.262637,0.24623 1.7126329,1.7126329 0 0 1 0.39396,0.78245 1.5539546,1.5539546 0 0 1 0.04379,0.36113 v 18.27538 h 0.9083 v -18.27538 a 1.5977279,1.5977279 0 0 1 0.08758,-0.54717 1.5265962,1.5265962 0 0 1 0.142258,-0.32282 1.8986698,1.8986698 0 0 1 1.679809,-0.94113 1.9150848,1.9150848 0 0 1 1.761872,1.09433 1.6415013,1.6415013 0 0 1 0.15321,0.70038 v 18.27537 h 0.9083 v -18.27537 -5.1379 z"
         id="path85"
         style="fill:#ffffff;stroke-width:0.54716712" />
      <polygon
         style="fill:#ffffff"
         transform="matrix(0.54716709,0,0,0.54716709,8.2721929,134.32213)"
         class="cls-2"
         points="85.9,113.23 118.17,113.23 118.17,114.89 85.9,114.89 "
         id="polygon87" />
      <polygon
         style="fill:#ffffff"
         transform="matrix(0.54716709,0,0,0.54716709,8.2721929,134.32213)"
         class="cls-2"
         points="111.49,80.95 109.83,80.95 109.83,91.19 111.49,91.19 "
         id="polygon89" />
      <path
         inkscape:connector-curvature="0"
         class="cls-2"
         d="m 65.949075,184.98433 v -4.77677 a 2.8726286,2.8726286 0 0 1 5.745257,0 v 4.77677 z m 2.872624,-8.55769 a 3.7863962,3.7863962 0 0 0 -3.780923,3.78092 v 13.31257 h 0.908299 v -7.66034 h 5.745257 v 7.66034 h 0.913767 v -13.31257 a 3.7863962,3.7863962 0 0 0 -3.7864,-3.78092 z"
         id="path91"
         style="fill:#ffffff;stroke-width:0.54716712" />
      <polygon
         style="fill:#ffffff"
         transform="matrix(0.54716709,0,0,0.54716709,8.2721929,134.32213)"
         class="cls-2"
         points="111.49,95.46 109.83,95.46 109.83,108.21 111.49,108.21 "
         id="polygon93" />
      <polygon
         style="fill:#ffffff"
         transform="matrix(0.54716709,0,0,0.54716709,8.2721929,134.32213)"
         class="cls-2"
         points="94.25,80.95 92.58,80.95 92.58,91.19 94.25,91.19 "
         id="polygon95" />
      <path
         inkscape:connector-curvature="0"
         class="cls-2"
         d="m 56.515912,184.98433 v -4.77677 a 2.8726283,2.8726283 0 1 1 5.745256,0 v 4.77677 z m 2.872632,-8.55769 a 3.7863962,3.7863962 0 0 0 -3.780923,3.78092 v 13.31257 h 0.908291 v -7.66034 h 5.745256 v 7.66034 h 0.9083 v -13.31257 a 3.7863962,3.7863962 0 0 0 -3.780924,-3.78092 z"
         id="path97"
         style="fill:#ffffff;stroke-width:0.54716712" />
      <polygon
         style="fill:#ffffff"
         transform="matrix(0.54716709,0,0,0.54716709,8.2721929,134.32213)"
         class="cls-2"
         points="94.25,95.46 92.58,95.46 92.58,108.21 94.25,108.21 "
         id="polygon99" />
      <path
         inkscape:connector-curvature="0"
         class="cls-2"
         d="m 73.308471,205.13649 -0.908291,-0.0602 0.454145,0.0328 -0.454145,-0.0274 c 0,-0.0492 0,-1.28584 -1.789236,-1.93697 a 59.411402,59.411402 0 0 0 -6.505822,-2.28169 60.440077,60.440077 0 0 0 -6.483926,2.27075 c -1.838487,0.66207 -1.811123,1.89867 -1.805656,1.94791 l -0.9083,0.0547 c 0,-0.0766 -0.09848,-1.95885 2.385648,-2.85073 a 61.736863,61.736863 0 0 1 6.6645,-2.33094 h 0.175088 0.08758 a 61.972145,61.972145 0 0 1 6.724685,2.31999 c 2.462253,0.88094 2.369237,2.76319 2.363761,2.8398 z"
         id="path101"
         style="fill:#ffffff;stroke-width:0.54716712" />
      <path
         inkscape:connector-curvature="0"
         class="cls-2"
         d="m 70.736791,207.05705 v 3.14621 a 2.8616839,2.8616839 0 0 0 -1.898672,-0.71679 v 0 a 2.8562122,2.8562122 0 0 0 -1.909615,0.72226 v -6.08996 l 0.279057,0.0985 2.112067,0.76603 a 2.2816867,2.2816867 0 0 1 1.417163,2.07377 z m -4.722054,3.15168 c -0.0602,-0.0602 -0.125847,-0.10943 -0.191508,-0.16415 a 2.8945139,2.8945139 0 0 0 -1.718107,-0.54716 v 0 a 2.8780989,2.8780989 0 0 0 -1.712631,0.54716 1.9588581,1.9588581 0 0 0 -0.196984,0.16415 v -6.4128 c 0.623775,-0.21887 1.274905,-0.44867 1.909615,-0.66207 0.63471,0.2134 1.291316,0.4432 1.909615,0.66207 z m -4.727521,0 a 2.8726272,2.8726272 0 0 0 -1.915092,-0.72226 v 0 a 2.8616839,2.8616839 0 0 0 -1.898671,0.71679 v -3.14621 a 2.2816867,2.2816867 0 0 1 1.417163,-2.07377 l 2.112067,-0.76603 0.284533,-0.0985 z m 10.357866,-3.15168 a 3.1626258,3.1626258 0 0 0 -1.953381,-2.90545 v 0 0 c 0,0 -1.641502,-0.59642 -3.490932,-1.24755 -0.623766,-0.22433 -1.274896,-0.44867 -1.898663,-0.66207 h -0.07661 -0.175097 -0.07117 c -0.629242,0.2134 -1.280372,0.43774 -1.904139,0.66207 -1.84943,0.65113 -3.463568,1.24207 -3.485455,1.24755 v 0 0 a 3.1626258,3.1626258 0 0 0 -1.95339,2.90545 v 5.1379 18.27538 h 0.913767 v -18.27538 a 1.745463,1.745463 0 0 1 0.147734,-0.70038 1.9205565,1.9205565 0 0 1 1.761881,-1.09433 1.9807449,1.9807449 0 0 1 1.351502,0.54717 1.8330098,1.8330098 0 0 1 0.328298,0.41585 1.8986698,1.8986698 0 0 1 0.147743,0.32282 1.745463,1.745463 0 0 1 0.08758,0.54717 v 18.27538 h 0.908299 v -18.27538 a 1.5539546,1.5539546 0 0 1 0.03826,-0.36113 1.7235764,1.7235764 0 0 1 0.399437,-0.78245 1.8275381,1.8275381 0 0 1 0.25717,-0.24623 2.0026316,2.0026316 0 0 1 2.429422,0 1.8658397,1.8658397 0 0 1 0.262637,0.24623 1.7126329,1.7126329 0 0 1 0.39396,0.78245 1.5539546,1.5539546 0 0 1 0.03826,0.36113 v 18.27538 h 0.913767 v -18.27538 a 1.5977279,1.5977279 0 0 1 0.08758,-0.54717 1.5265962,1.5265962 0 0 1 0.142266,-0.32282 1.8330098,1.8330098 0 0 1 0.328308,-0.41585 1.9807449,1.9807449 0 0 1 1.351501,-0.54717 1.9150848,1.9150848 0 0 1 1.761872,1.09433 1.6415013,1.6415013 0 0 1 0.147743,0.70038 v 18.27538 h 0.913767 v -18.27538 -5.1379 z"
         id="path103"
         style="fill:#ffffff;stroke-width:0.54716712" />
      <polygon
         style="fill:#ffffff"
         transform="matrix(0.54716709,0,0,0.54716709,8.2721929,134.32213)"
         class="cls-2"
         points="47.41,113.23 79.68,113.23 79.68,114.89 47.41,114.89 "
         id="polygon105" />
      <polygon
         style="fill:#ffffff"
         transform="matrix(0.54716709,0,0,0.54716709,8.2721929,134.32213)"
         class="cls-2"
         points="73,80.95 71.34,80.95 71.34,91.19 73,91.19 "
         id="polygon107" />
      <path
         inkscape:connector-curvature="0"
         class="cls-2"
         d="m 44.888614,184.98433 v -4.77677 a 2.8726272,2.8726272 0 1 1 5.745251,0 v 4.77677 z m 2.872628,-8.55769 a 3.7863962,3.7863962 0 0 0 -3.780926,3.78092 v 13.31257 h 0.908298 v -7.66034 h 5.745251 v 7.66034 h 0.913775 v -13.31257 a 3.7863962,3.7863962 0 0 0 -3.786398,-3.78092 z"
         id="path109"
         style="fill:#ffffff;stroke-width:0.54716712" />
      <polygon
         style="fill:#ffffff"
         transform="matrix(0.54716709,0,0,0.54716709,8.2721929,134.32213)"
         class="cls-2"
         points="73,95.46 71.34,95.46 71.34,108.21 73,108.21 "
         id="polygon111" />
      <polygon
         style="fill:#ffffff"
         transform="matrix(0.54716709,0,0,0.54716709,8.2721929,134.32213)"
         class="cls-2"
         points="55.76,80.95 54.09,80.95 54.09,91.19 55.76,91.19 "
         id="polygon113" />
      <path
         inkscape:connector-curvature="0"
         class="cls-2"
         d="m 35.455454,184.98433 v -4.77677 a 2.8726272,2.8726272 0 1 1 5.745254,0 v 4.77677 z m 2.872627,-8.55769 a 3.7863962,3.7863962 0 0 0 -3.780925,3.78092 v 13.31257 h 0.908298 v -7.66034 h 5.745254 v 7.66034 h 0.908297 v -13.31257 a 3.7863962,3.7863962 0 0 0 -3.780924,-3.78092 z"
         id="path115"
         style="fill:#ffffff;stroke-width:0.54716712" />
      <polygon
         style="fill:#ffffff"
         transform="matrix(0.54716709,0,0,0.54716709,8.2721929,134.32213)"
         class="cls-2"
         points="55.76,95.46 54.09,95.46 54.09,108.21 55.76,108.21 "
         id="polygon117" />
      <path
         inkscape:connector-curvature="0"
         class="cls-2"
         d="m 52.248012,205.13649 -0.9083,-0.0602 0.454155,0.0328 -0.454155,-0.0274 c 0,-0.0492 0,-1.28584 -1.789235,-1.93697 a 59.411402,59.411402 0 0 0 -6.505816,-2.28169 60.440077,60.440077 0 0 0 -6.48393,2.27075 c -1.838481,0.66207 -1.811123,1.89867 -1.805651,1.94791 l -0.913769,0.0547 c 0,-0.0766 -0.09302,-1.95885 2.391119,-2.85073 a 61.736863,61.736863 0 0 1 6.680911,-2.33094 h 0.175094 0.08755 a 61.972145,61.972145 0 0 1 6.708268,2.31999 c 2.462253,0.88094 2.369228,2.76319 2.363761,2.8398 z"
         id="path119"
         style="fill:#ffffff;stroke-width:0.54716712" />
      <path
         inkscape:connector-curvature="0"
         class="cls-2"
         d="m 49.676323,207.05705 v 3.14621 a 2.8616839,2.8616839 0 0 0 -1.898667,-0.71679 v 0 a 2.8562122,2.8562122 0 0 0 -1.909612,0.72226 v -6.08996 l 0.279055,0.0985 2.112064,0.76603 a 2.2816867,2.2816867 0 0 1 1.41716,2.07377 z m -4.722049,3.15168 c -0.06018,-0.0602 -0.125849,-0.10943 -0.191508,-0.16415 a 2.8945139,2.8945139 0 0 0 -1.718105,-0.54716 v 0 a 2.8616839,2.8616839 0 0 0 -1.712633,0.54716 1.9588581,1.9588581 0 0 0 -0.19698,0.16415 v -6.4128 c 0.623771,-0.21887 1.274899,-0.44867 1.909613,-0.66207 0.634714,0.2134 1.291315,0.4432 1.909613,0.66207 z m -4.732995,0 a 2.8452689,2.8452689 0 0 0 -1.909613,-0.72226 v 0 a 2.8616839,2.8616839 0 0 0 -1.89867,0.71679 v -3.14621 a 2.2816867,2.2816867 0 0 1 1.417163,-2.0464 l 2.112065,-0.76604 0.279055,-0.0985 z m 10.363344,-3.15168 a 3.1626258,3.1626258 0 0 0 -1.947914,-2.90545 v 0 0 c 0,0 -1.641501,-0.59642 -3.490926,-1.24755 -0.623771,-0.22433 -1.2749,-0.44867 -1.904142,-0.66207 h -0.07113 -0.175094 -0.07113 c -0.629243,0.2134 -1.280372,0.43774 -1.904142,0.66207 -1.849424,0.65113 -3.463567,1.24207 -3.485454,1.24755 v 0 h -0.02736 a 3.1626258,3.1626258 0 0 0 -2.002631,2.90545 v 5.1379 18.27538 h 0.913768 v -18.27538 a 1.745463,1.745463 0 0 1 0.147735,-0.70038 1.9205565,1.9205565 0 0 1 1.761879,-1.09433 1.9807449,1.9807449 0 0 1 1.351502,0.54717 1.8330098,1.8330098 0 0 1 0.328301,0.41585 1.8986698,1.8986698 0 0 1 0.147734,0.32282 1.745463,1.745463 0 0 1 0.08207,0.54717 v 18.27538 h 0.913769 v -18.27538 a 1.5539546,1.5539546 0 0 1 0.0383,-0.36113 1.7235764,1.7235764 0 0 1 0.399431,-0.78245 1.8275381,1.8275381 0 0 1 0.257168,-0.24623 2.0026316,2.0026316 0 0 1 2.429423,0 2.2214984,2.2214984 0 0 1 0.26264,0.24623 1.7126329,1.7126329 0 0 1 0.39396,0.78245 1.5539546,1.5539546 0 0 1 0.0383,0.36113 v 18.27538 h 0.913769 v -18.27538 a 1.745463,1.745463 0 0 1 0.08207,-0.54717 1.8986698,1.8986698 0 0 1 0.147735,-0.32282 1.8330098,1.8330098 0 0 1 0.3283,-0.41585 1.9807449,1.9807449 0 0 1 1.351503,-0.54717 1.9150848,1.9150848 0 0 1 1.761885,1.09433 1.6415013,1.6415013 0 0 1 0.147734,0.70038 v 18.27538 h 0.913767 v -18.27538 -5.1379 z"
         id="path121"
         style="fill:#ffffff;stroke-width:0.54716712" />
    </g>
    <g
       transform="translate(11.090689)"
       id="g995"
       style="fill:#ffffff">
      <g
         id="g932"
         transform="translate(-69.847768,103.64508)"
         style="fill:#ffffff">
        <path
           style="fill:#ffffff;stroke-width:0.54716712"
           id="path123"
           d="m 143.58115,188.59564 c 8.67259,0 15.9718,-5.8164 15.9718,-14.97597 0,-7.8792 -6.63713,-13.91993 -16.63935,-13.91993 -1.75093,0 -4.54696,0.22434 -6.68091,0.22434 -2.13395,0 -4.12564,-0.1368 -5.69054,-0.1368 -0.19151,0 -0.19151,0.54717 0,0.54717 3.283,0 3.83017,0.54717 3.83017,3.15716 v 21.20819 c 0,2.65376 -0.6183,3.15716 -3.89036,3.15716 -0.18603,0 -0.18603,0.54717 0,0.54717 1.5649,0 3.55659,-0.093 5.73978,-0.093 2.32,0 5.47168,0.27359 7.34846,0.27359 z m -0.47605,-0.82076 c -4.12563,0 -4.97921,-1.09434 -4.97921,-3.573 v -20.6282 c 0,-2.703 1.47188,-3.11338 5.26375,-3.11338 7.24996,0 11.85163,6.22676 11.85163,14.14974 0,8.5194 -5.12148,13.13201 -12.13617,13.13201 z m 32.66041,-3.0696 v -21.1316 c 0,-2.60999 0.54717,-3.25017 3.83017,-3.25017 0.14226,0 0.14226,-0.54716 0,-0.54716 -1.51565,0 -3.50734,0.13679 -5.82733,0.13679 -2.13395,0 -4.16941,-0.13679 -5.73431,-0.13679 -0.14226,0 -0.14226,0.54716 0,0.54716 3.283,0 3.88489,0.54717 3.88489,3.15715 v 21.2082 c 0,2.65376 -0.6183,3.15715 -3.88489,3.15715 -0.14226,0 -0.14226,0.54717 0,0.54717 1.5649,0 3.60036,-0.093 5.73431,-0.093 2.31999,0 4.26791,0.093 5.82733,0.093 0.14226,0 0.14226,-0.54717 0,-0.54717 -3.36508,0 -3.83017,-0.50339 -3.83017,-3.15715 z m 29.28986,4.25695 a 50.290127,50.290127 0 0 0 10.39617,-1.28037 c 0.42679,-0.13679 0.54717,-0.18603 0.54717,-0.54716 0,-0.7332 -0.33377,-0.95754 -0.33377,-4.02715 0,-4.85885 0.14226,-5.40602 2.18866,-5.36224 0.33377,0 0.24076,-0.64019 0,-0.64019 a 86.556361,86.556361 0 0 1 -10.94334,-0.093 c -0.3283,0 -0.3283,0.7332 0.0492,0.7332 4.78771,0 5.16525,0.50339 5.16525,4.9245 0,4.71658 -1.6415,5.54281 -5.87657,5.54281 -8.01052,0 -13.8871,-6.31978 -13.8871,-15.43559 0,-7.55637 4.0764,-12.40975 11.70391,-12.40975 5.21449,0 9.05561,2.56075 10.71352,7.11317 0.0492,0.18604 0.54717,0.093 0.54717,-0.0438 l -0.54717,-5.54281 c -0.0492,-0.54717 -0.0492,-0.7332 -0.61829,-1.05603 -1.84943,-0.95754 -5.02299,-1.51018 -7.96129,-1.51018 -10.37428,-0.0602 -18.03462,6.07902 -18.03462,15.04162 0,8.10902 6.25412,14.56559 16.9184,14.56559 z m 28.584,-4.25695 v -21.1316 c 0,-2.60999 0.54717,-3.25017 3.83017,-3.25017 0.14227,0 0.14227,-0.54716 0,-0.54716 -1.51565,0 -3.50733,0.13679 -5.8328,0.13679 -2.12847,0 -4.16941,-0.13679 -5.73431,-0.13679 -0.14227,0 -0.14227,0.54716 0,0.54716 3.283,0 3.89036,0.54717 3.89036,3.15715 v 21.2082 c 0,2.65376 -0.6183,3.15715 -3.89036,3.15715 -0.14227,0 -0.14227,0.54717 0,0.54717 1.5649,0 3.60584,-0.093 5.73431,-0.093 2.32547,0 4.2679,0.093 5.8328,0.093 0.14227,0 0.14227,-0.54717 0,-0.54717 -3.36508,0 -3.83017,-0.50339 -3.83017,-3.15715 z m 19.48462,-24.048 c 3.22282,0 3.88489,0.32283 3.88489,2.8398 v 21.2082 c 0,2.65376 -0.76056,3.15714 -4.45394,3.15714 -0.19151,0 -0.19151,0.54718 0,0.54718 1.70716,0 3.93413,-0.093 6.30337,-0.093 2.51149,0 4.59619,0.093 6.35261,0.093 0.14226,0 0.14226,-0.54718 0,-0.54718 -3.83018,0 -4.41018,-0.50338 -4.41018,-3.15714 v -21.1316 c 0,-2.51697 0.51982,-2.93282 3.83018,-2.93282 4.07639,0 6.11185,1.88226 6.566,6.64261 0,0.18057 0.54717,0.18057 0.54717,0 0,-1.4664 0.23528,-6.73015 0.47056,-8.65618 0,-0.22981 -0.54716,-0.22981 -0.54716,0 -0.32831,0.96301 -1.42264,1.14358 -3.60037,1.14358 -2.46772,0 -4.73846,0.13679 -9.14863,0.13679 -3.55658,0 -6.82864,-0.0438 -9.57542,-0.13679 -0.85358,0 -2.56075,-0.0876 -2.56075,-1.00678 0,-0.31737 -0.5198,-0.27359 -0.5198,0 0,2.10659 -0.47603,6.91618 -0.71132,8.51938 0,0.18057 0.54716,0.18057 0.54716,0.0438 1.09434,-4.62356 3.12981,-6.68639 7.06393,-6.68639 z m 54.86992,27.18873 c -1.84942,0 -3.08055,-1.23659 -5.30752,-5.72337 L 291.3272,159.45351 c -0.093,-0.18604 -0.66208,-0.18604 -0.71132,0 l -10.09523,22.48857 c -2.13395,4.76035 -3.41432,5.90393 -5.92582,5.90393 -0.28452,0 -0.28452,0.54717 0,0.54717 1.99169,0 3.03678,-0.18604 5.35677,-0.18604 2.41847,0 3.69885,0.18604 5.59204,0.18604 0.28453,0 0.28453,-0.54717 0,-0.54717 -3.9779,0 -5.59204,-1.78376 -3.93413,-5.47167 l 3.89036,-8.69995 h 8.72185 l 5.30751,10.66976 c 1.3734,2.703 0.80434,3.47998 -2.32545,3.47998 -0.28454,0 -0.28454,0.54717 0,0.54717 1.84942,0 3.08055,-0.18604 5.12148,-0.18604 1.80018,0 3.83017,0.18604 5.64129,0.18604 0.28453,0 0.28453,-0.54717 0,-0.54717 z m -21.99611,-15.20577 3.6496,-8.20751 4.07639,8.20751 z m 35.31416,-9.11033 c 0,-2.60999 0.54717,-3.2064 3.83017,-3.2064 0.14226,0 0.14226,-0.54716 0,-0.54716 -1.51566,0 -3.50734,0.13679 -5.73431,0.13679 -2.22697,0 -4.21866,-0.13679 -5.69054,-0.13679 -0.19151,0 -0.19151,0.54716 0,0.54716 3.283,0 3.79187,0.54717 3.79187,3.15715 v 21.2082 c 0,2.65376 -0.54717,3.15715 -3.79187,3.15715 -0.19151,0 -0.19151,0.54717 0,0.54717 h 22.03989 c 0.54717,0 0.71131,-0.18604 0.71131,-0.68943 a 58.656312,58.656312 0 0 1 0.42679,-6.68638 c 0,-0.18057 -0.51981,-0.22982 -0.54716,-0.093 -0.75509,3.89583 -3.4581,6.4128 -7.53449,6.4128 h -4.02715 c -2.94376,0 -3.46357,-0.41038 -3.46357,-2.8398 v -20.96744 z"
           class="cls-2"
           inkscape:connector-curvature="0" />
        <path
           style="fill:#ffffff;stroke-width:0.54716712"
           id="path125"
           d="m 144.57152,214.53135 c 3.50734,-1.2366 5.54827,-3.66602 5.54827,-6.6426 0,-3.52923 -2.65376,-6.01884 -8.24581,-6.01884 -1.7564,0 -4.03262,0.27905 -5.69054,0.27905 -2.13395,0 -4.12564,-0.13679 -5.69053,-0.13679 -0.14227,0 -0.14227,0.54717 0,0.54717 3.17904,0 3.83017,0.54717 3.83017,3.16262 v 21.20273 c 0,2.65376 -0.71132,3.15715 -3.88489,3.15715 -0.19151,0 -0.19151,0.54716 0,0.54716 1.56489,0 3.60036,-0.093 5.73431,-0.093 2.13395,0 5.023,0.27358 6.92166,0.27358 5.6413,0 9.9092,-3.66054 9.9092,-8.56316 0,-4.12017 -3.3213,-7.28279 -8.44279,-7.73695 z m -3.64961,-11.86258 c 3.83017,0 5.47167,2.3364 5.47167,5.58657 0,3.52377 -1.80565,6.31978 -6.21034,6.31978 -0.0985,0 -0.90283,0 -2.08471,-0.0438 v -8.70543 c 0,-2.79055 0.75509,-3.15715 2.8398,-3.15715 z m 1.42264,27.24892 c -3.60036,0 -4.26243,-0.86999 -4.26243,-2.97658 v -11.2224 a 27.314581,27.314581 0 0 1 3.283,-0.093 c 4.97921,0.0492 7.63298,3.2064 7.63298,7.74241 0,4.12017 -1.99169,6.56601 -6.63714,6.56601 z m 34.47152,1.28037 c 9.00637,0 16.63935,-6.63713 16.63935,-15.15652 0,-7.37582 -5.64129,-14.52182 -14.98143,-14.52182 -7.66034,0 -16.68312,4.9245 -16.68312,14.83917 0,8.06525 5.92581,14.83917 15.0252,14.83917 z m 1.6415,-1.00679 c -7.29921,0 -12.37145,-6.68638 -12.37145,-15.43558 0,-7.50713 3.79735,-12.13617 10.42901,-12.13617 7.726,0 12.58484,6.23223 12.58484,14.70238 0,8.28958 -4.69469,12.86937 -10.66975,12.86937 z m 36.02549,0.64019 c 8.67806,0 15.97727,-5.81639 15.97727,-14.97596 0,-7.87374 -6.63714,-13.91993 -16.63935,-13.91993 -1.75094,0 -4.55243,0.22981 -6.68091,0.22981 -2.12848,0 -4.12564,-0.13679 -5.69054,-0.13679 -0.19151,0 -0.19151,0.54716 0,0.54716 3.28301,0 3.83018,0.54717 3.83018,3.16263 v 21.20273 c 0,2.65375 -0.6183,3.15714 -3.89036,3.15714 -0.18604,0 -0.18604,0.54717 0,0.54717 1.56489,0 3.55658,-0.093 5.73978,-0.093 2.31998,0 5.47166,0.27358 7.34298,0.27358 z m -0.47057,-0.82075 c -4.12564,0 -4.97922,-1.09434 -4.97922,-3.573 v -20.61179 c 0,-2.703 1.47188,-3.11337 5.26374,-3.11337 7.24997,0 11.85165,6.22675 11.85165,14.14974 0,8.51939 -5.12148,13.132 -12.13617,13.132 z m 31.99286,-24.22856 c 0,-2.60999 0.54717,-3.2064 3.83017,-3.2064 0.14226,0 0.14226,-0.54716 0,-0.54716 -1.51565,0 -3.50734,0.13679 -5.73431,0.13679 -2.22697,0 -4.21866,-0.13679 -5.69054,-0.13679 -0.18604,0 -0.18604,0.54716 0,0.54716 3.283,0 3.79187,0.54717 3.79187,3.16263 v 21.20273 c 0,2.65375 -0.54717,3.15714 -3.79187,3.15714 -0.18604,0 -0.18604,0.54717 0,0.54717 h 22.04536 c 0.54717,0 0.70585,-0.18056 0.70585,-0.68942 a 58.656312,58.656312 0 0 1 0.42679,-6.68639 c 0,-0.18057 -0.54717,-0.22434 -0.54717,-0.0876 -0.76056,3.89036 -3.46357,6.40733 -7.53996,6.40733 h -4.02715 c -2.93829,0 -3.46357,-0.41038 -3.46357,-2.83433 v -20.97292 z m 43.13865,17.90878 c -0.90282,3.75356 -3.3213,5.90393 -6.92166,5.90393 h -3.08055 c -2.60999,0 -3.22281,-0.64018 -3.22281,-2.83433 v -10.48919 h 5.07223 c 3.40885,0 4.88073,1.2366 4.88073,3.83017 0,0.18057 0.54717,0.18057 0.54717,0 0,-1.6032 -0.14227,-2.88357 -0.14227,-4.37734 0,-1.14905 0.0438,-1.9698 0.0438,-3.83016 0,-0.13679 -0.54717,-0.13679 -0.54717,0 0,2.24886 -1.42263,3.283 -4.68922,3.283 h -5.2145 v -9.30184 c 0,-2.18867 0.71131,-2.8398 3.4581,-2.8398 h 2.46772 c 3.283,0 5.35676,1.83301 5.87657,5.1762 0,0.18057 0.51981,0.1368 0.51981,0 l -0.093,-5.81639 c 0,-0.27358 -0.0985,-0.41037 -0.42679,-0.41037 h -19.33689 c -0.18603,0 -0.18603,0.54717 0,0.54717 3.28301,0 3.83018,0.54716 3.83018,3.16263 v 21.20272 c 0,2.65376 -0.54717,3.15715 -3.83018,3.15715 -0.18603,0 -0.18603,0.54717 0,0.54717 h 20.19595 c 0.54716,0 0.71131,-0.18056 0.71131,-0.68943 a 48.544664,48.544664 0 0 1 0.47603,-6.18299 c 0,-0.18056 -0.54716,-0.27358 -0.54716,-0.0876 z m 16.73237,3.25018 v -21.11519 c 0,-2.60999 0.54717,-3.25017 3.83017,-3.25017 0.14227,0 0.14227,-0.54716 0,-0.54716 -1.51565,0 -3.50734,0.13679 -5.82733,0.13679 -2.13395,0 -4.17488,-0.13679 -5.73978,-0.13679 -0.13679,0 -0.13679,0.54716 0,0.54716 3.283,0 3.89036,0.54717 3.89036,3.16263 v 21.20273 c 0,2.65375 -0.6183,3.15714 -3.89036,3.15714 -0.13679,0 -0.13679,0.54717 0,0.54717 1.5649,0 3.60583,-0.093 5.73978,-0.093 2.31999,0 4.26243,0.093 5.82733,0.093 0.14227,0 0.14227,-0.54717 0,-0.54717 -3.36508,0 -3.83017,-0.50339 -3.83017,-3.15714 z m 43.41771,3.15714 c -1.84943,0 -3.08055,-1.23112 -5.30752,-5.72337 L 332.6602,201.72764 c -0.093,-0.18604 -0.66207,-0.18604 -0.71131,0 l -10.09524,22.48857 c -2.13395,4.76035 -3.41432,5.90393 -5.92582,5.90393 -0.28453,0 -0.28453,0.54717 0,0.54717 1.99169,0 3.03131,-0.18056 5.35677,-0.18056 2.41848,0 3.69884,0.18056 5.59205,0.18056 0.28452,0 0.28452,-0.54717 0,-0.54717 -3.97791,0 -5.59205,-1.78376 -3.93414,-5.47167 l 3.89036,-8.69996 h 8.72184 l 5.30753,10.66976 c 1.37338,2.70301 0.80434,3.47998 -2.32547,3.47998 -0.28452,0 -0.28452,0.54717 0,0.54717 1.84943,0 3.08056,-0.18056 5.12149,-0.18056 1.80018,0 3.83017,0.18056 5.64129,0.18056 0.28453,0 0.28453,-0.54717 0,-0.54717 z m -21.99612,-15.20029 3.64961,-8.20751 4.07639,8.20751 z m 59.77254,-12.86937 c -1.2749,0 -2.8398,0.13679 -4.45394,0.13679 -1.61414,0 -3.0313,-0.13679 -4.31168,-0.13679 -0.14226,0 -0.14226,0.54716 0,0.54716 2.55527,0 3.69885,1.55943 3.69885,4.71658 v 17.67897 l -17.65161,-20.56254 c -1.46641,-1.73999 -1.42263,-2.38017 -2.27622,-2.38017 -0.66207,0 -1.99168,0.0876 -3.50734,0.0876 -0.99584,0 -2.31998,-0.0876 -3.45809,-0.0876 -0.19151,0 -0.19151,0.54716 0,0.54716 1.28037,0 2.51149,0.45962 4.12017,2.01357 v 20.79236 c 0,3.2064 -1.23113,4.71657 -3.97791,4.71657 -0.19151,0 -0.19151,0.54717 0,0.54717 1.37339,0 2.98753,-0.093 4.64545,-0.093 1.65792,0 3.03131,0.093 4.31168,0.093 0.19151,0 0.19151,-0.54717 0,-0.54717 -2.56075,0 -3.74263,-1.51017 -3.74263,-4.71657 v -19.50651 l 22.2314,25.46516 c 0.093,0.0876 0.54717,0.0438 0.54717,-0.093 v -23.95497 c 0,-3.15715 1.23112,-4.71658 3.83016,-4.71658 0.19152,0 0.19152,-0.54716 0,-0.54716 z"
           class="cls-2"
           inkscape:connector-curvature="0" />
      </g>
    </g>
  </g>
</svg>
