<?xml version="1.0" encoding="UTF-8" standalone="no"?>
<svg
   xmlns:dc="http://purl.org/dc/elements/1.1/"
   xmlns:cc="http://creativecommons.org/ns#"
   xmlns:rdf="http://www.w3.org/1999/02/22-rdf-syntax-ns#"
   xmlns:svg="http://www.w3.org/2000/svg"
   xmlns="http://www.w3.org/2000/svg"
   xmlns:sodipodi="http://sodipodi.sourceforge.net/DTD/sodipodi-0.dtd"
   xmlns:inkscape="http://www.inkscape.org/namespaces/inkscape"
   id="svg"
   version="1.1"
   width="400"
   height="376"
   viewBox="0, 0, 400,376"
   sodipodi:docname="9_Esoteric.svg"
   inkscape:version="0.92.5 (2060ec1f9f, 2020-04-08)">
  <metadata
     id="metadata13">
    <rdf:RDF>
      <cc:Work
         rdf:about="">
        <dc:format>image/svg+xml</dc:format>
        <dc:type
           rdf:resource="http://purl.org/dc/dcmitype/StillImage" />
        <dc:title />
      </cc:Work>
    </rdf:RDF>
  </metadata>
  <defs
     id="defs11">
    <clipPath
       id="clip-path"
       transform="translate(-11.23 -18.81)">
      <rect
         class="cls-1"
         x="11.23"
         y="18.809999"
         width="226.12"
         height="176.42"
         id="rect4" />
    </clipPath>
  </defs>
  <sodipodi:namedview
     pagecolor="#ffffff"
     bordercolor="#666666"
     borderopacity="1"
     objecttolerance="10"
     gridtolerance="10"
     guidetolerance="10"
     inkscape:pageopacity="0"
     inkscape:pageshadow="2"
     inkscape:window-width="1306"
     inkscape:window-height="704"
     id="namedview9"
     showgrid="false"
     inkscape:zoom="0.62765957"
     inkscape:cx="424.38733"
     inkscape:cy="131.52379"
     inkscape:window-x="60"
     inkscape:window-y="27"
     inkscape:window-maximized="1"
     inkscape:current-layer="svg" />
  <path
     style="fill:#ffffff;fill-opacity:1;fill-rule:evenodd;stroke:none;stroke-width:1.16965437"
     inkscape:connector-curvature="0"
     d="m 185.38403,57.115659 -0.12168,21.638608 -21.6386,0.121684 -21.63861,0.121683 v 14.962213 14.962213 l 21.63861,0.12168 21.6386,0.12169 v 21.05377 21.05378 l -36.37624,0.11933 c -34.50013,0.11463 -36.37626,0.0771 -36.37626,-0.70531 0,-0.45498 0.42109,-1.08894 0.93572,-1.4106 0.51466,-0.32165 0.93574,-0.8597 0.93574,-1.19538 0,-0.33569 0.6316,-1.21527 1.40358,-1.95449 0.77197,-0.73924 1.40359,-1.58839 1.40359,-1.88666 0,-0.29826 0.42107,-0.92286 0.93572,-1.38838 0.51465,-0.46552 0.93572,-1.09714 0.93572,-1.40359 0,-0.30645 0.42108,-0.93805 0.93573,-1.40357 0.51463,-0.46553 0.93572,-1.09364 0.93572,-1.39424 0,-0.30176 0.53218,-1.04801 1.18135,-1.65856 1.48429,-1.39423 2.69956,-3.78034 2.18725,-4.29264 -1.04918,-1.04917 -29.283455,-0.18948 -29.830867,0.90883 -0.287725,0.5778 -0.872554,1.43634 -1.300645,1.90886 -0.426929,0.47255 -0.776658,1.0796 -0.776658,1.3498 0,0.26901 -0.319309,0.75558 -0.709969,1.07957 -0.390673,0.324 -1.067898,1.3498 -1.503014,2.27966 -0.436276,0.92987 -1.015255,1.91941 -1.287785,2.20013 -0.271369,0.28071 -1.648052,2.26796 -3.058655,4.41662 l -2.563873,3.90547 -0.119333,-39.62204 -0.120439,-39.623214 H 65.487436 47.944948 V 171.59692 c 0,66.22583 0.157912,100.19258 0.46786,100.38439 0.257332,0.15908 0.467873,1.84338 0.467873,3.74291 0,1.89951 0.210526,3.58381 0.46786,3.74289 0.257319,0.15907 0.467859,1.4223 0.467859,2.80718 0,1.38487 0.21054,2.64809 0.467859,2.80716 0.257319,0.15907 0.46786,1.21176 0.46786,2.33932 0,1.12753 0.210541,2.18022 0.46786,2.33929 0.257332,0.15907 0.467873,1.0141 0.467873,1.89953 0,0.88542 0.210526,1.60944 0.46786,1.60944 0.257319,0 0.467859,0.63162 0.467859,1.40359 0,0.77197 0.21054,1.40358 0.467859,1.40358 0.257319,0 0.46786,0.63162 0.46786,1.40359 0,0.77197 0.210541,1.40358 0.46786,1.40358 0.257332,0 0.467873,0.63161 0.467873,1.40359 0,0.77198 0.210526,1.40356 0.46786,1.40356 0.257319,0 0.467859,0.4211 0.467859,0.93573 0,0.51465 0.21054,0.93573 0.467859,0.93573 0.257319,0 0.46786,0.42106 0.46786,0.93572 0,0.51466 0.157912,0.9369 0.350905,0.93923 0.407031,0.004 1.520547,2.25978 1.520547,3.08087 0,0.30761 0.305273,0.67606 0.679561,0.81876 0.373126,0.14386 1.094807,1.16614 1.601259,2.27263 0.507628,1.1065 1.676126,2.737 2.595473,3.6236 0.920508,0.88776 1.673771,1.84103 1.673771,2.11941 0,0.64214 5.709075,6.32782 6.353555,6.32782 0.264344,0 1.205926,0.75326 2.093691,1.67378 0.886589,0.91935 2.517094,2.08783 3.623584,2.59546 1.106492,0.50647 2.128772,1.22814 2.272635,1.60127 0.142702,0.37428 0.658515,0.67956 1.14626,0.67956 0.486582,0 0.885427,0.21054 0.885427,0.46787 0,0.25731 0.42108,0.46786 0.935733,0.46786 0.514639,0 0.935719,0.21054 0.935719,0.46786 0,0.25731 0.421081,0.46786 0.935733,0.46786 0.514638,0 0.935719,0.21053 0.935719,0.46786 0,0.25733 0.421067,0.46787 0.935719,0.46787 0.514653,0 0.935719,0.21052 0.935719,0.46786 0,0.25732 0.42108,0.46785 0.935733,0.46785 0.514639,0 0.935719,0.21055 0.935719,0.46786 0,0.25733 0.631621,0.46786 1.403593,0.46786 0.771972,0 1.403578,0.21055 1.403578,0.46786 0,0.25734 0.513477,0.46787 1.141586,0.46787 0.628108,0 1.272575,0.21054 1.431648,0.46787 0.159074,0.25731 1.001235,0.46786 1.871453,0.46786 0.870216,0 1.712378,0.21054 1.871451,0.46786 0.159074,0.25732 1.001221,0.46786 1.871438,0.46786 0.87023,0 1.71238,0.21053 1.87145,0.46786 0.15908,0.25733 1.21176,0.46785 2.33931,0.46785 1.12754,0 2.18024,0.21055 2.33931,0.46788 0.15906,0.25732 2.05391,0.46785 4.21075,0.46785 2.15685,0 4.05168,0.21055 4.21075,0.46786 0.17311,0.27954 3.27036,0.46787 7.71972,0.46787 4.44937,0 7.54662,-0.18833 7.71972,-0.46787 0.15908,-0.25731 1.94864,-0.46786 3.97682,-0.46786 2.02819,0 3.81776,-0.21053 3.97683,-0.46785 0.15907,-0.25733 1.42229,-0.46788 2.80717,-0.46788 1.38487,0 2.6481,-0.21052 2.80717,-0.46785 0.15908,-0.25733 1.00122,-0.46786 1.87146,-0.46786 0.87021,0 1.71236,-0.21054 1.87143,-0.46786 0.15907,-0.25732 0.79069,-0.46786 1.40359,-0.46786 0.6129,0 1.24451,-0.21055 1.40359,-0.46786 0.15907,-0.25733 0.69127,-0.46787 1.18252,-0.46787 0.49242,0 1.64453,-0.42107 2.56037,-0.93573 0.91584,-0.51464 1.92058,-0.93572 2.23288,-0.93572 0.87021,0 7.20506,-3.22824 7.84369,-3.99788 0.31114,-0.37429 0.82228,-0.68074 1.13691,-0.68074 0.31463,0 0.95327,-0.42106 1.41879,-0.93572 0.46552,-0.51464 1.09713,-0.93571 1.40358,-0.93571 0.30645,0 0.93807,-0.42109 1.4036,-0.93573 0.46552,-0.51465 1.12988,-0.93573 1.4761,-0.93573 0.34622,0 0.62927,-0.21054 0.62927,-0.46786 0,-0.2573 0.31815,-0.46786 0.70764,-0.46786 1.50768,0 3.97098,-1.86558 3.97098,-3.00718 0,-0.40468 0.37428,-0.73572 0.83045,-0.73572 0.85853,0 7.59105,-6.44713 7.59105,-7.26939 0,-0.25382 0.47372,-0.67022 1.0527,-0.92403 1.19421,-0.52399 1.74279,-2.56739 0.69009,-2.56739 -0.36376,0 -1.0059,-0.38012 -1.42581,-0.8445 -0.42107,-0.46433 -1.50651,-1.13572 -2.41182,-1.49128 -0.90649,-0.35559 -1.64805,-0.81759 -1.64805,-1.02696 0,-0.20937 -0.42107,-0.38013 -0.93572,-0.38013 -0.51466,0 -0.93572,-0.21055 -0.93572,-0.46788 0,-0.25731 -0.3743,-0.46786 -0.8328,-0.46786 -0.45733,0 -1.13574,-0.42106 -1.50651,-0.93572 -0.37079,-0.51465 -1.04918,-0.93572 -1.50651,-0.93572 -0.45851,0 -0.8328,-0.21053 -0.8328,-0.46787 0,-0.25732 -0.42108,-0.46786 -0.93572,-0.46786 -0.51465,0 -0.93574,-0.21054 -0.93574,-0.46786 0,-0.25732 -0.42106,-0.46785 -0.93571,-0.46785 -0.51465,0 -0.93572,-0.21055 -0.93572,-0.46786 0,-0.25734 -0.37429,-0.46787 -0.8328,-0.46787 -0.45734,0 -1.13573,-0.42107 -1.50652,-0.93573 -0.37077,-0.51464 -1.04917,-0.93572 -1.50651,-0.93572 -0.45851,0 -0.83279,-0.21054 -0.83279,-0.46786 0,-0.25732 -0.40354,-0.46786 -0.89713,-0.46786 -0.49242,0 -0.96613,-0.1661 -1.05269,-0.36844 -0.0853,-0.20235 -1.36265,-0.9521 -2.83642,-1.66676 -1.47492,-0.71465 -2.79546,-1.48313 -2.93348,-1.7077 -0.1392,-0.22456 -0.8714,-0.71699 -1.627,-1.0948 -1.44685,-0.7205 -1.88313,-0.5088 -2.49603,1.21176 -0.16141,0.45033 -0.61524,0.81877 -1.00825,0.81877 -0.39417,0 -0.71699,0.21055 -0.71699,0.46786 0,0.25732 -0.37429,0.46786 -0.83279,0.46786 -0.45734,0 -1.13574,0.42108 -1.50651,0.93571 -0.3708,0.51466 -0.9603,0.93574 -1.31003,0.93574 -0.34856,0 -1.44335,0.84215 -2.43287,1.87144 -0.98954,1.0293 -2.08433,1.87146 -2.43289,1.87146 -0.34973,0 -0.93923,0.42107 -1.31001,0.93571 -0.37078,0.51465 -1.04918,0.93573 -1.50652,0.93573 -0.45849,0 -0.8328,0.21053 -0.8328,0.46786 0,0.25732 -0.37078,0.46786 -0.82344,0.46786 -0.45266,0 -1.08544,0.42108 -1.40708,0.93572 -0.37313,0.59653 -1.09129,0.93574 -1.98374,0.93574 -0.77081,0 -1.40007,0.21052 -1.40007,0.46786 0,0.25731 -0.51349,0.46786 -1.14158,0.46786 -0.62811,0 -1.27259,0.21053 -1.43166,0.46785 -0.17428,0.28072 -3.35808,0.46786 -7.98173,0.46786 -4.81546,0 -7.69164,-0.17544 -7.69164,-0.46786 0,-0.25732 -0.93454,-0.46785 -2.07731,-0.46785 -1.14276,0 -2.2083,-0.21055 -2.36738,-0.46786 -0.15907,-0.25734 -1.00123,-0.46786 -1.87143,-0.46786 -0.87025,0 -1.71238,-0.21055 -1.87146,-0.46788 -0.15907,-0.25731 -0.65618,-0.46786 -1.10531,-0.46786 -1.04919,0 -5.42954,-2.17673 -6.16525,-3.06332 -0.30998,-0.3743 -0.814079,-0.67956 -1.120529,-0.67956 -0.306449,0 -1.162645,-0.63161 -1.901859,-1.40359 -0.739242,-0.77198 -1.584901,-1.40359 -1.877301,-1.40359 -0.640968,0 -2.567385,-1.97555 -2.567385,-2.63288 0,-0.25734 -0.63162,-1.07257 -1.403592,-1.81181 -0.771973,-0.73923 -1.403579,-1.5954 -1.403579,-1.90185 0,-0.30645 -0.311137,-0.81526 -0.692449,-1.13105 -0.899448,-0.74742 -2.114722,-3.19667 -2.114722,-4.26339 0,-0.45967 -0.210554,-0.96614 -0.467859,-1.12522 -0.257333,-0.15907 -0.467874,-0.79068 -0.467874,-1.40358 0,-0.6129 -0.210527,-1.24452 -0.467859,-1.40359 -0.25732,-0.15908 -0.46786,-1.21177 -0.46786,-2.33931 0,-1.12754 -0.21054,-2.18023 -0.467859,-2.3393 -0.25732,-0.15908 -0.46786,-1.43517 -0.46786,-2.83524 0,-1.40008 -0.21054,-2.54517 -0.467859,-2.54517 -0.292414,0 -0.46786,-2.87618 -0.46786,-7.69166 0,-4.62364 -0.187157,-7.80743 -0.467873,-7.98171 -0.305274,-0.18832 -0.46786,-12.55858 -0.46786,-35.58557 V 186.59656 H 200.00002 316.96544 v 35.29548 c 0,23.02699 -0.16259,35.39725 -0.46786,35.58557 -0.28072,0.17428 -0.46786,3.35807 -0.46786,7.98171 0,4.81548 -0.17545,7.69166 -0.46787,7.69166 -0.25966,0 -0.46787,1.24803 -0.46787,2.80716 0,1.55916 -0.20818,2.80716 -0.46786,2.80716 -0.25732,0 -0.46785,0.93455 -0.46785,2.07731 0,1.14277 -0.21054,2.2083 -0.46786,2.36737 -0.25733,0.15909 -0.46786,0.7907 -0.46786,1.4036 0,0.61291 -0.21054,1.24452 -0.46786,1.40358 -0.25734,0.15908 -0.46786,0.66553 -0.46786,1.12521 0,1.06672 -1.21527,3.51598 -2.11474,4.26339 -0.38131,0.3158 -0.69243,0.82461 -0.69243,1.13107 0,0.30643 -0.63162,1.16262 -1.40359,1.90185 -0.77197,0.73924 -1.40358,1.58489 -1.40358,1.8773 0,0.64098 -1.97555,2.56739 -2.63291,2.56739 -0.25731,0 -1.07257,0.63161 -1.81178,1.40359 -0.73923,0.77198 -1.59541,1.40356 -1.90186,1.40356 -0.30645,0 -0.81058,0.30529 -1.12054,0.67959 -0.7357,0.88659 -5.11606,3.06332 -6.16523,3.06332 -0.44915,0 -0.94626,0.21055 -1.10534,0.46786 -0.15907,0.25733 -1.00121,0.46788 -1.87143,0.46788 -0.87024,0 -1.71238,0.21052 -1.87145,0.46786 -0.15908,0.2573 -1.22464,0.46786 -2.36739,0.46786 -1.14274,0 -2.0773,0.21053 -2.0773,0.46785 0,0.29357 -2.88554,0.46785 -7.71972,0.46785 -4.83418,0 -7.71971,-0.17428 -7.71971,-0.46785 0,-0.25732 -0.63163,-0.46785 -1.4036,-0.46785 -0.77197,0 -1.40357,-0.21056 -1.40357,-0.46786 0,-0.25734 -0.58484,-0.46786 -1.30066,-0.46786 -0.76379,0 -1.57787,-0.386 -1.97438,-0.93574 -0.37079,-0.51465 -1.04918,-0.93572 -1.50652,-0.93572 -0.4585,0 -0.83278,-0.21054 -0.83278,-0.46786 0,-0.25733 -0.27605,-0.46786 -0.61409,-0.46786 -0.33684,0 -1.06553,-0.42108 -1.61762,-0.93573 -0.55207,-0.51464 -1.20709,-0.93571 -1.45505,-0.93571 -0.24913,0 -1.27726,-0.84216 -2.28668,-1.87146 -1.00823,-1.02929 -2.05159,-1.87144 -2.31826,-1.87144 -0.2655,0 -0.75443,-0.32633 -1.08428,-0.72519 -0.33098,-0.39884 -1.51469,-1.14041 -2.63055,-1.64921 -1.11583,-0.50765 -2.02934,-1.19188 -2.02934,-1.52056 0,-1.79308 -2.60482,-1.54862 -4.21894,0.39534 -0.31581,0.38129 -0.86439,0.69244 -1.21878,0.69244 -0.35441,0 -0.64449,0.21056 -0.64449,0.46785 0,0.25733 -0.42107,0.46786 -0.93571,0.46786 -0.51464,0 -0.93574,0.21055 -0.93574,0.46786 0,0.25734 -0.42107,0.46786 -0.9357,0.46786 -0.51466,0 -0.93572,0.21055 -0.93572,0.46788 0,0.25731 -0.4211,0.46786 -0.93574,0.46786 -0.51464,0 -0.93573,0.21054 -0.93573,0.46786 0,0.25731 -0.37429,0.46786 -0.83278,0.46786 -0.45733,0 -1.13573,0.42108 -1.50651,0.93572 -0.37078,0.51465 -1.04918,0.93573 -1.50654,0.93573 -0.4585,0 -0.83278,0.21053 -0.83278,0.46785 0,0.25733 -0.42107,0.46786 -0.93573,0.46786 -0.51464,0 -0.93572,0.21055 -0.93572,0.46786 0,0.25732 -0.42108,0.46787 -0.93572,0.46787 -0.51465,0 -0.93574,0.21054 -0.93574,0.46786 0,0.25732 -0.34387,0.46787 -0.76378,0.46787 -0.41991,0 -1.10415,0.37778 -1.52055,0.83982 -0.41639,0.462 -2.37088,1.62932 -4.34292,2.59428 -1.97204,0.96498 -3.83998,2.06094 -4.1511,2.43522 -0.31114,0.3743 -0.85502,0.68074 -1.20942,0.68074 -0.35441,0 -0.64448,0.33101 -0.64448,0.73572 0,0.81174 1.08427,2.07145 1.78372,2.07145 0.2468,0 0.76495,0.47371 1.15327,1.05268 1.38371,2.06562 6.34189,6.90096 7.07642,6.90096 0.41054,0 0.74741,0.33103 0.74741,0.73572 0,0.94508 1.12637,2.07145 2.07145,2.07145 0.4047,0 0.73572,0.21054 0.73572,0.46787 0,0.25733 0.42106,0.46786 0.93572,0.46786 0.51465,0 0.93573,0.21055 0.93573,0.46786 0,0.25732 0.34388,0.46786 0.76379,0.46786 0.4199,0 1.10414,0.36962 1.52053,0.82226 0.41642,0.4515 1.33576,1.11937 2.04338,1.48196 0.70766,0.36376 1.28663,0.83631 1.28663,1.05035 0,0.21287 0.39888,0.38832 0.88544,0.38832 0.48775,0 0.99655,0.2889 1.13223,0.64332 0.25497,0.6632 6.67288,4.0353 7.67994,4.0353 0.31229,0 1.31702,0.42108 2.23289,0.93572 0.91582,0.51466 2.06794,0.93573 2.56037,0.93573 0.49124,0 1.02344,0.21054 1.18252,0.46787 0.15907,0.25731 0.79068,0.46786 1.40357,0.46786 0.6129,0 1.24452,0.21054 1.40359,0.46786 0.15908,0.25732 1.00123,0.46786 1.87146,0.46786 0.87021,0 1.71237,0.21053 1.87144,0.46786 0.15907,0.25733 1.42229,0.46785 2.80717,0.46785 1.38487,0 2.6481,0.21055 2.80717,0.46788 0.15908,0.25732 2.06677,0.46785 4.23883,0.46785 2.32059,0 3.94875,0.193 3.94875,0.46786 0,0.29242 2.79781,0.46787 7.45771,0.46787 4.46807,0 7.57468,-0.18715 7.74778,-0.46787 0.15908,-0.25731 2.05393,-0.46786 4.21076,-0.46786 2.15683,0 4.0517,-0.21053 4.21076,-0.46785 0.15908,-0.25733 1.21176,-0.46788 2.3393,-0.46788 1.12755,0 2.18023,-0.21052 2.33931,-0.46785 0.15908,-0.25733 1.00124,-0.46786 1.87144,-0.46786 0.87022,0 1.71238,-0.21054 1.87146,-0.46786 0.15908,-0.25732 1.00121,-0.46786 1.87145,-0.46786 0.87023,0 1.71236,-0.21055 1.87143,-0.46786 0.1591,-0.25733 0.7907,-0.46787 1.40359,-0.46787 0.61289,0 1.24452,-0.21053 1.40359,-0.46787 0.15908,-0.25731 0.80356,-0.46786 1.43164,-0.46786 0.62812,0 1.14159,-0.21053 1.14159,-0.46786 0,-0.25731 0.42109,-0.46786 0.93574,-0.46786 0.51464,0 0.93572,-0.21053 0.93572,-0.46785 0,-0.25734 0.42107,-0.46786 0.93571,-0.46786 0.51466,0 0.93572,-0.21054 0.93572,-0.46787 0,-0.25733 0.42108,-0.46786 0.93573,-0.46786 0.51464,0 0.93573,-0.21055 0.93573,-0.46786 0,-0.25732 0.42107,-0.46786 0.93571,-0.46786 0.51465,0 0.93574,-0.21055 0.93574,-0.46786 0,-0.25733 0.37428,-0.46787 0.83278,-0.46787 0.45734,0 1.13573,-0.42107 1.50651,-0.93573 0.3708,-0.51463 1.04919,-0.93572 1.50653,-0.93572 0.4585,0 0.83278,-0.21053 0.83278,-0.46785 0,-0.25734 0.29945,-0.46786 0.66554,-0.46786 0.36611,0 1.4913,-0.84217 2.50073,-1.87146 1.00823,-1.02929 2.03051,-1.87145 2.27146,-1.87145 0.59419,0 6.25881,-5.75118 6.25881,-6.35356 0,-0.26434 0.75328,-1.20591 1.6738,-2.09367 0.91934,-0.8866 2.08782,-2.5171 2.59545,-3.6236 0.50646,-1.10649 1.22813,-2.12877 1.60126,-2.27263 0.37428,-0.1427 0.67956,-0.65852 0.67956,-1.14627 0,-0.48657 0.21054,-0.88542 0.46787,-0.88542 0.25732,0 0.46786,-0.42108 0.46786,-0.93571 0,-0.51466 0.21054,-0.93574 0.46786,-0.93574 0.25732,0 0.46786,-0.42106 0.46786,-0.93572 0,-0.51466 0.21055,-0.93572 0.46786,-0.93572 0.25733,0 0.46786,-0.42108 0.46786,-0.93573 0,-0.51464 0.21054,-0.93573 0.46788,-0.93573 0.25731,0 0.46786,-0.6316 0.46786,-1.40356 0,-0.77198 0.21053,-1.40359 0.46786,-1.40359 0.25731,0 0.46785,-0.63161 0.46785,-1.40358 0,-0.77197 0.21054,-1.40359 0.46786,-1.40359 0.25734,0 0.46786,-0.51348 0.46786,-1.14159 0,-0.62809 0.21054,-1.27257 0.46786,-1.43164 0.25733,-0.15908 0.46787,-1.00124 0.46787,-1.87146 0,-0.87021 0.21054,-1.71238 0.46786,-1.87145 0.25732,-0.15907 0.46786,-1.21176 0.46786,-2.33929 0,-1.12756 0.21055,-2.18025 0.46787,-2.33932 0.25731,-0.15907 0.46786,-1.42229 0.46786,-2.80716 0,-1.38488 0.21053,-2.64811 0.46785,-2.80718 0.25734,-0.15908 0.46788,-1.85625 0.46788,-3.77096 0,-2.00831 0.19766,-3.4809 0.46786,-3.4809 0.30996,0 0.46785,-33.76441 0.46785,-100.35633 V 71.502576 h -17.54482 -17.5448 v 38.598594 c 0,21.22922 -0.12045,38.59858 -0.26787,38.59858 -0.50762,0 -1.60359,-1.33925 -1.60359,-1.95915 0,-0.34272 -0.42106,-0.88544 -0.93572,-1.2071 -0.51464,-0.32164 -0.93571,-0.87256 -0.93571,-1.22463 0,-0.35322 -0.32634,-0.91231 -0.7252,-1.24216 -0.39884,-0.33101 -1.1252,-1.48078 -1.61412,-2.55452 -0.48892,-1.07375 -1.21527,-2.22352 -1.61411,-2.55454 -0.39887,-0.32985 -0.7252,-0.82226 -0.7252,-1.09127 0,-0.2702 -0.34973,-0.87725 -0.77665,-1.3498 -0.42809,-0.47252 -1.01292,-1.33106 -1.30065,-1.90886 l -0.52285,-1.04919 -14.66746,-0.12403 -14.66628,-0.12404 0.30294,1.51469 c 0.16608,0.8328 0.92987,2.16269 1.69717,2.95339 0.76729,0.79186 1.39423,1.65974 1.39423,1.92875 0,0.26902 0.42107,0.8714 0.93571,1.33693 0.51466,0.46552 0.93572,1.1287 0.93572,1.47259 0,0.34388 0.42108,0.88776 0.93573,1.20942 0.51465,0.32166 0.93573,0.93105 0.93573,1.35446 0,0.42458 0.62927,1.26791 1.3989,1.87613 0.76964,0.6082 1.40124,1.42697 1.40358,1.82115 0.003,0.393 0.42575,1.01876 0.9404,1.38956 0.51466,0.37077 0.93573,1.05032 0.93573,1.51002 0,0.79535 -1.74395,0.82927 -36.84411,0.71465 l -36.84411,-0.11933 v -21.05378 -21.05377 l 21.6386,-0.12169 21.6386,-0.12168 V 93.959737 78.997523 l -21.6386,-0.121683 -21.6386,-0.121683 -0.12168,-21.638609 -0.12169,-21.638598 h -14.49435 -14.49437 l -0.12168,21.638598 M 256.37721,203.4393 c -0.15908,0.25733 -1.42231,0.46786 -2.80718,0.46786 -1.38486,0 -2.64809,0.21055 -2.80716,0.46787 -0.15908,0.25733 -0.79069,0.46786 -1.40359,0.46786 -0.6129,0 -1.24452,0.21054 -1.40359,0.46786 -0.15906,0.25733 -0.65616,0.46787 -1.10531,0.46787 -1.04919,0 -5.42953,2.17673 -6.16525,3.06332 -0.30996,0.37428 -0.77548,0.67957 -1.03398,0.67957 -0.60588,0 -8.30455,7.68462 -8.30455,8.28934 0,0.2503 -0.42106,0.8363 -0.93572,1.30183 -0.51464,0.46552 -0.93571,1.23514 -0.93571,1.71003 0,0.47488 -0.15792,0.86438 -0.3509,0.86671 -0.4164,0.004 -1.52055,2.26679 -1.52055,3.11714 0,0.32633 -0.42109,1.34393 -0.93572,2.25975 -0.51466,0.91586 -0.93574,2.27851 -0.93574,3.02824 0,0.74859 -0.21054,1.49132 -0.46786,1.65039 -0.25732,0.15908 -0.46786,1.63284 -0.46786,3.27503 0,1.64219 -0.21053,3.11596 -0.46786,3.27503 -0.26083,0.16141 -0.46785,2.33464 -0.46785,4.91255 0,2.57792 0.20702,4.75114 0.46785,4.91255 0.25733,0.15907 0.46786,1.63284 0.46786,3.27504 0,1.64218 0.21054,3.11596 0.46786,3.27503 0.25732,0.15908 0.46786,0.79068 0.46786,1.40357 0,0.6129 0.21055,1.24452 0.46786,1.4036 0.25733,0.15907 0.46788,0.79068 0.46788,1.40358 0,0.6129 0.21052,1.24452 0.46786,1.40359 0.25731,0.15906 0.46786,0.80354 0.46786,1.43165 0,0.62811 0.21053,1.14159 0.46786,1.14159 0.25732,0 0.46786,0.42108 0.46786,0.93571 0,0.51466 0.21053,0.93573 0.46785,0.93573 0.25734,0 0.46788,0.3743 0.46788,0.8328 0,0.45733 0.42107,1.13573 0.93571,1.50651 0.51466,0.37078 0.93572,0.96496 0.93572,1.31936 0,0.35442 0.63163,1.234 1.4036,1.95566 0.77197,0.72168 1.40358,1.55799 1.40358,1.8586 0,0.70295 1.1755,1.88431 1.87496,1.88431 0.29591,0 1.31119,0.79185 2.25508,1.76032 1.72057,1.76384 8.97594,5.73716 10.46256,5.72897 0.43511,-0.003 0.92169,0.20703 1.08076,0.46435 0.15908,0.25733 1.00123,0.46787 1.87146,0.46787 0.87021,0 1.71237,0.21052 1.87143,0.46786 0.1778,0.28773 4.05052,0.46786 10.05903,0.46786 6.00852,0 9.88125,-0.18013 10.05903,-0.46786 0.15908,-0.25734 1.01409,-0.46786 1.89952,-0.46786 0.88544,0 1.60945,-0.21054 1.60945,-0.46787 0,-0.25732 0.63161,-0.46786 1.40357,-0.46786 0.77198,0 1.4036,-0.21055 1.4036,-0.46786 0,-0.25732 0.63161,-0.46786 1.40358,-0.46786 0.77197,0 1.40359,-0.21054 1.40359,-0.46786 0,-0.25733 0.63161,-0.46785 1.40358,-0.46785 0.77197,0 1.40359,-0.21055 1.40359,-0.46789 0,-0.25731 0.42107,-0.46785 0.93572,-0.46785 0.51464,0 0.9369,-0.1579 0.93924,-0.35089 0.004,-0.39183 2.24573,-1.52055 3.01887,-1.52055 0.27253,0 0.75793,-0.42108 1.07959,-0.93573 0.32166,-0.51464 0.85618,-0.93573 1.1872,-0.93573 0.33219,0 1.38604,-0.80121 2.34166,-1.78021 l 1.73927,-1.78138 -0.12404,-15.64646 -0.12279,-15.64764 -16.97285,-0.12279 -16.97169,-0.12278 0.12873,6.90681 0.12985,6.9068 8.53848,0.12749 8.53847,0.12749 v 4.8143 4.81548 l -1.64805,0.64564 c -0.90531,0.35558 -1.99074,1.02695 -2.41182,1.49132 -0.4199,0.46434 -1.14625,0.84448 -1.61295,0.84448 -0.46669,0 -1.59892,0.42108 -2.51477,0.93572 -0.91583,0.51465 -2.29134,0.93574 -3.05513,0.93574 -0.76378,0 -1.38956,0.21053 -1.38956,0.46785 0,0.28072 -1.87143,0.46786 -4.6786,0.46786 -2.80717,0 -4.67862,-0.18714 -4.67862,-0.46786 0,-0.25732 -0.63161,-0.46785 -1.40358,-0.46785 -0.77197,0 -1.40359,-0.21055 -1.40359,-0.46786 0,-0.25734 -0.58483,-0.46788 -1.30065,-0.46788 -0.76379,0 -1.57787,-0.38599 -1.97439,-0.93572 -0.37077,-0.51465 -0.94273,-0.93572 -1.2714,-0.93572 -0.70999,0 -4.80495,-4.22011 -4.80846,-4.957 -0.001,-0.28187 -0.42692,-0.89595 -0.94507,-1.36498 -0.51816,-0.4702 -1.0714,-1.66091 -1.22931,-2.64577 -0.1579,-0.986 -0.4702,-1.79307 -0.69478,-1.79307 -0.22457,0 -0.40821,-0.84215 -0.40821,-1.87145 0,-1.0293 -0.21054,-1.87144 -0.46786,-1.87144 -0.29475,0 -0.46786,-3.11011 -0.46786,-8.39345 0,-5.0915 0.18364,-8.50806 0.46786,-8.68351 0.25732,-0.15907 0.46786,-1.01409 0.46786,-1.89951 0,-0.88543 0.19417,-1.60945 0.43043,-1.60945 0.23745,0 0.58015,-0.68425 0.76145,-1.52054 0.18247,-0.83632 1.19772,-2.57326 2.25743,-3.85986 2.71125,-3.29142 2.94402,-3.50897 3.76511,-3.50897 0.40237,0 0.99422,-0.42108 1.31588,-0.93572 0.32165,-0.51465 0.95442,-0.93574 1.40709,-0.93574 0.45264,0 0.82344,-0.21052 0.82344,-0.46786 0,-0.25732 0.51348,-0.46785 1.14157,-0.46785 0.6281,0 1.27259,-0.21054 1.43166,-0.46786 0.33686,-0.54506 13.33406,-0.65618 13.33406,-0.11464 0,0.19534 0.68425,0.64682 1.52055,1.00474 0.83631,0.35676 1.89016,0.96847 2.34282,1.35914 0.45149,0.38949 1.27726,0.93807 1.83519,1.21761 1.36498,0.68659 4.12653,5.30322 4.12653,6.89745 0,0.95093 2.49722,1.2761 3.04111,0.39652 0.15907,-0.25733 1.21176,-0.46787 2.33931,-0.46787 1.12753,0 2.18022,-0.21053 2.3393,-0.46786 0.15907,-0.25732 1.4223,-0.46786 2.80717,-0.46786 1.38487,0 2.64809,-0.21054 2.80717,-0.46786 0.15907,-0.25732 1.0141,-0.46786 1.89952,-0.46786 1.63869,0 2.5054,-2.66564 1.14158,-3.50897 -0.25732,-0.15907 -0.46785,-0.80355 -0.46785,-1.43165 0,-0.6281 -0.21054,-1.14158 -0.46786,-1.14158 -0.25734,0 -0.46787,-0.42108 -0.46787,-0.93574 0,-0.51463 -0.21053,-0.93571 -0.46786,-0.93571 -0.25733,0 -0.46786,-0.42109 -0.46786,-0.93572 0,-0.51466 -0.21054,-0.93573 -0.46786,-0.93573 -0.25732,0 -0.46786,-0.31931 -0.46786,-0.70881 0,-0.86321 -6.75711,-7.71269 -7.60861,-7.71269 -0.33335,0 -0.90999,-0.42109 -1.28076,-0.93573 -0.37079,-0.51465 -1.0492,-0.93572 -1.50651,-0.93572 -0.45851,0 -0.83281,-0.21055 -0.83281,-0.46786 0,-0.25734 -0.63162,-0.46787 -1.40359,-0.46787 -0.77197,0 -1.40357,-0.21054 -1.40357,-0.46787 0,-0.25731 -0.51348,-0.46786 -1.14159,-0.46786 -0.6281,0 -1.27257,-0.21052 -1.43165,-0.46786 -0.15907,-0.25732 -1.4223,-0.46786 -2.80717,-0.46786 -1.38487,0 -2.64809,-0.21053 -2.80717,-0.46786 -0.17077,-0.27604 -2.95924,-0.46785 -6.784,-0.46785 -3.82476,0 -6.61322,0.19181 -6.784,0.46785 m -160.242627,8.42152 v 7.01792 h 11.459097 11.45911 l 0.12044,31.69763 0.12044,31.69764 h 7.95364 7.95364 l 0.12044,-31.69764 0.12045,-31.69763 h 10.99124 10.99124 v -7.01792 -7.01794 H 126.77942 96.134509 v 7.01794"
     id="path0" />
</svg>
