<?xml version="1.0" encoding="UTF-8" standalone="no"?>
<!-- Created with Inkscape (http://www.inkscape.org/) -->

<svg
   version="1.1"
   id="svg2"
   width="980"
   height="980"
   viewBox="0 0 980 980"
   sodipodi:docname="opml.svg"
   inkscape:version="1.2.1 (9c6d41e410, 2022-07-14, custom)"
   xmlns:inkscape="http://www.inkscape.org/namespaces/inkscape"
   xmlns:sodipodi="http://sodipodi.sourceforge.net/DTD/sodipodi-0.dtd"
   xmlns="http://www.w3.org/2000/svg"
   xmlns:svg="http://www.w3.org/2000/svg">
  <defs
     id="defs6" />
  <sodipodi:namedview
     id="namedview4"
     pagecolor="#505050"
     bordercolor="#ffffff"
     borderopacity="1"
     inkscape:showpageshadow="0"
     inkscape:pageopacity="0"
     inkscape:pagecheckerboard="1"
     inkscape:deskcolor="#505050"
     showgrid="false"
     inkscape:zoom="0.54285714"
     inkscape:cx="63.552632"
     inkscape:cy="490.92105"
     inkscape:window-width="1920"
     inkscape:window-height="1015"
     inkscape:window-x="0"
     inkscape:window-y="0"
     inkscape:window-maximized="1"
     inkscape:current-layer="g8" />
  <g
     inkscape:groupmode="layer"
     inkscape:label="Image"
     id="g8">
    <path
       style="fill:#ffffff"
       d="M 465.07715,979.22423 C 316.3752,971.27015 180.58351,897.42257 93.019815,776.88839 27.029515,686.05063 -5.9255854,572.59918 1.0837146,460.38839 10.639715,307.40549 88.872515,170.34931 216.07711,83.740948 c 143.19668,-97.49666 332.63961,-110.81225 488.50004,-34.33576 48.9325,24.00985 88.68209,52.086572 127.36274,89.961362 23.34591,22.85953 40.49114,42.77682 57.69386,67.02184 75.22584,106.0212 104.85889,235.8013 83.39554,365.23686 -22.10514,133.30591 -100.0402,252.63438 -214.13679,327.87063 -85.81713,56.58852 -191.30014,85.2119 -293.81535,79.72835 z M 602.60961,722.63839 C 600.33522,682.4149 595.1562,653.84421 584.16362,620.87892 566.54004,568.02815 537.57498,521.34948 497.59552,481.37002 434.03997,417.81447 350.21872,380.87192 261.32715,377.23946 l -16.25,-0.66404 v 53.15648 53.15649 l 7.25,0.0173 c 21.87268,0.0523 54.24768,6.09927 76.96088,14.37471 57.91188,21.09993 104.86308,60.89598 135.43415,114.79462 18.05727,31.83605 29.53985,71.60275 31.05875,107.56334 l 0.6019,14.25 h 53.43144 53.43145 l -0.63611,-11.25 z m 192.45765,1 c -0.005,-5.6375 -0.45636,-16.775 -1.00204,-24.75 C 786.68802,591.07283 749.57101,490.16912 686.15142,405.52148 655.23656,364.25867 616.22048,325.0918 575.13182,294.0728 497.45024,235.42876 403.73067,198.21208 306.57715,187.42791 c -15.53545,-1.72445 -43.07619,-3.5168 -54.25,-3.53058 l -7.25,-0.009 v 52.86592 52.86593 l 15.75,0.69494 c 66.68601,2.9424 125.28397,18.04127 183.25,47.21783 43.74591,22.01901 79.82154,48.10475 114.53608,82.8193 63.78097,63.78096 105.85384,143.26021 122.82986,232.03608 4.28944,22.43156 7.6261,54.45756 7.63163,73.25 l 0.002,8.25 h 53 53 l -0.01,-10.25 z m -482.88354,6.87563 c 35.90975,-12.67649 45.47312,-58.3149 17.63966,-84.18016 -27.33141,-25.39872 -71.50115,-12.77107 -82.15085,23.48603 -1.80689,6.15161 -2.05529,18.35928 -0.51009,25.0685 3.70673,16.09447 16.63477,30.12253 32.91471,35.71535 9.23756,3.17348 22.97135,3.1351 32.10657,-0.0897 z"
       id="path293" />
  </g>
</svg>
