<?xml version="1.0" encoding="UTF-8" standalone="no"?>
<svg
   xmlns:dc="http://purl.org/dc/elements/1.1/"
   xmlns:cc="http://creativecommons.org/ns#"
   xmlns:rdf="http://www.w3.org/1999/02/22-rdf-syntax-ns#"
   xmlns:svg="http://www.w3.org/2000/svg"
   xmlns="http://www.w3.org/2000/svg"
   xmlns:sodipodi="http://sodipodi.sourceforge.net/DTD/sodipodi-0.dtd"
   xmlns:inkscape="http://www.inkscape.org/namespaces/inkscape"
   id="svg"
   width="400"
   height="400"
   viewBox="0, 0, 400,400"
   version="1.1"
   sodipodi:docname="r1_twitter.svg"
   inkscape:version="0.92.5 (2060ec1f9f, 2020-04-08)">
  <metadata
     id="metadata11">
    <rdf:RDF>
      <cc:Work
         rdf:about="">
        <dc:format>image/svg+xml</dc:format>
        <dc:type
           rdf:resource="http://purl.org/dc/dcmitype/StillImage" />
        <dc:title />
      </cc:Work>
    </rdf:RDF>
  </metadata>
  <defs
     id="defs9">
    <clipPath
       id="cp-1">
      <rect
         x="778.79999"
         y="421"
         width="149.2"
         height="56"
         id="rect2" />
    </clipPath>
  </defs>
  <sodipodi:namedview
     pagecolor="#ffffff"
     bordercolor="#666666"
     borderopacity="1"
     objecttolerance="10"
     gridtolerance="10"
     guidetolerance="10"
     inkscape:pageopacity="0"
     inkscape:pageshadow="2"
     inkscape:window-width="1306"
     inkscape:window-height="704"
     id="namedview7"
     showgrid="false"
     inkscape:zoom="0.417193"
     inkscape:cx="-25.283858"
     inkscape:cy="152.56436"
     inkscape:window-x="60"
     inkscape:window-y="27"
     inkscape:window-maximized="1"
     inkscape:current-layer="svg" />
  <path
     inkscape:connector-curvature="0"
     d="m 396.45662,78.147778 c -14.45594,6.417584 -29.99237,10.739616 -46.29828,12.687829 16.64971,-9.970184 29.43576,-25.768569 35.44405,-44.595643 -15.56918,9.233447 -32.82463,15.9457 -51.19331,19.563787 -14.68514,-15.66741 -35.65689,-25.457486 -58.83876,-25.457486 -52.04463,0 -90.28819,48.557507 -78.53354,98.965005 C 130.06145,135.95514 70.666062,103.86721 30.899966,55.096866 9.7808808,91.326748 19.947508,138.7219 55.833584,162.72236 42.638242,162.29669 30.196001,158.67862 19.341772,152.63757 c -0.88406,37.34315 25.883153,72.27967 64.650587,80.05609 -11.345361,3.07781 -23.771238,3.79815 -36.409954,1.37518 10.248493,32.02244 40.011663,55.31892 75.308375,55.97378 -33.888762,26.57076 -76.585345,38.44001 -119.3473988,33.39763 35.6732508,22.87081 78.0587568,36.21349 123.5712188,36.21349 149.66721,0 234.2254,-126.40345 229.11753,-239.7753 15.74927,-11.37811 29.41937,-25.572099 40.22449,-41.730662 z"
     id="path2"
     style="fill:#ffffff;stroke-width:16.37138557" />
</svg>
