<?xml version="1.0" encoding="UTF-8" standalone="no"?>
<svg
   xmlns:dc="http://purl.org/dc/elements/1.1/"
   xmlns:cc="http://creativecommons.org/ns#"
   xmlns:rdf="http://www.w3.org/1999/02/22-rdf-syntax-ns#"
   xmlns:svg="http://www.w3.org/2000/svg"
   xmlns="http://www.w3.org/2000/svg"
   xmlns:sodipodi="http://sodipodi.sourceforge.net/DTD/sodipodi-0.dtd"
   xmlns:inkscape="http://www.inkscape.org/namespaces/inkscape"
   id="svg"
   width="400"
   height="400"
   viewBox="0, 0, 400,400"
   version="1.1"
   sodipodi:docname="r5_telegram.svg"
   inkscape:version="0.92.5 (2060ec1f9f, 2020-04-08)">
  <metadata
     id="metadata11">
    <rdf:RDF>
      <cc:Work
         rdf:about="">
        <dc:format>image/svg+xml</dc:format>
        <dc:type
           rdf:resource="http://purl.org/dc/dcmitype/StillImage" />
        <dc:title />
      </cc:Work>
    </rdf:RDF>
  </metadata>
  <defs
     id="defs9">
    <clipPath
       id="cp-1">
      <rect
         x="778.79999"
         y="421"
         width="149.2"
         height="56"
         id="rect2" />
    </clipPath>
  </defs>
  <sodipodi:namedview
     pagecolor="#ffffff"
     bordercolor="#666666"
     borderopacity="1"
     objecttolerance="10"
     gridtolerance="10"
     guidetolerance="10"
     inkscape:pageopacity="0"
     inkscape:pageshadow="2"
     inkscape:window-width="1306"
     inkscape:window-height="704"
     id="namedview7"
     showgrid="false"
     inkscape:zoom="0.295"
     inkscape:cx="34.427994"
     inkscape:cy="86.467381"
     inkscape:window-x="60"
     inkscape:window-y="27"
     inkscape:window-maximized="1"
     inkscape:current-layer="svg" />
  <path
     inkscape:connector-curvature="0"
     style="clip-rule:evenodd;fill-rule:evenodd;stroke-width:15.26553631;stroke-linejoin:round;stroke-miterlimit:1.41420996;fill:#ffffff"
     id="telegram-3"
     d="M 306.85876,383.18644 H 93.14124 c -42.148142,0 -76.327679,-34.17954 -76.327679,-76.32768 V 93.14124 c 0,-42.148143 34.179537,-76.32768 76.327679,-76.32768 h 213.71752 c 42.16341,0 76.32768,34.179537 76.32768,76.32768 v 213.71752 c 0,42.14814 -34.16427,76.32768 -76.32768,76.32768 z m -41.88863,-78.58698 c 3.28209,2.33563 7.49537,2.91572 11.26596,1.48076 3.75532,-1.4197 6.53365,-4.64073 7.37326,-8.54871 8.83874,-41.55279 30.30209,-146.76287 38.34702,-184.56033 0.59536,-2.85466 -0.41216,-5.81617 -2.64093,-7.72437 -2.24404,-1.89292 -5.35821,-2.44248 -8.12127,-1.41969 -42.66717,15.78456 -174.08818,65.09225 -227.8076,84.98324 -3.40422,1.25178 -5.617721,4.53387 -5.510862,8.13653 0.122122,3.5874 2.549341,6.71684 6.029882,7.77016 24.08902,7.19007 55.71921,17.21953 55.71921,17.21953 0,0 14.76178,44.63643 22.47087,67.32101 0.96173,2.85466 3.20577,5.09869 6.13675,5.86197 2.94625,0.76328 6.06042,-0.0305 8.25866,-2.10664 12.38035,-11.67814 31.50806,-29.73727 31.50806,-29.73727 0,0 36.34725,26.65363 56.97099,41.32381 z m -112.04904,-88.29587 17.08213,56.36037 3.80112,-35.69083 c 0,0 66.00818,-59.53559 103.653,-93.48615 1.09911,-0.99226 1.25177,-2.6562 0.33584,-3.83165 -0.91594,-1.17544 -2.57988,-1.45022 -3.83165,-0.65641 -43.61364,27.8596 -121.04044,77.30467 -121.04044,77.30467 z" />
</svg>
