<?xml version="1.0" encoding="UTF-8" standalone="no"?>
<svg
   xmlns:dc="http://purl.org/dc/elements/1.1/"
   xmlns:cc="http://creativecommons.org/ns#"
   xmlns:rdf="http://www.w3.org/1999/02/22-rdf-syntax-ns#"
   xmlns:svg="http://www.w3.org/2000/svg"
   xmlns="http://www.w3.org/2000/svg"
   xmlns:sodipodi="http://sodipodi.sourceforge.net/DTD/sodipodi-0.dtd"
   xmlns:inkscape="http://www.inkscape.org/namespaces/inkscape"
   id="svg"
   width="400"
   height="400"
   viewBox="0, 0, 400,400"
   version="1.1"
   sodipodi:docname="r6_odysee.svg"
   inkscape:version="0.92.5 (2060ec1f9f, 2020-04-08)">
  <metadata
     id="metadata11">
    <rdf:RDF>
      <cc:Work
         rdf:about="">
        <dc:format>image/svg+xml</dc:format>
        <dc:type
           rdf:resource="http://purl.org/dc/dcmitype/StillImage" />
        <dc:title />
      </cc:Work>
    </rdf:RDF>
  </metadata>
  <defs
     id="defs9">
    <clipPath
       id="cp-1">
      <rect
         x="778.79999"
         y="421"
         width="149.2"
         height="56"
         id="rect2" />
    </clipPath>
  </defs>
  <sodipodi:namedview
     pagecolor="#ffffff"
     bordercolor="#666666"
     borderopacity="1"
     objecttolerance="10"
     gridtolerance="10"
     guidetolerance="10"
     inkscape:pageopacity="0"
     inkscape:pageshadow="2"
     inkscape:window-width="1306"
     inkscape:window-height="704"
     id="namedview7"
     showgrid="false"
     inkscape:zoom="0.59"
     inkscape:cx="340.82746"
     inkscape:cy="124.24599"
     inkscape:window-x="60"
     inkscape:window-y="27"
     inkscape:window-maximized="1"
     inkscape:current-layer="svg" />
  <path
     inkscape:connector-curvature="0"
     id="path"
     style="opacity:1;vector-effect:none;fill:#ffffff;fill-opacity:1;stroke-width:0.3915709"
     d="m 33.58236,4.2145351 c 0,0 0,0 0,0 -16.446029,0 -29.3678259,12.9219029 -29.3678259,29.3678429 0,0 0,332.835242 0,332.835242 0,16.44603 12.9217969,29.36784 29.3678259,29.36784 0,0 332.83527,0 332.83527,0 16.44603,0 29.36784,-12.92181 29.36784,-29.36784 0,0 0,-332.835242 0,-332.835242 0,-16.44594 -12.92181,-29.3678429 -29.36784,-29.3678429 0,0 -332.83527,0 -332.83527,0 M 230.93409,62.167039 c 6.26518,17.229103 9.39768,35.241386 12.9219,53.253661 19.97006,8.61451 35.24138,-11.35556 38.37389,-28.97629 5.09047,-16.445939 6.26518,-37.199184 21.53641,-47.771654 19.18699,-9.78923 37.5908,10.57247 37.5908,29.367827 1.56635,19.578536 -4.30729,39.157147 -13.31343,56.386257 -15.66277,21.14478 -32.89188,41.8981 -53.25358,58.34404 -11.35556,17.62066 15.27123,25.06055 23.4942,36.41611 17.62073,13.70497 25.06053,36.02455 27.80158,57.56087 5.48202,18.01228 17.62065,33.67514 23.88583,51.68741 -5.09047,20.3617 -27.80159,32.89197 -47.77165,34.06668 -23.49429,3.52414 -29.36784,-23.10274 -28.58467,-41.11493 -2.74105,-19.18699 -9.00614,-43.46437 -29.36784,-50.90425 -26.23524,-7.83144 -8.22297,26.62679 -15.27132,41.89811 -4.30721,23.49419 -15.66277,49.72945 -40.72331,57.16934 -22.31957,8.22296 -47.77165,18.01226 -70.87431,6.6567 -18.012294,-6.6567 -27.018432,-30.54253 -18.403914,-47.38011 8.614604,-16.05439 28.976304,-14.48806 44.247534,-15.27122 19.18699,-1.95788 28.58466,-24.669 18.40381,-40.72341 -10.57239,-19.18699 -21.92795,-37.98234 -32.50033,-56.77779 -19.57854,9.39769 -41.898114,15.27132 -57.169344,31.71726 C 58.25137,258.73566 41.022173,276.35631 22.226801,266.95864 4.9976985,257.9525 -2.4421896,232.50042 12.045951,218.01228 28.100361,200 49.245228,186.29502 70.781638,176.11417 c 12.530267,-8.22298 39.548602,-8.61452 43.072732,-21.92796 -8.22298,-30.54255 -20.361705,-65.000762 -5.09038,-95.543298 15.27123,-25.060535 46.20531,-38.373984 74.79008,-38.765529 0.39154,0 0.78307,0 1.17471,0 23.49419,0 39.94022,21.536411 46.20531,42.289656 0,0 0,0 0,0 m -90.84448,18.012282 c -1.95778,16.054395 3.91577,39.157049 23.4943,40.331759 19.97016,1.17471 43.85598,-2.74096 55.99462,-19.97008 5.87356,-16.054388 -1.95788,-34.066655 -10.18085,-47.771647 -4.69884,-7.831417 -14.09651,-10.964015 -23.10265,-10.964015 0,0 -0.39155,0 -0.39155,0 -21.92804,0 -44.63916,15.271321 -45.81387,38.373983 0,0 0,0 0,0 m 64.60923,-18.795447 c 1.56625,3.132582 -4.69883,6.26518 -6.65672,3.524217 -2.74095,-3.915761 -5.48191,-9.006141 -1.56624,-10.964014 0.39153,-0.391545 0.78316,-0.78318 1.56624,-0.78318 3.13259,0 5.48201,5.482015 6.65672,8.222977 0,0 0,0 0,0 m 6.26518,16.054485 c 2.34942,1.566238 3.13251,5.873544 3.13251,9.006051 0,3.132582 0.39162,5.873635 -0.39155,9.397761 -1.17471,3.132504 -8.6145,2.740964 -8.6145,-1.566344 0.39153,-4.3072 0.78307,-3.132491 0.78307,-6.265088 0,-3.132582 -2.34942,-5.090471 -1.95787,-8.222962 0.39162,-1.957888 2.34941,-3.132582 4.30729,-3.132582 0.78318,0 1.56634,0.391529 2.74105,0.783164 0,0 0,0 0,0" />
</svg>
