<?xml version="1.0" encoding="UTF-8" standalone="no"?>
<svg
   xmlns:dc="http://purl.org/dc/elements/1.1/"
   xmlns:cc="http://creativecommons.org/ns#"
   xmlns:rdf="http://www.w3.org/1999/02/22-rdf-syntax-ns#"
   xmlns:svg="http://www.w3.org/2000/svg"
   xmlns="http://www.w3.org/2000/svg"
   xmlns:sodipodi="http://sodipodi.sourceforge.net/DTD/sodipodi-0.dtd"
   xmlns:inkscape="http://www.inkscape.org/namespaces/inkscape"
   id="svg"
   width="400"
   height="400"
   viewBox="0, 0, 400,400"
   version="1.1"
   sodipodi:docname="r8_bitchute.svg"
   inkscape:version="0.92.5 (2060ec1f9f, 2020-04-08)">
  <metadata
     id="metadata11">
    <rdf:RDF>
      <cc:Work
         rdf:about="">
        <dc:format>image/svg+xml</dc:format>
        <dc:type
           rdf:resource="http://purl.org/dc/dcmitype/StillImage" />
        <dc:title />
      </cc:Work>
    </rdf:RDF>
  </metadata>
  <defs
     id="defs9">
    <clipPath
       id="cp-1">
      <rect
         x="778.79999"
         y="421"
         width="149.2"
         height="56"
         id="rect2" />
    </clipPath>
  </defs>
  <sodipodi:namedview
     pagecolor="#ffffff"
     bordercolor="#666666"
     borderopacity="1"
     objecttolerance="10"
     gridtolerance="10"
     guidetolerance="10"
     inkscape:pageopacity="0"
     inkscape:pageshadow="2"
     inkscape:window-width="1306"
     inkscape:window-height="704"
     id="namedview7"
     showgrid="false"
     inkscape:zoom="0.59"
     inkscape:cx="151.17002"
     inkscape:cy="170.55857"
     inkscape:window-x="60"
     inkscape:window-y="27"
     inkscape:window-maximized="1"
     inkscape:current-layer="svg" />
  <g
     id="g827"
     transform="matrix(0.94402895,0,0,0.94402895,140.79819,-339.21653)"
     style="fill:#ffffff">
    <path
       id="path0"
       d="m -34.288135,529.11101 c -1.696,0.496 -3.217,0.904 -3.379,0.905 -0.163,0.002 -2.263,0.557 -4.667,1.234 -2.404,0.676 -4.637,1.277 -4.963,1.334 -0.325,0.058 -2.312,0.594 -4.415,1.193 -2.103,0.598 -4.312,1.19 -4.908,1.316 -0.597,0.125 -2.81,0.71 -4.918,1.298 -2.108,0.589 -4.621,1.272 -5.583,1.519 -0.963,0.246 -2.538,0.67 -3.5,0.942 -0.963,0.272 -2.388,0.655 -3.167,0.852 -0.779,0.196 -3.029,0.806 -5,1.354 -1.971,0.549 -4.071,1.111 -4.667,1.249 -0.596,0.138 -3.076,0.805 -5.511,1.482 -2.436,0.676 -4.542,1.23 -4.68,1.23 -0.137,0 -2.222,0.563 -4.631,1.25 -2.409005,0.688 -4.511005,1.25 -4.670005,1.25 -0.159,0 -2.008,0.491 -4.107,1.092 -2.1,0.601 -4.342,1.203 -4.984,1.338 -0.642,0.136 -2.854,0.723 -4.917,1.306 -2.062,0.583 -4.275,1.182 -4.916,1.331 -0.642,0.15 -2.742,0.708 -4.667,1.24 -1.925,0.533 -4.062,1.105 -4.75,1.27 -2.259,0.545 -2.833,0.755 -2.833,1.032 0,0.144 0.403,1.698 0.897,3.452 0.493,1.754 0.944,3.456 1.001,3.783 0.058,0.326 0.589,2.301 1.181,4.387 0.593,2.087 1.124,4.07 1.181,4.406 0.058,0.337 0.633,2.488 1.278,4.78 0.646,2.291 1.273,4.642 1.395,5.223 0.122,0.581 0.704,2.793 1.293,4.916 0.589,2.124 1.165,4.273 1.28,4.777 0.115,0.504 0.686,2.594 1.268,4.644 0.582,2.05 1.059,3.841 1.059,3.98 0,0.139 0.558,2.287 1.241,4.773 0.682,2.486 1.482,5.458 1.778,6.603 0.295,1.146 0.583,2.139 0.639,2.206 0.056,0.067 1.659,-0.327 3.561,-0.875 1.903,-0.549 3.588,-0.998 3.745,-0.998 0.157,-0.001 2.262,-0.563 4.677,-1.25 2.415,-0.687 4.509,-1.249 4.653,-1.249 0.144,0 2.237005,-0.563 4.650005,-1.25 2.413,-0.688 4.515,-1.25 4.669,-1.25 0.155,0 2.249,-0.563 4.653,-1.25 2.405,-0.688 4.497,-1.25 4.65,-1.25 0.154,0 2.261,-0.563 4.684,-1.25 2.422,-0.688 4.519,-1.25 4.66,-1.25 0.14,0 2.233,-0.563 4.651,-1.25 2.418,-0.688 4.518,-1.25 4.666,-1.25 0.148,0 2.235,-0.556 4.637,-1.234 2.403,-0.679 4.64,-1.28 4.971,-1.337 0.331,-0.056 2.431,-0.626 4.667,-1.265 2.235,-0.64 4.205,-1.163 4.377,-1.164 0.274,0 2.775,-0.688 6.104,-1.679 0.596,-0.177 1.617,-0.434 2.268,-0.569 0.652,-0.136 3.014,-0.764 5.25,-1.397 2.236,-0.632 4.344,-1.199 4.684,-1.259 0.341,-0.06 2.456,-0.631 4.702,-1.269 2.246,-0.639 4.217,-1.163 4.381,-1.167 0.381,-0.008 3.5,-0.89 3.639,-1.029 0.058,-0.057 -0.399,-1.892 -1.015,-4.076 -0.615,-2.185 -1.221,-4.455 -1.345,-5.046 -0.125,-0.59 -0.707,-2.803 -1.295,-4.916 -0.588,-2.114 -1.228,-4.481 -1.423,-5.26 -0.195,-0.779 -0.535,-2.054 -0.755,-2.833 -0.221,-0.78 -0.603,-2.13 -0.849,-3 -0.247,-0.871 -0.509,-1.921 -0.584,-2.334 -0.075,-0.412 -0.666,-2.617 -1.313,-4.899 -0.648,-2.282 -1.178,-4.27 -1.178,-4.417 0,-0.147 -0.563,-2.25 -1.25,-4.673 -0.688,-2.424 -1.25,-4.521 -1.25,-4.66 0,-0.14 -0.53,-2.132 -1.179,-4.428 -0.648,-2.295 -1.246,-4.53 -1.329,-4.968 -0.575,-3.024 -0.304,-2.922 -4.492,-1.696 m 0.778,10.825 c 0.578,2.2 1.052,4.077 1.053,4.171 10e-4,0.095 -1.479,0.568 -3.289,1.051 -1.811,0.484 -4.904,1.313 -6.875,1.842 l -3.584,0.962 0.036,0.476 c 0.02,0.262 0.644,2.731 1.387,5.487 1.342,4.976 2.707,10.061 5.102,19.011 0.687,2.566 1.718,6.391 2.292,8.5 0.696,2.558 0.983,3.869 0.863,3.941 -0.099,0.059 -2.055,0.611 -4.346,1.227 -2.292,0.615 -4.293,1.156 -4.448,1.2 -0.216,0.063 -0.323,-0.086 -0.465,-0.643 -0.233,-0.914 -3.747,-14.046 -6.504,-24.309 -0.628,-2.337 -1.609,-5.988 -2.179,-8.114 -0.571,-2.125 -1.083,-3.938 -1.139,-4.028 -0.1,-0.162 -1.99,0.299 -9.682,2.363 -1.879,0.505 -3.565,0.942 -3.746,0.973 -0.281,0.048 -0.386,-0.14 -0.715,-1.277 -0.676,-2.338 -1.866,-6.978 -1.806,-7.039 0.06,-0.059 3.319,-0.945 12.434,-3.38 2.795,-0.746 6.845,-1.834 9,-2.416 2.154,-0.583 6.354,-1.707 9.333,-2.499 2.979,-0.792 5.492,-1.467 5.583,-1.5 0.546,-0.197 0.67,0.097 1.695,4.001 m -40.922,9.761 c 0.433,1.598 1.399,5.193 2.147,7.989 0.748,2.795 1.873,6.995 2.5,9.333 0.628,2.337 1.752,6.538 2.499,9.333 0.748,2.796 1.836,6.846 2.418,9 0.582,2.154 1.214,4.53 1.403,5.279 0.189,0.749 0.387,1.473 0.439,1.61 0.062,0.161 -0.04,0.292 -0.292,0.372 -1.346,0.434 -8.828,2.333 -8.876,2.253 -0.031,-0.053 -0.377,-1.297 -0.767,-2.764 -0.768,-2.884 -2.444,-9.138 -4.4,-16.416 -0.677,-2.521 -1.843,-6.871 -2.591,-9.667 -0.748,-2.796 -1.882,-7.033 -2.521,-9.417 -0.638,-2.383 -1.341,-5.008 -1.561,-5.833 -0.485,-1.817 -0.765,-1.564 2.746,-2.48 1.604,-0.419 3.554,-0.944 4.333,-1.167 0.779,-0.223 1.489,-0.389 1.577,-0.368 0.088,0.021 0.513,1.345 0.946,2.943 m -21.514,3.907 c 4.284,0.901 8.238,4.105 9.251,7.495 1.616,5.408 0.532,10.093 -2.963,12.808 l -0.896,0.695 0.993,0.044 c 4.435,0.197 7.822,3.175 9.671,8.502 1.571,4.531 0.818,8.331 -2.451,12.368 -2.159,2.666 -3.132,3.09 -13.197,5.759 -2.567,0.68 -6.917005,1.84 -9.667005,2.577 -8.484,2.273 -9.055,2.417 -9.159,2.313 -0.105,-0.105 -0.479,-1.458 -2.756,-9.979 -0.747,-2.796 -1.916,-7.165 -2.598,-9.708 -0.682,-2.544 -1.807,-6.744 -2.5,-9.334 -0.693,-2.589 -1.776,-6.621 -2.405,-8.958 -1.61,-5.983 -2.043,-7.679 -1.975,-7.737 0.033,-0.028 1.672,-0.479 3.643,-1.002 4.221,-1.121 10.379,-2.776 16.417,-4.412 2.383,-0.646 4.783,-1.283 5.333,-1.415 1.331005,-0.319 3.780005,-0.327 5.259005,-0.016 m -8.009005,9.843 c -3.887,1.009 -10.232,2.749 -10.311,2.827 -0.061,0.061 1.281,5.33 2.036,7.995 0.32,1.13 0.427,1.325 0.702,1.278 0.178,-0.031 1.375,-0.345 2.661,-0.699 1.286,-0.353 3.949,-1.065 5.917,-1.582 1.968,-0.517 3.879005,-1.074 4.245005,-1.239 3.474,-1.56 3.392,-7.059 -0.129,-8.736 -1.462005,-0.696 -1.892005,-0.683 -5.121005,0.156 m 4.500005,18.495 c -1.787005,0.495 -4.750005,1.289 -6.583005,1.763 -1.833,0.474 -3.347,0.871 -3.365,0.883 -0.035,0.024 1.998,7.889 2.385,9.223 0.139,0.481 0.314,0.875 0.389,0.875 0.074,0 1.1,-0.258 2.28,-0.574 12.648005,-3.381 11.876005,-3.135 12.786005,-4.069 2.124,-2.183 1.974,-5.813 -0.324,-7.836 -1.675,-1.475 -3.03,-1.522 -7.568,-0.265"
       inkscape:connector-curvature="0"
       style="fill:#ffffff;fill-rule:evenodd;stroke:none" />
    <path
       id="path2"
       d="m 49.878865,570.10201 v 29.917 h 7 7 v -11.917 -11.916 h 12.75 12.75 v 11.916 11.917 h 7.083 7.082995 v -29.917 -29.916 h -7.082995 -7.083 v 11.5 11.5 h -12.75 -12.75 v -11.5 -11.5 h -7 -7 v 29.916 m 57.668995,-9.541 c 0.004,24.554 -0.064,23.687 2.176,28.048 5.287,10.293 20,15.44 33.486,11.715 0.964,-0.266 2.145,-0.592 2.625,-0.725 1.385,-0.383 5.748,-2.714 6.637,-3.546 0.188,-0.176 0.713,-0.599 1.166,-0.939 0.946,-0.709 3.573,-3.541 3.916,-4.221 0.127,-0.251 0.447,-0.782 0.711,-1.178 1.349,-2.026 2.416,-5.275 2.775,-8.446 0.105,-0.933 0.17,-8.982 0.171,-21.292 l 0.001,-19.791 h -7.083 -7.084 v 19.241 19.241 l -0.412,1.301 c -2.192,6.909 -10.563,10.686 -17.233,7.774 -0.493,-0.215 -0.986,-0.391 -1.096,-0.391 -1.351,0 -5.126,-4.174 -6.105,-6.75 l -0.57,-1.5 -0.047,-19.458 -0.046,-19.458 h -6.995 -6.996 l 0.003,20.375 m 57.497,-13.875 v 6.5 h 8.417 8.417 v 23.416 23.417 h 7 7 v -23.417 -23.416 h 8.583 8.583 v -6.5 -6.5 h -24 -24 v 6.5 m 51.834,23.416 v 29.917 h 21.333 21.333 v -6.333 -6.334 h -14.25 -14.25 v -5.583 -5.583 h 13.917 13.917 v -6.167 -6.167 h -13.917 -13.917 v -5.333 -5.333 h 14.25 14.25 v -6.5 -6.5 h -21.333 -21.333 v 29.916 m -204.166995,-29.635 c -1.546,0.163 -4.3050004,0.781 -5.8580004,1.313 -0.949,0.325 -1.95,0.65 -2.225,0.723 -1.302,0.344 -4.98200004,2.512 -7.062,4.16 -1.343,1.064 -4.855,4.474 -4.855,4.713 0,0.064 -0.344,0.516 -0.764,1.004 -3.4339996,3.995 -5.6589996,10.493 -5.8499996,17.085 -0.133,4.612 0.101,6.266 1.59,11.221 1.411,4.695 5.8729996,10.673 10.4409996,13.988 0.91599996,0.665 1.85399996,1.353 2.08299996,1.529 0.229,0.175 1.39200004,0.798 2.58300004,1.383 10.7380004,5.272 24.9040004,3.394 33.1820004,-4.4 1.528,-1.439 3.586,-3.624 4.132,-4.387 0.275,-0.383 0.832,-1.147 1.239,-1.697 1.655,-2.236 3.371,-6.247 4.043,-9.452 0.671,-3.198 1.104,-8.469 0.696,-8.462 -0.335,0.005 -5.65,1.388 -8.458,2.2 -1.742,0.504 -3.59,1.006 -4.108,1.115 l -0.94,0.199 -0.117,0.783 c -0.98,6.55 -7.104,12.626 -13.817,13.709 -5.198,0.838 -10.2260004,-0.844 -14.2250004,-4.76 l -1.622,-1.587 -2.59600004,0.752 c -1.42799996,0.415 -2.71599996,0.753 -2.86199996,0.753 -0.146,0 -1.708,0.416 -3.47,0.923 -1.762,0.508 -3.237,0.889 -3.278,0.848 -0.041,-0.041 0.888,-0.838 2.063,-1.772 1.176,-0.933 2.254,-1.829 2.395,-1.99 0.142,-0.161 0.432,-0.386 0.645,-0.501 0.213,-0.114 0.922,-0.67 1.576,-1.236 0.654,-0.566 1.583,-1.315 2.06399996,-1.665 1.011,-0.734 1.002,-0.687 0.525,-2.997 -0.86999996,-4.214 -0.029,-8.497 2.44300004,-12.443 0.574,-0.917 3.663,-4.167 3.96,-4.167 0.086,0 0.527,-0.265 0.979,-0.59 4.0740004,-2.927 11.1680004,-3.359 15.9370004,-0.971 l 1.552,0.777 0.698,-0.665 c 0.384,-0.366 0.96,-0.843 1.281,-1.061 0.321,-0.217 0.69,-0.499 0.82,-0.625 0.325,-0.316 4.822,-3.936 6.077,-4.891 2.321,-1.768 2.323,-1.787 0.276,-3.299 -5.718,-4.225 -13.77,-6.339 -21.173,-5.56 m -95.927,55.927 -0.49,0.542 0.542,-0.49 c 0.505,-0.456 0.618,-0.594 0.49,-0.594 -0.029,0 -0.273,0.244 -0.542,0.542"
       inkscape:connector-curvature="0"
       style="fill:#ffffff;fill-rule:evenodd;stroke:none" />
  </g>
</svg>
