<?xml version="1.0" encoding="UTF-8" standalone="no"?>
<svg
   xmlns:dc="http://purl.org/dc/elements/1.1/"
   xmlns:cc="http://creativecommons.org/ns#"
   xmlns:rdf="http://www.w3.org/1999/02/22-rdf-syntax-ns#"
   xmlns:svg="http://www.w3.org/2000/svg"
   xmlns="http://www.w3.org/2000/svg"
   xmlns:sodipodi="http://sodipodi.sourceforge.net/DTD/sodipodi-0.dtd"
   xmlns:inkscape="http://www.inkscape.org/namespaces/inkscape"
   id="svg"
   width="400"
   height="400"
   viewBox="0, 0, 400,400"
   version="1.1"
   sodipodi:docname="r9_youtube.svg"
   inkscape:version="0.92.5 (2060ec1f9f, 2020-04-08)">
  <metadata
     id="metadata11">
    <rdf:RDF>
      <cc:Work
         rdf:about="">
        <dc:format>image/svg+xml</dc:format>
        <dc:type
           rdf:resource="http://purl.org/dc/dcmitype/StillImage" />
        <dc:title />
      </cc:Work>
    </rdf:RDF>
  </metadata>
  <defs
     id="defs9">
    <clipPath
       id="cp-1">
      <rect
         x="778.79999"
         y="421"
         width="149.2"
         height="56"
         id="rect2" />
    </clipPath>
  </defs>
  <sodipodi:namedview
     pagecolor="#ffffff"
     bordercolor="#666666"
     borderopacity="1"
     objecttolerance="10"
     gridtolerance="10"
     guidetolerance="10"
     inkscape:pageopacity="0"
     inkscape:pageshadow="2"
     inkscape:window-width="1306"
     inkscape:window-height="704"
     id="namedview7"
     showgrid="false"
     inkscape:zoom="0.59"
     inkscape:cx="133.54125"
     inkscape:cy="269.54358"
     inkscape:window-x="60"
     inkscape:window-y="27"
     inkscape:window-maximized="1"
     inkscape:current-layer="svg" />
  <g
     transform="matrix(0.79202022,0,0,0.79202022,17.438943,17.438547)"
     id="g4"
     style="fill:#ffffff">
    <path
       style="fill:#ffffff"
       d="M 365.257,67.393 H 95.744 C 42.866,67.393 0,110.259 0,163.137 v 134.728 c 0,52.878 42.866,95.744 95.744,95.744 h 269.513 c 52.878,0 95.744,-42.866 95.744,-95.744 V 163.137 c 0,-52.878 -42.866,-95.744 -95.744,-95.744 z m -64.751,169.663 -126.06,60.123 c -3.359,1.602 -7.239,-0.847 -7.239,-4.568 V 168.607 c 0,-3.774 3.982,-6.22 7.348,-4.514 l 126.06,63.881 c 3.748,1.899 3.683,7.274 -0.109,9.082 z"
       id="path2"
       inkscape:connector-curvature="0" />
  </g>
  <g
     transform="matrix(0.79202022,0,0,0.79202022,-393.4946,93.161551)"
     id="g6"
     style="fill:#ffffff" />
  <g
     transform="matrix(0.79202022,0,0,0.79202022,-393.4946,93.161551)"
     id="g8"
     style="fill:#ffffff" />
  <g
     transform="matrix(0.79202022,0,0,0.79202022,-393.4946,93.161551)"
     id="g10"
     style="fill:#ffffff" />
  <g
     transform="matrix(0.79202022,0,0,0.79202022,-393.4946,93.161551)"
     id="g12"
     style="fill:#ffffff" />
  <g
     transform="matrix(0.79202022,0,0,0.79202022,-393.4946,93.161551)"
     id="g14"
     style="fill:#ffffff" />
  <g
     transform="matrix(0.79202022,0,0,0.79202022,-393.4946,93.161551)"
     id="g16"
     style="fill:#ffffff" />
  <g
     transform="matrix(0.79202022,0,0,0.79202022,-393.4946,93.161551)"
     id="g18"
     style="fill:#ffffff" />
  <g
     transform="matrix(0.79202022,0,0,0.79202022,-393.4946,93.161551)"
     id="g20"
     style="fill:#ffffff" />
  <g
     transform="matrix(0.79202022,0,0,0.79202022,-393.4946,93.161551)"
     id="g22"
     style="fill:#ffffff" />
  <g
     transform="matrix(0.79202022,0,0,0.79202022,-393.4946,93.161551)"
     id="g24"
     style="fill:#ffffff" />
  <g
     transform="matrix(0.79202022,0,0,0.79202022,-393.4946,93.161551)"
     id="g26"
     style="fill:#ffffff" />
  <g
     transform="matrix(0.79202022,0,0,0.79202022,-393.4946,93.161551)"
     id="g28"
     style="fill:#ffffff" />
  <g
     transform="matrix(0.79202022,0,0,0.79202022,-393.4946,93.161551)"
     id="g30"
     style="fill:#ffffff" />
  <g
     transform="matrix(0.79202022,0,0,0.79202022,-393.4946,93.161551)"
     id="g32"
     style="fill:#ffffff" />
  <g
     transform="matrix(0.79202022,0,0,0.79202022,-393.4946,93.161551)"
     id="g34"
     style="fill:#ffffff" />
</svg>
