<?xml version="1.0" encoding="UTF-8" standalone="no"?>
<svg
   xmlns:dc="http://purl.org/dc/elements/1.1/"
   xmlns:cc="http://creativecommons.org/ns#"
   xmlns:rdf="http://www.w3.org/1999/02/22-rdf-syntax-ns#"
   xmlns:svg="http://www.w3.org/2000/svg"
   xmlns="http://www.w3.org/2000/svg"
   viewBox="0 0 321.13464 23.896704"
   height="23.896704"
   width="321.13464"
   xml:space="preserve"
   id="svg2"
   version="1.1"><metadata
     id="metadata8"><rdf:RDF><cc:Work
         rdf:about=""><dc:format>image/svg+xml</dc:format><dc:type
           rdf:resource="http://purl.org/dc/dcmitype/StillImage" /><dc:title></dc:title></cc:Work></rdf:RDF></metadata><defs
     id="defs6" /><g
     transform="matrix(1.3333333,0,0,-1.3333333,-361.52666,32.620663)"
     id="g10"><path
       d="m 395.613,17.3359 c -0.273,-1.266 -0.254,-2.5429 -0.035,-3.6679 h -8.023 c 0.218,1.125 0.238,2.4019 -0.032,3.6679 z M 511.996,15.977 h -50.855 c -0.227,1.6128 -1.606,2.8589 -3.289,2.8589 -1.68,0 -3.059,-1.2461 -3.286,-2.8589 h -7.363 c -0.023,0.4722 -0.078,0.9371 -0.168,1.375 -0.707,3.523 -3.672,7.0781 -8.664,7.0781 -3.082,0 -5.937,-1.8789 -7.098,-4.6719 -1.043,-2.5121 -0.808,-5.4062 1.387,-7.2934 1.695,-1.4566 4.801,-1.9769 6.832,-0.6796 1.973,1.2617 3.02,5.0937 -0.054,6.6449 -1.247,0.632 -2.844,0.5148 -3.856,-0.4031 -0.289,-0.261 -0.527,-0.593 -0.695,-0.9801 -0.438,-1.0469 -0.09,-2.3477 1.097,-2.7348 1.801,-0.5851 2.989,1.25 2.125,2.4418 -0.668,0.9223 0.864,0.941 1.422,0.3832 2.617,-2.6141 -1.379,-7.3789 -6.039,-3.8441 -1.941,1.473 -2,3.9218 -1.133,6.016 0.981,2.359 3.399,3.941 6.012,3.941 4.328,0 6.899,-3.0781 7.516,-6.1371 0.566,-2.7848 -0.285,-6.691 -4.535,-8.4879 -7.782,-3.03086 -12.372,2.5391 -17.231,8.4531 -0.504,0.6129 -1.004,1.211 -1.512,1.8051 0.246,-0.0082 0.481,-0.0312 0.75,-0.0312 5.813,0 5.235,5.0972 5.235,5.0972 0,0 -2.297,-2.539 -7.477,-1.7613 0,0 -3.055,0.582 -6.418,1.4141 -0.789,0.191 -1.894,0.3781 -3.082,0.5109 l 0.059,0.016 c -6.344,0.8203 -9.164,-0.0348 -10.844,-0.6949 -2.77,-1.1758 -4.289,-3.1141 -4.973,-5.161 h -8.586 c -0.683,2.0469 -2.207,3.9852 -4.972,5.161 -1.68,0.6601 -4.504,1.5152 -10.848,0.6949 l 0.063,-0.016 c -1.184,-0.1328 -2.293,-0.3199 -3.082,-0.5109 -3.364,-0.8321 -6.411,-1.4141 -6.411,-1.4141 -5.183,-0.7777 -7.484,1.7613 -7.484,1.7613 0,0 -0.574,-5.0972 5.238,-5.0972 0.27,0 0.5,0.023 0.746,0.0312 -0.503,-0.5941 -1.003,-1.1922 -1.507,-1.8051 -4.856,-5.914 -9.454,-11.48396 -17.235,-8.4531 -4.25,1.7969 -5.105,5.7031 -4.539,8.4879 0.629,3.059 3.192,6.1371 7.524,6.1371 2.617,0 5.027,-1.582 6.004,-3.941 0.875,-2.0942 0.82,-4.543 -1.129,-6.016 -4.661,-3.5348 -8.653,1.23 -6.039,3.8441 0.558,0.5578 2.093,0.5391 1.421,-0.3832 -0.863,-1.1918 0.325,-3.0269 2.133,-2.4418 1.184,0.3871 1.532,1.6879 1.086,2.7348 -0.16,0.3871 -0.402,0.7191 -0.695,0.9801 -1.008,0.9179 -2.598,1.0351 -3.844,0.4031 -3.082,-1.5512 -2.027,-5.3832 -0.062,-6.6449 2.031,-1.2973 5.136,-0.777 6.836,0.6796 2.195,1.8872 2.425,4.7813 1.382,7.2934 -1.16,2.793 -4.011,4.6719 -7.093,4.6719 -4.996,0 -7.954,-3.5551 -8.672,-7.0781 -0.09,-0.4379 -0.141,-0.9028 -0.168,-1.375 h -7.348 c -0.23,1.6128 -1.609,2.8589 -3.297,2.8589 -1.676,0 -3.054,-1.2461 -3.285,-2.8589 H 271.145 V 15.0352 H 322 c 0.23,-1.6172 1.605,-2.8633 3.281,-2.8633 1.684,0 3.063,1.2461 3.293,2.8633 h 7.36 c 0.148,-2.8051 1.586,-5.87934 5.402,-7.50004 1.687,-0.65625 3.234,-0.94922 4.672,-0.94922 5.91,0 9.965,4.94106 13.914,9.74996 0.73,0.8911 1.461,1.777 2.199,2.6332 0.031,0.0348 0.047,0.0739 0.07,0.1168 2.008,0.4223 2.879,1.2582 2.879,1.2582 0,0 -1.722,-1.5472 -2.332,-3.739 -2.32,-8.37112 4.692,-8.28518 4.692,-8.28518 -2.992,3.45308 -2.11,6.82498 -1.153,8.98128 2.453,5.4758 8.758,5.9289 11.032,5.9097 3.031,-0.1168 4.55,-0.8629 4.55,-0.8629 4.25,-1.805 5.102,-5.7031 4.539,-8.496 -0.625,-3.0508 -3.191,-6.13716 -7.523,-6.13716 -2.609,0 -5.027,1.59024 -6.008,3.94106 -0.867,2.0941 -0.808,4.5472 1.133,6.0203 4.66,3.5347 8.66,-1.2313 6.043,-3.8442 -0.563,-0.5621 -2.094,-0.5429 -1.426,0.3789 0.863,1.1911 -0.324,3.0313 -2.125,2.445 -1.187,-0.386 -1.535,-1.6911 -1.097,-2.734 0.171,-0.391 0.406,-0.7188 0.695,-0.984 1.012,-0.918 2.609,-1.0277 3.855,-0.3988 3.075,1.5507 2.028,5.3828 0.055,6.641 -2.031,1.2969 -5.137,0.7769 -6.832,-0.6762 -2.195,-1.8867 -2.43,-4.7848 -1.383,-7.2969 1.156,-2.78903 4.012,-4.66403 7.09,-4.66403 4.574,0 7.422,2.98008 8.418,6.18713 h 8.547 c 1,-3.20705 3.844,-6.18713 8.414,-6.18713 3.086,0 5.934,1.875 7.094,4.66403 1.047,2.5121 0.816,5.4102 -1.379,7.2969 -1.699,1.4531 -4.809,1.9731 -6.836,0.6762 -1.969,-1.2582 -3.02,-5.0903 0.058,-6.641 1.247,-0.6289 2.836,-0.5192 3.848,0.3988 0.289,0.2652 0.531,0.593 0.695,0.984 0.442,1.0429 0.098,2.348 -1.086,2.734 -1.808,0.5863 -2.996,-1.2539 -2.136,-2.445 0.676,-0.9218 -0.86,-0.941 -1.422,-0.3789 -2.61,2.6129 1.379,7.3789 6.043,3.8442 1.949,-1.4731 2.004,-3.9262 1.133,-6.0203 -0.985,-2.35082 -3.395,-3.94106 -6.012,-3.94106 -4.328,0 -6.891,3.08636 -7.52,6.13716 -0.566,2.7929 0.289,6.691 4.539,8.496 0,0 1.52,0.7461 4.555,0.8629 2.277,0.0192 8.574,-0.4339 11.031,-5.9097 0.961,-2.1563 1.836,-5.5282 -1.152,-8.98128 0,0 7.012,-0.08594 4.688,8.28518 -0.606,2.1918 -2.333,3.739 -2.333,3.739 0,0 0.876,-0.8359 2.879,-1.2582 0.02,-0.0429 0.036,-0.082 0.071,-0.1168 0.746,-0.8562 1.472,-1.7421 2.203,-2.6332 3.949,-4.8089 8,-9.74996 13.914,-9.74996 1.437,0 2.984,0.29297 4.664,0.94922 3.82,1.6207 5.258,4.69494 5.406,7.50004 h 7.367 c 0.231,-1.6172 1.606,-2.8633 3.286,-2.8633 1.683,0 3.058,1.2461 3.289,2.8633 h 50.855 v 0.9418"
       style="fill:#ffffff;fill-opacity:1;fill-rule:nonzero;stroke:none;stroke-width:0.1"
       id="path52" /></g></svg>