<?xml version="1.0" encoding="UTF-8" standalone="no"?>
<svg
   xmlns:dc="http://purl.org/dc/elements/1.1/"
   xmlns:cc="http://creativecommons.org/ns#"
   xmlns:rdf="http://www.w3.org/1999/02/22-rdf-syntax-ns#"
   xmlns:svg="http://www.w3.org/2000/svg"
   xmlns="http://www.w3.org/2000/svg"
   viewBox="0 0 385.78421 54.936989"
   height="54.936989"
   width="385.78421"
   xml:space="preserve"
   id="svg2"
   version="1.1"><metadata
     id="metadata8"><rdf:RDF><cc:Work
         rdf:about=""><dc:format>image/svg+xml</dc:format><dc:type
           rdf:resource="http://purl.org/dc/dcmitype/StillImage" /><dc:title></dc:title></cc:Work></rdf:RDF></metadata><defs
     id="defs6"><clipPath
       id="clipPath18"
       clipPathUnits="userSpaceOnUse"><path
         id="path16"
         d="M 0,0 H 5953 V 5879 H 0 Z" /></clipPath></defs><g
     transform="matrix(1.3333333,0,0,-1.3333333,-49.94012,226.84666)"
     id="g10"><path
       d="m 198.462,152.87 c 0,0 -0.311,-2.767 -2.905,-2.456 -2.597,0.312 -4.741,2.769 -6.437,4.359 -0.865,0.814 -1.876,1.633 -3.065,2.243 l 0.2,-0.606 -1.192,0.865 0.3,-2.617 -1.339,3.108 0.331,-5.378 -1.362,5.555 c -0.013,0 -0.02,0 -0.032,0 l -0.75,-7.947 -0.474,7.981 h -0.001 l -1.169,-5.626 0.141,5.413 -1.155,-3.166 0.152,2.664 -1.078,-0.994 0.217,1.048 c -1.474,-0.62 -2.698,-1.585 -3.716,-2.543 -1.694,-1.59 -3.84,-4.047 -6.435,-4.359 -2.593,-0.311 -2.907,2.456 -2.907,2.456 0,0 -0.552,-2.524 1.696,-3.215 2.249,-0.694 4.256,0.551 4.256,0.551 -0.726,-0.69 -0.726,-2.282 -0.726,-2.282 0,0 0.552,0.104 1.799,0 1.245,-0.104 2.212,1.037 2.212,1.037 0.105,1.455 1.353,2.993 1.353,2.993 0,0 -0.072,0.434 0.136,1.989 0.208,1.557 1.452,2.144 2.077,0.899 0.621,-1.245 -1.005,-2.733 -2.009,-3.631 -1.003,-0.902 -0.969,-2.837 -0.517,-3.356 0.449,-0.518 -0.139,-1.8 -0.139,-1.8 0.934,-0.623 2.904,0 2.733,1.316 -0.173,1.315 0.071,2.316 0.416,2.18 0.346,-0.138 0.275,-0.52 0,-1.869 -0.278,-1.351 0.413,-2.907 1.419,-3.633 0.996,-0.723 1.627,-1.408 1.631,-1.417 v -0.002 0 h 0.002 v 0.002 c 0.006,0.009 0.636,0.694 1.634,1.417 1.003,0.726 1.695,2.282 1.417,3.633 -0.275,1.349 -0.345,1.731 0,1.869 0.345,0.136 0.59,-0.865 0.418,-2.18 -0.175,-1.316 1.797,-1.939 2.731,-1.316 0,0 -0.589,1.282 -0.139,1.8 0.451,0.519 0.485,2.454 -0.519,3.356 -1.002,0.898 -2.628,2.386 -2.006,3.631 0.622,1.245 1.868,0.658 2.075,-0.899 0.209,-1.555 0.14,-1.989 0.14,-1.989 0,0 1.244,-1.538 1.349,-2.993 0,0 0.968,-1.141 2.213,-1.037 1.247,0.104 1.801,0 1.801,0 0,0 0,1.592 -0.729,2.282 0,0 2.008,-1.245 4.258,-0.551 2.248,0.691 1.694,3.215 1.694,3.215 z m -32.314,0.392 c -0.205,0.379 -1.813,1.001 -2.419,-0.574 -0.633,-1.648 0.501,-3.856 2.75,-4.375 2.249,-0.518 3.926,0.553 3.926,0.553 -4.635,-1.071 -5.586,1.903 -5.361,3.13 0.194,1.065 1.104,1.266 1.104,1.266 z m 34.372,-0.574 c -0.606,1.575 -2.215,0.953 -2.422,0.574 0,0 0.913,-0.201 1.107,-1.266 0.225,-1.227 -0.726,-4.201 -5.361,-3.13 0,0 1.677,-1.071 3.927,-0.553 2.248,0.519 3.382,2.727 2.749,4.375 z m -30.633,-6.096 c -0.242,-0.398 -0.259,-0.708 -0.259,-0.708 0.57,0.31 2.422,0.102 3.58,0.447 1.159,0.348 1.817,1.663 1.817,1.663 -0.345,-0.381 -1.159,-0.778 -1.66,-0.815 -0.503,-0.035 -1.489,0.018 -2.319,-0.018 -0.832,-0.032 -0.535,0.884 -0.535,0.884 0,0 -0.382,-1.056 -0.624,-1.453 z m 19.338,1.402 c 0,0 0.657,-1.315 1.817,-1.663 1.157,-0.345 3.008,-0.137 3.578,-0.447 0,0 -0.016,0.31 -0.257,0.708 -0.243,0.397 -0.623,1.453 -0.623,1.453 0,0 0.292,-0.916 -0.538,-0.884 -0.828,0.036 -1.815,-0.017 -2.317,0.018 -0.5,0.037 -1.314,0.434 -1.66,0.815 z m -14.293,-3.847 c 0.085,-0.795 1.484,-0.899 2.178,-0.465 0.692,0.431 1.266,0.768 1.266,0.768 0,0 -0.004,-1.236 1.189,-2.153 1.192,-0.916 2.415,-1.796 2.558,-2.642 v -0.004 c 0,0 0,0 0,0.002 0.002,-0.002 0.002,-0.002 0.002,-0.002 v 0.004 c 0.143,0.846 1.368,1.726 2.56,2.642 1.192,0.917 1.188,2.153 1.188,2.153 0,0 0.574,-0.337 1.268,-0.768 0.689,-0.434 2.093,-0.33 2.177,0.465 0.089,0.796 -0.484,1.075 -0.484,1.075 -0.033,-0.208 -0.552,-0.832 -1.73,-0.642 -1.084,0.178 -1.608,1.051 -1.608,1.051 -0.172,-1.366 -1.233,-2.415 -2.022,-2.987 -0.88,-0.639 -1.348,-1.259 -1.351,-1.263 -10e-4,0.004 -0.468,0.624 -1.348,1.263 -0.788,0.572 -1.849,1.621 -2.023,2.987 0,0 -0.522,-0.873 -1.608,-1.051 -1.177,-0.19 -1.696,0.434 -1.732,0.642 0,0 -0.57,-0.279 -0.48,-1.075"
       style="fill:#ffffff;fill-opacity:1;fill-rule:nonzero;stroke:none;stroke-width:0.1"
       id="path480" /><path
       d="m 240.389,138.503 c 2.167,-2.298 2.233,-5.366 1.236,-6.815 -0.821,-1.366 -1.696,-1.81 -1.809,-1.885 3.119,2.755 1.347,7.188 -1.502,8.777 -2.818,1.851 -6.2,2.331 -8.852,2.024 -2.712,-0.349 -4.53,-1.939 -4.995,-3.485 -0.573,-1.49 -0.358,-2.511 -0.458,-2.488 -0.382,1.809 -0.008,4.029 1.559,5.404 1.51,1.372 3.54,1.9 5.406,1.998 3.766,0.137 7.293,-1.271 9.415,-3.53 z m 25.825,-1.174 c -1.051,1.37 -0.838,2.593 -0.823,2.865 -0.003,0.021 -0.01,0.038 -0.013,0.057 0.015,0.008 0.016,-0.015 0.013,-0.057 0.475,-2.466 2.557,-3.596 4.181,-4.081 1.657,-0.513 2.891,-0.637 2.89,-0.649 -2.363,-0.418 -5.045,0.276 -6.248,1.865 z m -55.848,11.499 c -3.358,-4.525 -8.267,-7.682 -13.074,-10.587 -4.789,-2.626 -9.49,-5.405 -15.179,-6.399 v -0.971 c 0,0 19.47,4.25 33.004,20.814 2.061,-2.541 4.027,-5.523 5.78,-9.031 0,0 1.486,3.228 4.581,7.147 -0.657,0.799 -1.245,1.665 -1.619,2.244 -0.839,-1.046 -1.647,-2.14 -2.409,-3.296 0,0 -1.5,2.359 -4.341,5.529 1.524,2.112 2.95,4.4 4.229,6.88 0,0 1.475,-3.368 4.026,-7.321 -0.003,-0.002 -0.006,-0.008 -0.009,-0.01 0.483,-0.753 1.363,-1.988 1.575,-2.285 0,0.002 0,0.002 0.001,0.004 2.101,-2.902 4.716,-5.832 7.704,-7.783 0,0 -5.983,1.549 -10.748,-1.33 -4.764,-2.88 -3.545,-8.201 0.445,-8.977 0,0 3.213,6.647 10.636,4.432 7.424,-2.214 5.763,-8.864 3.436,-7.645 0,0 1.549,-2.438 5.651,-0.664 4.101,1.774 1.218,5.873 1.218,5.873 0,0 6.427,-4.765 17.73,-4.765 6.32,0 16.066,1.937 21.993,4.765 -7.699,-2.438 -17.404,-3.398 -24.082,-2.579 l -0.005,-0.024 c -0.061,0.013 -0.122,0.03 -0.184,0.047 -4.449,0.564 -8.797,1.748 -12.893,3.735 -11.719,4.937 -21.221,14.621 -26.043,26.224 5.154,-11.204 14.62,-20.201 25.895,-24.679 -2.504,1.734 -4.602,4.002 -5.643,6.864 1.356,-2.773 3.717,-4.751 6.326,-6.129 -3.245,2.932 -5.556,6.809 -6.278,11.085 1.265,-5.261 4.958,-9.578 9.461,-12.11 -0.542,0.579 -1.037,1.213 -1.475,1.901 -1.106,1.862 -1.879,4.173 -1.128,6.387 0.631,2.204 3.525,3.604 5.439,2.134 -2.024,1.313 -4.587,-0.261 -5.011,-2.273 -0.544,-2.037 0.316,-4.119 1.453,-5.754 2.188,-3.021 5.816,-4.68 9.37,-5.457 6.393,-0.68 12.927,0.025 19.218,1.499 -2.233,-0.218 -4.472,-0.272 -6.75,-0.048 -1.728,0.232 -3.668,0.608 -5.08,2.014 -0.644,0.732 -1.108,1.731 -0.891,2.761 0.192,1.057 1.264,1.731 2.207,1.697 -2.319,-0.199 -2.266,-3.109 -0.834,-3.957 1.327,-1.018 3.051,-1.139 4.682,-1.133 0.9,0.03 1.807,0.115 2.708,0.238 -0.958,0.039 -1.763,0.248 -2.37,0.661 -4.103,2.768 -2.772,4.321 -2.772,4.321 0,0 -3.769,0.774 -5.651,-1.775 -1.884,-2.546 1.22,-4.764 1.22,-4.764 0,0 -8.754,-0.331 -11.97,3.989 -3.21,4.321 2.329,6.426 2.329,6.426 0,0 -3.546,6.761 -8.421,0.889 0,0 -2.771,2.992 -5.874,2.992 0,0 -2.217,-3.104 -0.331,-6.538 0,0 -6.342,2.764 -12.177,10.076 4.297,4.115 10.271,8.008 18.049,9.092 0,0 -2.106,-6.315 4.432,-6.538 0,0 1.552,7.756 12.079,4.543 10.525,-3.212 5.982,-12.076 1.662,-10.195 0,0 -0.889,-4.765 3.989,-6.426 4.874,-1.663 6.426,3.213 6.203,5.32 0,0 2.736,-5.511 7.464,-10.417 -0.002,0 -0.003,0 -0.004,-0.002 0.497,-0.481 2.714,-2.602 3.621,-3.24 0.015,-0.007 0.021,-0.02 0.034,-0.03 1.462,-1.11 3.04,-2.093 4.73,-2.823 9.752,-4.21 20.139,-0.564 18.173,5.872 -1.734,5.689 -8.531,0.889 -5.098,-2.769 0,0 -1.882,-2.659 -8.751,-0.331 -1.488,0.503 -2.935,1.436 -4.29,2.581 1.196,0.626 2.401,1.276 3.624,1.96 12.079,6.761 23.159,11.249 23.159,11.249 0,0 -0.93,-4.932 3.767,-5.042 6.316,-0.148 5.908,9.639 -0.665,8.641 -4.568,-0.692 -14.626,-5.373 -23.048,-9.36 -2.895,-1.372 -6.328,-3.039 -9.752,-4.523 -3.365,3.879 -5.649,8.234 -5.649,8.234 0,0 3.766,-2.326 7.758,0.331 3.985,2.66 1.218,6.872 -0.666,7.423 0,0 -0.778,-3.323 -4.1,-1.993 -3.325,1.329 -10.97,9.198 -22.383,12.188 -0.084,0.022 -0.169,0.038 -0.249,0.06 6.292,-2.338 11.801,-6.6 15.186,-12.552 3.941,-6.283 6.058,-13.638 11.469,-18.421 2.671,-2.299 6.219,-3.655 9.766,-3.758 3.267,-0.111 7.853,1.319 8.515,4.479 -0.551,-3.213 -5.157,-4.829 -8.513,-4.827 -3.64,-0.009 -7.328,1.258 -10.204,3.569 -5.793,4.825 -8.165,12.252 -12.197,18.205 -0.957,1.564 -2.069,2.995 -3.302,4.287 l 5.704,-11.317 c 2.374,-4.428 5.045,-9.064 9.257,-11.898 -4.354,2.647 -7.27,7.205 -9.866,11.563 l -5.122,9.119 c 0.709,-2.769 0.506,-5.626 -0.723,-7.753 -1.771,-2.681 -5.139,-2.121 -6.143,-0.891 -0.993,1.016 -1.196,1.867 -1.266,2.059 -0.01,0.014 -0.018,0.028 -0.027,0.042 0.008,0.005 0.016,-0.012 0.027,-0.042 0.875,-1.518 2.497,-2.507 3.994,-2.216 1.527,0.236 2.493,1.566 2.869,2.931 0.629,2.836 0.028,5.964 -0.89,8.187 -0.857,2.02 -2.022,3.463 -3.059,4.462 -0.02,0.012 -0.04,0.021 -0.059,0.036 1.268,-1.798 2.188,-3.808 2.674,-5.949 0.371,-1.769 0.527,-3.659 -0.087,-5.437 -0.477,-1.935 -2.859,-2.9 -4.532,-2.018 1.758,-0.747 3.875,0.314 4.203,2.129 0.469,1.695 0.209,3.493 -0.256,5.158 -0.9,3.096 -4.121,8.079 -8.822,9.207 -2.959,0.708 -9.153,0.036 -11.147,-4.747 -0.44,-1.477 -0.905,-3.641 0.563,-4.672 -1.531,0.951 -1.652,2.991 -1.273,4.529 0.279,1.6 1.165,3.247 2.622,4.131 0.755,0.529 1.578,0.958 2.438,1.293 -3.428,-0.447 -6.909,-2.203 -6.648,-6.139 -0.392,2.205 0.726,4.62 2.826,5.762 0.406,0.244 0.83,0.452 1.26,0.642 -2.019,-0.155 -4.071,-0.92 -5.039,-2.848 0.483,1.599 1.772,2.696 3.327,3.375 -2.338,-0.149 -4.652,-0.571 -6.877,-1.267 -1.374,-0.479 -2.752,-1.038 -4.123,-1.673 -0.059,-0.029 -0.118,-0.055 -0.175,-0.085 v 0.002 c -4.227,-1.98 -8.367,-4.708 -12.072,-8.263 -2.441,3.522 -4.667,7.913 -6.136,13.32 0,0 -2.182,-5.727 -7.205,-12.647 -5.293,5.196 -13.443,11.242 -23.931,13.091 0,0 -2.375,-4.839 -8.394,-5.356 v -3.768 c 0,0 6.767,0.147 9.353,5.023 0,0 11.076,-1.122 21.078,-11.471 -6.293,-7.877 -16.147,-16.546 -30.46,-19.924 v -1.438 c 5.044,0.694 10.122,3.254 14.84,5.643 4.885,2.688 9.877,5.613 13.413,9.984"
       style="fill:#ffffff;fill-opacity:1;fill-rule:nonzero;stroke:none;stroke-width:0.1"
       id="path482" /><path
       d="m 133.276,142.033 c 1.865,-0.098 3.894,-0.626 5.405,-1.998 1.568,-1.375 1.942,-3.595 1.558,-5.404 -0.099,-0.023 0.116,0.998 -0.46,2.488 -0.461,1.546 -2.281,3.136 -4.992,3.485 -2.653,0.307 -6.034,-0.173 -8.853,-2.024 -2.847,-1.589 -4.619,-6.022 -1.498,-8.777 -0.119,0.075 -0.99,0.519 -1.812,1.885 -0.996,1.449 -0.929,4.517 1.237,6.815 2.122,2.259 5.648,3.667 9.415,3.53 z m -41.4877,-6.569 c -0.0031,0.012 1.2312,0.136 2.8887,0.649 1.6238,0.485 3.7046,1.615 4.1816,4.081 -0.0039,0.042 -0.0031,0.065 0.0113,0.057 -0.0027,-0.019 -0.0078,-0.036 -0.0113,-0.057 0.0144,-0.272 0.2273,-1.495 -0.8254,-2.865 -1.2012,-1.589 -3.884,-2.283 -6.2449,-1.865 z m 75.5077,3.38 c 4.72,-2.389 9.796,-4.949 14.84,-5.643 v 1.438 c -14.313,3.378 -24.167,12.047 -30.461,19.924 10.002,10.349 21.078,11.471 21.078,11.471 2.589,-4.876 9.431,-5.023 9.431,-5.023 v 3.768 c -6.022,0.517 -8.469,5.356 -8.469,5.356 -10.491,-1.849 -18.639,-7.895 -23.932,-13.091 -5.025,6.92 -7.206,12.647 -7.206,12.647 -1.469,-5.407 -3.696,-9.798 -6.135,-13.32 -3.706,3.555 -7.847,6.283 -12.07,8.263 l -0.003,-0.002 c -0.057,0.03 -0.118,0.056 -0.176,0.085 -1.371,0.635 -2.747,1.194 -4.121,1.673 -2.225,0.696 -4.539,1.118 -6.878,1.267 1.557,-0.679 2.845,-1.776 3.327,-3.375 -0.969,1.928 -3.02,2.693 -5.038,2.848 0.43,-0.19 0.852,-0.398 1.259,-0.642 2.101,-1.142 3.218,-3.557 2.827,-5.762 0.262,3.936 -3.221,5.692 -6.65,6.139 0.861,-0.335 1.684,-0.764 2.439,-1.293 1.459,-0.884 2.343,-2.531 2.622,-4.131 0.38,-1.538 0.26,-3.578 -1.274,-4.529 1.471,1.031 1.006,3.195 0.564,4.672 -1.997,4.783 -8.188,5.455 -11.147,4.747 -4.6984,-1.128 -7.9226,-6.111 -8.821,-9.207 -0.4668,-1.665 -0.7258,-3.463 -0.2571,-5.158 0.3301,-1.815 2.4446,-2.876 4.2039,-2.129 -1.6734,-0.882 -4.0547,0.083 -4.534,2.018 -0.6132,1.778 -0.4589,3.668 -0.0859,5.437 0.4863,2.141 1.4094,4.151 2.6738,5.949 -0.0183,-0.015 -0.0382,-0.024 -0.0593,-0.036 -1.0364,-0.999 -2.1996,-2.442 -3.061,-4.462 -0.9168,-2.223 -1.5176,-5.351 -0.8886,-8.187 0.3773,-1.365 1.3441,-2.695 2.8703,-2.931 1.4961,-0.291 3.1203,0.698 3.9961,2.216 0.0086,0.03 0.0175,0.047 0.0234,0.042 -0.0078,-0.014 -0.0176,-0.028 -0.0234,-0.042 -0.0723,-0.192 -0.2747,-1.043 -1.2684,-2.059 -1.0031,-1.23 -4.3715,-1.79 -6.1438,0.891 -1.2253,2.127 -1.4316,4.984 -0.7226,7.753 l -5.1211,-9.119 c -2.5977,-4.358 -5.5125,-8.916 -9.866,-11.563 4.2129,2.834 6.8836,7.47 9.2566,11.898 l 5.7039,11.317 c -1.232,-1.292 -2.3433,-2.723 -3.3015,-4.287 -4.0325,-5.953 -6.4043,-13.38 -12.1973,-18.205 -2.877,-2.311 -6.5645,-3.578 -10.2039,-3.569 -3.3559,-0.002 -7.9621,1.614 -8.5141,4.827 0.6633,-3.16 5.2473,-4.59 8.5149,-4.479 3.5488,0.103 7.0957,1.459 9.7668,3.758 5.4097,4.783 7.5269,12.138 11.4707,18.421 3.3844,5.952 8.8914,10.214 15.1846,12.552 -0.082,-0.022 -0.166,-0.038 -0.247,-0.06 -11.4154,-2.99 -19.0599,-10.859 -22.3853,-12.188 -3.323,-1.33 -4.0996,1.993 -4.0996,1.993 -1.8836,-0.551 -4.6531,-4.763 -0.6641,-7.423 3.9895,-2.657 7.7571,-0.331 7.7571,-0.331 0,0 -2.284,-4.355 -5.6504,-8.234 -3.4238,1.484 -6.8555,3.151 -9.7512,4.523 -8.4219,3.987 -18.4812,8.668 -23.0496,9.36 -6.573,0.998 -6.9805,-8.789 -0.6633,-8.641 4.6992,0.11 3.768,5.042 3.768,5.042 0,0 11.0801,-4.488 23.1559,-11.249 1.225,-0.684 2.4296,-1.334 3.6242,-1.96 -1.3535,-1.145 -2.7996,-2.078 -4.2891,-2.581 -6.8683,-2.328 -8.7519,0.331 -8.7519,0.331 3.4343,3.658 -3.3622,8.458 -5.0965,2.769 -1.966,-6.436 8.4207,-10.082 18.1707,-5.872 1.6933,0.73 3.2722,1.713 4.7324,2.823 0.0098,0.01 0.0195,0.023 0.0332,0.03 0.907,0.638 3.123,2.759 3.623,3.24 -0.0031,0.002 -0.0039,0.002 -0.0058,0.002 4.7297,4.906 7.4629,10.417 7.4629,10.417 -0.2207,-2.107 1.3301,-6.983 6.2058,-5.32 4.875,1.661 3.9895,6.426 3.9895,6.426 -4.3211,-1.881 -8.8652,6.983 1.6621,10.195 10.527,3.213 12.079,-4.543 12.079,-4.543 6.536,0.223 4.431,6.538 4.431,6.538 7.778,-1.084 13.75,-4.977 18.047,-9.092 -5.832,-7.312 -12.173,-10.076 -12.173,-10.076 1.882,3.434 -0.335,6.538 -0.335,6.538 -3.103,0 -5.871,-2.992 -5.871,-2.992 -4.876,5.872 -8.423,-0.889 -8.423,-0.889 0,0 5.541,-2.105 2.328,-6.426 -3.214,-4.32 -11.9685,-3.989 -11.9685,-3.989 0,0 3.1035,2.218 1.2214,4.764 -1.8847,2.549 -5.6523,1.775 -5.6523,1.775 0,0 1.3309,-1.553 -2.7703,-4.321 -0.6086,-0.413 -1.4145,-0.622 -2.3723,-0.661 0.9016,-0.123 1.8059,-0.208 2.709,-0.238 1.6301,-0.006 3.3563,0.115 4.6816,1.133 1.4329,0.848 1.4832,3.758 -0.8359,3.957 0.9453,0.034 2.0156,-0.64 2.2078,-1.697 0.2192,-1.03 -0.2488,-2.029 -0.8894,-2.761 -1.4129,-1.406 -3.3516,-1.782 -5.0789,-2.014 -2.2805,-0.224 -4.5176,-0.17 -6.7532,0.048 6.291,-1.474 12.8274,-2.179 19.22,-1.499 3.553,0.777 7.182,2.436 9.37,5.457 1.135,1.635 1.997,3.717 1.451,5.754 -0.423,2.012 -2.987,3.586 -5.012,2.273 1.916,1.47 4.81,0.07 5.442,-2.134 0.751,-2.214 -0.022,-4.525 -1.128,-6.387 -0.439,-0.688 -0.933,-1.322 -1.478,-1.901 4.504,2.532 8.196,6.849 9.463,12.11 -0.722,-4.276 -3.033,-8.153 -6.277,-11.085 2.606,1.378 4.967,3.356 6.325,6.129 -1.041,-2.862 -3.138,-5.13 -5.645,-6.864 11.277,4.478 20.741,13.475 25.898,24.679 -4.824,-11.603 -14.324,-21.287 -26.044,-26.224 -4.094,-1.987 -8.444,-3.171 -12.894,-3.735 -0.06,-0.017 -0.121,-0.034 -0.184,-0.047 l -0.003,0.024 c -6.6797,-0.819 -16.384,0.141 -24.084,2.579 5.9257,-2.828 15.6718,-4.765 21.994,-4.765 11.303,0 17.731,4.765 17.731,4.765 0,0 -2.882,-4.099 1.217,-5.873 4.101,-1.774 5.652,0.664 5.652,0.664 -2.326,-1.219 -3.989,5.431 3.435,7.645 7.423,2.215 10.637,-4.432 10.637,-4.432 3.99,0.776 5.209,6.097 0.441,8.977 -4.761,2.879 -10.745,1.33 -10.745,1.33 2.987,1.951 5.604,4.881 7.705,7.783 0.002,-0.002 0.002,-0.002 0.002,-0.004 0.21,0.297 1.09,1.532 1.573,2.285 -0.003,0.002 -0.004,0.008 -0.01,0.01 2.554,3.953 4.026,7.321 4.026,7.321 1.279,-2.48 2.705,-4.768 4.231,-6.88 -2.841,-3.17 -4.341,-5.529 -4.341,-5.529 -0.764,1.156 -1.571,2.25 -2.411,3.296 -0.372,-0.579 -0.962,-1.445 -1.617,-2.244 3.095,-3.919 4.582,-7.147 4.582,-7.147 1.753,3.508 3.718,6.49 5.778,9.031 13.534,-16.564 33.004,-20.814 33.004,-20.814 v 0.971 c -5.688,0.994 -10.39,3.773 -15.178,6.399 -4.806,2.905 -9.715,6.062 -13.074,10.587 3.536,-4.371 8.527,-7.296 13.412,-9.984"
       style="fill:#ffffff;fill-opacity:1;fill-rule:nonzero;stroke:none;stroke-width:0.1"
       id="path484" /></g></svg>