<?xml version="1.0" encoding="UTF-8" standalone="no"?>
<!-- Created with Inkscape (http://www.inkscape.org/) -->

<svg
   width="67.657555mm"
   height="67.656731mm"
   viewBox="0 0 67.657555 67.656731"
   version="1.1"
   id="svg1"
   xml:space="preserve"
   inkscape:version="1.3.2 (091e20e, 2023-11-25, custom)"
   sodipodi:docname="clock_favicon.svg"
   xmlns:inkscape="http://www.inkscape.org/namespaces/inkscape"
   xmlns:sodipodi="http://sodipodi.sourceforge.net/DTD/sodipodi-0.dtd"
   xmlns="http://www.w3.org/2000/svg"
   xmlns:svg="http://www.w3.org/2000/svg"><sodipodi:namedview
     id="namedview1"
     pagecolor="#505050"
     bordercolor="#eeeeee"
     borderopacity="1"
     inkscape:showpageshadow="0"
     inkscape:pageopacity="0"
     inkscape:pagecheckerboard="0"
     inkscape:deskcolor="#d1d1d1"
     inkscape:document-units="mm"
     inkscape:zoom="1.1893651"
     inkscape:cx="39.516882"
     inkscape:cy="129.06045"
     inkscape:window-width="1366"
     inkscape:window-height="705"
     inkscape:window-x="1912"
     inkscape:window-y="182"
     inkscape:window-maximized="1"
     inkscape:current-layer="layer1" /><defs
     id="defs1" /><g
     inkscape:label="Camada 1"
     inkscape:groupmode="layer"
     id="layer1"
     transform="translate(-71.171223,-114.67164)"><path
       style="fill:#ffffff;stroke-width:0.842176"
       d="m 100.54348,176.65427 c -3.894303,-0.59616 -8.093938,-2.26332 -11.58694,-4.59977 -2.147145,-1.43621 -6.074483,-5.36355 -7.510697,-7.5107 -6.580849,-9.83839 -6.580849,-22.24851 0,-32.0869 1.436214,-2.14715 5.363552,-6.0745 7.510697,-7.5107 9.838397,-6.58085 22.24853,-6.58085 32.08692,0 2.14715,1.4362 6.07449,5.36355 7.5107,7.5107 6.58085,9.83839 6.58085,22.24851 0,32.0869 -1.43621,2.14715 -5.36355,6.07449 -7.5107,7.5107 -6.09586,4.07749 -13.32125,5.69871 -20.49998,4.59977 z m 29.97009,-28.15392 c 0,-11.65128 -8.31927,-25.48447 -25.51357,-25.48447 -18.630537,0 -25.484467,15.3112 -25.484467,25.48447 0,32.71904 50.998037,34.66057 50.998037,0 z m -26.02409,22.58908 c -0.0869,-0.0869 -0.15795,-0.881 -0.15795,-1.76472 0,-1.77786 0.34946,-2.42632 1.01147,-1.87691 0.26539,0.22027 0.3284,0.6675 0.27853,1.97701 -0.0574,1.50879 -0.1138,1.69942 -0.51929,1.75747 -0.25015,0.0358 -0.52589,-0.006 -0.61276,-0.0928 z M 93.425826,168.013 c -0.232112,-0.27969 -0.138992,-0.59097 0.540088,-1.80527 0.66373,-1.18685 0.912913,-1.45416 1.303693,-1.3985 0.73369,0.10451 0.68813,0.81792 -0.13954,2.18524 -0.784719,1.29636 -1.245238,1.57158 -1.704241,1.01853 z m 21.705634,-0.58374 c -1.15887,-1.83576 -1.26601,-2.66262 -0.34501,-2.66262 0.64499,0 2.18224,2.77099 1.79566,3.2368 -0.44717,0.53881 -0.84828,0.38005 -1.45065,-0.57418 z m -29.737781,-7.45054 c -0.422823,-0.50948 -0.146976,-0.8901 1.206165,-1.6643 1.372739,-0.7854 1.987098,-0.80932 2.091267,-0.0814 0.05541,0.38696 -0.209845,0.63668 -1.358363,1.27897 -1.641351,0.9179 -1.577404,0.9025 -1.939069,0.46673 z m 19.095801,0.19224 c -0.0869,-0.0869 -0.15795,-2.48533 -0.15795,-5.32993 0,-4.32548 -0.0547,-5.21738 -0.33425,-5.44938 -0.18383,-0.15256 -0.33423,-0.55365 -0.33423,-0.8913 0,-0.33765 0.1504,-0.73874 0.33423,-0.8913 0.28586,-0.23725 0.33425,-1.44723 0.33425,-8.35941 0,-6.97847 0.0456,-8.09953 0.33423,-8.21028 0.18384,-0.0706 0.48465,-0.0706 0.66848,0 0.2886,0.11075 0.33424,1.23181 0.33424,8.21028 0,6.91218 0.0483,8.12216 0.33423,8.35941 0.42925,0.35624 0.43164,1.42438 0.004,1.7793 -0.27149,0.22532 -0.34088,1.21164 -0.38995,5.54222 -0.0579,5.11113 -0.0733,5.27007 -0.5145,5.33324 -0.25015,0.0358 -0.5259,-0.006 -0.61277,-0.0928 z m 18.15662,-0.66432 c -1.12453,-0.63734 -1.39182,-0.89236 -1.33696,-1.27554 0.10394,-0.726 0.71932,-0.70148 2.09102,0.0833 1.35314,0.7742 1.62899,1.15482 1.20616,1.6643 -0.36447,0.43916 -0.34358,0.44419 -1.96022,-0.47208 z M 82.352345,148.83459 c -0.3032,-0.79012 0.07403,-1.00271 1.779165,-1.00271 1.813669,0 2.475047,0.34391 1.928297,1.00271 -0.200901,0.24207 -0.732668,0.33424 -1.928297,0.33424 -1.261917,0 -1.681127,-0.0787 -1.779165,-0.33424 z m 41.595115,0.009 c -0.23099,-0.27833 -0.23099,-0.40765 0,-0.68598 0.22026,-0.2654 0.66749,-0.32841 1.97701,-0.27853 1.63944,0.0624 1.69235,0.0819 1.69235,0.62152 0,0.53964 -0.0529,0.55908 -1.69235,0.62152 -1.30952,0.0499 -1.75675,-0.0131 -1.97701,-0.27853 z M 86.543115,138.66688 c -1.335843,-0.78378 -1.593953,-1.18398 -1.089169,-1.68876 0.313298,-0.3133 0.487746,-0.26733 1.826183,0.48117 1.197954,0.66992 1.466692,0.91956 1.410982,1.31067 -0.102442,0.71925 -0.80384,0.6856 -2.147996,-0.10308 z m 34.871725,0.54906 c -0.45671,-0.4567 -0.0527,-0.99737 1.31814,-1.76399 1.32658,-0.74186 1.49978,-0.78713 1.81308,-0.47383 0.509,0.509 0.24114,0.91457 -1.11735,1.69181 -1.20498,0.68943 -1.72851,0.83137 -2.01387,0.54601 z m -27.455908,-8.43546 c -0.748501,-1.33843 -0.794467,-1.51288 -0.481169,-1.82618 0.511235,-0.51123 0.915033,-0.24034 1.708164,1.1459 0.7854,1.37274 0.80931,1.9871 0.0814,2.09127 -0.38837,0.0556 -0.640005,-0.21578 -1.308401,-1.41099 z m 20.240908,1.0761 c -0.16275,-0.42414 1.0166,-2.71347 1.58137,-3.06972 0.25463,-0.16062 0.45327,-0.12031 0.71957,0.14598 0.34191,0.34191 0.31001,0.47126 -0.45238,1.83453 -0.83972,1.50158 -1.53346,1.91034 -1.84856,1.08921 z m -9.62839,-2.38722 c -0.16137,-0.19446 -0.23524,-0.93533 -0.1944,-1.94973 0.0636,-1.57906 0.0853,-1.6361 0.62295,-1.6361 0.53764,0 0.55937,0.057 0.62295,1.6361 0.0613,1.52266 -0.14254,2.26336 -0.62295,2.26336 -0.0925,0 -0.28539,-0.14114 -0.42855,-0.31363 z"
       id="path1"
       sodipodi:nodetypes="sscscccscssssscsccscccsssccssccccsccssscsccscscccccscscccsssccscscccscccssscsccccccssscsccscsc" /></g></svg>
