<?xml version="1.0" encoding="UTF-8" standalone="no"?>
<svg
   xmlns:dc="http://purl.org/dc/elements/1.1/"
   xmlns:cc="http://creativecommons.org/ns#"
   xmlns:rdf="http://www.w3.org/1999/02/22-rdf-syntax-ns#"
   xmlns:svg="http://www.w3.org/2000/svg"
   xmlns="http://www.w3.org/2000/svg"
   viewBox="0 0 325.7612 80.733132"
   height="80.733131"
   width="325.7612"
   xml:space="preserve"
   id="svg2"
   version="1.1"><metadata
     id="metadata8"><rdf:RDF><cc:Work
         rdf:about=""><dc:format>image/svg+xml</dc:format><dc:type
           rdf:resource="http://purl.org/dc/dcmitype/StillImage" /><dc:title></dc:title></cc:Work></rdf:RDF></metadata><defs
     id="defs6"><clipPath
       id="clipPath18"
       clipPathUnits="userSpaceOnUse"><path
         id="path16"
         d="M 0,0 H 5953 V 5879 H 0 Z" /></clipPath></defs><g
     transform="matrix(1.3333333,0,0,-1.3333333,-82.300885,734.92299)"
     id="g10"><path
       d="m 285.97456,523.52826 c -2.481,-0.002 -4.994,0.223 -7.43,0.827 3.331,-1.205 7.477,-1.992 10.82,-1.839 5.243,0.238 8.816,-1.59 8.816,-1.59 0.874,2.702 -3.653,6.833 -3.653,6.833 -8.509,-2.098 -16.198,0.291 -19.696,1.714 -1.059,0.047 -2.118,0.091 -3.162,0.098 6.495,-3.326 13.724,-5.314 21.225,-4.392 -5.954,-1.671 -12.004,-0.551 -17.757,1.247 3.235,-1.759 7.066,-2.635 10.837,-2.898 z m -38.943,1.316 c 0.044,-0.062 0.092,-0.121 0.137,-0.181 0.88,-0.858 6.42,-4.306 12.95,-5.981 0.059,-0.003 0.082,-0.007 0.055,-0.013 -0.018,0.002 -0.035,0.01 -0.055,0.013 -0.774,0.046 -8.559,-0.04 -12.95,5.981 -0.089,0.085 -0.145,0.153 -0.137,0.181 z m 6.786,-10.194 c 0.006,0.023 2.815,-1.017 7.072,-1.97 2.171,-0.529 4.539,-0.675 7.379,-0.84 2.542,-0.347 5.862,-1.021 7.36,-3.49 0.131,-0.144 0.181,-0.239 0.153,-0.254 -0.049,0.089 -0.103,0.17 -0.153,0.254 -0.561,0.623 -2.612,2.184 -6.22,2.423 -4.21,-0.023 -10.523,0.811 -15.591,3.877 z m -10.848,13.009 c -0.673,-2.339 -0.964,-6.115 1.354,-11.022 4.052,-8.579 13.267,-7.071 15.888,-11.836 0,0 0.45,0.502 0.291,1.985 -0.159,1.483 -1.008,2.913 -1.008,2.913 0,0 -13.107,2.093 -13.979,16.788 0,0 3.229,-9.903 8.684,-13.452 5.453,-3.548 12.605,-4.079 15.094,-4.343 2.489,-0.263 5.454,-0.847 6.937,-3.07 0,0 0.53,2.117 0,3.708 -0.529,1.588 -1.958,3.76 -3.759,5.136 0,0 -16.26,-2.437 -23.249,5.296 0,0 5.586,-3.919 12.658,-4.316 7.068,-0.397 9.291,0.714 12.155,-0.08 2.855,-0.794 3.808,-2.702 3.808,-2.702 0,0 -0.077,5.244 -5.64,8.898 -5.558,3.654 -12.389,4.687 -16.999,5.323 -4.605,0.635 -8.26,2.422 -9.531,3.296 0,0 0.597,-1.508 4.485,-4.051 3.895,-2.541 16.724,-5.283 18.79,-8.461 0,0 -2.144,1.431 -8.501,3.02 -6.008,1.502 -12.386,3.172 -15.707,8.675 -0.349,-6.099 0.766,-13.031 5.846,-17.388 -5.025,3.541 -7.099,9.66 -7.617,15.683 z m -34.819,-14.894 c 0,-0.168 -2.187,1.789 -1.632,4.402 0.064,-0.039 0.488,-2.331 1.632,-4.402 z m -50.918,-10.904 c -1.244,-1.283 -1.756,-4.186 -0.792,-6.724 1.699,-2.9 7.102,-2.77 10.535,-1.496 4.578,1.402 8.143,4.93 11.817,8.064 7.373,6.293 14.033,13.637 22.141,18.929 -7.955,-5.489 -14.417,-12.988 -21.645,-19.487 -3.585,-3.206 -7.116,-6.927 -11.964,-8.567 -2.362,-0.821 -4.902,-1.286 -7.488,-0.919 -0.167,0.015 -0.337,0.037 -0.504,0.067 0.387,-0.223 0.798,-0.429 1.264,-0.59 5.505,-1.907 12.344,1.825 19.487,8.817 9.903,9.691 15.436,15.888 24.521,21.924 0,0 -0.875,-1.348 -1.272,-3.137 0,0 -2.223,-1.468 -1.481,-5.388 0.743,-3.919 7.042,-2.066 7.042,-2.066 0,0 -0.291,1.881 -0.107,3.097 0.187,1.218 -0.184,2.993 -2.119,3.496 -0.327,0.086 -0.31,0.212 -0.514,0.424 -0.017,-0.075 -0.311,-0.108 -0.327,-0.184 -0.551,-2.352 -0.152,-5.457 2.63,-6.432 -2.89,0.562 -3.949,3.982 -3.619,6.548 0.183,2.062 0.577,4.037 1.052,6.004 -1.331,-1.389 -3.871,-3.313 -6.568,-1.487 0,0 -6.368,-4.37 -12.804,-10.725 -5.722,-5.653 -14.132,-13.61 -19.129,-15.608 -4.765,-1.907 -7.31,-0.557 -6.673,0.357 0.635,0.913 3.19,0.634 2.765,3.547 -0.562,3.878 -4.301,3.546 -6.248,1.536 z m 52.614,24.22 c -0.039,-0.001 5.781,0.461 11.651,-1.449 5.819,-1.777 11.465,-6.459 16.105,-13.052 0.044,-0.056 0.073,-0.091 0.06,-0.084 -0.021,0.029 -0.044,0.055 -0.06,0.084 -0.886,1.054 -10.795,12.643 -27.756,14.501 z m 2.207,-1.365 c 0.029,-0.012 0.059,-0.021 0.086,-0.031 1.054,-0.266 11.079,-1.641 19.392,-9.701 0.303,-0.233 0.46,-0.383 0.435,-0.422 -0.144,0.145 -0.291,0.282 -0.435,0.422 -1.943,1.485 -10.159,6.496 -19.392,9.701 -0.066,0.017 -0.099,0.027 -0.086,0.031 z m 4.103,-3.195 c 0.05,-0.024 0.099,-0.052 0.149,-0.078 1.007,-0.409 6.94,-2.354 11.579,-6.501 0.312,-0.214 0.47,-0.355 0.441,-0.401 -0.147,0.136 -0.295,0.27 -0.441,0.401 -1.478,1.026 -6.468,3.774 -11.579,6.501 -0.107,0.043 -0.16,0.069 -0.149,0.078 z m 55.187,10.165 c 0.03,-0.009 0.061,-0.016 0.091,-0.023 0.602,-0.132 4.513,-0.713 9.844,0.617 5.576,1.211 13.937,4.855 21.586,1.532 -0.46,0.166 -4.222,1.379 -9.732,0.287 -5.727,-0.652 -13.594,-4.752 -21.698,-2.436 -0.056,0.011 -0.092,0.021 -0.091,0.023 z m -20.579,2.552 c -0.1,0.346 8.454,1.051 15.206,5.592 0.013,0.044 -1.144,-1.9 -4.052,-3.289 -2.825,-1.428 -6.982,-2.387 -11.154,-2.303 z m -47.507,-8.851 c 0.059,-0.002 1.959,1.789 3.052,4.315 0.069,0.173 -0.151,-3.302 -3.052,-4.315 z m 2.421,4.987 c -0.531,-0.139 -2.445,-2.398 -3.768,-5.73 0.003,-0.007 -0.162,0.98 0.205,2.375 0.274,1.235 1.505,3.463 3.563,3.355 z m 4.851,-12.819 c 2.428,-4.038 6.603,-6.85 8.611,-7.644 2.542,-1.006 5.773,-1.113 5.773,-1.113 0.265,0.954 -1.375,4.08 -1.375,4.08 0,0 -1.518,0.961 -4.769,2.965 -4.554,2.806 -9.214,9.055 -9.214,9.055 0,0 6.038,-4.343 9.533,-7.044 3.497,-2.701 10.458,-5.428 14.668,-6.381 4.211,-0.952 5.005,-3.734 5.005,-3.734 0,0 1.907,3.576 -2.225,11.044 -4.129,7.466 -10.406,9.028 -14.429,9.452 -4.026,0.424 -7.892,-0.742 -7.892,-0.742 0,0 2.913,1.378 8.635,2.012 5.717,0.636 18.69,1.191 24.015,1.273 5.322,0.078 20.651,-0.082 22.001,0.158 0.229,0.04 0.439,0.01 0.646,-0.07 3.602,0.002 7.038,-0.666 10.523,-0.767 4.26,-0.244 8.535,0.725 12.744,1.432 -4.167,-0.946 -8.353,-2.167 -12.751,-2.176 -1.329,-0.032 -2.664,0.011 -3.991,0.068 12.772,-3.439 19.632,-0.241 23.653,1.671 4.344,2.065 6.356,1.43 6.356,1.43 0,0 -2.119,3.071 -6.619,4.554 -4.504,1.483 -8.898,1.907 -8.898,1.907 0,0 -3.762,-2.755 -9.267,-4.978 -5.509,-2.224 -10.276,-1.112 -10.276,-1.112 12.868,1.166 16.841,6.037 18.538,7.626 1.694,1.59 2.222,4.608 2.222,4.608 0,0 0,0 -2.067,-0.795 -2.063,-0.795 -7.307,-0.899 -11.543,-3.177 -4.237,-2.278 -8.367,-7.149 -8.367,-7.149 -5.936,-1.188 -16.429,-1.042 -19.82,-0.959 9.212,-0.113 18.838,4.048 20.772,9.167 1.393,3.676 2.967,6.566 2.967,6.566 0,0 -2.435,-1.641 -5.774,-2.436 -3.334,-0.795 -11.174,-3.813 -13.766,-6.513 -2.598,-2.702 -4.449,-2.966 -4.449,-2.966 1.747,0.529 4.51,4.8 8.126,7.057 4.013,2.502 9.691,3.813 9.691,3.813 3.1,1.469 3.417,3.455 3.417,3.455 -1.985,-0.715 -8.421,0.319 -15.092,-3.891 -6.675,-4.211 -9.413,-11.917 -9.413,-11.917 14.722,2.331 21.646,9.613 21.646,9.613 -7.465,-11.876 -27.328,-11.598 -34.158,-11.915 -6.832,-0.319 -16.309,-1.988 -16.309,-1.988 12.76,14.934 24.57,15.809 24.57,15.809 -11.198,-2.701 -22.243,-14.881 -22.243,-14.881 1.063,1.17 2.04,1.854 3.146,2.26 4.583,2.414 9.172,4.811 13.795,7.127 -3.208,-2.147 -6.391,-4.34 -9.563,-6.546 0.026,10e-4 0.059,10e-4 0.087,0.002 3.362,0.961 6.716,2.193 9.957,3.685 -1.949,-1.32 -3.965,-2.535 -6.042,-3.663 0.424,0.004 0.866,0.01 1.33,0.021 7.259,0.158 12.288,7.997 13.876,10.486 1.589,2.488 4.767,4.766 4.767,4.766 -2.755,-1.112 -11.175,1.271 -18.534,-3.443 -7.365,-4.713 -13.135,-12.286 -13.135,-12.286 4.608,7.546 10.38,12.339 10.38,12.339 0,0 0.581,1.518 0.9,2.305 0.505,1.244 1.11,1.879 1.11,1.879 0,0 -1.376,0.266 -4.896,-1.668 -3.849,-2.111 -5.959,-7.97 -7.124,-11.677 -1.166,-3.708 -3.389,-5.72 -4.183,-6.356 -0.795,-0.635 -4.632,-1.795 -6.065,0.238 -1.287,1.828 -3.513,2.075 -4.415,2.096 -1.581,-0.03 -3.173,-0.135 -4.688,-0.439 -2.147,-0.172 -2.927,-3.032 -4.58,-3.925 1.422,1.038 1.67,4.067 4.262,4.865 0.783,0.287 1.569,0.519 2.355,0.713 -2.655,0.684 -5.343,-0.87 -6.014,-1.959 -0.979,-1.589 -1.548,-3.933 -1.548,-3.933 0.912,-2.104 4.33,-1.827 4.33,-1.827 0,0 -0.24,2.384 1.787,3.577 2.027,1.19 4.048,0.674 4.048,0.674 0,0 -2.144,0.08 -3.255,-1.351 -1.113,-1.43 -1.252,-2.064 -1.191,-3.932 0.016,-0.54 0.596,-1.946 0.596,-1.946 0,0 1.905,-0.119 3.892,1.231 1.987,1.352 2.025,4.886 2.025,4.886 1.285,-0.45 1.471,-1.852 1.471,-1.852 0,0 -0.637,-0.709 -0.513,-3.109 0.564,-7.418 9.19,-11.685 15.405,-15.788 -3.532,1.801 -7.008,3.626 -10.378,5.818 -0.953,0.681 -1.911,1.431 -2.8,2.265 z m -140.937895,3.371 c 0,0 3.5742,1.828 8.8144,1.59 3.3418,-0.153 7.4895,0.634 10.82,1.839 -2.4356,-0.604 -4.9485,-0.829 -7.4297,-0.827 3.7687,0.263 7.6035,1.139 10.8382,2.898 -5.7558,-1.798 -11.8062,-2.918 -17.7593,-1.247 7.5023,-0.922 14.734,1.066 21.2285,4.392 -1.0453,-0.007 -2.1051,-0.051 -3.1664,-0.098 -3.4957,-1.423 -11.1863,-3.812 -19.6918,-1.714 0,0 -4.5293,-4.131 -3.6539,-6.833 z m 116.811895,-17.863 -0.88,-0.977 c 0.702,-0.694 1.416,-1.4 2.165,-2.131 7.142,-6.992 13.981,-10.724 19.486,-8.817 0.466,0.161 0.877,0.367 1.267,0.59 -0.169,-0.03 -0.34,-0.052 -0.506,-0.067 -2.586,-0.367 -5.125,0.098 -7.488,0.919 -4.851,1.64 -8.381,5.361 -11.965,8.567 -0.699,0.629 -1.389,1.272 -2.079,1.916 z m 24.93,-7.926 c 0.96,2.538 0.449,5.441 -0.796,6.724 -1.946,2.01 -5.685,2.342 -6.247,-1.536 -0.424,-2.913 2.13,-2.634 2.766,-3.547 0.637,-0.914 -1.907,-2.264 -6.673,-0.357 -3.155,1.261 -7.668,4.898 -12.009,8.83 l -1.519,-1.688 c 0.702,-0.626 1.409,-1.249 2.123,-1.858 3.675,-3.134 7.241,-6.662 11.818,-8.064 3.431,-1.274 8.838,-1.404 10.537,1.496 z m -103.681,23.545 c 6.531,1.675 12.072,5.123 12.95,5.981 0.044,0.06 0.093,0.119 0.138,0.181 0.009,-0.028 -0.05,-0.096 -0.138,-0.181 -4.391,-6.021 -12.176,-5.935 -12.95,-5.981 -0.017,-0.003 -0.037,-0.011 -0.055,-0.013 -0.025,0.006 -0.003,0.01 0.055,0.013 z m 6.302,-4.032 c -5.067,-3.066 -11.379,-3.9 -15.592195,-3.877 -3.6047,-0.239 -5.6559,-1.8 -6.218,-2.423 -0.0535,-0.084 -0.1058,-0.165 -0.1547,-0.254 -0.0289,0.015 0.0223,0.11 0.1547,0.254 1.4961,2.469 4.818,3.143 7.359,3.49 2.842195,0.165 5.208195,0.311 7.378195,0.84 4.26,0.953 7.067,1.993 7.073,1.97 z m -24.027395,-1.986 c 0,0 0.9504,1.908 3.8114,2.702 2.8605,0.794 5.0843,-0.317 12.154995,0.08 7.069,0.397 12.657,4.316 12.657,4.316 -6.991,-7.733 -23.249895,-5.296 -23.249895,-5.296 -1.8004,-1.376 -3.2282,-3.548 -3.7598,-5.136 -0.5297,-1.591 0,-3.708 0,-3.708 1.4844,2.223 4.4488,2.807 6.9395,3.07 2.487495,0.264 9.637195,0.795 15.091195,4.343 5.455,3.549 8.685,13.452 8.685,13.452 -0.874,-14.695 -13.982,-16.788 -13.982,-16.788 0,0 -0.846,-1.43 -1.005,-2.913 -0.16,-1.483 0.291,-1.985 0.291,-1.985 2.624,4.765 11.837,3.257 15.888,11.836 2.317,4.907 2.029,8.683 1.353,11.022 -0.519,-6.023 -2.592,-12.142 -7.617,-15.683 5.078,4.357 6.196,11.289 5.847,17.388 -3.322,-5.503 -9.7,-7.173 -15.707,-8.675 -6.356,-1.589 -8.501695,-3.02 -8.501695,-3.02 2.066395,3.178 14.894695,5.92 18.786695,8.461 3.894,2.543 4.49,4.051 4.49,4.051 -1.273,-0.874 -4.927,-2.661 -9.534,-3.296 -4.606,-0.636 -11.4395,-1.669 -17.000895,-5.323 -5.5586,-3.654 -5.6375,-8.898 -5.6375,-8.898 z m -25.0179,21.148 c 7.6484,3.323 16.0101,-0.321 21.5843,-1.532 5.3328,-1.33 9.2414,-0.749 9.8422,-0.617 0.0321,0.007 0.0625,0.014 0.093,0.023 8e-4,-0.002 -0.0356,-0.012 -0.093,-0.023 -8.1015,-2.316 -15.9722,1.784 -21.6976,2.436 -5.5043,1.091 -9.2653,-0.119 -9.7289,-0.287 z m 93.017295,-7.731 c -16.96,-1.858 -26.871,-13.447 -27.757,-14.501 -0.018,-0.029 -0.04,-0.055 -0.06,-0.084 -0.014,-0.007 0.013,0.028 0.06,0.084 4.64,6.593 10.288,11.275 16.104,13.052 5.87,1.91 11.689,1.448 11.653,1.449 z m -22.121,-11.519 c -0.025,0.039 0.132,0.189 0.435,0.422 8.313,8.06 18.338,9.435 19.393,9.701 0.026,0.01 0.057,0.019 0.085,0.031 0.014,-0.004 -0.021,-0.014 -0.085,-0.031 -9.233,-3.205 -17.449,-8.216 -19.393,-9.701 -0.144,-0.14 -0.291,-0.277 -0.435,-0.422 z m 3.643,-0.021 c -0.032,0.046 0.128,0.187 0.438,0.401 4.639,4.147 10.573,6.092 11.579,6.501 0.05,0.026 0.1,0.054 0.15,0.078 0.009,-0.009 -0.042,-0.035 -0.15,-0.078 -5.113,-2.727 -10.099,-5.475 -11.579,-6.501 -0.146,-0.131 -0.294,-0.265 -0.438,-0.401 z m 22.014,15.161 c 1.092,-2.526 2.993,-4.317 3.051,-4.315 -2.902,1.013 -3.118,4.488 -3.051,4.315 z m 4.399,-5.058 c -1.321,3.332 -3.235,5.591 -3.768,5.73 2.057,0.108 3.289,-2.12 3.562,-3.355 0.37,-1.395 0.202,-2.382 0.206,-2.375 z m -48.855,9.594 c -4.172,-0.084 -8.328,0.875 -11.154,2.303 -2.908,1.389 -4.063,3.333 -4.053,3.289 6.754,-4.541 15.308,-5.246 15.207,-5.592 z m -55.280895,-1.714 c 0,0 2.0132,0.635 6.3558,-1.43 4.0207,-1.912 10.8781,-5.11 23.6543,-1.671 -1.3273,-0.057 -2.6633,-0.1 -3.9906,-0.068 -4.3992,0.009 -8.5867,1.23 -12.7516,2.176 4.2106,-0.707 8.4809,-1.676 12.7422,-1.432 3.4844,0.101 6.9207,0.769 10.5223,0.767 0.2082,0.08 0.4168,0.11 0.6437,0.07 1.349995,-0.24 16.682795,-0.08 22.004795,-0.158 5.321,-0.082 18.298,-0.637 24.016,-1.273 5.72,-0.634 8.635,-2.012 8.635,-2.012 0,0 -3.868,1.166 -7.893,0.742 -4.024,-0.424 -10.299,-1.986 -14.431,-9.452 -4.132,-7.468 -2.223,-11.044 -2.223,-11.044 0,0 0.794,2.782 5.004,3.734 4.207,0.953 11.173,3.68 14.67,6.381 3.495,2.701 9.532,7.044 9.532,7.044 0,0 -4.659,-6.249 -9.216,-9.055 -3.249,-2.004 -4.767,-2.965 -4.767,-2.965 0,0 -1.639,-3.126 -1.374,-4.08 0,0 3.232,0.107 5.771,1.113 2.006,0.794 6.183,3.606 8.612,7.644 -0.89,-0.834 -1.848,-1.584 -2.801,-2.265 -3.37,-2.192 -6.846,-4.017 -10.379,-5.818 6.217,4.103 14.842,8.37 15.406,15.788 0.125,2.4 -0.512,3.109 -0.512,3.109 0,0 0.187,1.402 1.469,1.852 0,0 0.042,-3.534 2.025,-4.886 1.988,-1.35 3.894,-1.231 3.894,-1.231 0,0 0.579,1.406 0.597,1.946 0.06,1.868 -0.079,2.502 -1.193,3.932 -1.11,1.431 -3.257,1.351 -3.257,1.351 0,0 2.026,0.516 4.052,-0.674 2.027,-1.193 1.787,-3.577 1.787,-3.577 0,0 3.415,-0.277 4.33,1.827 0,0 -0.57,2.344 -1.55,3.933 -0.671,1.089 -3.359,2.643 -6.011,1.959 0.784,-0.194 1.568,-0.426 2.352,-0.713 2.594,-0.798 2.842,-3.827 4.261,-4.865 -1.652,0.893 -2.431,3.753 -4.576,3.925 -1.515,0.304 -3.11,0.409 -4.69,0.439 -0.903,-0.021 -3.129,-0.268 -4.416,-2.096 -1.43,-2.033 -5.269,-0.873 -6.064,-0.238 -0.796,0.636 -3.019,2.648 -4.183,6.356 -1.165,3.707 -3.276,9.566 -7.123,11.677 -3.523,1.934 -4.898,1.668 -4.898,1.668 0,0 0.608,-0.635 1.111,-1.879 0.318,-0.787 0.901,-2.305 0.901,-2.305 0,0 5.771,-4.793 10.379,-12.339 0,0 -5.772,7.573 -13.134,12.286 -7.361,4.714 -15.78,2.331 -18.537,3.443 0,0 3.179,-2.278 4.768,-4.766 1.59,-2.489 6.62,-10.328 13.875,-10.486 0.466,-0.011 0.91,-0.017 1.333,-0.021 -2.076,1.128 -4.092,2.343 -6.041,3.663 3.24,-1.492 6.592,-2.724 9.954,-3.685 0.031,-0.001 0.061,-0.001 0.088,-0.002 -3.172,2.206 -6.354,4.399 -9.566,6.546 4.627,-2.316 9.215,-4.713 13.799,-7.127 1.104,-0.406 2.081,-1.09 3.146,-2.26 0,0 -11.044,12.18 -22.245,14.881 0,0 11.811,-0.875 24.572,-15.809 0,0 -9.479,1.669 -16.311,1.988 -6.83,0.317 -26.689,0.039 -34.157495,11.915 0,0 6.923495,-7.282 21.647495,-9.613 0,0 -2.742,7.706 -9.415,11.917 -6.672,4.21 -13.106695,3.176 -15.091395,3.891 0,0 0.316,-1.986 3.413595,-3.455 0,0 5.6808,-1.311 9.6908,-3.813 3.621,-2.257 6.383,-6.528 8.132,-7.057 0,0 -1.855,0.264 -4.451,2.966 -2.592,2.7 -10.431,5.718 -13.768195,6.513 -3.3348,0.795 -5.7715,2.436 -5.7715,2.436 0,0 1.5738,-2.89 2.9644,-6.566 1.9363,-5.119 11.560295,-9.28 20.774295,-9.167 -3.393,-0.083 -13.883,-0.229 -19.820795,0.959 0,0 -4.1281,4.871 -8.3664,7.149 -4.2355,2.278 -9.4789,2.382 -11.5441,3.177 -2.0656,0.795 -2.0656,0.795 -2.0656,0.795 0,0 0.5297,-3.018 2.2238,-4.608 1.6953,-1.589 5.6668,-6.46 18.5348,-7.626 0,0 -4.7664,-1.112 -10.2754,1.112 -5.5047,2.223 -9.2645,4.978 -9.2645,4.978 0,0 -4.3965,-0.424 -8.8988,-1.907 -4.5035,-1.483 -6.6199,-4.554 -6.6199,-4.554 z m 97.896895,-19.759 c 1.142,2.071 1.567,4.363 1.63,4.402 0.556,-2.613 -1.63,-4.57 -1.63,-4.402 z m 21.063,-3.529 1.767,1.613 c -0.41,0.402 -0.811,0.797 -1.2,1.18 -6.434,6.355 -12.803,10.725 -12.803,10.725 -2.697,-1.826 -5.238,0.098 -6.566,1.487 0.476,-1.967 0.868,-3.942 1.05,-6.004 0.331,-2.566 -0.731,-5.986 -3.62,-6.548 2.785,0.975 3.183,4.08 2.633,6.432 -0.015,0.076 -0.31,0.109 -0.329,0.184 -0.202,-0.212 -0.187,-0.338 -0.516,-0.424 -1.931,-0.503 -2.303,-2.278 -2.118,-3.496 0.187,-1.216 -0.104,-3.097 -0.104,-3.097 0,0 6.299,-1.853 7.043,2.066 0.739,3.92 -1.484,5.388 -1.484,5.388 -0.397,1.789 -1.271,3.137 -1.271,3.137 6.247,-4.153 10.817,-8.38 16.283,-13.768 l 0.895,0.815 c -4.287,4.197 -8.616,8.331 -13.509,11.708 4.999,-3.261 9.445,-7.303 13.849,-11.398"
       style="fill:#ffffff;fill-opacity:1;fill-rule:nonzero;stroke:none;stroke-width:0.1"
       id="path470" /></g></svg>