<?xml version="1.0" encoding="utf-8"?>
<!-- Generator: Adobe Illustrator 26.3.1, SVG Export Plug-In . SVG Version: 6.00 Build 0)  -->
<svg version="1.1" id="Camada_2" xmlns="http://www.w3.org/2000/svg" xmlns:xlink="http://www.w3.org/1999/xlink" x="0px" y="0px"
	 viewBox="0 0 532.79 531" style="enable-background:new 0 0 532.79 531;" xml:space="preserve">
<style type="text/css">
	.st0{fill:#1D1D1B;}
	.st1{fill:none;stroke:#1D1D1B;stroke-width:20;stroke-miterlimit:10;}
</style>
<path class="st0" d="M406.41,366.3l-17.7-42.73l42.73-50.4l-42.73-50.4l17.7-42.73l-60.43,40.38l14.18,14.18l-5.87,5.87
	c0,0-54.56,0-54.57,0V185.9l5.87-5.87l14.18,14.18l40.38-60.43l-42.73,17.7l-50.4-42.73l-50.4,42.73l-42.73-17.7l40.38,60.43
	l14.18-14.18l5.87,5.87v54.55l-54.57,0.01l-5.87-5.87l14.18-14.18l-60.43-40.38l17.7,42.73l-42.73,50.4l42.73,50.4l-17.7,42.73
	l60.43-40.38l-14.18-14.18l5.87-5.87c0,0,54.57,0,54.57,0s0,54.56,0,54.57l-5.87,5.87l-14.18-14.18l-40.38,60.43l42.73-17.7
	l50.4,42.73l50.4-42.73l42.73,17.7l-40.38-60.43l-14.18,14.18l-5.87-5.87c0,0,0-54.57,0-54.57s54.56,0,54.57,0l5.87,5.87
	l-14.18,14.18L406.41,366.3z M284.43,289.95l0.24,97.16l-17.65,17.77l-17.77-17.77v-97.16h-97.16l-16.55-17l18.3-18.3h95.29
	l0.24-95.53l17.65-17.65l17.41,17.41l0.24,95.77h95.53l18.52,18.52l-16.78,16.78H284.43z"/>
<g>
	<g>
		<g>
			<path class="st1" d="M1590.85,1094.55C1590.84,1094.55,1590.84,1094.55,1590.85,1094.55c13.37,23.12,21.03,49.96,21.03,78.59
				s-7.66,55.47-21.03,78.59c0,0,0,0,0.01,0c58.18,0,108.98-31.61,136.15-78.59C1699.82,1126.16,1649.03,1094.55,1590.85,1094.55z"
				/>
			<path class="st1" d="M1590.84,1251.73c-58.18,0-108.97-31.61-136.15-78.59c-13.38,23.12-21.03,49.96-21.03,78.59
				s7.66,55.47,21.03,78.59C1512.87,1330.33,1563.66,1298.72,1590.84,1251.73z"/>
			<path class="st1" d="M1454.69,1173.14c27.18-46.98,77.97-78.59,136.15-78.59c-27.18-46.98-77.97-78.59-136.15-78.59
				c-13.38,23.12-21.03,49.96-21.03,78.59C1433.66,1123.18,1441.32,1150.02,1454.69,1173.14z"/>
			<path class="st1" d="M1454.69,1173.14c27.18,46.98,77.97,78.59,136.15,78.59c13.38-23.12,21.03-49.96,21.03-78.59
				s-7.66-55.47-21.03-78.59C1532.66,1094.55,1481.87,1126.16,1454.69,1173.14z"/>
		</g>
		<g>
			<path class="st1" d="M1356.09,1006.99C1356.1,1006.99,1356.1,1006.99,1356.09,1006.99c-13.37-23.12-21.03-49.96-21.03-78.59
				s7.66-55.47,21.03-78.59c0,0,0,0-0.01,0c-58.18,0-108.98,31.61-136.15,78.59C1247.12,975.38,1297.91,1006.99,1356.09,1006.99z"/>
			<path class="st1" d="M1356.1,849.8c58.18,0,108.97,31.61,136.15,78.59c13.38-23.12,21.03-49.96,21.03-78.59
				s-7.66-55.47-21.03-78.59C1434.07,771.21,1383.28,802.82,1356.1,849.8z"/>
			<path class="st1" d="M1492.25,928.39c-27.18,46.98-77.97,78.59-136.15,78.59c27.18,46.98,77.97,78.59,136.15,78.59
				c13.38-23.12,21.03-49.96,21.03-78.59C1513.28,978.36,1505.62,951.51,1492.25,928.39z"/>
			<path class="st1" d="M1492.25,928.39c-27.18-46.98-77.97-78.59-136.15-78.59c-13.38,23.12-21.03,49.96-21.03,78.59
				s7.66,55.47,21.03,78.59C1414.28,1006.99,1465.07,975.37,1492.25,928.39z"/>
		</g>
		<g>
			<path class="st1" d="M1590.85,762.24C1590.84,762.24,1590.84,762.24,1590.85,762.24c13.37-23.12,21.03-49.96,21.03-78.59
				s-7.66-55.47-21.03-78.59c0,0,0,0,0.01,0c58.18,0,108.98,31.61,136.15,78.59C1699.82,730.63,1649.03,762.24,1590.85,762.24z"/>
			<path class="st1" d="M1590.84,605.05c-58.18,0-108.97,31.61-136.15,78.59c-13.38-23.12-21.03-49.96-21.03-78.59
				s7.66-55.47,21.03-78.59C1512.87,526.46,1563.66,558.07,1590.84,605.05z"/>
			<path class="st1" d="M1454.69,683.65c27.18,46.98,77.97,78.59,136.15,78.59c-27.18,46.98-77.97,78.59-136.15,78.59
				c-13.38-23.12-21.03-49.96-21.03-78.59C1433.66,733.61,1441.32,706.77,1454.69,683.65z"/>
			<path class="st1" d="M1454.69,683.65c27.18-46.98,77.97-78.59,136.15-78.59c13.38,23.12,21.03,49.96,21.03,78.59
				s-7.66,55.47-21.03,78.59C1532.66,762.24,1481.87,730.63,1454.69,683.65z"/>
		</g>
		<g>
			<path class="st1" d="M1356.09,517.49C1356.1,517.49,1356.1,517.49,1356.09,517.49c-13.37-23.12-21.03-49.96-21.03-78.59
				s7.66-55.47,21.03-78.59c0,0,0,0-0.01,0c-58.18,0-108.98,31.61-136.15,78.59C1247.12,485.88,1297.91,517.49,1356.09,517.49z"/>
			<path class="st1" d="M1356.1,360.31c58.18,0,108.97,31.61,136.15,78.59c13.38-23.12,21.03-49.96,21.03-78.59
				s-7.66-55.47-21.03-78.59C1434.07,281.71,1383.28,313.33,1356.1,360.31z"/>
			<path class="st1" d="M1492.25,438.9c-27.18,46.98-77.97,78.59-136.15,78.59c27.18,46.98,77.97,78.59,136.15,78.59
				c13.38-23.12,21.03-49.96,21.03-78.59C1513.28,488.86,1505.62,462.02,1492.25,438.9z"/>
			<path class="st1" d="M1492.25,438.9c-27.18-46.98-77.97-78.59-136.15-78.59c-13.38,23.12-21.03,49.96-21.03,78.59
				s7.66,55.47,21.03,78.59C1414.28,517.49,1465.07,485.88,1492.25,438.9z"/>
		</g>
		<g>
			<path class="st1" d="M1590.85,272.75C1590.84,272.75,1590.84,272.75,1590.85,272.75c13.37-23.12,21.03-49.96,21.03-78.59
				s-7.66-55.47-21.03-78.59c0,0,0,0,0.01,0c58.18,0,108.98,31.61,136.15,78.59C1699.82,241.14,1649.03,272.75,1590.85,272.75z"/>
			<path class="st1" d="M1590.84,115.56c-58.18,0-108.97,31.61-136.15,78.59c-13.38-23.12-21.03-49.96-21.03-78.59
				s7.66-55.47,21.03-78.59C1512.87,36.97,1563.66,68.58,1590.84,115.56z"/>
			<path class="st1" d="M1454.69,194.15c27.18,46.98,77.97,78.59,136.15,78.59c-27.18,46.98-77.97,78.59-136.15,78.59
				c-13.38-23.12-21.03-49.96-21.03-78.59C1433.66,244.12,1441.32,217.27,1454.69,194.15z"/>
			<path class="st1" d="M1454.69,194.15c27.18-46.98,77.97-78.59,136.15-78.59c13.38,23.12,21.03,49.96,21.03,78.59
				s-7.66,55.47-21.03,78.59C1532.66,272.75,1481.87,241.13,1454.69,194.15z"/>
		</g>
		<g>
			<path class="st1" d="M1356.09,28C1356.1,28,1356.1,28,1356.09,28c-13.37-23.12-21.03-49.96-21.03-78.59s7.66-55.47,21.03-78.59
				c0,0,0,0-0.01,0c-58.18,0-108.98,31.61-136.15,78.59C1247.12-3.61,1297.91,28,1356.09,28z"/>
			<path class="st1" d="M1356.1-129.19c58.18,0,108.97,31.61,136.15,78.59c13.38-23.12,21.03-49.96,21.03-78.59
				s-7.66-55.47-21.03-78.59C1434.07-207.78,1383.28-176.17,1356.1-129.19z"/>
			<path class="st1" d="M1492.25-50.59C1465.07-3.61,1414.28,28,1356.1,28c27.18,46.98,77.97,78.59,136.15,78.59
				c13.38-23.12,21.03-49.96,21.03-78.59C1513.28-0.63,1505.62-27.47,1492.25-50.59z"/>
			<path class="st1" d="M1492.25-50.59c-27.18-46.98-77.97-78.59-136.15-78.59c-13.38,23.12-21.03,49.96-21.03,78.59
				s7.66,55.47,21.03,78.59C1414.28,28,1465.07-3.61,1492.25-50.59z"/>
		</g>
		<g>
			<path class="st1" d="M1590.85-216.75C1590.84-216.75,1590.84-216.75,1590.85-216.75c13.37-23.12,21.03-49.96,21.03-78.59
				s-7.66-55.47-21.03-78.59c0,0,0,0,0.01,0c58.18,0,108.98,31.61,136.15,78.59C1699.82-248.36,1649.03-216.75,1590.85-216.75z"/>
			<path class="st1" d="M1590.84-373.93c-58.18,0-108.97,31.61-136.15,78.59c-13.38-23.12-21.03-49.96-21.03-78.59
				s7.66-55.47,21.03-78.59C1512.87-452.53,1563.66-420.92,1590.84-373.93z"/>
			<path class="st1" d="M1454.69-295.34c27.18,46.98,77.97,78.59,136.15,78.59c-27.18,46.98-77.97,78.59-136.15,78.59
				c-13.38-23.12-21.03-49.96-21.03-78.59C1433.66-245.38,1441.32-272.22,1454.69-295.34z"/>
			<path class="st1" d="M1454.69-295.34c27.18-46.98,77.97-78.59,136.15-78.59c13.38,23.12,21.03,49.96,21.03,78.59
				s-7.66,55.47-21.03,78.59C1532.66-216.75,1481.87-248.36,1454.69-295.34z"/>
		</g>
		<g>
			<path class="st1" d="M1356.09-461.49C1356.1-461.49,1356.1-461.49,1356.09-461.49c-13.37-23.12-21.03-49.96-21.03-78.59
				s7.66-55.47,21.03-78.59c0,0,0,0-0.01,0c-58.18,0-108.98,31.61-136.15,78.59C1247.12-493.1,1297.91-461.49,1356.09-461.49z"/>
			<path class="st1" d="M1356.1-618.68c58.18,0,108.97,31.61,136.15,78.59c13.38-23.12,21.03-49.96,21.03-78.59
				s-7.66-55.47-21.03-78.59C1434.07-697.27,1383.28-665.66,1356.1-618.68z"/>
			<path class="st1" d="M1492.25-540.09c-27.18,46.98-77.97,78.59-136.15,78.59c27.18,46.98,77.97,78.59,136.15,78.59
				c13.38-23.12,21.03-49.96,21.03-78.59C1513.28-490.12,1505.62-516.97,1492.25-540.09z"/>
			<path class="st1" d="M1492.25-540.09c-27.18-46.98-77.97-78.59-136.15-78.59c-13.38,23.12-21.03,49.96-21.03,78.59
				s7.66,55.47,21.03,78.59C1414.28-461.5,1465.07-493.11,1492.25-540.09z"/>
		</g>
		<g>
			<path class="st1" d="M1590.85-706.24C1590.84-706.24,1590.84-706.24,1590.85-706.24c13.37-23.12,21.03-49.96,21.03-78.59
				s-7.66-55.47-21.03-78.59c0,0,0,0,0.01,0c58.18,0,108.98,31.61,136.15,78.59C1699.82-737.85,1649.03-706.24,1590.85-706.24z"/>
			<path class="st1" d="M1590.84-863.43c-58.18,0-108.97,31.61-136.15,78.59c-13.38-23.12-21.03-49.96-21.03-78.59
				s7.66-55.47,21.03-78.59C1512.87-942.02,1563.66-910.41,1590.84-863.43z"/>
			<path class="st1" d="M1454.69-784.83c27.18,46.98,77.97,78.59,136.15,78.59c-27.18,46.98-77.97,78.59-136.15,78.59
				c-13.38-23.12-21.03-49.96-21.03-78.59C1433.66-734.87,1441.32-761.71,1454.69-784.83z"/>
			<path class="st1" d="M1454.69-784.83c27.18-46.98,77.97-78.59,136.15-78.59c13.38,23.12,21.03,49.96,21.03,78.59
				s-7.66,55.47-21.03,78.59C1532.66-706.24,1481.87-737.85,1454.69-784.83z"/>
		</g>
	</g>
	<g>
		<g>
			<path class="st1" d="M2457.81,1094.55C2457.81,1094.55,2457.81,1094.55,2457.81,1094.55c13.37,23.12,21.03,49.96,21.03,78.59
				s-7.66,55.47-21.03,78.59c0,0,0,0,0.01,0c58.18,0,108.98-31.61,136.15-78.59C2566.79,1126.16,2515.99,1094.55,2457.81,1094.55z"
				/>
			<path class="st1" d="M2457.81,1251.73c-58.18,0-108.97-31.61-136.15-78.59c-13.38,23.12-21.03,49.96-21.03,78.59
				s7.66,55.47,21.03,78.59C2379.84,1330.33,2430.63,1298.72,2457.81,1251.73z"/>
			<path class="st1" d="M2321.66,1173.14c27.18-46.98,77.97-78.59,136.15-78.59c-27.18-46.98-77.97-78.59-136.15-78.59
				c-13.38,23.12-21.03,49.96-21.03,78.59C2300.62,1123.18,2308.28,1150.02,2321.66,1173.14z"/>
			<path class="st1" d="M2321.66,1173.14c27.18,46.98,77.97,78.59,136.15,78.59c13.38-23.12,21.03-49.96,21.03-78.59
				s-7.66-55.47-21.03-78.59C2399.63,1094.55,2348.83,1126.16,2321.66,1173.14z"/>
		</g>
		<g>
			<path class="st1" d="M2223.06,1006.99C2223.06,1006.99,2223.06,1006.99,2223.06,1006.99c-13.37-23.12-21.03-49.96-21.03-78.59
				s7.66-55.47,21.03-78.59c0,0,0,0-0.01,0c-58.18,0-108.98,31.61-136.15,78.59C2114.08,975.38,2164.88,1006.99,2223.06,1006.99z"/>
			<path class="st1" d="M2223.07,849.8c58.18,0,108.97,31.61,136.15,78.59c13.38-23.12,21.03-49.96,21.03-78.59
				s-7.66-55.47-21.03-78.59C2301.04,771.21,2250.24,802.82,2223.07,849.8z"/>
			<path class="st1" d="M2359.21,928.39c-27.18,46.98-77.97,78.59-136.15,78.59c27.18,46.98,77.97,78.59,136.15,78.59
				c13.38-23.12,21.03-49.96,21.03-78.59C2380.25,978.36,2372.59,951.51,2359.21,928.39z"/>
			<path class="st1" d="M2359.21,928.39c-27.18-46.98-77.97-78.59-136.15-78.59c-13.38,23.12-21.03,49.96-21.03,78.59
				s7.66,55.47,21.03,78.59C2281.24,1006.99,2332.04,975.37,2359.21,928.39z"/>
		</g>
		<g>
			<path class="st1" d="M2457.81,762.24C2457.81,762.24,2457.81,762.24,2457.81,762.24c13.37-23.12,21.03-49.96,21.03-78.59
				s-7.66-55.47-21.03-78.59c0,0,0,0,0.01,0c58.18,0,108.98,31.61,136.15,78.59C2566.79,730.63,2515.99,762.24,2457.81,762.24z"/>
			<path class="st1" d="M2457.81,605.05c-58.18,0-108.97,31.61-136.15,78.59c-13.38-23.12-21.03-49.96-21.03-78.59
				s7.66-55.47,21.03-78.59C2379.84,526.46,2430.63,558.07,2457.81,605.05z"/>
			<path class="st1" d="M2321.66,683.65c27.18,46.98,77.97,78.59,136.15,78.59c-27.18,46.98-77.97,78.59-136.15,78.59
				c-13.38-23.12-21.03-49.96-21.03-78.59C2300.62,733.61,2308.28,706.77,2321.66,683.65z"/>
			<path class="st1" d="M2321.66,683.65c27.18-46.98,77.97-78.59,136.15-78.59c13.38,23.12,21.03,49.96,21.03,78.59
				s-7.66,55.47-21.03,78.59C2399.63,762.24,2348.83,730.63,2321.66,683.65z"/>
		</g>
		<g>
			<path class="st1" d="M2223.06,517.49C2223.06,517.49,2223.06,517.49,2223.06,517.49c-13.37-23.12-21.03-49.96-21.03-78.59
				s7.66-55.47,21.03-78.59c0,0,0,0-0.01,0c-58.18,0-108.98,31.61-136.15,78.59C2114.08,485.88,2164.88,517.49,2223.06,517.49z"/>
			<path class="st1" d="M2223.07,360.31c58.18,0,108.97,31.61,136.15,78.59c13.38-23.12,21.03-49.96,21.03-78.59
				s-7.66-55.47-21.03-78.59C2301.04,281.71,2250.24,313.33,2223.07,360.31z"/>
			<path class="st1" d="M2359.21,438.9c-27.18,46.98-77.97,78.59-136.15,78.59c27.18,46.98,77.97,78.59,136.15,78.59
				c13.38-23.12,21.03-49.96,21.03-78.59C2380.25,488.86,2372.59,462.02,2359.21,438.9z"/>
			<path class="st1" d="M2359.21,438.9c-27.18-46.98-77.97-78.59-136.15-78.59c-13.38,23.12-21.03,49.96-21.03,78.59
				s7.66,55.47,21.03,78.59C2281.24,517.49,2332.04,485.88,2359.21,438.9z"/>
		</g>
		<g>
			<path class="st1" d="M2457.81,272.75C2457.81,272.75,2457.81,272.75,2457.81,272.75c13.37-23.12,21.03-49.96,21.03-78.59
				s-7.66-55.47-21.03-78.59c0,0,0,0,0.01,0c58.18,0,108.98,31.61,136.15,78.59C2566.79,241.14,2515.99,272.75,2457.81,272.75z"/>
			<path class="st1" d="M2457.81,115.56c-58.18,0-108.97,31.61-136.15,78.59c-13.38-23.12-21.03-49.96-21.03-78.59
				s7.66-55.47,21.03-78.59C2379.84,36.97,2430.63,68.58,2457.81,115.56z"/>
			<path class="st1" d="M2321.66,194.15c27.18,46.98,77.97,78.59,136.15,78.59c-27.18,46.98-77.97,78.59-136.15,78.59
				c-13.38-23.12-21.03-49.96-21.03-78.59C2300.62,244.12,2308.28,217.27,2321.66,194.15z"/>
			<path class="st1" d="M2321.66,194.15c27.18-46.98,77.97-78.59,136.15-78.59c13.38,23.12,21.03,49.96,21.03,78.59
				s-7.66,55.47-21.03,78.59C2399.63,272.75,2348.83,241.13,2321.66,194.15z"/>
		</g>
		<g>
			<path class="st1" d="M2223.06,28C2223.06,28,2223.06,28,2223.06,28c-13.37-23.12-21.03-49.96-21.03-78.59s7.66-55.47,21.03-78.59
				c0,0,0,0-0.01,0c-58.18,0-108.98,31.61-136.15,78.59C2114.08-3.61,2164.88,28,2223.06,28z"/>
			<path class="st1" d="M2223.07-129.19c58.18,0,108.97,31.61,136.15,78.59c13.38-23.12,21.03-49.96,21.03-78.59
				s-7.66-55.47-21.03-78.59C2301.04-207.78,2250.24-176.17,2223.07-129.19z"/>
			<path class="st1" d="M2359.21-50.59C2332.04-3.61,2281.24,28,2223.07,28c27.18,46.98,77.97,78.59,136.15,78.59
				c13.38-23.12,21.03-49.96,21.03-78.59C2380.25-0.63,2372.59-27.47,2359.21-50.59z"/>
			<path class="st1" d="M2359.21-50.59c-27.18-46.98-77.97-78.59-136.15-78.59c-13.38,23.12-21.03,49.96-21.03,78.59
				s7.66,55.47,21.03,78.59C2281.24,28,2332.04-3.61,2359.21-50.59z"/>
		</g>
		<g>
			<path class="st1" d="M2457.81-216.75C2457.81-216.75,2457.81-216.75,2457.81-216.75c13.37-23.12,21.03-49.96,21.03-78.59
				s-7.66-55.47-21.03-78.59c0,0,0,0,0.01,0c58.18,0,108.98,31.61,136.15,78.59C2566.79-248.36,2515.99-216.75,2457.81-216.75z"/>
			<path class="st1" d="M2457.81-373.93c-58.18,0-108.97,31.61-136.15,78.59c-13.38-23.12-21.03-49.96-21.03-78.59
				s7.66-55.47,21.03-78.59C2379.84-452.53,2430.63-420.92,2457.81-373.93z"/>
			<path class="st1" d="M2321.66-295.34c27.18,46.98,77.97,78.59,136.15,78.59c-27.18,46.98-77.97,78.59-136.15,78.59
				c-13.38-23.12-21.03-49.96-21.03-78.59C2300.62-245.38,2308.28-272.22,2321.66-295.34z"/>
			<path class="st1" d="M2321.66-295.34c27.18-46.98,77.97-78.59,136.15-78.59c13.38,23.12,21.03,49.96,21.03,78.59
				s-7.66,55.47-21.03,78.59C2399.63-216.75,2348.83-248.36,2321.66-295.34z"/>
		</g>
		<g>
			<path class="st1" d="M2223.06-461.49C2223.06-461.49,2223.06-461.49,2223.06-461.49c-13.37-23.12-21.03-49.96-21.03-78.59
				s7.66-55.47,21.03-78.59c0,0,0,0-0.01,0c-58.18,0-108.98,31.61-136.15,78.59C2114.08-493.1,2164.88-461.49,2223.06-461.49z"/>
			<path class="st1" d="M2223.07-618.68c58.18,0,108.97,31.61,136.15,78.59c13.38-23.12,21.03-49.96,21.03-78.59
				s-7.66-55.47-21.03-78.59C2301.04-697.27,2250.24-665.66,2223.07-618.68z"/>
			<path class="st1" d="M2359.21-540.09c-27.18,46.98-77.97,78.59-136.15,78.59c27.18,46.98,77.97,78.59,136.15,78.59
				c13.38-23.12,21.03-49.96,21.03-78.59C2380.25-490.12,2372.59-516.97,2359.21-540.09z"/>
			<path class="st1" d="M2359.21-540.09c-27.18-46.98-77.97-78.59-136.15-78.59c-13.38,23.12-21.03,49.96-21.03,78.59
				s7.66,55.47,21.03,78.59C2281.24-461.5,2332.04-493.11,2359.21-540.09z"/>
		</g>
		<g>
			<path class="st1" d="M2457.81-706.24C2457.81-706.24,2457.81-706.24,2457.81-706.24c13.37-23.12,21.03-49.96,21.03-78.59
				s-7.66-55.47-21.03-78.59c0,0,0,0,0.01,0c58.18,0,108.98,31.61,136.15,78.59C2566.79-737.85,2515.99-706.24,2457.81-706.24z"/>
			<path class="st1" d="M2457.81-863.43c-58.18,0-108.97,31.61-136.15,78.59c-13.38-23.12-21.03-49.96-21.03-78.59
				s7.66-55.47,21.03-78.59C2379.84-942.02,2430.63-910.41,2457.81-863.43z"/>
			<path class="st1" d="M2321.66-784.83c27.18,46.98,77.97,78.59,136.15,78.59c-27.18,46.98-77.97,78.59-136.15,78.59
				c-13.38-23.12-21.03-49.96-21.03-78.59C2300.62-734.87,2308.28-761.71,2321.66-784.83z"/>
			<path class="st1" d="M2321.66-784.83c27.18-46.98,77.97-78.59,136.15-78.59c13.38,23.12,21.03,49.96,21.03,78.59
				s-7.66,55.47-21.03,78.59C2399.63-706.24,2348.83-737.85,2321.66-784.83z"/>
		</g>
	</g>
	<g>
		<g>
			<path class="st1" d="M3324.78,1094.55C3324.77,1094.55,3324.77,1094.55,3324.78,1094.55c13.37,23.12,21.03,49.96,21.03,78.59
				s-7.66,55.47-21.03,78.59c0,0,0,0,0.01,0c58.18,0,108.98-31.61,136.15-78.59C3433.75,1126.16,3382.96,1094.55,3324.78,1094.55z"
				/>
			<path class="st1" d="M3324.77,1251.73c-58.18,0-108.97-31.61-136.15-78.59c-13.38,23.12-21.03,49.96-21.03,78.59
				s7.66,55.47,21.03,78.59C3246.8,1330.33,3297.59,1298.72,3324.77,1251.73z"/>
			<path class="st1" d="M3188.62,1173.14c27.18-46.98,77.97-78.59,136.15-78.59c-27.18-46.98-77.97-78.59-136.15-78.59
				c-13.38,23.12-21.03,49.96-21.03,78.59C3167.59,1123.18,3175.25,1150.02,3188.62,1173.14z"/>
			<path class="st1" d="M3188.62,1173.14c27.18,46.98,77.97,78.59,136.15,78.59c13.38-23.12,21.03-49.96,21.03-78.59
				s-7.66-55.47-21.03-78.59C3266.59,1094.55,3215.8,1126.16,3188.62,1173.14z"/>
		</g>
		<g>
			<path class="st1" d="M3090.03,1006.99C3090.03,1006.99,3090.03,1006.99,3090.03,1006.99c-13.37-23.12-21.03-49.96-21.03-78.59
				s7.66-55.47,21.03-78.59c0,0,0,0-0.01,0c-58.18,0-108.98,31.61-136.15,78.59C2981.05,975.38,3031.84,1006.99,3090.03,1006.99z"/>
			<path class="st1" d="M3090.03,849.8c58.18,0,108.97,31.61,136.15,78.59c13.38-23.12,21.03-49.96,21.03-78.59
				s-7.66-55.47-21.03-78.59C3168,771.21,3117.21,802.82,3090.03,849.8z"/>
			<path class="st1" d="M3226.18,928.39c-27.18,46.98-77.97,78.59-136.15,78.59c27.18,46.98,77.97,78.59,136.15,78.59
				c13.38-23.12,21.03-49.96,21.03-78.59C3247.21,978.36,3239.55,951.51,3226.18,928.39z"/>
			<path class="st1" d="M3226.18,928.39c-27.18-46.98-77.97-78.59-136.15-78.59c-13.38,23.12-21.03,49.96-21.03,78.59
				s7.66,55.47,21.03,78.59C3148.21,1006.99,3199,975.37,3226.18,928.39z"/>
		</g>
		<g>
			<path class="st1" d="M3324.78,762.24C3324.77,762.24,3324.77,762.24,3324.78,762.24c13.37-23.12,21.03-49.96,21.03-78.59
				s-7.66-55.47-21.03-78.59c0,0,0,0,0.01,0c58.18,0,108.98,31.61,136.15,78.59C3433.75,730.63,3382.96,762.24,3324.78,762.24z"/>
			<path class="st1" d="M3324.77,605.05c-58.18,0-108.97,31.61-136.15,78.59c-13.38-23.12-21.03-49.96-21.03-78.59
				s7.66-55.47,21.03-78.59C3246.8,526.46,3297.59,558.07,3324.77,605.05z"/>
			<path class="st1" d="M3188.62,683.65c27.18,46.98,77.97,78.59,136.15,78.59c-27.18,46.98-77.97,78.59-136.15,78.59
				c-13.38-23.12-21.03-49.96-21.03-78.59C3167.59,733.61,3175.25,706.77,3188.62,683.65z"/>
			<path class="st1" d="M3188.62,683.65c27.18-46.98,77.97-78.59,136.15-78.59c13.38,23.12,21.03,49.96,21.03,78.59
				s-7.66,55.47-21.03,78.59C3266.59,762.24,3215.8,730.63,3188.62,683.65z"/>
		</g>
		<g>
			<path class="st1" d="M3090.03,517.49C3090.03,517.49,3090.03,517.49,3090.03,517.49c-13.37-23.12-21.03-49.96-21.03-78.59
				s7.66-55.47,21.03-78.59c0,0,0,0-0.01,0c-58.18,0-108.98,31.61-136.15,78.59C2981.05,485.88,3031.84,517.49,3090.03,517.49z"/>
			<path class="st1" d="M3090.03,360.31c58.18,0,108.97,31.61,136.15,78.59c13.38-23.12,21.03-49.96,21.03-78.59
				s-7.66-55.47-21.03-78.59C3168,281.71,3117.21,313.33,3090.03,360.31z"/>
			<path class="st1" d="M3226.18,438.9c-27.18,46.98-77.97,78.59-136.15,78.59c27.18,46.98,77.97,78.59,136.15,78.59
				c13.38-23.12,21.03-49.96,21.03-78.59C3247.21,488.86,3239.55,462.02,3226.18,438.9z"/>
			<path class="st1" d="M3226.18,438.9c-27.18-46.98-77.97-78.59-136.15-78.59c-13.38,23.12-21.03,49.96-21.03,78.59
				s7.66,55.47,21.03,78.59C3148.21,517.49,3199,485.88,3226.18,438.9z"/>
		</g>
		<g>
			<path class="st1" d="M3324.78,272.75C3324.77,272.75,3324.77,272.75,3324.78,272.75c13.37-23.12,21.03-49.96,21.03-78.59
				s-7.66-55.47-21.03-78.59c0,0,0,0,0.01,0c58.18,0,108.98,31.61,136.15,78.59C3433.75,241.14,3382.96,272.75,3324.78,272.75z"/>
			<path class="st1" d="M3324.77,115.56c-58.18,0-108.97,31.61-136.15,78.59c-13.38-23.12-21.03-49.96-21.03-78.59
				s7.66-55.47,21.03-78.59C3246.8,36.97,3297.59,68.58,3324.77,115.56z"/>
			<path class="st1" d="M3188.62,194.15c27.18,46.98,77.97,78.59,136.15,78.59c-27.18,46.98-77.97,78.59-136.15,78.59
				c-13.38-23.12-21.03-49.96-21.03-78.59C3167.59,244.12,3175.25,217.27,3188.62,194.15z"/>
			<path class="st1" d="M3188.62,194.15c27.18-46.98,77.97-78.59,136.15-78.59c13.38,23.12,21.03,49.96,21.03,78.59
				s-7.66,55.47-21.03,78.59C3266.59,272.75,3215.8,241.13,3188.62,194.15z"/>
		</g>
		<g>
			<path class="st1" d="M3090.03,28C3090.03,28,3090.03,28,3090.03,28C3076.66,4.88,3069-21.96,3069-50.59s7.66-55.47,21.03-78.59
				c0,0,0,0-0.01,0c-58.18,0-108.98,31.61-136.15,78.59C2981.05-3.61,3031.84,28,3090.03,28z"/>
			<path class="st1" d="M3090.03-129.19c58.18,0,108.97,31.61,136.15,78.59c13.38-23.12,21.03-49.96,21.03-78.59
				s-7.66-55.47-21.03-78.59C3168-207.78,3117.21-176.17,3090.03-129.19z"/>
			<path class="st1" d="M3226.18-50.59C3199-3.61,3148.21,28,3090.03,28c27.18,46.98,77.97,78.59,136.15,78.59
				c13.38-23.12,21.03-49.96,21.03-78.59C3247.21-0.63,3239.55-27.47,3226.18-50.59z"/>
			<path class="st1" d="M3226.18-50.59c-27.18-46.98-77.97-78.59-136.15-78.59c-13.38,23.12-21.03,49.96-21.03,78.59
				s7.66,55.47,21.03,78.59C3148.21,28,3199-3.61,3226.18-50.59z"/>
		</g>
		<g>
			<path class="st1" d="M3324.78-216.75C3324.77-216.75,3324.77-216.75,3324.78-216.75c13.37-23.12,21.03-49.96,21.03-78.59
				s-7.66-55.47-21.03-78.59c0,0,0,0,0.01,0c58.18,0,108.98,31.61,136.15,78.59C3433.75-248.36,3382.96-216.75,3324.78-216.75z"/>
			<path class="st1" d="M3324.77-373.93c-58.18,0-108.97,31.61-136.15,78.59c-13.38-23.12-21.03-49.96-21.03-78.59
				s7.66-55.47,21.03-78.59C3246.8-452.53,3297.59-420.92,3324.77-373.93z"/>
			<path class="st1" d="M3188.62-295.34c27.18,46.98,77.97,78.59,136.15,78.59c-27.18,46.98-77.97,78.59-136.15,78.59
				c-13.38-23.12-21.03-49.96-21.03-78.59C3167.59-245.38,3175.25-272.22,3188.62-295.34z"/>
			<path class="st1" d="M3188.62-295.34c27.18-46.98,77.97-78.59,136.15-78.59c13.38,23.12,21.03,49.96,21.03,78.59
				s-7.66,55.47-21.03,78.59C3266.59-216.75,3215.8-248.36,3188.62-295.34z"/>
		</g>
		<g>
			<path class="st1" d="M3090.03-461.49C3090.03-461.49,3090.03-461.49,3090.03-461.49c-13.37-23.12-21.03-49.96-21.03-78.59
				s7.66-55.47,21.03-78.59c0,0,0,0-0.01,0c-58.18,0-108.98,31.61-136.15,78.59C2981.05-493.1,3031.84-461.49,3090.03-461.49z"/>
			<path class="st1" d="M3090.03-618.68c58.18,0,108.97,31.61,136.15,78.59c13.38-23.12,21.03-49.96,21.03-78.59
				s-7.66-55.47-21.03-78.59C3168-697.27,3117.21-665.66,3090.03-618.68z"/>
			<path class="st1" d="M3226.18-540.09c-27.18,46.98-77.97,78.59-136.15,78.59c27.18,46.98,77.97,78.59,136.15,78.59
				c13.38-23.12,21.03-49.96,21.03-78.59C3247.21-490.12,3239.55-516.97,3226.18-540.09z"/>
			<path class="st1" d="M3226.18-540.09c-27.18-46.98-77.97-78.59-136.15-78.59c-13.38,23.12-21.03,49.96-21.03,78.59
				s7.66,55.47,21.03,78.59C3148.21-461.5,3199-493.11,3226.18-540.09z"/>
		</g>
		<g>
			<path class="st1" d="M3324.78-706.24C3324.77-706.24,3324.77-706.24,3324.78-706.24c13.37-23.12,21.03-49.96,21.03-78.59
				s-7.66-55.47-21.03-78.59c0,0,0,0,0.01,0c58.18,0,108.98,31.61,136.15,78.59C3433.75-737.85,3382.96-706.24,3324.78-706.24z"/>
			<path class="st1" d="M3324.77-863.43c-58.18,0-108.97,31.61-136.15,78.59c-13.38-23.12-21.03-49.96-21.03-78.59
				s7.66-55.47,21.03-78.59C3246.8-942.02,3297.59-910.41,3324.77-863.43z"/>
			<path class="st1" d="M3188.62-784.83c27.18,46.98,77.97,78.59,136.15,78.59c-27.18,46.98-77.97,78.59-136.15,78.59
				c-13.38-23.12-21.03-49.96-21.03-78.59C3167.59-734.87,3175.25-761.71,3188.62-784.83z"/>
			<path class="st1" d="M3188.62-784.83c27.18-46.98,77.97-78.59,136.15-78.59c13.38,23.12,21.03,49.96,21.03,78.59
				s-7.66,55.47-21.03,78.59C3266.59-706.24,3215.8-737.85,3188.62-784.83z"/>
		</g>
	</g>
	<g>
		<g>
			<path class="st1" d="M1784.08,1094.55C1784.08,1094.55,1784.08,1094.55,1784.08,1094.55c-13.37,23.12-21.03,49.96-21.03,78.59
				s7.66,55.47,21.03,78.59c0,0,0,0-0.01,0c-58.18,0-108.98-31.61-136.15-78.59C1675.11,1126.16,1725.9,1094.55,1784.08,1094.55z"/>
			<path class="st1" d="M1784.09,1251.73c58.18,0,108.97-31.61,136.15-78.59c13.38,23.12,21.03,49.96,21.03,78.59
				s-7.66,55.47-21.03,78.59C1862.06,1330.33,1811.26,1298.72,1784.09,1251.73z"/>
			<path class="st1" d="M1920.23,1173.14c-27.18-46.98-77.97-78.59-136.15-78.59c27.18-46.98,77.97-78.59,136.15-78.59
				c13.38,23.12,21.03,49.96,21.03,78.59C1941.27,1123.18,1933.61,1150.02,1920.23,1173.14z"/>
			<path class="st1" d="M1920.23,1173.14c-27.18,46.98-77.97,78.59-136.15,78.59c-13.38-23.12-21.03-49.96-21.03-78.59
				s7.66-55.47,21.03-78.59C1842.26,1094.55,1893.06,1126.16,1920.23,1173.14z"/>
		</g>
		<g>
			<path class="st1" d="M2018.83,1006.99C2018.83,1006.99,2018.83,1006.99,2018.83,1006.99c13.37-23.12,21.03-49.96,21.03-78.59
				s-7.66-55.47-21.03-78.59c0,0,0,0,0.01,0c58.18,0,108.98,31.61,136.15,78.59C2127.81,975.38,2077.01,1006.99,2018.83,1006.99z"/>
			<path class="st1" d="M2018.83,849.8c-58.18,0-108.97,31.61-136.15,78.59c-13.38-23.12-21.03-49.96-21.03-78.59
				s7.66-55.47,21.03-78.59C1940.86,771.21,1991.65,802.82,2018.83,849.8z"/>
			<path class="st1" d="M1882.68,928.39c27.18,46.98,77.97,78.59,136.15,78.59c-27.18,46.98-77.97,78.59-136.15,78.59
				c-13.38-23.12-21.03-49.96-21.03-78.59C1861.64,978.36,1869.3,951.51,1882.68,928.39z"/>
			<path class="st1" d="M1882.68,928.39c27.18-46.98,77.97-78.59,136.15-78.59c13.38,23.12,21.03,49.96,21.03,78.59
				s-7.66,55.47-21.03,78.59C1960.65,1006.99,1909.86,975.37,1882.68,928.39z"/>
		</g>
		<g>
			<path class="st1" d="M1784.08,762.24C1784.08,762.24,1784.08,762.24,1784.08,762.24c-13.37-23.12-21.03-49.96-21.03-78.59
				s7.66-55.47,21.03-78.59c0,0,0,0-0.01,0c-58.18,0-108.98,31.61-136.15,78.59C1675.11,730.63,1725.9,762.24,1784.08,762.24z"/>
			<path class="st1" d="M1784.09,605.05c58.18,0,108.97,31.61,136.15,78.59c13.38-23.12,21.03-49.96,21.03-78.59
				s-7.66-55.47-21.03-78.59C1862.06,526.46,1811.26,558.07,1784.09,605.05z"/>
			<path class="st1" d="M1920.23,683.65c-27.18,46.98-77.97,78.59-136.15,78.59c27.18,46.98,77.97,78.59,136.15,78.59
				c13.38-23.12,21.03-49.96,21.03-78.59C1941.27,733.61,1933.61,706.77,1920.23,683.65z"/>
			<path class="st1" d="M1920.23,683.65c-27.18-46.98-77.97-78.59-136.15-78.59c-13.38,23.12-21.03,49.96-21.03,78.59
				s7.66,55.47,21.03,78.59C1842.26,762.24,1893.06,730.63,1920.23,683.65z"/>
		</g>
		<g>
			<path class="st1" d="M2018.83,517.49C2018.83,517.49,2018.83,517.49,2018.83,517.49c13.37-23.12,21.03-49.96,21.03-78.59
				s-7.66-55.47-21.03-78.59c0,0,0,0,0.01,0c58.18,0,108.98,31.61,136.15,78.59C2127.81,485.88,2077.01,517.49,2018.83,517.49z"/>
			<path class="st1" d="M2018.83,360.31c-58.18,0-108.97,31.61-136.15,78.59c-13.38-23.12-21.03-49.96-21.03-78.59
				s7.66-55.47,21.03-78.59C1940.86,281.71,1991.65,313.33,2018.83,360.31z"/>
			<path class="st1" d="M1882.68,438.9c27.18,46.98,77.97,78.59,136.15,78.59c-27.18,46.98-77.97,78.59-136.15,78.59
				c-13.38-23.12-21.03-49.96-21.03-78.59C1861.64,488.86,1869.3,462.02,1882.68,438.9z"/>
			<path class="st1" d="M1882.68,438.9c27.18-46.98,77.97-78.59,136.15-78.59c13.38,23.12,21.03,49.96,21.03,78.59
				s-7.66,55.47-21.03,78.59C1960.65,517.49,1909.86,485.88,1882.68,438.9z"/>
		</g>
		<g>
			<path class="st1" d="M1784.08,272.75C1784.08,272.75,1784.08,272.75,1784.08,272.75c-13.37-23.12-21.03-49.96-21.03-78.59
				s7.66-55.47,21.03-78.59c0,0,0,0-0.01,0c-58.18,0-108.98,31.61-136.15,78.59C1675.11,241.14,1725.9,272.75,1784.08,272.75z"/>
			<path class="st1" d="M1784.09,115.56c58.18,0,108.97,31.61,136.15,78.59c13.38-23.12,21.03-49.96,21.03-78.59
				s-7.66-55.47-21.03-78.59C1862.06,36.97,1811.26,68.58,1784.09,115.56z"/>
			<path class="st1" d="M1920.23,194.15c-27.18,46.98-77.97,78.59-136.15,78.59c27.18,46.98,77.97,78.59,136.15,78.59
				c13.38-23.12,21.03-49.96,21.03-78.59C1941.27,244.12,1933.61,217.27,1920.23,194.15z"/>
			<path class="st1" d="M1920.23,194.15c-27.18-46.98-77.97-78.59-136.15-78.59c-13.38,23.12-21.03,49.96-21.03,78.59
				s7.66,55.47,21.03,78.59C1842.26,272.75,1893.06,241.13,1920.23,194.15z"/>
		</g>
		<g>
			<path class="st1" d="M2018.83,28C2018.83,28,2018.83,28,2018.83,28c13.37-23.12,21.03-49.96,21.03-78.59s-7.66-55.47-21.03-78.59
				c0,0,0,0,0.01,0c58.18,0,108.98,31.61,136.15,78.59C2127.81-3.61,2077.01,28,2018.83,28z"/>
			<path class="st1" d="M2018.83-129.19c-58.18,0-108.97,31.61-136.15,78.59c-13.38-23.12-21.03-49.96-21.03-78.59
				s7.66-55.47,21.03-78.59C1940.86-207.78,1991.65-176.17,2018.83-129.19z"/>
			<path class="st1" d="M1882.68-50.59C1909.86-3.61,1960.65,28,2018.83,28c-27.18,46.98-77.97,78.59-136.15,78.59
				c-13.38-23.12-21.03-49.96-21.03-78.59C1861.64-0.63,1869.3-27.47,1882.68-50.59z"/>
			<path class="st1" d="M1882.68-50.59c27.18-46.98,77.97-78.59,136.15-78.59c13.38,23.12,21.03,49.96,21.03,78.59
				S2032.2,4.88,2018.83,28C1960.65,28,1909.86-3.61,1882.68-50.59z"/>
		</g>
		<g>
			<path class="st1" d="M1784.08-216.75C1784.08-216.75,1784.08-216.75,1784.08-216.75c-13.37-23.12-21.03-49.96-21.03-78.59
				s7.66-55.47,21.03-78.59c0,0,0,0-0.01,0c-58.18,0-108.98,31.61-136.15,78.59C1675.11-248.36,1725.9-216.75,1784.08-216.75z"/>
			<path class="st1" d="M1784.09-373.93c58.18,0,108.97,31.61,136.15,78.59c13.38-23.12,21.03-49.96,21.03-78.59
				s-7.66-55.47-21.03-78.59C1862.06-452.53,1811.26-420.92,1784.09-373.93z"/>
			<path class="st1" d="M1920.23-295.34c-27.18,46.98-77.97,78.59-136.15,78.59c27.18,46.98,77.97,78.59,136.15,78.59
				c13.38-23.12,21.03-49.96,21.03-78.59C1941.27-245.38,1933.61-272.22,1920.23-295.34z"/>
			<path class="st1" d="M1920.23-295.34c-27.18-46.98-77.97-78.59-136.15-78.59c-13.38,23.12-21.03,49.96-21.03,78.59
				s7.66,55.47,21.03,78.59C1842.26-216.75,1893.06-248.36,1920.23-295.34z"/>
		</g>
		<g>
			<path class="st1" d="M2018.83-461.49C2018.83-461.49,2018.83-461.49,2018.83-461.49c13.37-23.12,21.03-49.96,21.03-78.59
				c0-28.63-7.66-55.47-21.03-78.59c0,0,0,0,0.01,0c58.18,0,108.98,31.61,136.15,78.59
				C2127.81-493.11,2077.01-461.49,2018.83-461.49z"/>
			<path class="st1" d="M2018.83-618.68c-58.18,0-108.97,31.61-136.15,78.59c-13.38-23.12-21.03-49.96-21.03-78.59
				s7.66-55.47,21.03-78.59C1940.86-697.27,1991.65-665.66,2018.83-618.68z"/>
			<path class="st1" d="M1882.68-540.09c27.18,46.98,77.97,78.59,136.15,78.59c-27.18,46.98-77.97,78.59-136.15,78.59
				c-13.38-23.12-21.03-49.96-21.03-78.59C1861.64-490.13,1869.3-516.97,1882.68-540.09z"/>
			<path class="st1" d="M1882.68-540.09c27.18-46.98,77.97-78.59,136.15-78.59c13.38,23.12,21.03,49.96,21.03,78.59
				c0,28.63-7.66,55.47-21.03,78.59C1960.65-461.5,1909.86-493.11,1882.68-540.09z"/>
		</g>
		<g>
			<path class="st1" d="M1784.08-706.24C1784.08-706.24,1784.08-706.24,1784.08-706.24c-13.37-23.12-21.03-49.96-21.03-78.59
				s7.66-55.47,21.03-78.59c0,0,0,0-0.01,0c-58.18,0-108.98,31.61-136.15,78.59C1675.11-737.85,1725.9-706.24,1784.08-706.24z"/>
			<path class="st1" d="M1784.09-863.43c58.18,0,108.97,31.61,136.15,78.59c13.38-23.12,21.03-49.96,21.03-78.59
				s-7.66-55.47-21.03-78.59C1862.06-942.02,1811.26-910.41,1784.09-863.43z"/>
			<path class="st1" d="M1920.23-784.83c-27.18,46.98-77.97,78.59-136.15,78.59c27.18,46.98,77.97,78.59,136.15,78.59
				c13.38-23.12,21.03-49.96,21.03-78.59C1941.27-734.87,1933.61-761.71,1920.23-784.83z"/>
			<path class="st1" d="M1920.23-784.83c-27.18-46.98-77.97-78.59-136.15-78.59c-13.38,23.12-21.03,49.96-21.03,78.59
				s7.66,55.47,21.03,78.59C1842.26-706.24,1893.06-737.85,1920.23-784.83z"/>
		</g>
	</g>
	<g>
		<g>
			<path class="st1" d="M2662.04,1094.55C2662.04,1094.55,2662.04,1094.55,2662.04,1094.55c-13.37,23.12-21.03,49.96-21.03,78.59
				s7.66,55.47,21.03,78.59c0,0,0,0-0.01,0c-58.18,0-108.98-31.61-136.15-78.59C2553.06,1126.16,2603.86,1094.55,2662.04,1094.55z"
				/>
			<path class="st1" d="M2662.04,1251.73c58.18,0,108.97-31.61,136.15-78.59c13.38,23.12,21.03,49.96,21.03,78.59
				s-7.66,55.47-21.03,78.59C2740.01,1330.33,2689.22,1298.72,2662.04,1251.73z"/>
			<path class="st1" d="M2798.19,1173.14c-27.18-46.98-77.97-78.59-136.15-78.59c27.18-46.98,77.97-78.59,136.15-78.59
				c13.38,23.12,21.03,49.96,21.03,78.59C2819.23,1123.18,2811.57,1150.02,2798.19,1173.14z"/>
			<path class="st1" d="M2798.19,1173.14c-27.18,46.98-77.97,78.59-136.15,78.59c-13.38-23.12-21.03-49.96-21.03-78.59
				s7.66-55.47,21.03-78.59C2720.22,1094.55,2771.02,1126.16,2798.19,1173.14z"/>
		</g>
		<g>
			<path class="st1" d="M2896.79,1006.99C2896.79,1006.99,2896.79,1006.99,2896.79,1006.99c13.37-23.12,21.03-49.96,21.03-78.59
				s-7.66-55.47-21.03-78.59c0,0,0,0,0.01,0c58.18,0,108.98,31.61,136.15,78.59C3005.77,975.38,2954.97,1006.99,2896.79,1006.99z"/>
			<path class="st1" d="M2896.78,849.8c-58.18,0-108.97,31.61-136.15,78.59c-13.38-23.12-21.03-49.96-21.03-78.59
				s7.66-55.47,21.03-78.59C2818.81,771.21,2869.61,802.82,2896.78,849.8z"/>
			<path class="st1" d="M2760.64,928.39c27.18,46.98,77.97,78.59,136.15,78.59c-27.18,46.98-77.97,78.59-136.15,78.59
				c-13.38-23.12-21.03-49.96-21.03-78.59C2739.6,978.36,2747.26,951.51,2760.64,928.39z"/>
			<path class="st1" d="M2760.64,928.39c27.18-46.98,77.97-78.59,136.15-78.59c13.38,23.12,21.03,49.96,21.03,78.59
				s-7.66,55.47-21.03,78.59C2838.61,1006.99,2787.81,975.37,2760.64,928.39z"/>
		</g>
		<g>
			<path class="st1" d="M2662.04,762.24C2662.04,762.24,2662.04,762.24,2662.04,762.24c-13.37-23.12-21.03-49.96-21.03-78.59
				s7.66-55.47,21.03-78.59c0,0,0,0-0.01,0c-58.18,0-108.98,31.61-136.15,78.59C2553.06,730.63,2603.86,762.24,2662.04,762.24z"/>
			<path class="st1" d="M2662.04,605.05c58.18,0,108.97,31.61,136.15,78.59c13.38-23.12,21.03-49.96,21.03-78.59
				s-7.66-55.47-21.03-78.59C2740.01,526.46,2689.22,558.07,2662.04,605.05z"/>
			<path class="st1" d="M2798.19,683.65c-27.18,46.98-77.97,78.59-136.15,78.59c27.18,46.98,77.97,78.59,136.15,78.59
				c13.38-23.12,21.03-49.96,21.03-78.59C2819.23,733.61,2811.57,706.77,2798.19,683.65z"/>
			<path class="st1" d="M2798.19,683.65c-27.18-46.98-77.97-78.59-136.15-78.59c-13.38,23.12-21.03,49.96-21.03,78.59
				s7.66,55.47,21.03,78.59C2720.22,762.24,2771.02,730.63,2798.19,683.65z"/>
		</g>
		<g>
			<path class="st1" d="M2896.79,517.49C2896.79,517.49,2896.79,517.49,2896.79,517.49c13.37-23.12,21.03-49.96,21.03-78.59
				s-7.66-55.47-21.03-78.59c0,0,0,0,0.01,0c58.18,0,108.98,31.61,136.15,78.59C3005.77,485.88,2954.97,517.49,2896.79,517.49z"/>
			<path class="st1" d="M2896.78,360.31c-58.18,0-108.97,31.61-136.15,78.59c-13.38-23.12-21.03-49.96-21.03-78.59
				s7.66-55.47,21.03-78.59C2818.81,281.71,2869.61,313.33,2896.78,360.31z"/>
			<path class="st1" d="M2760.64,438.9c27.18,46.98,77.97,78.59,136.15,78.59c-27.18,46.98-77.97,78.59-136.15,78.59
				c-13.38-23.12-21.03-49.96-21.03-78.59C2739.6,488.86,2747.26,462.02,2760.64,438.9z"/>
			<path class="st1" d="M2760.64,438.9c27.18-46.98,77.97-78.59,136.15-78.59c13.38,23.12,21.03,49.96,21.03,78.59
				s-7.66,55.47-21.03,78.59C2838.61,517.49,2787.81,485.88,2760.64,438.9z"/>
		</g>
		<g>
			<path class="st1" d="M2662.04,272.75C2662.04,272.75,2662.04,272.75,2662.04,272.75c-13.37-23.12-21.03-49.96-21.03-78.59
				s7.66-55.47,21.03-78.59c0,0,0,0-0.01,0c-58.18,0-108.98,31.61-136.15,78.59C2553.06,241.14,2603.86,272.75,2662.04,272.75z"/>
			<path class="st1" d="M2662.04,115.56c58.18,0,108.97,31.61,136.15,78.59c13.38-23.12,21.03-49.96,21.03-78.59
				s-7.66-55.47-21.03-78.59C2740.01,36.97,2689.22,68.58,2662.04,115.56z"/>
			<path class="st1" d="M2798.19,194.15c-27.18,46.98-77.97,78.59-136.15,78.59c27.18,46.98,77.97,78.59,136.15,78.59
				c13.38-23.12,21.03-49.96,21.03-78.59C2819.23,244.12,2811.57,217.27,2798.19,194.15z"/>
			<path class="st1" d="M2798.19,194.15c-27.18-46.98-77.97-78.59-136.15-78.59c-13.38,23.12-21.03,49.96-21.03,78.59
				s7.66,55.47,21.03,78.59C2720.22,272.75,2771.02,241.13,2798.19,194.15z"/>
		</g>
		<g>
			<path class="st1" d="M2896.79,28C2896.79,28,2896.79,28,2896.79,28c13.37-23.12,21.03-49.96,21.03-78.59s-7.66-55.47-21.03-78.59
				c0,0,0,0,0.01,0c58.18,0,108.98,31.61,136.15,78.59C3005.77-3.61,2954.97,28,2896.79,28z"/>
			<path class="st1" d="M2896.78-129.19c-58.18,0-108.97,31.61-136.15,78.59c-13.38-23.12-21.03-49.96-21.03-78.59
				s7.66-55.47,21.03-78.59C2818.81-207.78,2869.61-176.17,2896.78-129.19z"/>
			<path class="st1" d="M2760.64-50.59C2787.81-3.61,2838.61,28,2896.78,28c-27.18,46.98-77.97,78.59-136.15,78.59
				c-13.38-23.12-21.03-49.96-21.03-78.59C2739.6-0.63,2747.26-27.47,2760.64-50.59z"/>
			<path class="st1" d="M2760.64-50.59c27.18-46.98,77.97-78.59,136.15-78.59c13.38,23.12,21.03,49.96,21.03,78.59
				s-7.66,55.47-21.03,78.59C2838.61,28,2787.81-3.61,2760.64-50.59z"/>
		</g>
		<g>
			<path class="st1" d="M2662.04-216.75C2662.04-216.75,2662.04-216.75,2662.04-216.75c-13.37-23.12-21.03-49.96-21.03-78.59
				s7.66-55.47,21.03-78.59c0,0,0,0-0.01,0c-58.18,0-108.98,31.61-136.15,78.59C2553.06-248.36,2603.86-216.75,2662.04-216.75z"/>
			<path class="st1" d="M2662.04-373.93c58.18,0,108.97,31.61,136.15,78.59c13.38-23.12,21.03-49.96,21.03-78.59
				s-7.66-55.47-21.03-78.59C2740.01-452.53,2689.22-420.92,2662.04-373.93z"/>
			<path class="st1" d="M2798.19-295.34c-27.18,46.98-77.97,78.59-136.15,78.59c27.18,46.98,77.97,78.59,136.15,78.59
				c13.38-23.12,21.03-49.96,21.03-78.59C2819.23-245.38,2811.57-272.22,2798.19-295.34z"/>
			<path class="st1" d="M2798.19-295.34c-27.18-46.98-77.97-78.59-136.15-78.59c-13.38,23.12-21.03,49.96-21.03,78.59
				s7.66,55.47,21.03,78.59C2720.22-216.75,2771.02-248.36,2798.19-295.34z"/>
		</g>
		<g>
			<path class="st1" d="M2896.79-461.49C2896.79-461.49,2896.79-461.49,2896.79-461.49c13.37-23.12,21.03-49.96,21.03-78.59
				s-7.66-55.47-21.03-78.59c0,0,0,0,0.01,0c58.18,0,108.98,31.61,136.15,78.59C3005.77-493.1,2954.97-461.49,2896.79-461.49z"/>
			<path class="st1" d="M2896.78-618.68c-58.18,0-108.97,31.61-136.15,78.59c-13.38-23.12-21.03-49.96-21.03-78.59
				s7.66-55.47,21.03-78.59C2818.81-697.27,2869.61-665.66,2896.78-618.68z"/>
			<path class="st1" d="M2760.64-540.09c27.18,46.98,77.97,78.59,136.15,78.59c-27.18,46.98-77.97,78.59-136.15,78.59
				c-13.38-23.12-21.03-49.96-21.03-78.59C2739.6-490.13,2747.26-516.97,2760.64-540.09z"/>
			<path class="st1" d="M2760.64-540.09c27.18-46.98,77.97-78.59,136.15-78.59c13.38,23.12,21.03,49.96,21.03,78.59
				s-7.66,55.47-21.03,78.59C2838.61-461.5,2787.81-493.11,2760.64-540.09z"/>
		</g>
		<g>
			<path class="st1" d="M2662.04-706.24C2662.04-706.24,2662.04-706.24,2662.04-706.24c-13.37-23.12-21.03-49.96-21.03-78.59
				s7.66-55.47,21.03-78.59c0,0,0,0-0.01,0c-58.18,0-108.98,31.61-136.15,78.59C2553.06-737.85,2603.86-706.24,2662.04-706.24z"/>
			<path class="st1" d="M2662.04-863.43c58.18,0,108.97,31.61,136.15,78.59c13.38-23.12,21.03-49.96,21.03-78.59
				s-7.66-55.47-21.03-78.59C2740.01-942.02,2689.22-910.41,2662.04-863.43z"/>
			<path class="st1" d="M2798.19-784.83c-27.18,46.98-77.97,78.59-136.15,78.59c27.18,46.98,77.97,78.59,136.15,78.59
				c13.38-23.12,21.03-49.96,21.03-78.59C2819.23-734.87,2811.57-761.71,2798.19-784.83z"/>
			<path class="st1" d="M2798.19-784.83c-27.18-46.98-77.97-78.59-136.15-78.59c-13.38,23.12-21.03,49.96-21.03,78.59
				s7.66,55.47,21.03,78.59C2720.22-706.24,2771.02-737.85,2798.19-784.83z"/>
		</g>
	</g>
	<g>
		<g>
			<path class="st1" d="M3540,1094.55C3540,1094.55,3540,1094.55,3540,1094.55c-13.37,23.12-21.03,49.96-21.03,78.59
				s7.66,55.47,21.03,78.59c0,0,0,0-0.01,0c-58.18,0-108.98-31.61-136.15-78.59C3431.02,1126.16,3481.82,1094.55,3540,1094.55z"/>
			<path class="st1" d="M3540,1251.74c58.18,0,108.97-31.61,136.15-78.59c13.38,23.12,21.03,49.96,21.03,78.59
				s-7.66,55.47-21.03,78.59C3617.97,1330.33,3567.18,1298.72,3540,1251.74z"/>
			<path class="st1" d="M3676.15,1173.14c-27.18-46.98-77.97-78.59-136.15-78.59c27.18-46.98,77.97-78.59,136.15-78.59
				c13.38,23.12,21.03,49.96,21.03,78.59C3697.19,1123.18,3689.53,1150.02,3676.15,1173.14z"/>
			<path class="st1" d="M3676.15,1173.14c-27.18,46.98-77.97,78.59-136.15,78.59c-13.38-23.12-21.03-49.96-21.03-78.59
				s7.66-55.47,21.03-78.59C3598.18,1094.55,3648.97,1126.16,3676.15,1173.14z"/>
		</g>
		<g>
			<path class="st1" d="M3774.75,1006.99C3774.75,1006.99,3774.74,1006.99,3774.75,1006.99c13.37-23.12,21.03-49.96,21.03-78.59
				s-7.66-55.47-21.03-78.59c0,0,0,0,0.01,0c58.18,0,108.98,31.61,136.15,78.59C3883.72,975.38,3832.93,1006.99,3774.75,1006.99z"/>
			<path class="st1" d="M3774.74,849.8c-58.18,0-108.97,31.61-136.15,78.59c-13.38-23.12-21.03-49.96-21.03-78.59
				s7.66-55.47,21.03-78.59C3696.77,771.21,3747.56,802.82,3774.74,849.8z"/>
			<path class="st1" d="M3638.59,928.39c27.18,46.98,77.97,78.59,136.15,78.59c-27.18,46.98-77.97,78.59-136.15,78.59
				c-13.38-23.12-21.03-49.96-21.03-78.59C3617.56,978.36,3625.22,951.51,3638.59,928.39z"/>
			<path class="st1" d="M3638.59,928.39c27.18-46.98,77.97-78.59,136.15-78.59c13.38,23.12,21.03,49.96,21.03,78.59
				s-7.66,55.47-21.03,78.59C3716.56,1006.99,3665.77,975.38,3638.59,928.39z"/>
		</g>
		<g>
			<path class="st1" d="M3540,762.24C3540,762.24,3540,762.24,3540,762.24c-13.37-23.12-21.03-49.96-21.03-78.59
				s7.66-55.47,21.03-78.59c0,0,0,0-0.01,0c-58.18,0-108.98,31.61-136.15,78.59C3431.02,730.63,3481.82,762.24,3540,762.24z"/>
			<path class="st1" d="M3540,605.05c58.18,0,108.97,31.61,136.15,78.59c13.38-23.12,21.03-49.96,21.03-78.59
				s-7.66-55.47-21.03-78.59C3617.97,526.46,3567.18,558.07,3540,605.05z"/>
			<path class="st1" d="M3676.15,683.65c-27.18,46.98-77.97,78.59-136.15,78.59c27.18,46.98,77.97,78.59,136.15,78.59
				c13.38-23.12,21.03-49.96,21.03-78.59C3697.19,733.61,3689.53,706.77,3676.15,683.65z"/>
			<path class="st1" d="M3676.15,683.65c-27.18-46.98-77.97-78.59-136.15-78.59c-13.38,23.12-21.03,49.96-21.03,78.59
				s7.66,55.47,21.03,78.59C3598.18,762.24,3648.97,730.63,3676.15,683.65z"/>
		</g>
		<g>
			<path class="st1" d="M3774.75,517.49C3774.75,517.49,3774.74,517.49,3774.75,517.49c13.37-23.12,21.03-49.96,21.03-78.59
				s-7.66-55.47-21.03-78.59c0,0,0,0,0.01,0c58.18,0,108.98,31.61,136.15,78.59C3883.72,485.88,3832.93,517.49,3774.75,517.49z"/>
			<path class="st1" d="M3774.74,360.31c-58.18,0-108.97,31.61-136.15,78.59c-13.38-23.12-21.03-49.96-21.03-78.59
				s7.66-55.47,21.03-78.59C3696.77,281.71,3747.56,313.33,3774.74,360.31z"/>
			<path class="st1" d="M3638.59,438.9c27.18,46.98,77.97,78.59,136.15,78.59c-27.18,46.98-77.97,78.59-136.15,78.59
				c-13.38-23.12-21.03-49.96-21.03-78.59C3617.56,488.86,3625.22,462.02,3638.59,438.9z"/>
			<path class="st1" d="M3638.59,438.9c27.18-46.98,77.97-78.59,136.15-78.59c13.38,23.12,21.03,49.96,21.03,78.59
				s-7.66,55.47-21.03,78.59C3716.56,517.49,3665.77,485.88,3638.59,438.9z"/>
		</g>
		<g>
			<path class="st1" d="M3540,272.75C3540,272.75,3540,272.75,3540,272.75c-13.37-23.12-21.03-49.96-21.03-78.59
				s7.66-55.47,21.03-78.59c0,0,0,0-0.01,0c-58.18,0-108.98,31.61-136.15,78.59C3431.02,241.14,3481.82,272.75,3540,272.75z"/>
			<path class="st1" d="M3540,115.56c58.18,0,108.97,31.61,136.15,78.59c13.38-23.12,21.03-49.96,21.03-78.59
				s-7.66-55.47-21.03-78.59C3617.97,36.97,3567.18,68.58,3540,115.56z"/>
			<path class="st1" d="M3676.15,194.15c-27.18,46.98-77.97,78.59-136.15,78.59c27.18,46.98,77.97,78.59,136.15,78.59
				c13.38-23.12,21.03-49.96,21.03-78.59C3697.19,244.12,3689.53,217.27,3676.15,194.15z"/>
			<path class="st1" d="M3676.15,194.15c-27.18-46.98-77.97-78.59-136.15-78.59c-13.38,23.12-21.03,49.96-21.03,78.59
				s7.66,55.47,21.03,78.59C3598.18,272.75,3648.97,241.13,3676.15,194.15z"/>
		</g>
		<g>
			<path class="st1" d="M3774.75,28C3774.75,28,3774.74,28,3774.75,28c13.37-23.12,21.03-49.96,21.03-78.59s-7.66-55.47-21.03-78.59
				c0,0,0,0,0.01,0c58.18,0,108.98,31.61,136.15,78.59C3883.72-3.61,3832.93,28,3774.75,28z"/>
			<path class="st1" d="M3774.74-129.19c-58.18,0-108.97,31.61-136.15,78.59c-13.38-23.12-21.03-49.96-21.03-78.59
				s7.66-55.47,21.03-78.59C3696.77-207.78,3747.56-176.17,3774.74-129.19z"/>
			<path class="st1" d="M3638.59-50.59C3665.77-3.61,3716.56,28,3774.74,28c-27.18,46.98-77.97,78.59-136.15,78.59
				c-13.38-23.12-21.03-49.96-21.03-78.59C3617.56-0.63,3625.22-27.47,3638.59-50.59z"/>
			<path class="st1" d="M3638.59-50.59c27.18-46.98,77.97-78.59,136.15-78.59c13.38,23.12,21.03,49.96,21.03,78.59
				s-7.66,55.47-21.03,78.59C3716.56,28,3665.77-3.61,3638.59-50.59z"/>
		</g>
		<g>
			<path class="st1" d="M3540-216.75C3540-216.75,3540-216.75,3540-216.75c-13.37-23.12-21.03-49.96-21.03-78.59
				s7.66-55.47,21.03-78.59c0,0,0,0-0.01,0c-58.18,0-108.98,31.61-136.15,78.59C3431.02-248.36,3481.82-216.75,3540-216.75z"/>
			<path class="st1" d="M3540-373.93c58.18,0,108.97,31.61,136.15,78.59c13.38-23.12,21.03-49.96,21.03-78.59
				s-7.66-55.47-21.03-78.59C3617.97-452.53,3567.18-420.92,3540-373.93z"/>
			<path class="st1" d="M3676.15-295.34c-27.18,46.98-77.97,78.59-136.15,78.59c27.18,46.98,77.97,78.59,136.15,78.59
				c13.38-23.12,21.03-49.96,21.03-78.59C3697.19-245.38,3689.53-272.22,3676.15-295.34z"/>
			<path class="st1" d="M3676.15-295.34c-27.18-46.98-77.97-78.59-136.15-78.59c-13.38,23.12-21.03,49.96-21.03,78.59
				s7.66,55.47,21.03,78.59C3598.18-216.75,3648.97-248.36,3676.15-295.34z"/>
		</g>
		<g>
			<path class="st1" d="M3774.75-461.49C3774.75-461.49,3774.74-461.49,3774.75-461.49c13.37-23.12,21.03-49.96,21.03-78.59
				s-7.66-55.47-21.03-78.59c0,0,0,0,0.01,0c58.18,0,108.98,31.61,136.15,78.59C3883.72-493.1,3832.93-461.49,3774.75-461.49z"/>
			<path class="st1" d="M3774.74-618.68c-58.18,0-108.97,31.61-136.15,78.59c-13.38-23.12-21.03-49.96-21.03-78.59
				s7.66-55.47,21.03-78.59C3696.77-697.27,3747.56-665.66,3774.74-618.68z"/>
			<path class="st1" d="M3638.59-540.09c27.18,46.98,77.97,78.59,136.15,78.59c-27.18,46.98-77.97,78.59-136.15,78.59
				c-13.38-23.12-21.03-49.96-21.03-78.59C3617.56-490.12,3625.22-516.97,3638.59-540.09z"/>
			<path class="st1" d="M3638.59-540.09c27.18-46.98,77.97-78.59,136.15-78.59c13.38,23.12,21.03,49.96,21.03,78.59
				s-7.66,55.47-21.03,78.59C3716.56-461.5,3665.77-493.11,3638.59-540.09z"/>
		</g>
		<g>
			<path class="st1" d="M3540-706.24C3540-706.24,3540-706.24,3540-706.24c-13.37-23.12-21.03-49.96-21.03-78.59
				s7.66-55.47,21.03-78.59c0,0,0,0-0.01,0c-58.18,0-108.98,31.61-136.15,78.59C3431.02-737.85,3481.82-706.24,3540-706.24z"/>
			<path class="st1" d="M3540-863.43c58.18,0,108.97,31.61,136.15,78.59c13.38-23.12,21.03-49.96,21.03-78.59
				s-7.66-55.47-21.03-78.59C3617.97-942.02,3567.18-910.41,3540-863.43z"/>
			<path class="st1" d="M3676.15-784.83c-27.18,46.98-77.97,78.59-136.15,78.59c27.18,46.98,77.97,78.59,136.15,78.59
				c13.38-23.12,21.03-49.96,21.03-78.59C3697.19-734.87,3689.53-761.71,3676.15-784.83z"/>
			<path class="st1" d="M3676.15-784.83c-27.18-46.98-77.97-78.59-136.15-78.59c-13.38,23.12-21.03,49.96-21.03,78.59
				s7.66,55.47,21.03,78.59C3598.18-706.24,3648.97-737.85,3676.15-784.83z"/>
		</g>
	</g>
</g>
</svg>
