<?xml version="1.0" encoding="UTF-8" standalone="no"?>
<!-- Generator: Adobe Illustrator 26.3.1, SVG Export Plug-In . SVG Version: 6.00 Build 0)  -->

<svg
   xmlns:dc="http://purl.org/dc/elements/1.1/"
   xmlns:cc="http://creativecommons.org/ns#"
   xmlns:rdf="http://www.w3.org/1999/02/22-rdf-syntax-ns#"
   xmlns:svg="http://www.w3.org/2000/svg"
   xmlns="http://www.w3.org/2000/svg"
   xmlns:sodipodi="http://sodipodi.sourceforge.net/DTD/sodipodi-0.dtd"
   xmlns:inkscape="http://www.inkscape.org/namespaces/inkscape"
   version="1.1"
   id="Camada_2"
   x="0px"
   y="0px"
   viewBox="0 0 532.79 531"
   style="enable-background:new 0 0 532.79 531;"
   xml:space="preserve"
   sodipodi:docname="Teletestai.svg"
   inkscape:version="0.92.5 (2060ec1f9f, 2020-04-08)"><metadata
   id="metadata573"><rdf:RDF><cc:Work
       rdf:about=""><dc:format>image/svg+xml</dc:format><dc:type
         rdf:resource="http://purl.org/dc/dcmitype/StillImage" /></cc:Work></rdf:RDF></metadata><defs
   id="defs571" /><sodipodi:namedview
   pagecolor="#ffffff"
   bordercolor="#666666"
   borderopacity="1"
   objecttolerance="10"
   gridtolerance="10"
   guidetolerance="10"
   inkscape:pageopacity="0"
   inkscape:pageshadow="2"
   inkscape:window-width="1366"
   inkscape:window-height="736"
   id="namedview569"
   showgrid="false"
   inkscape:zoom="0.44444444"
   inkscape:cx="5.394989"
   inkscape:cy="265.5"
   inkscape:window-x="0"
   inkscape:window-y="0"
   inkscape:window-maximized="1"
   inkscape:current-layer="Camada_2" />
<style
   type="text/css"
   id="style2">
	.st0{fill:#1D1D1B;}
	.st1{fill:none;stroke:#1D1D1B;stroke-width:20;stroke-miterlimit:10;}
</style>
<path
   class="st0"
   d="M406.41,366.3l-17.7-42.73l42.73-50.4l-42.73-50.4l17.7-42.73l-60.43,40.38l14.18,14.18l-5.87,5.87  c0,0-54.56,0-54.57,0V185.9l5.87-5.87l14.18,14.18l40.38-60.43l-42.73,17.7l-50.4-42.73l-50.4,42.73l-42.73-17.7l40.38,60.43  l14.18-14.18l5.87,5.87v54.55l-54.57,0.01l-5.87-5.87l14.18-14.18l-60.43-40.38l17.7,42.73l-42.73,50.4l42.73,50.4l-17.7,42.73  l60.43-40.38l-14.18-14.18l5.87-5.87c0,0,54.57,0,54.57,0s0,54.56,0,54.57l-5.87,5.87l-14.18-14.18l-40.38,60.43l42.73-17.7  l50.4,42.73l50.4-42.73l42.73,17.7l-40.38-60.43l-14.18,14.18l-5.87-5.87c0,0,0-54.57,0-54.57s54.56,0,54.57,0l5.87,5.87  l-14.18,14.18L406.41,366.3z M284.43,289.95l0.24,97.16l-17.65,17.77l-17.77-17.77v-97.16h-97.16l-16.55-17l18.3-18.3h95.29  l0.24-95.53l17.65-17.65l17.41,17.41l0.24,95.77h95.53l18.52,18.52l-16.78,16.78H284.43z"
   id="path4"
   style="fill:#ffffff" />
<polygon
   class="st0"
   points="386.66,132.23 343.76,196.43 407.96,153.54 420.71,119.49 "
   id="polygon6"
   style="fill:#ffffff" />
<polygon
   class="st0"
   points="126.71,152.54 190.92,195.44 148.02,131.24 113.97,118.49 "
   id="polygon8"
   style="fill:#ffffff" />
<polygon
   class="st0"
   points="147.02,412.48 189.92,348.28 125.72,391.18 112.97,425.23 "
   id="polygon10"
   style="fill:#ffffff" />
<polygon
   class="st0"
   points="406.97,392.17 342.76,349.27 385.66,413.48 419.71,426.22 "
   id="polygon12"
   style="fill:#ffffff" />
<g
   id="g566"
   style="fill:#ffffff">
	<g
   id="g104"
   style="fill:#ffffff">
		<g
   id="g22"
   style="fill:#ffffff">
			<path
   class="st1"
   d="m 1590.85,1094.55 c -0.01,0 -0.01,0 0,0 13.37,23.12 21.03,49.96 21.03,78.59 0,28.63 -7.66,55.47 -21.03,78.59 0,0 0,0 0.01,0 58.18,0 108.98,-31.61 136.15,-78.59 -27.19,-46.98 -77.98,-78.59 -136.16,-78.59 z"
   id="path14"
   inkscape:connector-curvature="0"
   style="fill:#ffffff;stroke:#1d1d1b;stroke-width:20;stroke-miterlimit:10" />
			<path
   class="st1"
   d="m 1590.84,1251.73 c -58.18,0 -108.97,-31.61 -136.15,-78.59 -13.38,23.12 -21.03,49.96 -21.03,78.59 0,28.63 7.66,55.47 21.03,78.59 58.18,0.01 108.97,-31.6 136.15,-78.59 z"
   id="path16"
   inkscape:connector-curvature="0"
   style="fill:#ffffff;stroke:#1d1d1b;stroke-width:20;stroke-miterlimit:10" />
			<path
   class="st1"
   d="m 1454.69,1173.14 c 27.18,-46.98 77.97,-78.59 136.15,-78.59 -27.18,-46.98 -77.97,-78.59 -136.15,-78.59 -13.38,23.12 -21.03,49.96 -21.03,78.59 0,28.63 7.66,55.47 21.03,78.59 z"
   id="path18"
   inkscape:connector-curvature="0"
   style="fill:#ffffff;stroke:#1d1d1b;stroke-width:20;stroke-miterlimit:10" />
			<path
   class="st1"
   d="m 1454.69,1173.14 c 27.18,46.98 77.97,78.59 136.15,78.59 13.38,-23.12 21.03,-49.96 21.03,-78.59 0,-28.63 -7.66,-55.47 -21.03,-78.59 -58.18,0 -108.97,31.61 -136.15,78.59 z"
   id="path20"
   inkscape:connector-curvature="0"
   style="fill:#ffffff;stroke:#1d1d1b;stroke-width:20;stroke-miterlimit:10" />
		</g>
		<g
   id="g32"
   style="fill:#ffffff">
			<path
   class="st1"
   d="m 1356.09,1006.99 c 0.01,0 0.01,0 0,0 -13.37,-23.12 -21.03,-49.96 -21.03,-78.59 0,-28.63 7.66,-55.47 21.03,-78.59 0,0 0,0 -0.01,0 -58.18,0 -108.98,31.61 -136.15,78.59 27.19,46.98 77.98,78.59 136.16,78.59 z"
   id="path24"
   inkscape:connector-curvature="0"
   style="fill:#ffffff;stroke:#1d1d1b;stroke-width:20;stroke-miterlimit:10" />
			<path
   class="st1"
   d="m 1356.1,849.8 c 58.18,0 108.97,31.61 136.15,78.59 13.38,-23.12 21.03,-49.96 21.03,-78.59 0,-28.63 -7.66,-55.47 -21.03,-78.59 -58.18,0 -108.97,31.61 -136.15,78.59 z"
   id="path26"
   inkscape:connector-curvature="0"
   style="fill:#ffffff;stroke:#1d1d1b;stroke-width:20;stroke-miterlimit:10" />
			<path
   class="st1"
   d="m 1492.25,928.39 c -27.18,46.98 -77.97,78.59 -136.15,78.59 27.18,46.98 77.97,78.59 136.15,78.59 13.38,-23.12 21.03,-49.96 21.03,-78.59 0,-28.62 -7.66,-55.47 -21.03,-78.59 z"
   id="path28"
   inkscape:connector-curvature="0"
   style="fill:#ffffff;stroke:#1d1d1b;stroke-width:20;stroke-miterlimit:10" />
			<path
   class="st1"
   d="m 1492.25,928.39 c -27.18,-46.98 -77.97,-78.59 -136.15,-78.59 -13.38,23.12 -21.03,49.96 -21.03,78.59 0,28.63 7.66,55.47 21.03,78.59 58.18,0.01 108.97,-31.61 136.15,-78.59 z"
   id="path30"
   inkscape:connector-curvature="0"
   style="fill:#ffffff;stroke:#1d1d1b;stroke-width:20;stroke-miterlimit:10" />
		</g>
		<g
   id="g42"
   style="fill:#ffffff">
			<path
   class="st1"
   d="m 1590.85,762.24 c -0.01,0 -0.01,0 0,0 13.37,-23.12 21.03,-49.96 21.03,-78.59 0,-28.63 -7.66,-55.47 -21.03,-78.59 0,0 0,0 0.01,0 58.18,0 108.98,31.61 136.15,78.59 -27.19,46.98 -77.98,78.59 -136.16,78.59 z"
   id="path34"
   inkscape:connector-curvature="0"
   style="fill:#ffffff;stroke:#1d1d1b;stroke-width:20;stroke-miterlimit:10" />
			<path
   class="st1"
   d="m 1590.84,605.05 c -58.18,0 -108.97,31.61 -136.15,78.59 -13.38,-23.12 -21.03,-49.96 -21.03,-78.59 0,-28.63 7.66,-55.47 21.03,-78.59 58.18,0 108.97,31.61 136.15,78.59 z"
   id="path36"
   inkscape:connector-curvature="0"
   style="fill:#ffffff;stroke:#1d1d1b;stroke-width:20;stroke-miterlimit:10" />
			<path
   class="st1"
   d="m 1454.69,683.65 c 27.18,46.98 77.97,78.59 136.15,78.59 -27.18,46.98 -77.97,78.59 -136.15,78.59 -13.38,-23.12 -21.03,-49.96 -21.03,-78.59 0,-28.63 7.66,-55.47 21.03,-78.59 z"
   id="path38"
   inkscape:connector-curvature="0"
   style="fill:#ffffff;stroke:#1d1d1b;stroke-width:20;stroke-miterlimit:10" />
			<path
   class="st1"
   d="m 1454.69,683.65 c 27.18,-46.98 77.97,-78.59 136.15,-78.59 13.38,23.12 21.03,49.96 21.03,78.59 0,28.63 -7.66,55.47 -21.03,78.59 -58.18,0 -108.97,-31.61 -136.15,-78.59 z"
   id="path40"
   inkscape:connector-curvature="0"
   style="fill:#ffffff;stroke:#1d1d1b;stroke-width:20;stroke-miterlimit:10" />
		</g>
		<g
   id="g52"
   style="fill:#ffffff">
			<path
   class="st1"
   d="m 1356.09,517.49 c 0.01,0 0.01,0 0,0 -13.37,-23.12 -21.03,-49.96 -21.03,-78.59 0,-28.63 7.66,-55.47 21.03,-78.59 0,0 0,0 -0.01,0 -58.18,0 -108.98,31.61 -136.15,78.59 27.19,46.98 77.98,78.59 136.16,78.59 z"
   id="path44"
   inkscape:connector-curvature="0"
   style="fill:#ffffff;stroke:#1d1d1b;stroke-width:20;stroke-miterlimit:10" />
			<path
   class="st1"
   d="m 1356.1,360.31 c 58.18,0 108.97,31.61 136.15,78.59 13.38,-23.12 21.03,-49.96 21.03,-78.59 0,-28.63 -7.66,-55.47 -21.03,-78.59 -58.18,-0.01 -108.97,31.61 -136.15,78.59 z"
   id="path46"
   inkscape:connector-curvature="0"
   style="fill:#ffffff;stroke:#1d1d1b;stroke-width:20;stroke-miterlimit:10" />
			<path
   class="st1"
   d="m 1492.25,438.9 c -27.18,46.98 -77.97,78.59 -136.15,78.59 27.18,46.98 77.97,78.59 136.15,78.59 13.38,-23.12 21.03,-49.96 21.03,-78.59 0,-28.63 -7.66,-55.47 -21.03,-78.59 z"
   id="path48"
   inkscape:connector-curvature="0"
   style="fill:#ffffff;stroke:#1d1d1b;stroke-width:20;stroke-miterlimit:10" />
			<path
   class="st1"
   d="m 1492.25,438.9 c -27.18,-46.98 -77.97,-78.59 -136.15,-78.59 -13.38,23.12 -21.03,49.96 -21.03,78.59 0,28.63 7.66,55.47 21.03,78.59 58.18,0 108.97,-31.61 136.15,-78.59 z"
   id="path50"
   inkscape:connector-curvature="0"
   style="fill:#ffffff;stroke:#1d1d1b;stroke-width:20;stroke-miterlimit:10" />
		</g>
		<g
   id="g62"
   style="fill:#ffffff">
			<path
   class="st1"
   d="m 1590.85,272.75 c -0.01,0 -0.01,0 0,0 13.37,-23.12 21.03,-49.96 21.03,-78.59 0,-28.63 -7.66,-55.47 -21.03,-78.59 0,0 0,0 0.01,0 58.18,0 108.98,31.61 136.15,78.59 -27.19,46.98 -77.98,78.59 -136.16,78.59 z"
   id="path54"
   inkscape:connector-curvature="0"
   style="fill:#ffffff;stroke:#1d1d1b;stroke-width:20;stroke-miterlimit:10" />
			<path
   class="st1"
   d="m 1590.84,115.56 c -58.18,0 -108.97,31.61 -136.15,78.59 -13.38,-23.12 -21.03,-49.96 -21.03,-78.59 0,-28.63 7.66,-55.47 21.03,-78.59 58.18,0 108.97,31.61 136.15,78.59 z"
   id="path56"
   inkscape:connector-curvature="0"
   style="fill:#ffffff;stroke:#1d1d1b;stroke-width:20;stroke-miterlimit:10" />
			<path
   class="st1"
   d="m 1454.69,194.15 c 27.18,46.98 77.97,78.59 136.15,78.59 -27.18,46.98 -77.97,78.59 -136.15,78.59 -13.38,-23.12 -21.03,-49.96 -21.03,-78.59 0,-28.62 7.66,-55.47 21.03,-78.59 z"
   id="path58"
   inkscape:connector-curvature="0"
   style="fill:#ffffff;stroke:#1d1d1b;stroke-width:20;stroke-miterlimit:10" />
			<path
   class="st1"
   d="m 1454.69,194.15 c 27.18,-46.98 77.97,-78.59 136.15,-78.59 13.38,23.12 21.03,49.96 21.03,78.59 0,28.63 -7.66,55.47 -21.03,78.59 -58.18,0.01 -108.97,-31.61 -136.15,-78.59 z"
   id="path60"
   inkscape:connector-curvature="0"
   style="fill:#ffffff;stroke:#1d1d1b;stroke-width:20;stroke-miterlimit:10" />
		</g>
		<g
   id="g72"
   style="fill:#ffffff">
			<path
   class="st1"
   d="m 1356.09,28 c 0.01,0 0.01,0 0,0 -13.37,-23.12 -21.03,-49.96 -21.03,-78.59 0,-28.63 7.66,-55.47 21.03,-78.59 0,0 0,0 -0.01,0 -58.18,0 -108.98,31.61 -136.15,78.59 27.19,46.98 77.98,78.59 136.16,78.59 z"
   id="path64"
   inkscape:connector-curvature="0"
   style="fill:#ffffff;stroke:#1d1d1b;stroke-width:20;stroke-miterlimit:10" />
			<path
   class="st1"
   d="m 1356.1,-129.19 c 58.18,0 108.97,31.61 136.15,78.59 13.38,-23.12 21.03,-49.96 21.03,-78.59 0,-28.63 -7.66,-55.47 -21.03,-78.59 -58.18,0 -108.97,31.61 -136.15,78.59 z"
   id="path66"
   inkscape:connector-curvature="0"
   style="fill:#ffffff;stroke:#1d1d1b;stroke-width:20;stroke-miterlimit:10" />
			<path
   class="st1"
   d="M 1492.25,-50.59 C 1465.07,-3.61 1414.28,28 1356.1,28 c 27.18,46.98 77.97,78.59 136.15,78.59 13.38,-23.12 21.03,-49.96 21.03,-78.59 0,-28.63 -7.66,-55.47 -21.03,-78.59 z"
   id="path68"
   inkscape:connector-curvature="0"
   style="fill:#ffffff;stroke:#1d1d1b;stroke-width:20;stroke-miterlimit:10" />
			<path
   class="st1"
   d="m 1492.25,-50.59 c -27.18,-46.98 -77.97,-78.59 -136.15,-78.59 -13.38,23.12 -21.03,49.96 -21.03,78.59 0,28.63 7.66,55.47 21.03,78.59 58.18,0 108.97,-31.61 136.15,-78.59 z"
   id="path70"
   inkscape:connector-curvature="0"
   style="fill:#ffffff;stroke:#1d1d1b;stroke-width:20;stroke-miterlimit:10" />
		</g>
		<g
   id="g82"
   style="fill:#ffffff">
			<path
   class="st1"
   d="m 1590.85,-216.75 c -0.01,0 -0.01,0 0,0 13.37,-23.12 21.03,-49.96 21.03,-78.59 0,-28.63 -7.66,-55.47 -21.03,-78.59 0,0 0,0 0.01,0 58.18,0 108.98,31.61 136.15,78.59 -27.19,46.98 -77.98,78.59 -136.16,78.59 z"
   id="path74"
   inkscape:connector-curvature="0"
   style="fill:#ffffff;stroke:#1d1d1b;stroke-width:20;stroke-miterlimit:10" />
			<path
   class="st1"
   d="m 1590.84,-373.93 c -58.18,0 -108.97,31.61 -136.15,78.59 -13.38,-23.12 -21.03,-49.96 -21.03,-78.59 0,-28.63 7.66,-55.47 21.03,-78.59 58.18,-0.01 108.97,31.6 136.15,78.59 z"
   id="path76"
   inkscape:connector-curvature="0"
   style="fill:#ffffff;stroke:#1d1d1b;stroke-width:20;stroke-miterlimit:10" />
			<path
   class="st1"
   d="m 1454.69,-295.34 c 27.18,46.98 77.97,78.59 136.15,78.59 -27.18,46.98 -77.97,78.59 -136.15,78.59 -13.38,-23.12 -21.03,-49.96 -21.03,-78.59 0,-28.63 7.66,-55.47 21.03,-78.59 z"
   id="path78"
   inkscape:connector-curvature="0"
   style="fill:#ffffff;stroke:#1d1d1b;stroke-width:20;stroke-miterlimit:10" />
			<path
   class="st1"
   d="m 1454.69,-295.34 c 27.18,-46.98 77.97,-78.59 136.15,-78.59 13.38,23.12 21.03,49.96 21.03,78.59 0,28.63 -7.66,55.47 -21.03,78.59 -58.18,0 -108.97,-31.61 -136.15,-78.59 z"
   id="path80"
   inkscape:connector-curvature="0"
   style="fill:#ffffff;stroke:#1d1d1b;stroke-width:20;stroke-miterlimit:10" />
		</g>
		<g
   id="g92"
   style="fill:#ffffff">
			<path
   class="st1"
   d="m 1356.09,-461.49 c 0.01,0 0.01,0 0,0 -13.37,-23.12 -21.03,-49.96 -21.03,-78.59 0,-28.63 7.66,-55.47 21.03,-78.59 0,0 0,0 -0.01,0 -58.18,0 -108.98,31.61 -136.15,78.59 27.19,46.98 77.98,78.59 136.16,78.59 z"
   id="path84"
   inkscape:connector-curvature="0"
   style="fill:#ffffff;stroke:#1d1d1b;stroke-width:20;stroke-miterlimit:10" />
			<path
   class="st1"
   d="m 1356.1,-618.68 c 58.18,0 108.97,31.61 136.15,78.59 13.38,-23.12 21.03,-49.96 21.03,-78.59 0,-28.63 -7.66,-55.47 -21.03,-78.59 -58.18,0 -108.97,31.61 -136.15,78.59 z"
   id="path86"
   inkscape:connector-curvature="0"
   style="fill:#ffffff;stroke:#1d1d1b;stroke-width:20;stroke-miterlimit:10" />
			<path
   class="st1"
   d="m 1492.25,-540.09 c -27.18,46.98 -77.97,78.59 -136.15,78.59 27.18,46.98 77.97,78.59 136.15,78.59 13.38,-23.12 21.03,-49.96 21.03,-78.59 0,-28.62 -7.66,-55.47 -21.03,-78.59 z"
   id="path88"
   inkscape:connector-curvature="0"
   style="fill:#ffffff;stroke:#1d1d1b;stroke-width:20;stroke-miterlimit:10" />
			<path
   class="st1"
   d="m 1492.25,-540.09 c -27.18,-46.98 -77.97,-78.59 -136.15,-78.59 -13.38,23.12 -21.03,49.96 -21.03,78.59 0,28.63 7.66,55.47 21.03,78.59 58.18,0 108.97,-31.61 136.15,-78.59 z"
   id="path90"
   inkscape:connector-curvature="0"
   style="fill:#ffffff;stroke:#1d1d1b;stroke-width:20;stroke-miterlimit:10" />
		</g>
		<g
   id="g102"
   style="fill:#ffffff">
			<path
   class="st1"
   d="m 1590.85,-706.24 c -0.01,0 -0.01,0 0,0 13.37,-23.12 21.03,-49.96 21.03,-78.59 0,-28.63 -7.66,-55.47 -21.03,-78.59 0,0 0,0 0.01,0 58.18,0 108.98,31.61 136.15,78.59 -27.19,46.98 -77.98,78.59 -136.16,78.59 z"
   id="path94"
   inkscape:connector-curvature="0"
   style="fill:#ffffff;stroke:#1d1d1b;stroke-width:20;stroke-miterlimit:10" />
			<path
   class="st1"
   d="m 1590.84,-863.43 c -58.18,0 -108.97,31.61 -136.15,78.59 -13.38,-23.12 -21.03,-49.96 -21.03,-78.59 0,-28.63 7.66,-55.47 21.03,-78.59 58.18,0 108.97,31.61 136.15,78.59 z"
   id="path96"
   inkscape:connector-curvature="0"
   style="fill:#ffffff;stroke:#1d1d1b;stroke-width:20;stroke-miterlimit:10" />
			<path
   class="st1"
   d="m 1454.69,-784.83 c 27.18,46.98 77.97,78.59 136.15,78.59 -27.18,46.98 -77.97,78.59 -136.15,78.59 -13.38,-23.12 -21.03,-49.96 -21.03,-78.59 0,-28.63 7.66,-55.47 21.03,-78.59 z"
   id="path98"
   inkscape:connector-curvature="0"
   style="fill:#ffffff;stroke:#1d1d1b;stroke-width:20;stroke-miterlimit:10" />
			<path
   class="st1"
   d="m 1454.69,-784.83 c 27.18,-46.98 77.97,-78.59 136.15,-78.59 13.38,23.12 21.03,49.96 21.03,78.59 0,28.63 -7.66,55.47 -21.03,78.59 -58.18,0 -108.97,-31.61 -136.15,-78.59 z"
   id="path100"
   inkscape:connector-curvature="0"
   style="fill:#ffffff;stroke:#1d1d1b;stroke-width:20;stroke-miterlimit:10" />
		</g>
	</g>
	<g
   id="g196"
   style="fill:#ffffff">
		<g
   id="g114"
   style="fill:#ffffff">
			<path
   class="st1"
   d="m 2457.81,1094.55 c 0,0 0,0 0,0 13.37,23.12 21.03,49.96 21.03,78.59 0,28.63 -7.66,55.47 -21.03,78.59 0,0 0,0 0.01,0 58.18,0 108.98,-31.61 136.15,-78.59 -27.18,-46.98 -77.98,-78.59 -136.16,-78.59 z"
   id="path106"
   inkscape:connector-curvature="0"
   style="fill:#ffffff;stroke:#1d1d1b;stroke-width:20;stroke-miterlimit:10" />
			<path
   class="st1"
   d="m 2457.81,1251.73 c -58.18,0 -108.97,-31.61 -136.15,-78.59 -13.38,23.12 -21.03,49.96 -21.03,78.59 0,28.63 7.66,55.47 21.03,78.59 58.18,0.01 108.97,-31.6 136.15,-78.59 z"
   id="path108"
   inkscape:connector-curvature="0"
   style="fill:#ffffff;stroke:#1d1d1b;stroke-width:20;stroke-miterlimit:10" />
			<path
   class="st1"
   d="m 2321.66,1173.14 c 27.18,-46.98 77.97,-78.59 136.15,-78.59 -27.18,-46.98 -77.97,-78.59 -136.15,-78.59 -13.38,23.12 -21.03,49.96 -21.03,78.59 -0.01,28.63 7.65,55.47 21.03,78.59 z"
   id="path110"
   inkscape:connector-curvature="0"
   style="fill:#ffffff;stroke:#1d1d1b;stroke-width:20;stroke-miterlimit:10" />
			<path
   class="st1"
   d="m 2321.66,1173.14 c 27.18,46.98 77.97,78.59 136.15,78.59 13.38,-23.12 21.03,-49.96 21.03,-78.59 0,-28.63 -7.66,-55.47 -21.03,-78.59 -58.18,0 -108.98,31.61 -136.15,78.59 z"
   id="path112"
   inkscape:connector-curvature="0"
   style="fill:#ffffff;stroke:#1d1d1b;stroke-width:20;stroke-miterlimit:10" />
		</g>
		<g
   id="g124"
   style="fill:#ffffff">
			<path
   class="st1"
   d="m 2223.06,1006.99 c 0,0 0,0 0,0 -13.37,-23.12 -21.03,-49.96 -21.03,-78.59 0,-28.63 7.66,-55.47 21.03,-78.59 0,0 0,0 -0.01,0 -58.18,0 -108.98,31.61 -136.15,78.59 27.18,46.98 77.98,78.59 136.16,78.59 z"
   id="path116"
   inkscape:connector-curvature="0"
   style="fill:#ffffff;stroke:#1d1d1b;stroke-width:20;stroke-miterlimit:10" />
			<path
   class="st1"
   d="m 2223.07,849.8 c 58.18,0 108.97,31.61 136.15,78.59 13.38,-23.12 21.03,-49.96 21.03,-78.59 0,-28.63 -7.66,-55.47 -21.03,-78.59 -58.18,0 -108.98,31.61 -136.15,78.59 z"
   id="path118"
   inkscape:connector-curvature="0"
   style="fill:#ffffff;stroke:#1d1d1b;stroke-width:20;stroke-miterlimit:10" />
			<path
   class="st1"
   d="m 2359.21,928.39 c -27.18,46.98 -77.97,78.59 -136.15,78.59 27.18,46.98 77.97,78.59 136.15,78.59 13.38,-23.12 21.03,-49.96 21.03,-78.59 0.01,-28.62 -7.65,-55.47 -21.03,-78.59 z"
   id="path120"
   inkscape:connector-curvature="0"
   style="fill:#ffffff;stroke:#1d1d1b;stroke-width:20;stroke-miterlimit:10" />
			<path
   class="st1"
   d="m 2359.21,928.39 c -27.18,-46.98 -77.97,-78.59 -136.15,-78.59 -13.38,23.12 -21.03,49.96 -21.03,78.59 0,28.63 7.66,55.47 21.03,78.59 58.18,0.01 108.98,-31.61 136.15,-78.59 z"
   id="path122"
   inkscape:connector-curvature="0"
   style="fill:#ffffff;stroke:#1d1d1b;stroke-width:20;stroke-miterlimit:10" />
		</g>
		<g
   id="g134"
   style="fill:#ffffff">
			<path
   class="st1"
   d="m 2457.81,762.24 c 0,0 0,0 0,0 13.37,-23.12 21.03,-49.96 21.03,-78.59 0,-28.63 -7.66,-55.47 -21.03,-78.59 0,0 0,0 0.01,0 58.18,0 108.98,31.61 136.15,78.59 -27.18,46.98 -77.98,78.59 -136.16,78.59 z"
   id="path126"
   inkscape:connector-curvature="0"
   style="fill:#ffffff;stroke:#1d1d1b;stroke-width:20;stroke-miterlimit:10" />
			<path
   class="st1"
   d="m 2457.81,605.05 c -58.18,0 -108.97,31.61 -136.15,78.59 -13.38,-23.12 -21.03,-49.96 -21.03,-78.59 0,-28.63 7.66,-55.47 21.03,-78.59 58.18,0 108.97,31.61 136.15,78.59 z"
   id="path128"
   inkscape:connector-curvature="0"
   style="fill:#ffffff;stroke:#1d1d1b;stroke-width:20;stroke-miterlimit:10" />
			<path
   class="st1"
   d="m 2321.66,683.65 c 27.18,46.98 77.97,78.59 136.15,78.59 -27.18,46.98 -77.97,78.59 -136.15,78.59 -13.38,-23.12 -21.03,-49.96 -21.03,-78.59 -0.01,-28.63 7.65,-55.47 21.03,-78.59 z"
   id="path130"
   inkscape:connector-curvature="0"
   style="fill:#ffffff;stroke:#1d1d1b;stroke-width:20;stroke-miterlimit:10" />
			<path
   class="st1"
   d="m 2321.66,683.65 c 27.18,-46.98 77.97,-78.59 136.15,-78.59 13.38,23.12 21.03,49.96 21.03,78.59 0,28.63 -7.66,55.47 -21.03,78.59 -58.18,0 -108.98,-31.61 -136.15,-78.59 z"
   id="path132"
   inkscape:connector-curvature="0"
   style="fill:#ffffff;stroke:#1d1d1b;stroke-width:20;stroke-miterlimit:10" />
		</g>
		<g
   id="g144"
   style="fill:#ffffff">
			<path
   class="st1"
   d="m 2223.06,517.49 c 0,0 0,0 0,0 -13.37,-23.12 -21.03,-49.96 -21.03,-78.59 0,-28.63 7.66,-55.47 21.03,-78.59 0,0 0,0 -0.01,0 -58.18,0 -108.98,31.61 -136.15,78.59 27.18,46.98 77.98,78.59 136.16,78.59 z"
   id="path136"
   inkscape:connector-curvature="0"
   style="fill:#ffffff;stroke:#1d1d1b;stroke-width:20;stroke-miterlimit:10" />
			<path
   class="st1"
   d="m 2223.07,360.31 c 58.18,0 108.97,31.61 136.15,78.59 13.38,-23.12 21.03,-49.96 21.03,-78.59 0,-28.63 -7.66,-55.47 -21.03,-78.59 -58.18,-0.01 -108.98,31.61 -136.15,78.59 z"
   id="path138"
   inkscape:connector-curvature="0"
   style="fill:#ffffff;stroke:#1d1d1b;stroke-width:20;stroke-miterlimit:10" />
			<path
   class="st1"
   d="m 2359.21,438.9 c -27.18,46.98 -77.97,78.59 -136.15,78.59 27.18,46.98 77.97,78.59 136.15,78.59 13.38,-23.12 21.03,-49.96 21.03,-78.59 0.01,-28.63 -7.65,-55.47 -21.03,-78.59 z"
   id="path140"
   inkscape:connector-curvature="0"
   style="fill:#ffffff;stroke:#1d1d1b;stroke-width:20;stroke-miterlimit:10" />
			<path
   class="st1"
   d="m 2359.21,438.9 c -27.18,-46.98 -77.97,-78.59 -136.15,-78.59 -13.38,23.12 -21.03,49.96 -21.03,78.59 0,28.63 7.66,55.47 21.03,78.59 58.18,0 108.98,-31.61 136.15,-78.59 z"
   id="path142"
   inkscape:connector-curvature="0"
   style="fill:#ffffff;stroke:#1d1d1b;stroke-width:20;stroke-miterlimit:10" />
		</g>
		<g
   id="g154"
   style="fill:#ffffff">
			<path
   class="st1"
   d="m 2457.81,272.75 c 0,0 0,0 0,0 13.37,-23.12 21.03,-49.96 21.03,-78.59 0,-28.63 -7.66,-55.47 -21.03,-78.59 0,0 0,0 0.01,0 58.18,0 108.98,31.61 136.15,78.59 -27.18,46.98 -77.98,78.59 -136.16,78.59 z"
   id="path146"
   inkscape:connector-curvature="0"
   style="fill:#ffffff;stroke:#1d1d1b;stroke-width:20;stroke-miterlimit:10" />
			<path
   class="st1"
   d="m 2457.81,115.56 c -58.18,0 -108.97,31.61 -136.15,78.59 -13.38,-23.12 -21.03,-49.96 -21.03,-78.59 0,-28.63 7.66,-55.47 21.03,-78.59 58.18,0 108.97,31.61 136.15,78.59 z"
   id="path148"
   inkscape:connector-curvature="0"
   style="fill:#ffffff;stroke:#1d1d1b;stroke-width:20;stroke-miterlimit:10" />
			<path
   class="st1"
   d="m 2321.66,194.15 c 27.18,46.98 77.97,78.59 136.15,78.59 -27.18,46.98 -77.97,78.59 -136.15,78.59 -13.38,-23.12 -21.03,-49.96 -21.03,-78.59 -0.01,-28.62 7.65,-55.47 21.03,-78.59 z"
   id="path150"
   inkscape:connector-curvature="0"
   style="fill:#ffffff;stroke:#1d1d1b;stroke-width:20;stroke-miterlimit:10" />
			<path
   class="st1"
   d="m 2321.66,194.15 c 27.18,-46.98 77.97,-78.59 136.15,-78.59 13.38,23.12 21.03,49.96 21.03,78.59 0,28.63 -7.66,55.47 -21.03,78.59 -58.18,0.01 -108.98,-31.61 -136.15,-78.59 z"
   id="path152"
   inkscape:connector-curvature="0"
   style="fill:#ffffff;stroke:#1d1d1b;stroke-width:20;stroke-miterlimit:10" />
		</g>
		<g
   id="g164"
   style="fill:#ffffff">
			<path
   class="st1"
   d="m 2223.06,28 c 0,0 0,0 0,0 -13.37,-23.12 -21.03,-49.96 -21.03,-78.59 0,-28.63 7.66,-55.47 21.03,-78.59 0,0 0,0 -0.01,0 -58.18,0 -108.98,31.61 -136.15,78.59 27.18,46.98 77.98,78.59 136.16,78.59 z"
   id="path156"
   inkscape:connector-curvature="0"
   style="fill:#ffffff;stroke:#1d1d1b;stroke-width:20;stroke-miterlimit:10" />
			<path
   class="st1"
   d="m 2223.07,-129.19 c 58.18,0 108.97,31.61 136.15,78.59 13.38,-23.12 21.03,-49.96 21.03,-78.59 0,-28.63 -7.66,-55.47 -21.03,-78.59 -58.18,0 -108.98,31.61 -136.15,78.59 z"
   id="path158"
   inkscape:connector-curvature="0"
   style="fill:#ffffff;stroke:#1d1d1b;stroke-width:20;stroke-miterlimit:10" />
			<path
   class="st1"
   d="M 2359.21,-50.59 C 2332.04,-3.61 2281.24,28 2223.07,28 c 27.18,46.98 77.97,78.59 136.15,78.59 13.38,-23.12 21.03,-49.96 21.03,-78.59 0,-28.63 -7.66,-55.47 -21.04,-78.59 z"
   id="path160"
   inkscape:connector-curvature="0"
   style="fill:#ffffff;stroke:#1d1d1b;stroke-width:20;stroke-miterlimit:10" />
			<path
   class="st1"
   d="m 2359.21,-50.59 c -27.18,-46.98 -77.97,-78.59 -136.15,-78.59 -13.38,23.12 -21.03,49.96 -21.03,78.59 0,28.63 7.66,55.47 21.03,78.59 58.18,0 108.98,-31.61 136.15,-78.59 z"
   id="path162"
   inkscape:connector-curvature="0"
   style="fill:#ffffff;stroke:#1d1d1b;stroke-width:20;stroke-miterlimit:10" />
		</g>
		<g
   id="g174"
   style="fill:#ffffff">
			<path
   class="st1"
   d="m 2457.81,-216.75 c 0,0 0,0 0,0 13.37,-23.12 21.03,-49.96 21.03,-78.59 0,-28.63 -7.66,-55.47 -21.03,-78.59 0,0 0,0 0.01,0 58.18,0 108.98,31.61 136.15,78.59 -27.18,46.98 -77.98,78.59 -136.16,78.59 z"
   id="path166"
   inkscape:connector-curvature="0"
   style="fill:#ffffff;stroke:#1d1d1b;stroke-width:20;stroke-miterlimit:10" />
			<path
   class="st1"
   d="m 2457.81,-373.93 c -58.18,0 -108.97,31.61 -136.15,78.59 -13.38,-23.12 -21.03,-49.96 -21.03,-78.59 0,-28.63 7.66,-55.47 21.03,-78.59 58.18,-0.01 108.97,31.6 136.15,78.59 z"
   id="path168"
   inkscape:connector-curvature="0"
   style="fill:#ffffff;stroke:#1d1d1b;stroke-width:20;stroke-miterlimit:10" />
			<path
   class="st1"
   d="m 2321.66,-295.34 c 27.18,46.98 77.97,78.59 136.15,78.59 -27.18,46.98 -77.97,78.59 -136.15,78.59 -13.38,-23.12 -21.03,-49.96 -21.03,-78.59 -0.01,-28.63 7.65,-55.47 21.03,-78.59 z"
   id="path170"
   inkscape:connector-curvature="0"
   style="fill:#ffffff;stroke:#1d1d1b;stroke-width:20;stroke-miterlimit:10" />
			<path
   class="st1"
   d="m 2321.66,-295.34 c 27.18,-46.98 77.97,-78.59 136.15,-78.59 13.38,23.12 21.03,49.96 21.03,78.59 0,28.63 -7.66,55.47 -21.03,78.59 -58.18,0 -108.98,-31.61 -136.15,-78.59 z"
   id="path172"
   inkscape:connector-curvature="0"
   style="fill:#ffffff;stroke:#1d1d1b;stroke-width:20;stroke-miterlimit:10" />
		</g>
		<g
   id="g184"
   style="fill:#ffffff">
			<path
   class="st1"
   d="m 2223.06,-461.49 c 0,0 0,0 0,0 -13.37,-23.12 -21.03,-49.96 -21.03,-78.59 0,-28.63 7.66,-55.47 21.03,-78.59 0,0 0,0 -0.01,0 -58.18,0 -108.98,31.61 -136.15,78.59 27.18,46.98 77.98,78.59 136.16,78.59 z"
   id="path176"
   inkscape:connector-curvature="0"
   style="fill:#ffffff;stroke:#1d1d1b;stroke-width:20;stroke-miterlimit:10" />
			<path
   class="st1"
   d="m 2223.07,-618.68 c 58.18,0 108.97,31.61 136.15,78.59 13.38,-23.12 21.03,-49.96 21.03,-78.59 0,-28.63 -7.66,-55.47 -21.03,-78.59 -58.18,0 -108.98,31.61 -136.15,78.59 z"
   id="path178"
   inkscape:connector-curvature="0"
   style="fill:#ffffff;stroke:#1d1d1b;stroke-width:20;stroke-miterlimit:10" />
			<path
   class="st1"
   d="m 2359.21,-540.09 c -27.18,46.98 -77.97,78.59 -136.15,78.59 27.18,46.98 77.97,78.59 136.15,78.59 13.38,-23.12 21.03,-49.96 21.03,-78.59 0.01,-28.62 -7.65,-55.47 -21.03,-78.59 z"
   id="path180"
   inkscape:connector-curvature="0"
   style="fill:#ffffff;stroke:#1d1d1b;stroke-width:20;stroke-miterlimit:10" />
			<path
   class="st1"
   d="m 2359.21,-540.09 c -27.18,-46.98 -77.97,-78.59 -136.15,-78.59 -13.38,23.12 -21.03,49.96 -21.03,78.59 0,28.63 7.66,55.47 21.03,78.59 58.18,0 108.98,-31.61 136.15,-78.59 z"
   id="path182"
   inkscape:connector-curvature="0"
   style="fill:#ffffff;stroke:#1d1d1b;stroke-width:20;stroke-miterlimit:10" />
		</g>
		<g
   id="g194"
   style="fill:#ffffff">
			<path
   class="st1"
   d="m 2457.81,-706.24 c 0,0 0,0 0,0 13.37,-23.12 21.03,-49.96 21.03,-78.59 0,-28.63 -7.66,-55.47 -21.03,-78.59 0,0 0,0 0.01,0 58.18,0 108.98,31.61 136.15,78.59 -27.18,46.98 -77.98,78.59 -136.16,78.59 z"
   id="path186"
   inkscape:connector-curvature="0"
   style="fill:#ffffff;stroke:#1d1d1b;stroke-width:20;stroke-miterlimit:10" />
			<path
   class="st1"
   d="m 2457.81,-863.43 c -58.18,0 -108.97,31.61 -136.15,78.59 -13.38,-23.12 -21.03,-49.96 -21.03,-78.59 0,-28.63 7.66,-55.47 21.03,-78.59 58.18,0 108.97,31.61 136.15,78.59 z"
   id="path188"
   inkscape:connector-curvature="0"
   style="fill:#ffffff;stroke:#1d1d1b;stroke-width:20;stroke-miterlimit:10" />
			<path
   class="st1"
   d="m 2321.66,-784.83 c 27.18,46.98 77.97,78.59 136.15,78.59 -27.18,46.98 -77.97,78.59 -136.15,78.59 -13.38,-23.12 -21.03,-49.96 -21.03,-78.59 -0.01,-28.63 7.65,-55.47 21.03,-78.59 z"
   id="path190"
   inkscape:connector-curvature="0"
   style="fill:#ffffff;stroke:#1d1d1b;stroke-width:20;stroke-miterlimit:10" />
			<path
   class="st1"
   d="m 2321.66,-784.83 c 27.18,-46.98 77.97,-78.59 136.15,-78.59 13.38,23.12 21.03,49.96 21.03,78.59 0,28.63 -7.66,55.47 -21.03,78.59 -58.18,0 -108.98,-31.61 -136.15,-78.59 z"
   id="path192"
   inkscape:connector-curvature="0"
   style="fill:#ffffff;stroke:#1d1d1b;stroke-width:20;stroke-miterlimit:10" />
		</g>
	</g>
	<g
   id="g288"
   style="fill:#ffffff">
		<g
   id="g206"
   style="fill:#ffffff">
			<path
   class="st1"
   d="m 3324.78,1094.55 c -0.01,0 -0.01,0 0,0 13.37,23.12 21.03,49.96 21.03,78.59 0,28.63 -7.66,55.47 -21.03,78.59 0,0 0,0 0.01,0 58.18,0 108.98,-31.61 136.15,-78.59 -27.19,-46.98 -77.98,-78.59 -136.16,-78.59 z"
   id="path198"
   inkscape:connector-curvature="0"
   style="fill:#ffffff;stroke:#1d1d1b;stroke-width:20;stroke-miterlimit:10" />
			<path
   class="st1"
   d="m 3324.77,1251.73 c -58.18,0 -108.97,-31.61 -136.15,-78.59 -13.38,23.12 -21.03,49.96 -21.03,78.59 0,28.63 7.66,55.47 21.03,78.59 58.18,0.01 108.97,-31.6 136.15,-78.59 z"
   id="path200"
   inkscape:connector-curvature="0"
   style="fill:#ffffff;stroke:#1d1d1b;stroke-width:20;stroke-miterlimit:10" />
			<path
   class="st1"
   d="m 3188.62,1173.14 c 27.18,-46.98 77.97,-78.59 136.15,-78.59 -27.18,-46.98 -77.97,-78.59 -136.15,-78.59 -13.38,23.12 -21.03,49.96 -21.03,78.59 0,28.63 7.66,55.47 21.03,78.59 z"
   id="path202"
   inkscape:connector-curvature="0"
   style="fill:#ffffff;stroke:#1d1d1b;stroke-width:20;stroke-miterlimit:10" />
			<path
   class="st1"
   d="m 3188.62,1173.14 c 27.18,46.98 77.97,78.59 136.15,78.59 13.38,-23.12 21.03,-49.96 21.03,-78.59 0,-28.63 -7.66,-55.47 -21.03,-78.59 -58.18,0 -108.97,31.61 -136.15,78.59 z"
   id="path204"
   inkscape:connector-curvature="0"
   style="fill:#ffffff;stroke:#1d1d1b;stroke-width:20;stroke-miterlimit:10" />
		</g>
		<g
   id="g216"
   style="fill:#ffffff">
			<path
   class="st1"
   d="m 3090.03,1006.99 c 0,0 0,0 0,0 -13.37,-23.12 -21.03,-49.96 -21.03,-78.59 0,-28.63 7.66,-55.47 21.03,-78.59 0,0 0,0 -0.01,0 -58.18,0 -108.98,31.61 -136.15,78.59 27.18,46.98 77.97,78.59 136.16,78.59 z"
   id="path208"
   inkscape:connector-curvature="0"
   style="fill:#ffffff;stroke:#1d1d1b;stroke-width:20;stroke-miterlimit:10" />
			<path
   class="st1"
   d="m 3090.03,849.8 c 58.18,0 108.97,31.61 136.15,78.59 13.38,-23.12 21.03,-49.96 21.03,-78.59 0,-28.63 -7.66,-55.47 -21.03,-78.59 -58.18,0 -108.97,31.61 -136.15,78.59 z"
   id="path210"
   inkscape:connector-curvature="0"
   style="fill:#ffffff;stroke:#1d1d1b;stroke-width:20;stroke-miterlimit:10" />
			<path
   class="st1"
   d="m 3226.18,928.39 c -27.18,46.98 -77.97,78.59 -136.15,78.59 27.18,46.98 77.97,78.59 136.15,78.59 13.38,-23.12 21.03,-49.96 21.03,-78.59 0,-28.62 -7.66,-55.47 -21.03,-78.59 z"
   id="path212"
   inkscape:connector-curvature="0"
   style="fill:#ffffff;stroke:#1d1d1b;stroke-width:20;stroke-miterlimit:10" />
			<path
   class="st1"
   d="M 3226.18,928.39 C 3199,881.41 3148.21,849.8 3090.03,849.8 c -13.38,23.12 -21.03,49.96 -21.03,78.59 0,28.63 7.66,55.47 21.03,78.59 58.18,0.01 108.97,-31.61 136.15,-78.59 z"
   id="path214"
   inkscape:connector-curvature="0"
   style="fill:#ffffff;stroke:#1d1d1b;stroke-width:20;stroke-miterlimit:10" />
		</g>
		<g
   id="g226"
   style="fill:#ffffff">
			<path
   class="st1"
   d="m 3324.78,762.24 c -0.01,0 -0.01,0 0,0 13.37,-23.12 21.03,-49.96 21.03,-78.59 0,-28.63 -7.66,-55.47 -21.03,-78.59 0,0 0,0 0.01,0 58.18,0 108.98,31.61 136.15,78.59 -27.19,46.98 -77.98,78.59 -136.16,78.59 z"
   id="path218"
   inkscape:connector-curvature="0"
   style="fill:#ffffff;stroke:#1d1d1b;stroke-width:20;stroke-miterlimit:10" />
			<path
   class="st1"
   d="m 3324.77,605.05 c -58.18,0 -108.97,31.61 -136.15,78.59 -13.38,-23.12 -21.03,-49.96 -21.03,-78.59 0,-28.63 7.66,-55.47 21.03,-78.59 58.18,0 108.97,31.61 136.15,78.59 z"
   id="path220"
   inkscape:connector-curvature="0"
   style="fill:#ffffff;stroke:#1d1d1b;stroke-width:20;stroke-miterlimit:10" />
			<path
   class="st1"
   d="m 3188.62,683.65 c 27.18,46.98 77.97,78.59 136.15,78.59 -27.18,46.98 -77.97,78.59 -136.15,78.59 -13.38,-23.12 -21.03,-49.96 -21.03,-78.59 0,-28.63 7.66,-55.47 21.03,-78.59 z"
   id="path222"
   inkscape:connector-curvature="0"
   style="fill:#ffffff;stroke:#1d1d1b;stroke-width:20;stroke-miterlimit:10" />
			<path
   class="st1"
   d="m 3188.62,683.65 c 27.18,-46.98 77.97,-78.59 136.15,-78.59 13.38,23.12 21.03,49.96 21.03,78.59 0,28.63 -7.66,55.47 -21.03,78.59 -58.18,0 -108.97,-31.61 -136.15,-78.59 z"
   id="path224"
   inkscape:connector-curvature="0"
   style="fill:#ffffff;stroke:#1d1d1b;stroke-width:20;stroke-miterlimit:10" />
		</g>
		<g
   id="g236"
   style="fill:#ffffff">
			<path
   class="st1"
   d="m 3090.03,517.49 c 0,0 0,0 0,0 -13.37,-23.12 -21.03,-49.96 -21.03,-78.59 0,-28.63 7.66,-55.47 21.03,-78.59 0,0 0,0 -0.01,0 -58.18,0 -108.98,31.61 -136.15,78.59 27.18,46.98 77.97,78.59 136.16,78.59 z"
   id="path228"
   inkscape:connector-curvature="0"
   style="fill:#ffffff;stroke:#1d1d1b;stroke-width:20;stroke-miterlimit:10" />
			<path
   class="st1"
   d="m 3090.03,360.31 c 58.18,0 108.97,31.61 136.15,78.59 13.38,-23.12 21.03,-49.96 21.03,-78.59 0,-28.63 -7.66,-55.47 -21.03,-78.59 -58.18,-0.01 -108.97,31.61 -136.15,78.59 z"
   id="path230"
   inkscape:connector-curvature="0"
   style="fill:#ffffff;stroke:#1d1d1b;stroke-width:20;stroke-miterlimit:10" />
			<path
   class="st1"
   d="m 3226.18,438.9 c -27.18,46.98 -77.97,78.59 -136.15,78.59 27.18,46.98 77.97,78.59 136.15,78.59 13.38,-23.12 21.03,-49.96 21.03,-78.59 0,-28.63 -7.66,-55.47 -21.03,-78.59 z"
   id="path232"
   inkscape:connector-curvature="0"
   style="fill:#ffffff;stroke:#1d1d1b;stroke-width:20;stroke-miterlimit:10" />
			<path
   class="st1"
   d="m 3226.18,438.9 c -27.18,-46.98 -77.97,-78.59 -136.15,-78.59 -13.38,23.12 -21.03,49.96 -21.03,78.59 0,28.63 7.66,55.47 21.03,78.59 58.18,0 108.97,-31.61 136.15,-78.59 z"
   id="path234"
   inkscape:connector-curvature="0"
   style="fill:#ffffff;stroke:#1d1d1b;stroke-width:20;stroke-miterlimit:10" />
		</g>
		<g
   id="g246"
   style="fill:#ffffff">
			<path
   class="st1"
   d="m 3324.78,272.75 c -0.01,0 -0.01,0 0,0 13.37,-23.12 21.03,-49.96 21.03,-78.59 0,-28.63 -7.66,-55.47 -21.03,-78.59 0,0 0,0 0.01,0 58.18,0 108.98,31.61 136.15,78.59 -27.19,46.98 -77.98,78.59 -136.16,78.59 z"
   id="path238"
   inkscape:connector-curvature="0"
   style="fill:#ffffff;stroke:#1d1d1b;stroke-width:20;stroke-miterlimit:10" />
			<path
   class="st1"
   d="m 3324.77,115.56 c -58.18,0 -108.97,31.61 -136.15,78.59 -13.38,-23.12 -21.03,-49.96 -21.03,-78.59 0,-28.63 7.66,-55.47 21.03,-78.59 58.18,0 108.97,31.61 136.15,78.59 z"
   id="path240"
   inkscape:connector-curvature="0"
   style="fill:#ffffff;stroke:#1d1d1b;stroke-width:20;stroke-miterlimit:10" />
			<path
   class="st1"
   d="m 3188.62,194.15 c 27.18,46.98 77.97,78.59 136.15,78.59 -27.18,46.98 -77.97,78.59 -136.15,78.59 -13.38,-23.12 -21.03,-49.96 -21.03,-78.59 0,-28.62 7.66,-55.47 21.03,-78.59 z"
   id="path242"
   inkscape:connector-curvature="0"
   style="fill:#ffffff;stroke:#1d1d1b;stroke-width:20;stroke-miterlimit:10" />
			<path
   class="st1"
   d="m 3188.62,194.15 c 27.18,-46.98 77.97,-78.59 136.15,-78.59 13.38,23.12 21.03,49.96 21.03,78.59 0,28.63 -7.66,55.47 -21.03,78.59 -58.18,0.01 -108.97,-31.61 -136.15,-78.59 z"
   id="path244"
   inkscape:connector-curvature="0"
   style="fill:#ffffff;stroke:#1d1d1b;stroke-width:20;stroke-miterlimit:10" />
		</g>
		<g
   id="g256"
   style="fill:#ffffff">
			<path
   class="st1"
   d="m 3090.03,28 c 0,0 0,0 0,0 C 3076.66,4.88 3069,-21.96 3069,-50.59 c 0,-28.63 7.66,-55.47 21.03,-78.59 0,0 0,0 -0.01,0 -58.18,0 -108.98,31.61 -136.15,78.59 27.18,46.98 77.97,78.59 136.16,78.59 z"
   id="path248"
   inkscape:connector-curvature="0"
   style="fill:#ffffff;stroke:#1d1d1b;stroke-width:20;stroke-miterlimit:10" />
			<path
   class="st1"
   d="m 3090.03,-129.19 c 58.18,0 108.97,31.61 136.15,78.59 13.38,-23.12 21.03,-49.96 21.03,-78.59 0,-28.63 -7.66,-55.47 -21.03,-78.59 -58.18,0 -108.97,31.61 -136.15,78.59 z"
   id="path250"
   inkscape:connector-curvature="0"
   style="fill:#ffffff;stroke:#1d1d1b;stroke-width:20;stroke-miterlimit:10" />
			<path
   class="st1"
   d="M 3226.18,-50.59 C 3199,-3.61 3148.21,28 3090.03,28 c 27.18,46.98 77.97,78.59 136.15,78.59 13.38,-23.12 21.03,-49.96 21.03,-78.59 0,-28.63 -7.66,-55.47 -21.03,-78.59 z"
   id="path252"
   inkscape:connector-curvature="0"
   style="fill:#ffffff;stroke:#1d1d1b;stroke-width:20;stroke-miterlimit:10" />
			<path
   class="st1"
   d="m 3226.18,-50.59 c -27.18,-46.98 -77.97,-78.59 -136.15,-78.59 -13.38,23.12 -21.03,49.96 -21.03,78.59 0,28.63 7.66,55.47 21.03,78.59 58.18,0 108.97,-31.61 136.15,-78.59 z"
   id="path254"
   inkscape:connector-curvature="0"
   style="fill:#ffffff;stroke:#1d1d1b;stroke-width:20;stroke-miterlimit:10" />
		</g>
		<g
   id="g266"
   style="fill:#ffffff">
			<path
   class="st1"
   d="m 3324.78,-216.75 c -0.01,0 -0.01,0 0,0 13.37,-23.12 21.03,-49.96 21.03,-78.59 0,-28.63 -7.66,-55.47 -21.03,-78.59 0,0 0,0 0.01,0 58.18,0 108.98,31.61 136.15,78.59 -27.19,46.98 -77.98,78.59 -136.16,78.59 z"
   id="path258"
   inkscape:connector-curvature="0"
   style="fill:#ffffff;stroke:#1d1d1b;stroke-width:20;stroke-miterlimit:10" />
			<path
   class="st1"
   d="m 3324.77,-373.93 c -58.18,0 -108.97,31.61 -136.15,78.59 -13.38,-23.12 -21.03,-49.96 -21.03,-78.59 0,-28.63 7.66,-55.47 21.03,-78.59 58.18,-0.01 108.97,31.6 136.15,78.59 z"
   id="path260"
   inkscape:connector-curvature="0"
   style="fill:#ffffff;stroke:#1d1d1b;stroke-width:20;stroke-miterlimit:10" />
			<path
   class="st1"
   d="m 3188.62,-295.34 c 27.18,46.98 77.97,78.59 136.15,78.59 -27.18,46.98 -77.97,78.59 -136.15,78.59 -13.38,-23.12 -21.03,-49.96 -21.03,-78.59 0,-28.63 7.66,-55.47 21.03,-78.59 z"
   id="path262"
   inkscape:connector-curvature="0"
   style="fill:#ffffff;stroke:#1d1d1b;stroke-width:20;stroke-miterlimit:10" />
			<path
   class="st1"
   d="m 3188.62,-295.34 c 27.18,-46.98 77.97,-78.59 136.15,-78.59 13.38,23.12 21.03,49.96 21.03,78.59 0,28.63 -7.66,55.47 -21.03,78.59 -58.18,0 -108.97,-31.61 -136.15,-78.59 z"
   id="path264"
   inkscape:connector-curvature="0"
   style="fill:#ffffff;stroke:#1d1d1b;stroke-width:20;stroke-miterlimit:10" />
		</g>
		<g
   id="g276"
   style="fill:#ffffff">
			<path
   class="st1"
   d="m 3090.03,-461.49 c 0,0 0,0 0,0 -13.37,-23.12 -21.03,-49.96 -21.03,-78.59 0,-28.63 7.66,-55.47 21.03,-78.59 0,0 0,0 -0.01,0 -58.18,0 -108.98,31.61 -136.15,78.59 27.18,46.98 77.97,78.59 136.16,78.59 z"
   id="path268"
   inkscape:connector-curvature="0"
   style="fill:#ffffff;stroke:#1d1d1b;stroke-width:20;stroke-miterlimit:10" />
			<path
   class="st1"
   d="m 3090.03,-618.68 c 58.18,0 108.97,31.61 136.15,78.59 13.38,-23.12 21.03,-49.96 21.03,-78.59 0,-28.63 -7.66,-55.47 -21.03,-78.59 -58.18,0 -108.97,31.61 -136.15,78.59 z"
   id="path270"
   inkscape:connector-curvature="0"
   style="fill:#ffffff;stroke:#1d1d1b;stroke-width:20;stroke-miterlimit:10" />
			<path
   class="st1"
   d="m 3226.18,-540.09 c -27.18,46.98 -77.97,78.59 -136.15,78.59 27.18,46.98 77.97,78.59 136.15,78.59 13.38,-23.12 21.03,-49.96 21.03,-78.59 0,-28.62 -7.66,-55.47 -21.03,-78.59 z"
   id="path272"
   inkscape:connector-curvature="0"
   style="fill:#ffffff;stroke:#1d1d1b;stroke-width:20;stroke-miterlimit:10" />
			<path
   class="st1"
   d="m 3226.18,-540.09 c -27.18,-46.98 -77.97,-78.59 -136.15,-78.59 -13.38,23.12 -21.03,49.96 -21.03,78.59 0,28.63 7.66,55.47 21.03,78.59 58.18,0 108.97,-31.61 136.15,-78.59 z"
   id="path274"
   inkscape:connector-curvature="0"
   style="fill:#ffffff;stroke:#1d1d1b;stroke-width:20;stroke-miterlimit:10" />
		</g>
		<g
   id="g286"
   style="fill:#ffffff">
			<path
   class="st1"
   d="m 3324.78,-706.24 c -0.01,0 -0.01,0 0,0 13.37,-23.12 21.03,-49.96 21.03,-78.59 0,-28.63 -7.66,-55.47 -21.03,-78.59 0,0 0,0 0.01,0 58.18,0 108.98,31.61 136.15,78.59 -27.19,46.98 -77.98,78.59 -136.16,78.59 z"
   id="path278"
   inkscape:connector-curvature="0"
   style="fill:#ffffff;stroke:#1d1d1b;stroke-width:20;stroke-miterlimit:10" />
			<path
   class="st1"
   d="m 3324.77,-863.43 c -58.18,0 -108.97,31.61 -136.15,78.59 -13.38,-23.12 -21.03,-49.96 -21.03,-78.59 0,-28.63 7.66,-55.47 21.03,-78.59 58.18,0 108.97,31.61 136.15,78.59 z"
   id="path280"
   inkscape:connector-curvature="0"
   style="fill:#ffffff;stroke:#1d1d1b;stroke-width:20;stroke-miterlimit:10" />
			<path
   class="st1"
   d="m 3188.62,-784.83 c 27.18,46.98 77.97,78.59 136.15,78.59 -27.18,46.98 -77.97,78.59 -136.15,78.59 -13.38,-23.12 -21.03,-49.96 -21.03,-78.59 0,-28.63 7.66,-55.47 21.03,-78.59 z"
   id="path282"
   inkscape:connector-curvature="0"
   style="fill:#ffffff;stroke:#1d1d1b;stroke-width:20;stroke-miterlimit:10" />
			<path
   class="st1"
   d="m 3188.62,-784.83 c 27.18,-46.98 77.97,-78.59 136.15,-78.59 13.38,23.12 21.03,49.96 21.03,78.59 0,28.63 -7.66,55.47 -21.03,78.59 -58.18,0 -108.97,-31.61 -136.15,-78.59 z"
   id="path284"
   inkscape:connector-curvature="0"
   style="fill:#ffffff;stroke:#1d1d1b;stroke-width:20;stroke-miterlimit:10" />
		</g>
	</g>
	<g
   id="g380"
   style="fill:#ffffff">
		<g
   id="g298"
   style="fill:#ffffff">
			<path
   class="st1"
   d="m 1784.08,1094.55 c 0,0 0,0 0,0 -13.37,23.12 -21.03,49.96 -21.03,78.59 0,28.63 7.66,55.47 21.03,78.59 0,0 0,0 -0.01,0 -58.18,0 -108.98,-31.61 -136.15,-78.59 27.19,-46.98 77.98,-78.59 136.16,-78.59 z"
   id="path290"
   inkscape:connector-curvature="0"
   style="fill:#ffffff;stroke:#1d1d1b;stroke-width:20;stroke-miterlimit:10" />
			<path
   class="st1"
   d="m 1784.09,1251.73 c 58.18,0 108.97,-31.61 136.15,-78.59 13.38,23.12 21.03,49.96 21.03,78.59 0,28.63 -7.66,55.47 -21.03,78.59 -58.18,0.01 -108.98,-31.6 -136.15,-78.59 z"
   id="path292"
   inkscape:connector-curvature="0"
   style="fill:#ffffff;stroke:#1d1d1b;stroke-width:20;stroke-miterlimit:10" />
			<path
   class="st1"
   d="m 1920.23,1173.14 c -27.18,-46.98 -77.97,-78.59 -136.15,-78.59 27.18,-46.98 77.97,-78.59 136.15,-78.59 13.38,23.12 21.03,49.96 21.03,78.59 0.01,28.63 -7.65,55.47 -21.03,78.59 z"
   id="path294"
   inkscape:connector-curvature="0"
   style="fill:#ffffff;stroke:#1d1d1b;stroke-width:20;stroke-miterlimit:10" />
			<path
   class="st1"
   d="m 1920.23,1173.14 c -27.18,46.98 -77.97,78.59 -136.15,78.59 -13.38,-23.12 -21.03,-49.96 -21.03,-78.59 0,-28.63 7.66,-55.47 21.03,-78.59 58.18,0 108.98,31.61 136.15,78.59 z"
   id="path296"
   inkscape:connector-curvature="0"
   style="fill:#ffffff;stroke:#1d1d1b;stroke-width:20;stroke-miterlimit:10" />
		</g>
		<g
   id="g308"
   style="fill:#ffffff">
			<path
   class="st1"
   d="m 2018.83,1006.99 c 0,0 0,0 0,0 13.37,-23.12 21.03,-49.96 21.03,-78.59 0,-28.63 -7.66,-55.47 -21.03,-78.59 0,0 0,0 0.01,0 58.18,0 108.98,31.61 136.15,78.59 -27.18,46.98 -77.98,78.59 -136.16,78.59 z"
   id="path300"
   inkscape:connector-curvature="0"
   style="fill:#ffffff;stroke:#1d1d1b;stroke-width:20;stroke-miterlimit:10" />
			<path
   class="st1"
   d="m 2018.83,849.8 c -58.18,0 -108.97,31.61 -136.15,78.59 -13.38,-23.12 -21.03,-49.96 -21.03,-78.59 0,-28.63 7.66,-55.47 21.03,-78.59 58.18,0 108.97,31.61 136.15,78.59 z"
   id="path302"
   inkscape:connector-curvature="0"
   style="fill:#ffffff;stroke:#1d1d1b;stroke-width:20;stroke-miterlimit:10" />
			<path
   class="st1"
   d="m 1882.68,928.39 c 27.18,46.98 77.97,78.59 136.15,78.59 -27.18,46.98 -77.97,78.59 -136.15,78.59 -13.38,-23.12 -21.03,-49.96 -21.03,-78.59 -0.01,-28.62 7.65,-55.47 21.03,-78.59 z"
   id="path304"
   inkscape:connector-curvature="0"
   style="fill:#ffffff;stroke:#1d1d1b;stroke-width:20;stroke-miterlimit:10" />
			<path
   class="st1"
   d="m 1882.68,928.39 c 27.18,-46.98 77.97,-78.59 136.15,-78.59 13.38,23.12 21.03,49.96 21.03,78.59 0,28.63 -7.66,55.47 -21.03,78.59 -58.18,0.01 -108.97,-31.61 -136.15,-78.59 z"
   id="path306"
   inkscape:connector-curvature="0"
   style="fill:#ffffff;stroke:#1d1d1b;stroke-width:20;stroke-miterlimit:10" />
		</g>
		<g
   id="g318"
   style="fill:#ffffff">
			<path
   class="st1"
   d="m 1784.08,762.24 c 0,0 0,0 0,0 -13.37,-23.12 -21.03,-49.96 -21.03,-78.59 0,-28.63 7.66,-55.47 21.03,-78.59 0,0 0,0 -0.01,0 -58.18,0 -108.98,31.61 -136.15,78.59 27.19,46.98 77.98,78.59 136.16,78.59 z"
   id="path310"
   inkscape:connector-curvature="0"
   style="fill:#ffffff;stroke:#1d1d1b;stroke-width:20;stroke-miterlimit:10" />
			<path
   class="st1"
   d="m 1784.09,605.05 c 58.18,0 108.97,31.61 136.15,78.59 13.38,-23.12 21.03,-49.96 21.03,-78.59 0,-28.63 -7.66,-55.47 -21.03,-78.59 -58.18,0 -108.98,31.61 -136.15,78.59 z"
   id="path312"
   inkscape:connector-curvature="0"
   style="fill:#ffffff;stroke:#1d1d1b;stroke-width:20;stroke-miterlimit:10" />
			<path
   class="st1"
   d="m 1920.23,683.65 c -27.18,46.98 -77.97,78.59 -136.15,78.59 27.18,46.98 77.97,78.59 136.15,78.59 13.38,-23.12 21.03,-49.96 21.03,-78.59 0.01,-28.63 -7.65,-55.47 -21.03,-78.59 z"
   id="path314"
   inkscape:connector-curvature="0"
   style="fill:#ffffff;stroke:#1d1d1b;stroke-width:20;stroke-miterlimit:10" />
			<path
   class="st1"
   d="m 1920.23,683.65 c -27.18,-46.98 -77.97,-78.59 -136.15,-78.59 -13.38,23.12 -21.03,49.96 -21.03,78.59 0,28.63 7.66,55.47 21.03,78.59 58.18,0 108.98,-31.61 136.15,-78.59 z"
   id="path316"
   inkscape:connector-curvature="0"
   style="fill:#ffffff;stroke:#1d1d1b;stroke-width:20;stroke-miterlimit:10" />
		</g>
		<g
   id="g328"
   style="fill:#ffffff">
			<path
   class="st1"
   d="m 2018.83,517.49 c 0,0 0,0 0,0 13.37,-23.12 21.03,-49.96 21.03,-78.59 0,-28.63 -7.66,-55.47 -21.03,-78.59 0,0 0,0 0.01,0 58.18,0 108.98,31.61 136.15,78.59 -27.18,46.98 -77.98,78.59 -136.16,78.59 z"
   id="path320"
   inkscape:connector-curvature="0"
   style="fill:#ffffff;stroke:#1d1d1b;stroke-width:20;stroke-miterlimit:10" />
			<path
   class="st1"
   d="m 2018.83,360.31 c -58.18,0 -108.97,31.61 -136.15,78.59 -13.38,-23.12 -21.03,-49.96 -21.03,-78.59 0,-28.63 7.66,-55.47 21.03,-78.59 58.18,-0.01 108.97,31.61 136.15,78.59 z"
   id="path322"
   inkscape:connector-curvature="0"
   style="fill:#ffffff;stroke:#1d1d1b;stroke-width:20;stroke-miterlimit:10" />
			<path
   class="st1"
   d="m 1882.68,438.9 c 27.18,46.98 77.97,78.59 136.15,78.59 -27.18,46.98 -77.97,78.59 -136.15,78.59 -13.38,-23.12 -21.03,-49.96 -21.03,-78.59 -0.01,-28.63 7.65,-55.47 21.03,-78.59 z"
   id="path324"
   inkscape:connector-curvature="0"
   style="fill:#ffffff;stroke:#1d1d1b;stroke-width:20;stroke-miterlimit:10" />
			<path
   class="st1"
   d="m 1882.68,438.9 c 27.18,-46.98 77.97,-78.59 136.15,-78.59 13.38,23.12 21.03,49.96 21.03,78.59 0,28.63 -7.66,55.47 -21.03,78.59 -58.18,0 -108.97,-31.61 -136.15,-78.59 z"
   id="path326"
   inkscape:connector-curvature="0"
   style="fill:#ffffff;stroke:#1d1d1b;stroke-width:20;stroke-miterlimit:10" />
		</g>
		<g
   id="g338"
   style="fill:#ffffff">
			<path
   class="st1"
   d="m 1784.08,272.75 c 0,0 0,0 0,0 -13.37,-23.12 -21.03,-49.96 -21.03,-78.59 0,-28.63 7.66,-55.47 21.03,-78.59 0,0 0,0 -0.01,0 -58.18,0 -108.98,31.61 -136.15,78.59 27.19,46.98 77.98,78.59 136.16,78.59 z"
   id="path330"
   inkscape:connector-curvature="0"
   style="fill:#ffffff;stroke:#1d1d1b;stroke-width:20;stroke-miterlimit:10" />
			<path
   class="st1"
   d="m 1784.09,115.56 c 58.18,0 108.97,31.61 136.15,78.59 13.38,-23.12 21.03,-49.96 21.03,-78.59 0,-28.63 -7.66,-55.47 -21.03,-78.59 -58.18,0 -108.98,31.61 -136.15,78.59 z"
   id="path332"
   inkscape:connector-curvature="0"
   style="fill:#ffffff;stroke:#1d1d1b;stroke-width:20;stroke-miterlimit:10" />
			<path
   class="st1"
   d="m 1920.23,194.15 c -27.18,46.98 -77.97,78.59 -136.15,78.59 27.18,46.98 77.97,78.59 136.15,78.59 13.38,-23.12 21.03,-49.96 21.03,-78.59 0.01,-28.62 -7.65,-55.47 -21.03,-78.59 z"
   id="path334"
   inkscape:connector-curvature="0"
   style="fill:#ffffff;stroke:#1d1d1b;stroke-width:20;stroke-miterlimit:10" />
			<path
   class="st1"
   d="m 1920.23,194.15 c -27.18,-46.98 -77.97,-78.59 -136.15,-78.59 -13.38,23.12 -21.03,49.96 -21.03,78.59 0,28.63 7.66,55.47 21.03,78.59 58.18,0.01 108.98,-31.61 136.15,-78.59 z"
   id="path336"
   inkscape:connector-curvature="0"
   style="fill:#ffffff;stroke:#1d1d1b;stroke-width:20;stroke-miterlimit:10" />
		</g>
		<g
   id="g348"
   style="fill:#ffffff">
			<path
   class="st1"
   d="m 2018.83,28 c 0,0 0,0 0,0 13.37,-23.12 21.03,-49.96 21.03,-78.59 0,-28.63 -7.66,-55.47 -21.03,-78.59 0,0 0,0 0.01,0 58.18,0 108.98,31.61 136.15,78.59 C 2127.81,-3.61 2077.01,28 2018.83,28 Z"
   id="path340"
   inkscape:connector-curvature="0"
   style="fill:#ffffff;stroke:#1d1d1b;stroke-width:20;stroke-miterlimit:10" />
			<path
   class="st1"
   d="m 2018.83,-129.19 c -58.18,0 -108.97,31.61 -136.15,78.59 -13.38,-23.12 -21.03,-49.96 -21.03,-78.59 0,-28.63 7.66,-55.47 21.03,-78.59 58.18,0 108.97,31.61 136.15,78.59 z"
   id="path342"
   inkscape:connector-curvature="0"
   style="fill:#ffffff;stroke:#1d1d1b;stroke-width:20;stroke-miterlimit:10" />
			<path
   class="st1"
   d="m 1882.68,-50.59 c 27.18,46.98 77.97,78.59 136.15,78.59 -27.18,46.98 -77.97,78.59 -136.15,78.59 -13.38,-23.12 -21.03,-49.96 -21.03,-78.59 -0.01,-28.63 7.65,-55.47 21.03,-78.59 z"
   id="path344"
   inkscape:connector-curvature="0"
   style="fill:#ffffff;stroke:#1d1d1b;stroke-width:20;stroke-miterlimit:10" />
			<path
   class="st1"
   d="m 1882.68,-50.59 c 27.18,-46.98 77.97,-78.59 136.15,-78.59 13.38,23.12 21.03,49.96 21.03,78.59 0,28.63 -7.66,55.47 -21.03,78.59 -58.18,0 -108.97,-31.61 -136.15,-78.59 z"
   id="path346"
   inkscape:connector-curvature="0"
   style="fill:#ffffff;stroke:#1d1d1b;stroke-width:20;stroke-miterlimit:10" />
		</g>
		<g
   id="g358"
   style="fill:#ffffff">
			<path
   class="st1"
   d="m 1784.08,-216.75 c 0,0 0,0 0,0 -13.37,-23.12 -21.03,-49.96 -21.03,-78.59 0,-28.63 7.66,-55.47 21.03,-78.59 0,0 0,0 -0.01,0 -58.18,0 -108.98,31.61 -136.15,78.59 27.19,46.98 77.98,78.59 136.16,78.59 z"
   id="path350"
   inkscape:connector-curvature="0"
   style="fill:#ffffff;stroke:#1d1d1b;stroke-width:20;stroke-miterlimit:10" />
			<path
   class="st1"
   d="m 1784.09,-373.93 c 58.18,0 108.97,31.61 136.15,78.59 13.38,-23.12 21.03,-49.96 21.03,-78.59 0,-28.63 -7.66,-55.47 -21.03,-78.59 -58.18,-0.01 -108.98,31.6 -136.15,78.59 z"
   id="path352"
   inkscape:connector-curvature="0"
   style="fill:#ffffff;stroke:#1d1d1b;stroke-width:20;stroke-miterlimit:10" />
			<path
   class="st1"
   d="m 1920.23,-295.34 c -27.18,46.98 -77.97,78.59 -136.15,78.59 27.18,46.98 77.97,78.59 136.15,78.59 13.38,-23.12 21.03,-49.96 21.03,-78.59 0.01,-28.63 -7.65,-55.47 -21.03,-78.59 z"
   id="path354"
   inkscape:connector-curvature="0"
   style="fill:#ffffff;stroke:#1d1d1b;stroke-width:20;stroke-miterlimit:10" />
			<path
   class="st1"
   d="m 1920.23,-295.34 c -27.18,-46.98 -77.97,-78.59 -136.15,-78.59 -13.38,23.12 -21.03,49.96 -21.03,78.59 0,28.63 7.66,55.47 21.03,78.59 58.18,0 108.98,-31.61 136.15,-78.59 z"
   id="path356"
   inkscape:connector-curvature="0"
   style="fill:#ffffff;stroke:#1d1d1b;stroke-width:20;stroke-miterlimit:10" />
		</g>
		<g
   id="g368"
   style="fill:#ffffff">
			<path
   class="st1"
   d="m 2018.83,-461.49 c 0,0 0,0 0,0 13.37,-23.12 21.03,-49.96 21.03,-78.59 0,-28.63 -7.66,-55.47 -21.03,-78.59 0,0 0,0 0.01,0 58.18,0 108.98,31.61 136.15,78.59 -27.18,46.97 -77.98,78.59 -136.16,78.59 z"
   id="path360"
   inkscape:connector-curvature="0"
   style="fill:#ffffff;stroke:#1d1d1b;stroke-width:20;stroke-miterlimit:10" />
			<path
   class="st1"
   d="m 2018.83,-618.68 c -58.18,0 -108.97,31.61 -136.15,78.59 -13.38,-23.12 -21.03,-49.96 -21.03,-78.59 0,-28.63 7.66,-55.47 21.03,-78.59 58.18,0 108.97,31.61 136.15,78.59 z"
   id="path362"
   inkscape:connector-curvature="0"
   style="fill:#ffffff;stroke:#1d1d1b;stroke-width:20;stroke-miterlimit:10" />
			<path
   class="st1"
   d="m 1882.68,-540.09 c 27.18,46.98 77.97,78.59 136.15,78.59 -27.18,46.98 -77.97,78.59 -136.15,78.59 -13.38,-23.12 -21.03,-49.96 -21.03,-78.59 -0.01,-28.63 7.65,-55.47 21.03,-78.59 z"
   id="path364"
   inkscape:connector-curvature="0"
   style="fill:#ffffff;stroke:#1d1d1b;stroke-width:20;stroke-miterlimit:10" />
			<path
   class="st1"
   d="m 1882.68,-540.09 c 27.18,-46.98 77.97,-78.59 136.15,-78.59 13.38,23.12 21.03,49.96 21.03,78.59 0,28.63 -7.66,55.47 -21.03,78.59 -58.18,0 -108.97,-31.61 -136.15,-78.59 z"
   id="path366"
   inkscape:connector-curvature="0"
   style="fill:#ffffff;stroke:#1d1d1b;stroke-width:20;stroke-miterlimit:10" />
		</g>
		<g
   id="g378"
   style="fill:#ffffff">
			<path
   class="st1"
   d="m 1784.08,-706.24 c 0,0 0,0 0,0 -13.37,-23.12 -21.03,-49.96 -21.03,-78.59 0,-28.63 7.66,-55.47 21.03,-78.59 0,0 0,0 -0.01,0 -58.18,0 -108.98,31.61 -136.15,78.59 27.19,46.98 77.98,78.59 136.16,78.59 z"
   id="path370"
   inkscape:connector-curvature="0"
   style="fill:#ffffff;stroke:#1d1d1b;stroke-width:20;stroke-miterlimit:10" />
			<path
   class="st1"
   d="m 1784.09,-863.43 c 58.18,0 108.97,31.61 136.15,78.59 13.38,-23.12 21.03,-49.96 21.03,-78.59 0,-28.63 -7.66,-55.47 -21.03,-78.59 -58.18,0 -108.98,31.61 -136.15,78.59 z"
   id="path372"
   inkscape:connector-curvature="0"
   style="fill:#ffffff;stroke:#1d1d1b;stroke-width:20;stroke-miterlimit:10" />
			<path
   class="st1"
   d="m 1920.23,-784.83 c -27.18,46.98 -77.97,78.59 -136.15,78.59 27.18,46.98 77.97,78.59 136.15,78.59 13.38,-23.12 21.03,-49.96 21.03,-78.59 0.01,-28.63 -7.65,-55.47 -21.03,-78.59 z"
   id="path374"
   inkscape:connector-curvature="0"
   style="fill:#ffffff;stroke:#1d1d1b;stroke-width:20;stroke-miterlimit:10" />
			<path
   class="st1"
   d="m 1920.23,-784.83 c -27.18,-46.98 -77.97,-78.59 -136.15,-78.59 -13.38,23.12 -21.03,49.96 -21.03,78.59 0,28.63 7.66,55.47 21.03,78.59 58.18,0 108.98,-31.61 136.15,-78.59 z"
   id="path376"
   inkscape:connector-curvature="0"
   style="fill:#ffffff;stroke:#1d1d1b;stroke-width:20;stroke-miterlimit:10" />
		</g>
	</g>
	<g
   id="g472"
   style="fill:#ffffff">
		<g
   id="g390"
   style="fill:#ffffff">
			<path
   class="st1"
   d="m 2662.04,1094.55 c 0,0 0,0 0,0 -13.37,23.12 -21.03,49.96 -21.03,78.59 0,28.63 7.66,55.47 21.03,78.59 0,0 0,0 -0.01,0 -58.18,0 -108.98,-31.61 -136.15,-78.59 27.18,-46.98 77.98,-78.59 136.16,-78.59 z"
   id="path382"
   inkscape:connector-curvature="0"
   style="fill:#ffffff;stroke:#1d1d1b;stroke-width:20;stroke-miterlimit:10" />
			<path
   class="st1"
   d="m 2662.04,1251.73 c 58.18,0 108.97,-31.61 136.15,-78.59 13.38,23.12 21.03,49.96 21.03,78.59 0,28.63 -7.66,55.47 -21.03,78.59 -58.18,0.01 -108.97,-31.6 -136.15,-78.59 z"
   id="path384"
   inkscape:connector-curvature="0"
   style="fill:#ffffff;stroke:#1d1d1b;stroke-width:20;stroke-miterlimit:10" />
			<path
   class="st1"
   d="m 2798.19,1173.14 c -27.18,-46.98 -77.97,-78.59 -136.15,-78.59 27.18,-46.98 77.97,-78.59 136.15,-78.59 13.38,23.12 21.03,49.96 21.03,78.59 0.01,28.63 -7.65,55.47 -21.03,78.59 z"
   id="path386"
   inkscape:connector-curvature="0"
   style="fill:#ffffff;stroke:#1d1d1b;stroke-width:20;stroke-miterlimit:10" />
			<path
   class="st1"
   d="m 2798.19,1173.14 c -27.18,46.98 -77.97,78.59 -136.15,78.59 -13.38,-23.12 -21.03,-49.96 -21.03,-78.59 0,-28.63 7.66,-55.47 21.03,-78.59 58.18,0 108.98,31.61 136.15,78.59 z"
   id="path388"
   inkscape:connector-curvature="0"
   style="fill:#ffffff;stroke:#1d1d1b;stroke-width:20;stroke-miterlimit:10" />
		</g>
		<g
   id="g400"
   style="fill:#ffffff">
			<path
   class="st1"
   d="m 2896.79,1006.99 c 0,0 0,0 0,0 13.37,-23.12 21.03,-49.96 21.03,-78.59 0,-28.63 -7.66,-55.47 -21.03,-78.59 0,0 0,0 0.01,0 58.18,0 108.98,31.61 136.15,78.59 -27.18,46.98 -77.98,78.59 -136.16,78.59 z"
   id="path392"
   inkscape:connector-curvature="0"
   style="fill:#ffffff;stroke:#1d1d1b;stroke-width:20;stroke-miterlimit:10" />
			<path
   class="st1"
   d="m 2896.78,849.8 c -58.18,0 -108.97,31.61 -136.15,78.59 -13.38,-23.12 -21.03,-49.96 -21.03,-78.59 0,-28.63 7.66,-55.47 21.03,-78.59 58.18,0 108.98,31.61 136.15,78.59 z"
   id="path394"
   inkscape:connector-curvature="0"
   style="fill:#ffffff;stroke:#1d1d1b;stroke-width:20;stroke-miterlimit:10" />
			<path
   class="st1"
   d="m 2760.64,928.39 c 27.18,46.98 77.97,78.59 136.15,78.59 -27.18,46.98 -77.97,78.59 -136.15,78.59 -13.38,-23.12 -21.03,-49.96 -21.03,-78.59 -0.01,-28.62 7.65,-55.47 21.03,-78.59 z"
   id="path396"
   inkscape:connector-curvature="0"
   style="fill:#ffffff;stroke:#1d1d1b;stroke-width:20;stroke-miterlimit:10" />
			<path
   class="st1"
   d="m 2760.64,928.39 c 27.18,-46.98 77.97,-78.59 136.15,-78.59 13.38,23.12 21.03,49.96 21.03,78.59 0,28.63 -7.66,55.47 -21.03,78.59 -58.18,0.01 -108.98,-31.61 -136.15,-78.59 z"
   id="path398"
   inkscape:connector-curvature="0"
   style="fill:#ffffff;stroke:#1d1d1b;stroke-width:20;stroke-miterlimit:10" />
		</g>
		<g
   id="g410"
   style="fill:#ffffff">
			<path
   class="st1"
   d="m 2662.04,762.24 c 0,0 0,0 0,0 -13.37,-23.12 -21.03,-49.96 -21.03,-78.59 0,-28.63 7.66,-55.47 21.03,-78.59 0,0 0,0 -0.01,0 -58.18,0 -108.98,31.61 -136.15,78.59 27.18,46.98 77.98,78.59 136.16,78.59 z"
   id="path402"
   inkscape:connector-curvature="0"
   style="fill:#ffffff;stroke:#1d1d1b;stroke-width:20;stroke-miterlimit:10" />
			<path
   class="st1"
   d="m 2662.04,605.05 c 58.18,0 108.97,31.61 136.15,78.59 13.38,-23.12 21.03,-49.96 21.03,-78.59 0,-28.63 -7.66,-55.47 -21.03,-78.59 -58.18,0 -108.97,31.61 -136.15,78.59 z"
   id="path404"
   inkscape:connector-curvature="0"
   style="fill:#ffffff;stroke:#1d1d1b;stroke-width:20;stroke-miterlimit:10" />
			<path
   class="st1"
   d="m 2798.19,683.65 c -27.18,46.98 -77.97,78.59 -136.15,78.59 27.18,46.98 77.97,78.59 136.15,78.59 13.38,-23.12 21.03,-49.96 21.03,-78.59 0.01,-28.63 -7.65,-55.47 -21.03,-78.59 z"
   id="path406"
   inkscape:connector-curvature="0"
   style="fill:#ffffff;stroke:#1d1d1b;stroke-width:20;stroke-miterlimit:10" />
			<path
   class="st1"
   d="m 2798.19,683.65 c -27.18,-46.98 -77.97,-78.59 -136.15,-78.59 -13.38,23.12 -21.03,49.96 -21.03,78.59 0,28.63 7.66,55.47 21.03,78.59 58.18,0 108.98,-31.61 136.15,-78.59 z"
   id="path408"
   inkscape:connector-curvature="0"
   style="fill:#ffffff;stroke:#1d1d1b;stroke-width:20;stroke-miterlimit:10" />
		</g>
		<g
   id="g420"
   style="fill:#ffffff">
			<path
   class="st1"
   d="m 2896.79,517.49 c 0,0 0,0 0,0 13.37,-23.12 21.03,-49.96 21.03,-78.59 0,-28.63 -7.66,-55.47 -21.03,-78.59 0,0 0,0 0.01,0 58.18,0 108.98,31.61 136.15,78.59 -27.18,46.98 -77.98,78.59 -136.16,78.59 z"
   id="path412"
   inkscape:connector-curvature="0"
   style="fill:#ffffff;stroke:#1d1d1b;stroke-width:20;stroke-miterlimit:10" />
			<path
   class="st1"
   d="m 2896.78,360.31 c -58.18,0 -108.97,31.61 -136.15,78.59 -13.38,-23.12 -21.03,-49.96 -21.03,-78.59 0,-28.63 7.66,-55.47 21.03,-78.59 58.18,-0.01 108.98,31.61 136.15,78.59 z"
   id="path414"
   inkscape:connector-curvature="0"
   style="fill:#ffffff;stroke:#1d1d1b;stroke-width:20;stroke-miterlimit:10" />
			<path
   class="st1"
   d="m 2760.64,438.9 c 27.18,46.98 77.97,78.59 136.15,78.59 -27.18,46.98 -77.97,78.59 -136.15,78.59 -13.38,-23.12 -21.03,-49.96 -21.03,-78.59 -0.01,-28.63 7.65,-55.47 21.03,-78.59 z"
   id="path416"
   inkscape:connector-curvature="0"
   style="fill:#ffffff;stroke:#1d1d1b;stroke-width:20;stroke-miterlimit:10" />
			<path
   class="st1"
   d="m 2760.64,438.9 c 27.18,-46.98 77.97,-78.59 136.15,-78.59 13.38,23.12 21.03,49.96 21.03,78.59 0,28.63 -7.66,55.47 -21.03,78.59 -58.18,0 -108.98,-31.61 -136.15,-78.59 z"
   id="path418"
   inkscape:connector-curvature="0"
   style="fill:#ffffff;stroke:#1d1d1b;stroke-width:20;stroke-miterlimit:10" />
		</g>
		<g
   id="g430"
   style="fill:#ffffff">
			<path
   class="st1"
   d="m 2662.04,272.75 c 0,0 0,0 0,0 -13.37,-23.12 -21.03,-49.96 -21.03,-78.59 0,-28.63 7.66,-55.47 21.03,-78.59 0,0 0,0 -0.01,0 -58.18,0 -108.98,31.61 -136.15,78.59 27.18,46.98 77.98,78.59 136.16,78.59 z"
   id="path422"
   inkscape:connector-curvature="0"
   style="fill:#ffffff;stroke:#1d1d1b;stroke-width:20;stroke-miterlimit:10" />
			<path
   class="st1"
   d="m 2662.04,115.56 c 58.18,0 108.97,31.61 136.15,78.59 13.38,-23.12 21.03,-49.96 21.03,-78.59 0,-28.63 -7.66,-55.47 -21.03,-78.59 -58.18,0 -108.97,31.61 -136.15,78.59 z"
   id="path424"
   inkscape:connector-curvature="0"
   style="fill:#ffffff;stroke:#1d1d1b;stroke-width:20;stroke-miterlimit:10" />
			<path
   class="st1"
   d="m 2798.19,194.15 c -27.18,46.98 -77.97,78.59 -136.15,78.59 27.18,46.98 77.97,78.59 136.15,78.59 13.38,-23.12 21.03,-49.96 21.03,-78.59 0.01,-28.62 -7.65,-55.47 -21.03,-78.59 z"
   id="path426"
   inkscape:connector-curvature="0"
   style="fill:#ffffff;stroke:#1d1d1b;stroke-width:20;stroke-miterlimit:10" />
			<path
   class="st1"
   d="m 2798.19,194.15 c -27.18,-46.98 -77.97,-78.59 -136.15,-78.59 -13.38,23.12 -21.03,49.96 -21.03,78.59 0,28.63 7.66,55.47 21.03,78.59 58.18,0.01 108.98,-31.61 136.15,-78.59 z"
   id="path428"
   inkscape:connector-curvature="0"
   style="fill:#ffffff;stroke:#1d1d1b;stroke-width:20;stroke-miterlimit:10" />
		</g>
		<g
   id="g440"
   style="fill:#ffffff">
			<path
   class="st1"
   d="m 2896.79,28 c 0,0 0,0 0,0 13.37,-23.12 21.03,-49.96 21.03,-78.59 0,-28.63 -7.66,-55.47 -21.03,-78.59 0,0 0,0 0.01,0 58.18,0 108.98,31.61 136.15,78.59 C 3005.77,-3.61 2954.97,28 2896.79,28 Z"
   id="path432"
   inkscape:connector-curvature="0"
   style="fill:#ffffff;stroke:#1d1d1b;stroke-width:20;stroke-miterlimit:10" />
			<path
   class="st1"
   d="m 2896.78,-129.19 c -58.18,0 -108.97,31.61 -136.15,78.59 -13.38,-23.12 -21.03,-49.96 -21.03,-78.59 0,-28.63 7.66,-55.47 21.03,-78.59 58.18,0 108.98,31.61 136.15,78.59 z"
   id="path434"
   inkscape:connector-curvature="0"
   style="fill:#ffffff;stroke:#1d1d1b;stroke-width:20;stroke-miterlimit:10" />
			<path
   class="st1"
   d="M 2760.64,-50.59 C 2787.81,-3.61 2838.61,28 2896.78,28 2869.6,74.98 2818.81,106.59 2760.63,106.59 2747.25,83.47 2739.6,56.63 2739.6,28 c 0,-28.63 7.66,-55.47 21.04,-78.59 z"
   id="path436"
   inkscape:connector-curvature="0"
   style="fill:#ffffff;stroke:#1d1d1b;stroke-width:20;stroke-miterlimit:10" />
			<path
   class="st1"
   d="m 2760.64,-50.59 c 27.18,-46.98 77.97,-78.59 136.15,-78.59 13.38,23.12 21.03,49.96 21.03,78.59 0,28.63 -7.66,55.47 -21.03,78.59 -58.18,0 -108.98,-31.61 -136.15,-78.59 z"
   id="path438"
   inkscape:connector-curvature="0"
   style="fill:#ffffff;stroke:#1d1d1b;stroke-width:20;stroke-miterlimit:10" />
		</g>
		<g
   id="g450"
   style="fill:#ffffff">
			<path
   class="st1"
   d="m 2662.04,-216.75 c 0,0 0,0 0,0 -13.37,-23.12 -21.03,-49.96 -21.03,-78.59 0,-28.63 7.66,-55.47 21.03,-78.59 0,0 0,0 -0.01,0 -58.18,0 -108.98,31.61 -136.15,78.59 27.18,46.98 77.98,78.59 136.16,78.59 z"
   id="path442"
   inkscape:connector-curvature="0"
   style="fill:#ffffff;stroke:#1d1d1b;stroke-width:20;stroke-miterlimit:10" />
			<path
   class="st1"
   d="m 2662.04,-373.93 c 58.18,0 108.97,31.61 136.15,78.59 13.38,-23.12 21.03,-49.96 21.03,-78.59 0,-28.63 -7.66,-55.47 -21.03,-78.59 -58.18,-0.01 -108.97,31.6 -136.15,78.59 z"
   id="path444"
   inkscape:connector-curvature="0"
   style="fill:#ffffff;stroke:#1d1d1b;stroke-width:20;stroke-miterlimit:10" />
			<path
   class="st1"
   d="m 2798.19,-295.34 c -27.18,46.98 -77.97,78.59 -136.15,78.59 27.18,46.98 77.97,78.59 136.15,78.59 13.38,-23.12 21.03,-49.96 21.03,-78.59 0.01,-28.63 -7.65,-55.47 -21.03,-78.59 z"
   id="path446"
   inkscape:connector-curvature="0"
   style="fill:#ffffff;stroke:#1d1d1b;stroke-width:20;stroke-miterlimit:10" />
			<path
   class="st1"
   d="m 2798.19,-295.34 c -27.18,-46.98 -77.97,-78.59 -136.15,-78.59 -13.38,23.12 -21.03,49.96 -21.03,78.59 0,28.63 7.66,55.47 21.03,78.59 58.18,0 108.98,-31.61 136.15,-78.59 z"
   id="path448"
   inkscape:connector-curvature="0"
   style="fill:#ffffff;stroke:#1d1d1b;stroke-width:20;stroke-miterlimit:10" />
		</g>
		<g
   id="g460"
   style="fill:#ffffff">
			<path
   class="st1"
   d="m 2896.79,-461.49 c 0,0 0,0 0,0 13.37,-23.12 21.03,-49.96 21.03,-78.59 0,-28.63 -7.66,-55.47 -21.03,-78.59 0,0 0,0 0.01,0 58.18,0 108.98,31.61 136.15,78.59 -27.18,46.98 -77.98,78.59 -136.16,78.59 z"
   id="path452"
   inkscape:connector-curvature="0"
   style="fill:#ffffff;stroke:#1d1d1b;stroke-width:20;stroke-miterlimit:10" />
			<path
   class="st1"
   d="m 2896.78,-618.68 c -58.18,0 -108.97,31.61 -136.15,78.59 -13.38,-23.12 -21.03,-49.96 -21.03,-78.59 0,-28.63 7.66,-55.47 21.03,-78.59 58.18,0 108.98,31.61 136.15,78.59 z"
   id="path454"
   inkscape:connector-curvature="0"
   style="fill:#ffffff;stroke:#1d1d1b;stroke-width:20;stroke-miterlimit:10" />
			<path
   class="st1"
   d="m 2760.64,-540.09 c 27.18,46.98 77.97,78.59 136.15,78.59 -27.18,46.98 -77.97,78.59 -136.15,78.59 -13.38,-23.12 -21.03,-49.96 -21.03,-78.59 -0.01,-28.63 7.65,-55.47 21.03,-78.59 z"
   id="path456"
   inkscape:connector-curvature="0"
   style="fill:#ffffff;stroke:#1d1d1b;stroke-width:20;stroke-miterlimit:10" />
			<path
   class="st1"
   d="m 2760.64,-540.09 c 27.18,-46.98 77.97,-78.59 136.15,-78.59 13.38,23.12 21.03,49.96 21.03,78.59 0,28.63 -7.66,55.47 -21.03,78.59 -58.18,0 -108.98,-31.61 -136.15,-78.59 z"
   id="path458"
   inkscape:connector-curvature="0"
   style="fill:#ffffff;stroke:#1d1d1b;stroke-width:20;stroke-miterlimit:10" />
		</g>
		<g
   id="g470"
   style="fill:#ffffff">
			<path
   class="st1"
   d="m 2662.04,-706.24 c 0,0 0,0 0,0 -13.37,-23.12 -21.03,-49.96 -21.03,-78.59 0,-28.63 7.66,-55.47 21.03,-78.59 0,0 0,0 -0.01,0 -58.18,0 -108.98,31.61 -136.15,78.59 27.18,46.98 77.98,78.59 136.16,78.59 z"
   id="path462"
   inkscape:connector-curvature="0"
   style="fill:#ffffff;stroke:#1d1d1b;stroke-width:20;stroke-miterlimit:10" />
			<path
   class="st1"
   d="m 2662.04,-863.43 c 58.18,0 108.97,31.61 136.15,78.59 13.38,-23.12 21.03,-49.96 21.03,-78.59 0,-28.63 -7.66,-55.47 -21.03,-78.59 -58.18,0 -108.97,31.61 -136.15,78.59 z"
   id="path464"
   inkscape:connector-curvature="0"
   style="fill:#ffffff;stroke:#1d1d1b;stroke-width:20;stroke-miterlimit:10" />
			<path
   class="st1"
   d="m 2798.19,-784.83 c -27.18,46.98 -77.97,78.59 -136.15,78.59 27.18,46.98 77.97,78.59 136.15,78.59 13.38,-23.12 21.03,-49.96 21.03,-78.59 0.01,-28.63 -7.65,-55.47 -21.03,-78.59 z"
   id="path466"
   inkscape:connector-curvature="0"
   style="fill:#ffffff;stroke:#1d1d1b;stroke-width:20;stroke-miterlimit:10" />
			<path
   class="st1"
   d="m 2798.19,-784.83 c -27.18,-46.98 -77.97,-78.59 -136.15,-78.59 -13.38,23.12 -21.03,49.96 -21.03,78.59 0,28.63 7.66,55.47 21.03,78.59 58.18,0 108.98,-31.61 136.15,-78.59 z"
   id="path468"
   inkscape:connector-curvature="0"
   style="fill:#ffffff;stroke:#1d1d1b;stroke-width:20;stroke-miterlimit:10" />
		</g>
	</g>
	<g
   id="g564"
   style="fill:#ffffff">
		<g
   id="g482"
   style="fill:#ffffff">
			<path
   class="st1"
   d="m 3540,1094.55 c 0,0 0,0 0,0 -13.37,23.12 -21.03,49.96 -21.03,78.59 0,28.63 7.66,55.47 21.03,78.59 0,0 0,0 -0.01,0 -58.18,0 -108.98,-31.61 -136.15,-78.59 27.18,-46.98 77.98,-78.59 136.16,-78.59 z"
   id="path474"
   inkscape:connector-curvature="0"
   style="fill:#ffffff;stroke:#1d1d1b;stroke-width:20;stroke-miterlimit:10" />
			<path
   class="st1"
   d="m 3540,1251.74 c 58.18,0 108.97,-31.61 136.15,-78.59 13.38,23.12 21.03,49.96 21.03,78.59 0,28.63 -7.66,55.47 -21.03,78.59 -58.18,0 -108.97,-31.61 -136.15,-78.59 z"
   id="path476"
   inkscape:connector-curvature="0"
   style="fill:#ffffff;stroke:#1d1d1b;stroke-width:20;stroke-miterlimit:10" />
			<path
   class="st1"
   d="m 3676.15,1173.14 c -27.18,-46.98 -77.97,-78.59 -136.15,-78.59 27.18,-46.98 77.97,-78.59 136.15,-78.59 13.38,23.12 21.03,49.96 21.03,78.59 0.01,28.63 -7.65,55.47 -21.03,78.59 z"
   id="path478"
   inkscape:connector-curvature="0"
   style="fill:#ffffff;stroke:#1d1d1b;stroke-width:20;stroke-miterlimit:10" />
			<path
   class="st1"
   d="m 3676.15,1173.14 c -27.18,46.98 -77.97,78.59 -136.15,78.59 -13.38,-23.12 -21.03,-49.96 -21.03,-78.59 0,-28.63 7.66,-55.47 21.03,-78.59 58.18,0 108.97,31.61 136.15,78.59 z"
   id="path480"
   inkscape:connector-curvature="0"
   style="fill:#ffffff;stroke:#1d1d1b;stroke-width:20;stroke-miterlimit:10" />
		</g>
		<g
   id="g492"
   style="fill:#ffffff">
			<path
   class="st1"
   d="m 3774.75,1006.99 c 0,0 -0.01,0 0,0 13.37,-23.12 21.03,-49.96 21.03,-78.59 0,-28.63 -7.66,-55.47 -21.03,-78.59 0,0 0,0 0.01,0 58.18,0 108.98,31.61 136.15,78.59 -27.19,46.98 -77.98,78.59 -136.16,78.59 z"
   id="path484"
   inkscape:connector-curvature="0"
   style="fill:#ffffff;stroke:#1d1d1b;stroke-width:20;stroke-miterlimit:10" />
			<path
   class="st1"
   d="m 3774.74,849.8 c -58.18,0 -108.97,31.61 -136.15,78.59 -13.38,-23.12 -21.03,-49.96 -21.03,-78.59 0,-28.63 7.66,-55.47 21.03,-78.59 58.18,0 108.97,31.61 136.15,78.59 z"
   id="path486"
   inkscape:connector-curvature="0"
   style="fill:#ffffff;stroke:#1d1d1b;stroke-width:20;stroke-miterlimit:10" />
			<path
   class="st1"
   d="m 3638.59,928.39 c 27.18,46.98 77.97,78.59 136.15,78.59 -27.18,46.98 -77.97,78.59 -136.15,78.59 -13.38,-23.12 -21.03,-49.96 -21.03,-78.59 0,-28.62 7.66,-55.47 21.03,-78.59 z"
   id="path488"
   inkscape:connector-curvature="0"
   style="fill:#ffffff;stroke:#1d1d1b;stroke-width:20;stroke-miterlimit:10" />
			<path
   class="st1"
   d="m 3638.59,928.39 c 27.18,-46.98 77.97,-78.59 136.15,-78.59 13.38,23.12 21.03,49.96 21.03,78.59 0,28.63 -7.66,55.47 -21.03,78.59 -58.18,0.01 -108.97,-31.6 -136.15,-78.59 z"
   id="path490"
   inkscape:connector-curvature="0"
   style="fill:#ffffff;stroke:#1d1d1b;stroke-width:20;stroke-miterlimit:10" />
		</g>
		<g
   id="g502"
   style="fill:#ffffff">
			<path
   class="st1"
   d="m 3540,762.24 c 0,0 0,0 0,0 -13.37,-23.12 -21.03,-49.96 -21.03,-78.59 0,-28.63 7.66,-55.47 21.03,-78.59 0,0 0,0 -0.01,0 -58.18,0 -108.98,31.61 -136.15,78.59 27.18,46.98 77.98,78.59 136.16,78.59 z"
   id="path494"
   inkscape:connector-curvature="0"
   style="fill:#ffffff;stroke:#1d1d1b;stroke-width:20;stroke-miterlimit:10" />
			<path
   class="st1"
   d="m 3540,605.05 c 58.18,0 108.97,31.61 136.15,78.59 13.38,-23.12 21.03,-49.96 21.03,-78.59 0,-28.63 -7.66,-55.47 -21.03,-78.59 -58.18,0 -108.97,31.61 -136.15,78.59 z"
   id="path496"
   inkscape:connector-curvature="0"
   style="fill:#ffffff;stroke:#1d1d1b;stroke-width:20;stroke-miterlimit:10" />
			<path
   class="st1"
   d="m 3676.15,683.65 c -27.18,46.98 -77.97,78.59 -136.15,78.59 27.18,46.98 77.97,78.59 136.15,78.59 13.38,-23.12 21.03,-49.96 21.03,-78.59 0.01,-28.63 -7.65,-55.47 -21.03,-78.59 z"
   id="path498"
   inkscape:connector-curvature="0"
   style="fill:#ffffff;stroke:#1d1d1b;stroke-width:20;stroke-miterlimit:10" />
			<path
   class="st1"
   d="m 3676.15,683.65 c -27.18,-46.98 -77.97,-78.59 -136.15,-78.59 -13.38,23.12 -21.03,49.96 -21.03,78.59 0,28.63 7.66,55.47 21.03,78.59 58.18,0 108.97,-31.61 136.15,-78.59 z"
   id="path500"
   inkscape:connector-curvature="0"
   style="fill:#ffffff;stroke:#1d1d1b;stroke-width:20;stroke-miterlimit:10" />
		</g>
		<g
   id="g512"
   style="fill:#ffffff">
			<path
   class="st1"
   d="m 3774.75,517.49 c 0,0 -0.01,0 0,0 13.37,-23.12 21.03,-49.96 21.03,-78.59 0,-28.63 -7.66,-55.47 -21.03,-78.59 0,0 0,0 0.01,0 58.18,0 108.98,31.61 136.15,78.59 -27.19,46.98 -77.98,78.59 -136.16,78.59 z"
   id="path504"
   inkscape:connector-curvature="0"
   style="fill:#ffffff;stroke:#1d1d1b;stroke-width:20;stroke-miterlimit:10" />
			<path
   class="st1"
   d="m 3774.74,360.31 c -58.18,0 -108.97,31.61 -136.15,78.59 -13.38,-23.12 -21.03,-49.96 -21.03,-78.59 0,-28.63 7.66,-55.47 21.03,-78.59 58.18,-0.01 108.97,31.61 136.15,78.59 z"
   id="path506"
   inkscape:connector-curvature="0"
   style="fill:#ffffff;stroke:#1d1d1b;stroke-width:20;stroke-miterlimit:10" />
			<path
   class="st1"
   d="m 3638.59,438.9 c 27.18,46.98 77.97,78.59 136.15,78.59 -27.18,46.98 -77.97,78.59 -136.15,78.59 -13.38,-23.12 -21.03,-49.96 -21.03,-78.59 0,-28.63 7.66,-55.47 21.03,-78.59 z"
   id="path508"
   inkscape:connector-curvature="0"
   style="fill:#ffffff;stroke:#1d1d1b;stroke-width:20;stroke-miterlimit:10" />
			<path
   class="st1"
   d="m 3638.59,438.9 c 27.18,-46.98 77.97,-78.59 136.15,-78.59 13.38,23.12 21.03,49.96 21.03,78.59 0,28.63 -7.66,55.47 -21.03,78.59 -58.18,0 -108.97,-31.61 -136.15,-78.59 z"
   id="path510"
   inkscape:connector-curvature="0"
   style="fill:#ffffff;stroke:#1d1d1b;stroke-width:20;stroke-miterlimit:10" />
		</g>
		<g
   id="g522"
   style="fill:#ffffff">
			<path
   class="st1"
   d="m 3540,272.75 c 0,0 0,0 0,0 -13.37,-23.12 -21.03,-49.96 -21.03,-78.59 0,-28.63 7.66,-55.47 21.03,-78.59 0,0 0,0 -0.01,0 -58.18,0 -108.98,31.61 -136.15,78.59 27.18,46.98 77.98,78.59 136.16,78.59 z"
   id="path514"
   inkscape:connector-curvature="0"
   style="fill:#ffffff;stroke:#1d1d1b;stroke-width:20;stroke-miterlimit:10" />
			<path
   class="st1"
   d="m 3540,115.56 c 58.18,0 108.97,31.61 136.15,78.59 13.38,-23.12 21.03,-49.96 21.03,-78.59 0,-28.63 -7.66,-55.47 -21.03,-78.59 -58.18,0 -108.97,31.61 -136.15,78.59 z"
   id="path516"
   inkscape:connector-curvature="0"
   style="fill:#ffffff;stroke:#1d1d1b;stroke-width:20;stroke-miterlimit:10" />
			<path
   class="st1"
   d="m 3676.15,194.15 c -27.18,46.98 -77.97,78.59 -136.15,78.59 27.18,46.98 77.97,78.59 136.15,78.59 13.38,-23.12 21.03,-49.96 21.03,-78.59 0.01,-28.62 -7.65,-55.47 -21.03,-78.59 z"
   id="path518"
   inkscape:connector-curvature="0"
   style="fill:#ffffff;stroke:#1d1d1b;stroke-width:20;stroke-miterlimit:10" />
			<path
   class="st1"
   d="m 3676.15,194.15 c -27.18,-46.98 -77.97,-78.59 -136.15,-78.59 -13.38,23.12 -21.03,49.96 -21.03,78.59 0,28.63 7.66,55.47 21.03,78.59 58.18,0.01 108.97,-31.61 136.15,-78.59 z"
   id="path520"
   inkscape:connector-curvature="0"
   style="fill:#ffffff;stroke:#1d1d1b;stroke-width:20;stroke-miterlimit:10" />
		</g>
		<g
   id="g532"
   style="fill:#ffffff">
			<path
   class="st1"
   d="m 3774.75,28 c 0,0 -0.01,0 0,0 13.37,-23.12 21.03,-49.96 21.03,-78.59 0,-28.63 -7.66,-55.47 -21.03,-78.59 0,0 0,0 0.01,0 58.18,0 108.98,31.61 136.15,78.59 C 3883.72,-3.61 3832.93,28 3774.75,28 Z"
   id="path524"
   inkscape:connector-curvature="0"
   style="fill:#ffffff;stroke:#1d1d1b;stroke-width:20;stroke-miterlimit:10" />
			<path
   class="st1"
   d="m 3774.74,-129.19 c -58.18,0 -108.97,31.61 -136.15,78.59 -13.38,-23.12 -21.03,-49.96 -21.03,-78.59 0,-28.63 7.66,-55.47 21.03,-78.59 58.18,0 108.97,31.61 136.15,78.59 z"
   id="path526"
   inkscape:connector-curvature="0"
   style="fill:#ffffff;stroke:#1d1d1b;stroke-width:20;stroke-miterlimit:10" />
			<path
   class="st1"
   d="m 3638.59,-50.59 c 27.18,46.98 77.97,78.59 136.15,78.59 -27.18,46.98 -77.97,78.59 -136.15,78.59 -13.38,-23.12 -21.03,-49.96 -21.03,-78.59 0,-28.63 7.66,-55.47 21.03,-78.59 z"
   id="path528"
   inkscape:connector-curvature="0"
   style="fill:#ffffff;stroke:#1d1d1b;stroke-width:20;stroke-miterlimit:10" />
			<path
   class="st1"
   d="m 3638.59,-50.59 c 27.18,-46.98 77.97,-78.59 136.15,-78.59 13.38,23.12 21.03,49.96 21.03,78.59 0,28.63 -7.66,55.47 -21.03,78.59 -58.18,0 -108.97,-31.61 -136.15,-78.59 z"
   id="path530"
   inkscape:connector-curvature="0"
   style="fill:#ffffff;stroke:#1d1d1b;stroke-width:20;stroke-miterlimit:10" />
		</g>
		<g
   id="g542"
   style="fill:#ffffff">
			<path
   class="st1"
   d="m 3540,-216.75 c 0,0 0,0 0,0 -13.37,-23.12 -21.03,-49.96 -21.03,-78.59 0,-28.63 7.66,-55.47 21.03,-78.59 0,0 0,0 -0.01,0 -58.18,0 -108.98,31.61 -136.15,78.59 27.18,46.98 77.98,78.59 136.16,78.59 z"
   id="path534"
   inkscape:connector-curvature="0"
   style="fill:#ffffff;stroke:#1d1d1b;stroke-width:20;stroke-miterlimit:10" />
			<path
   class="st1"
   d="m 3540,-373.93 c 58.18,0 108.97,31.61 136.15,78.59 13.38,-23.12 21.03,-49.96 21.03,-78.59 0,-28.63 -7.66,-55.47 -21.03,-78.59 -58.18,-0.01 -108.97,31.6 -136.15,78.59 z"
   id="path536"
   inkscape:connector-curvature="0"
   style="fill:#ffffff;stroke:#1d1d1b;stroke-width:20;stroke-miterlimit:10" />
			<path
   class="st1"
   d="m 3676.15,-295.34 c -27.18,46.98 -77.97,78.59 -136.15,78.59 27.18,46.98 77.97,78.59 136.15,78.59 13.38,-23.12 21.03,-49.96 21.03,-78.59 0.01,-28.63 -7.65,-55.47 -21.03,-78.59 z"
   id="path538"
   inkscape:connector-curvature="0"
   style="fill:#ffffff;stroke:#1d1d1b;stroke-width:20;stroke-miterlimit:10" />
			<path
   class="st1"
   d="m 3676.15,-295.34 c -27.18,-46.98 -77.97,-78.59 -136.15,-78.59 -13.38,23.12 -21.03,49.96 -21.03,78.59 0,28.63 7.66,55.47 21.03,78.59 58.18,0 108.97,-31.61 136.15,-78.59 z"
   id="path540"
   inkscape:connector-curvature="0"
   style="fill:#ffffff;stroke:#1d1d1b;stroke-width:20;stroke-miterlimit:10" />
		</g>
		<g
   id="g552"
   style="fill:#ffffff">
			<path
   class="st1"
   d="m 3774.75,-461.49 c 0,0 -0.01,0 0,0 13.37,-23.12 21.03,-49.96 21.03,-78.59 0,-28.63 -7.66,-55.47 -21.03,-78.59 0,0 0,0 0.01,0 58.18,0 108.98,31.61 136.15,78.59 -27.19,46.98 -77.98,78.59 -136.16,78.59 z"
   id="path544"
   inkscape:connector-curvature="0"
   style="fill:#ffffff;stroke:#1d1d1b;stroke-width:20;stroke-miterlimit:10" />
			<path
   class="st1"
   d="m 3774.74,-618.68 c -58.18,0 -108.97,31.61 -136.15,78.59 -13.38,-23.12 -21.03,-49.96 -21.03,-78.59 0,-28.63 7.66,-55.47 21.03,-78.59 58.18,0 108.97,31.61 136.15,78.59 z"
   id="path546"
   inkscape:connector-curvature="0"
   style="fill:#ffffff;stroke:#1d1d1b;stroke-width:20;stroke-miterlimit:10" />
			<path
   class="st1"
   d="m 3638.59,-540.09 c 27.18,46.98 77.97,78.59 136.15,78.59 -27.18,46.98 -77.97,78.59 -136.15,78.59 -13.38,-23.12 -21.03,-49.96 -21.03,-78.59 0,-28.62 7.66,-55.47 21.03,-78.59 z"
   id="path548"
   inkscape:connector-curvature="0"
   style="fill:#ffffff;stroke:#1d1d1b;stroke-width:20;stroke-miterlimit:10" />
			<path
   class="st1"
   d="m 3638.59,-540.09 c 27.18,-46.98 77.97,-78.59 136.15,-78.59 13.38,23.12 21.03,49.96 21.03,78.59 0,28.63 -7.66,55.47 -21.03,78.59 -58.18,0 -108.97,-31.61 -136.15,-78.59 z"
   id="path550"
   inkscape:connector-curvature="0"
   style="fill:#ffffff;stroke:#1d1d1b;stroke-width:20;stroke-miterlimit:10" />
		</g>
		<g
   id="g562"
   style="fill:#ffffff">
			<path
   class="st1"
   d="m 3540,-706.24 c 0,0 0,0 0,0 -13.37,-23.12 -21.03,-49.96 -21.03,-78.59 0,-28.63 7.66,-55.47 21.03,-78.59 0,0 0,0 -0.01,0 -58.18,0 -108.98,31.61 -136.15,78.59 27.18,46.98 77.98,78.59 136.16,78.59 z"
   id="path554"
   inkscape:connector-curvature="0"
   style="fill:#ffffff;stroke:#1d1d1b;stroke-width:20;stroke-miterlimit:10" />
			<path
   class="st1"
   d="m 3540,-863.43 c 58.18,0 108.97,31.61 136.15,78.59 13.38,-23.12 21.03,-49.96 21.03,-78.59 0,-28.63 -7.66,-55.47 -21.03,-78.59 -58.18,0 -108.97,31.61 -136.15,78.59 z"
   id="path556"
   inkscape:connector-curvature="0"
   style="fill:#ffffff;stroke:#1d1d1b;stroke-width:20;stroke-miterlimit:10" />
			<path
   class="st1"
   d="m 3676.15,-784.83 c -27.18,46.98 -77.97,78.59 -136.15,78.59 27.18,46.98 77.97,78.59 136.15,78.59 13.38,-23.12 21.03,-49.96 21.03,-78.59 0.01,-28.63 -7.65,-55.47 -21.03,-78.59 z"
   id="path558"
   inkscape:connector-curvature="0"
   style="fill:#ffffff;stroke:#1d1d1b;stroke-width:20;stroke-miterlimit:10" />
			<path
   class="st1"
   d="m 3676.15,-784.83 c -27.18,-46.98 -77.97,-78.59 -136.15,-78.59 -13.38,23.12 -21.03,49.96 -21.03,78.59 0,28.63 7.66,55.47 21.03,78.59 58.18,0 108.97,-31.61 136.15,-78.59 z"
   id="path560"
   inkscape:connector-curvature="0"
   style="fill:#ffffff;stroke:#1d1d1b;stroke-width:20;stroke-miterlimit:10" />
		</g>
	</g>
</g>
</svg>