<?xml version="1.0" standalone="no"?>
<!DOCTYPE svg PUBLIC "-//W3C//DTD SVG 20010904//EN"
 "http://www.w3.org/TR/2001/REC-SVG-20010904/DTD/svg10.dtd">
<svg version="1.0" xmlns="http://www.w3.org/2000/svg"
 width="1280.000000pt" height="640.000000pt" viewBox="0 0 1280.000000 640.000000"
 preserveAspectRatio="xMidYMid meet">
<g transform="translate(0.000000,640.000000) scale(0.100000,-0.100000)"
fill="#000000" stroke="none">
<path d="M12342 4978 c-16 -24 -52 -85 -81 -135 -29 -51 -59 -93 -66 -93 -8 0
-44 7 -82 16 -37 8 -86 14 -108 11 -104 -12 -187 -31 -265 -62 -109 -42 -337
-118 -449 -149 -114 -32 -229 -48 -321 -44 l-75 3 3 30 c7 85 3 143 -13 180
-15 35 -18 38 -25 20 -17 -41 -11 -92 12 -107 20 -13 21 -17 9 -32 -7 -9 -19
-16 -25 -16 -13 0 -39 -54 -40 -85 -1 -17 -8 -20 -56 -21 -94 -3 -100 -4 -100
-14 0 -5 15 -12 34 -15 23 -5 44 -19 66 -46 17 -21 34 -39 38 -39 4 0 6 18 4
39 -5 52 17 64 128 66 106 3 205 14 247 27 18 5 47 10 65 10 18 0 53 8 78 18
105 42 482 160 558 175 104 21 263 18 287 -6 14 -14 8 -36 -64 -237 -96 -263
-148 -449 -105 -369 8 16 30 83 49 150 36 133 109 330 154 417 16 30 41 84 55
119 36 84 75 141 96 141 12 0 21 -13 29 -44 22 -89 15 -114 -55 -180 -38 -37
-44 -48 -44 -82 1 -22 13 -62 28 -91 25 -49 28 -51 39 -33 8 12 9 21 3 25 -14
9 -12 115 3 145 15 31 50 37 83 15 l24 -16 -18 -37 c-55 -109 -56 -112 -23
-112 9 0 27 -9 41 -20 20 -15 23 -21 13 -31 -10 -10 -16 -10 -24 -2 -8 8 -20
8 -40 1 -16 -6 -38 -8 -49 -5 -11 3 -20 3 -20 0 0 -17 145 -145 187 -166 71
-34 82 -37 88 -27 3 5 -14 14 -37 21 -99 26 -157 129 -73 129 39 0 60 23 68
72 7 48 -10 59 -105 67 -18 2 -6 41 21 71 l29 34 47 -19 c55 -21 159 -119 181
-171 8 -18 14 -59 14 -90 0 -52 -3 -59 -36 -90 -22 -21 -30 -34 -20 -34 8 0
18 5 21 10 10 17 35 11 35 -8 0 -21 -26 -36 -88 -52 -35 -9 -53 -8 -93 5 -67
22 -78 19 -67 -24 7 -25 12 -31 21 -22 19 19 32 12 42 -21 9 -30 13 -33 47
-30 40 3 52 -6 38 -28 -6 -10 -25 -15 -58 -14 -44 2 -49 0 -45 -17 6 -21 33
-25 50 -8 12 12 33 4 33 -11 0 -5 -14 -23 -31 -41 -30 -31 -59 -33 -59 -4 0
35 -18 11 -29 -40 -7 -32 -18 -55 -26 -55 -7 0 -15 -8 -19 -17 -3 -10 -9 -23
-12 -30 -3 -7 6 -13 23 -15 25 -3 28 -7 30 -40 2 -44 -11 -56 -36 -34 -22 20
-31 20 -31 2 0 -8 18 -21 41 -30 40 -16 41 -18 35 -52 -4 -19 -16 -55 -26 -79
-15 -35 -25 -45 -42 -45 -44 0 -68 12 -74 36 -3 13 -12 24 -19 24 -7 0 -27 16
-44 36 -68 77 -81 107 -111 255 -33 162 -36 206 -15 299 8 36 14 76 14 90 -1
14 -5 5 -10 -20 -17 -88 -18 -92 -39 -85 -18 6 -20 2 -20 -32 0 -109 71 -374
127 -473 39 -70 104 -127 158 -141 26 -7 50 -20 56 -31 9 -17 11 -17 26 -3 13
14 18 14 37 2 27 -18 44 -73 28 -89 -9 -9 -19 -5 -39 14 -23 22 -30 24 -40 13
-17 -18 -57 -6 -130 39 -56 34 -113 47 -113 26 0 -10 48 -43 120 -81 50 -27
63 -54 30 -64 -29 -9 -57 -1 -112 34 -39 25 -55 45 -87 108 -21 43 -44 97 -51
121 -7 23 -15 40 -18 38 -6 -7 18 -108 30 -122 4 -7 7 -26 6 -44 -2 -21 3 -35
15 -41 9 -6 17 -16 17 -23 0 -8 7 -19 16 -27 9 -7 29 -32 45 -56 35 -50 32
-83 -6 -83 -38 0 -36 -13 6 -44 41 -32 43 -45 11 -93 -19 -30 -26 -29 -52 7
-23 32 -43 41 -33 14 4 -10 -1 -17 -15 -21 -18 -4 -19 -8 -10 -28 6 -13 21
-26 35 -30 19 -4 23 -10 17 -28 -4 -12 -14 -33 -23 -47 -22 -32 -71 -147 -71
-165 0 -22 -37 -36 -78 -30 -35 6 -36 5 -18 -9 11 -9 26 -16 34 -16 7 0 12 -5
10 -12 -7 -20 -78 -30 -128 -17 -39 9 -128 23 -209 33 -35 4 -48 44 -23 69 16
16 18 24 9 47 -8 22 -6 35 10 66 11 22 30 74 43 117 13 43 27 80 32 83 4 3 8
16 8 30 0 14 5 34 10 45 15 26 49 156 67 254 8 44 17 87 20 95 3 8 7 49 10 90
4 61 2 73 -8 63 -18 -18 -39 -16 -46 5 -3 9 -12 24 -19 33 -13 15 -10 39 11
93 7 15 5 17 -14 11 -23 -7 -32 6 -35 54 -2 47 -85 145 -113 134 -8 -3 -21 1
-31 10 -9 8 -27 18 -39 21 -16 5 -23 15 -23 31 0 31 -36 65 -68 65 l-25 0 28
-26 c23 -21 26 -31 22 -59 l-5 -33 54 -7 c51 -6 55 -9 61 -36 7 -37 17 -43 42
-27 28 17 38 2 16 -22 -24 -27 -7 -48 23 -29 27 17 40 4 23 -22 -14 -23 -14
-22 16 -38 39 -20 38 -120 -2 -223 -4 -11 -3 -18 4 -18 6 0 11 9 11 21 0 47
40 79 54 43 8 -21 -11 -103 -34 -139 -44 -71 -182 -175 -233 -175 -51 0 -98
35 -158 121 l-15 22 -17 -36 c-16 -33 -19 -35 -46 -26 -82 29 -119 121 -87
215 22 66 21 84 -6 81 -28 -3 -35 25 -12 48 9 9 25 14 35 12 11 -3 22 -1 25 4
3 5 14 9 25 9 11 0 19 7 19 17 0 13 -3 14 -12 5 -18 -18 -66 -15 -76 5 -7 11
-24 17 -53 18 -40 2 -144 28 -178 44 -14 7 -81 -49 -81 -69 0 -6 -11 -16 -25
-22 -14 -6 -25 -17 -25 -24 0 -8 -13 -20 -30 -29 -20 -10 -30 -23 -30 -38 0
-14 -40 -63 -115 -142 l-114 -120 -1 -60 c0 -40 -10 -83 -28 -130 -26 -67 -32
-112 -18 -145 7 -17 -100 -229 -136 -267 -48 -52 -160 -123 -194 -123 -18 0
-45 -5 -59 -12 -19 -9 -28 -9 -37 0 -17 17 10 43 82 77 33 16 58 30 56 32 -2
2 -27 -8 -57 -22 -64 -30 -76 -31 -102 -8 -10 10 -31 18 -46 18 -18 0 -25 5
-23 16 2 13 -9 15 -75 12 -63 -4 -85 -1 -113 15 -30 16 -35 25 -38 58 -2 22 4
56 12 76 15 35 102 150 134 175 12 10 13 15 2 28 -19 23 -8 159 14 184 34 37
70 45 149 32 57 -10 78 -18 103 -42 30 -29 31 -29 48 -11 13 16 15 25 6 47
-10 26 -12 27 -29 11 -26 -24 -33 -20 -29 17 3 32 3 32 -44 35 -74 5 -57 50
38 103 77 44 118 99 74 99 -24 0 -26 28 -5 69 16 33 153 161 171 161 6 0 17 6
23 14 15 18 63 27 79 14 8 -7 12 -7 12 0 0 6 3 18 6 27 5 13 2 15 -20 9 -16
-4 -32 -1 -42 7 -13 11 -17 10 -25 -4 -6 -9 -20 -17 -33 -17 -18 0 -25 -7 -29
-28 -4 -21 -15 -31 -44 -41 -78 -29 -101 -51 -117 -118 -9 -34 -16 -81 -16
-103 0 -35 -6 -46 -32 -68 -17 -15 -57 -50 -88 -78 -74 -67 -106 -88 -124 -81
-9 4 -17 -2 -21 -13 -3 -11 -24 -35 -46 -54 -24 -20 -36 -37 -30 -41 6 -3 11
-14 11 -23 0 -13 -9 -17 -35 -18 -23 0 -35 4 -35 13 0 7 6 13 14 13 8 0 18 5
22 11 4 8 -1 9 -15 4 -14 -4 -31 0 -48 10 -21 14 -24 23 -20 48 3 18 9 41 13
52 7 17 6 18 -8 7 -8 -7 -35 -23 -59 -35 -32 -17 -52 -37 -73 -76 -23 -42 -37
-56 -74 -72 -25 -11 -51 -18 -58 -15 -7 3 -13 -8 -16 -29 -3 -26 0 -35 14 -38
20 -6 58 -64 58 -89 0 -23 -36 -24 -48 -1 -6 9 -16 14 -25 10 -21 -8 -63 32
-72 68 -12 54 -39 72 -47 32 -4 -18 0 -23 16 -23 15 1 21 -5 21 -19 0 -11 12
-32 28 -47 15 -15 27 -34 27 -43 0 -11 6 -15 19 -10 22 7 51 -18 51 -43 -1
-25 -53 -72 -81 -73 -44 -2 -84 16 -87 39 -2 15 2 22 12 22 19 0 20 13 5 42
-9 16 -17 19 -45 13 -30 -5 -35 -3 -44 20 -9 23 -6 30 20 55 30 28 34 41 22
72 -5 13 -11 15 -22 8 -20 -13 -57 -13 -65 0 -12 19 5 48 35 60 34 14 50 7 50
-22 l0 -22 20 22 c12 12 27 22 35 22 9 0 15 10 15 25 0 28 3 29 30 15 15 -8
24 -6 40 10 27 27 37 70 16 70 -10 0 -16 9 -16 25 0 32 30 34 31 3 0 -21 22
30 43 102 l8 25 -17 -23 c-9 -12 -30 -29 -47 -38 -18 -9 -46 -32 -64 -50 -21
-23 -37 -32 -48 -28 -11 4 -16 1 -16 -10 0 -9 -8 -20 -17 -24 -10 -4 -18 -14
-18 -22 0 -8 -22 -26 -48 -39 -44 -22 -50 -22 -64 -8 -21 21 -11 68 30 137 37
61 68 75 87 40 11 -20 14 -16 36 46 23 68 26 94 4 54 -9 -17 -19 -20 -47 -18
-44 4 -64 29 -45 58 7 12 10 25 6 31 -3 5 0 16 6 24 11 13 6 15 -33 15 -42 0
-75 18 -60 33 3 4 24 7 46 7 33 0 37 2 28 14 -6 8 -11 18 -9 22 1 5 -1 19 -6
32 -10 30 -62 31 -71 2 -8 -24 -18 -25 -34 -6 -16 19 3 56 28 56 15 0 61 56
61 74 0 2 -17 6 -37 9 -21 3 -46 8 -56 12 -15 6 -17 4 -12 -17 7 -27 -16 -54
-37 -45 -7 3 -29 12 -48 20 l-35 15 -1 -31 c0 -18 -4 -39 -8 -48 -5 -12 2 -22
26 -37 32 -21 33 -21 40 -2 16 42 57 11 72 -54 7 -28 6 -28 -28 -22 -33 6 -36
5 -42 -21 -10 -49 -14 -55 -34 -60 -11 -3 -20 -9 -20 -14 0 -5 -7 -9 -15 -9
-15 0 -21 -42 -16 -116 1 -17 -5 -57 -14 -88 -20 -67 -46 -84 -101 -66 -26 9
-34 17 -34 35 0 12 7 28 15 35 22 18 9 30 -36 30 -48 0 -58 18 -36 65 19 40
60 69 86 62 15 -4 21 2 26 23 9 39 29 54 64 47 20 -4 33 -1 42 10 11 13 8 24
-18 72 -28 50 -30 60 -20 81 11 22 9 27 -23 57 l-35 33 29 24 29 24 -27 17
c-31 20 -34 45 -6 52 17 5 17 7 5 20 -24 24 -19 62 9 69 55 14 95 -27 56 -58
-11 -9 -25 -18 -32 -20 -16 -6 16 -52 45 -65 12 -5 39 -8 60 -5 l37 4 -35 39
c-36 41 -42 58 -25 75 7 7 4 16 -10 29 -16 15 -20 31 -20 86 0 59 3 70 22 83
12 9 29 16 38 16 8 1 28 7 45 14 l30 12 -43 29 c-55 36 -55 66 1 80 50 12 88
-8 101 -52 8 -27 14 -31 33 -27 29 8 73 -20 73 -46 0 -13 -12 -25 -34 -34 -31
-13 -53 -33 -45 -40 2 -2 21 -6 42 -9 34 -5 37 -4 37 19 0 13 8 29 18 35 18
11 18 14 -8 60 -24 45 -102 119 -125 119 -5 0 -39 14 -73 30 -46 22 -79 30
-117 30 -62 0 -192 -27 -220 -46 -11 -8 -27 -14 -36 -14 -9 0 -21 -12 -28 -26
-6 -14 -17 -24 -24 -21 -17 6 -13 53 18 182 26 106 26 114 11 143 -11 22 -35
41 -74 60 -54 27 -63 29 -172 27 -106 -2 -120 -5 -176 -33 -33 -17 -67 -38
-75 -48 -8 -9 -56 -55 -108 -101 -117 -105 -194 -143 -441 -219 -140 -43 -208
-59 -280 -65 -52 -4 -120 -13 -150 -18 -129 -24 -146 -28 -158 -35 -7 -4 -56
-12 -110 -17 -53 -5 -124 -18 -157 -29 -68 -21 -58 -25 30 -10 33 6 119 17
190 25 166 19 323 45 355 58 14 5 48 14 75 18 28 4 127 28 220 52 281 74 339
103 479 236 133 126 167 141 332 141 124 0 170 -12 197 -51 12 -16 13 -26 6
-35 -8 -10 -24 -6 -72 17 -34 16 -70 29 -79 29 -19 0 -25 -25 -8 -35 6 -4 8
-10 5 -15 -2 -4 8 -10 23 -13 15 -3 29 -1 30 4 8 22 39 7 50 -24 7 -18 12 -36
12 -40 0 -13 -34 -7 -52 10 -17 15 -20 15 -53 -3 -19 -10 -35 -22 -35 -25 0
-4 17 -11 37 -16 23 -5 39 -15 41 -25 3 -15 -4 -16 -50 -12 -47 5 -51 4 -35
-9 9 -8 17 -21 17 -30 0 -9 5 -19 10 -22 6 -3 10 -17 10 -31 0 -13 5 -24 11
-24 5 0 7 5 4 10 -11 18 25 23 50 6 20 -13 23 -23 21 -53 -4 -38 -27 -56 -41
-34 -3 6 -10 11 -14 11 -11 0 -20 -59 -10 -66 8 -4 4 -88 -5 -102 -3 -5 2 -21
10 -36 19 -38 19 -126 0 -126 -24 0 -29 -20 -10 -41 15 -17 19 -43 22 -159 4
-128 2 -140 -14 -140 -16 0 -16 -2 2 -21 15 -17 19 -38 20 -109 1 -49 5 -93 9
-99 3 -7 5 -28 4 -49 -2 -21 0 -42 3 -47 7 -13 22 -66 23 -85 2 -21 15 -71 25
-95 5 -11 18 -51 30 -90 23 -74 53 -153 76 -197 8 -14 14 -34 14 -44 0 -9 6
-25 14 -33 7 -9 24 -45 36 -81 12 -36 30 -81 40 -100 10 -19 23 -60 31 -90 7
-30 16 -59 20 -65 4 -5 10 -30 14 -55 4 -25 12 -51 17 -57 6 -7 8 -20 4 -28
-3 -8 -1 -15 3 -15 5 0 21 -22 35 -50 25 -49 35 -125 20 -164 -7 -19 -40 -21
-47 -3 -4 8 -6 7 -6 -4 -1 -25 -53 -66 -98 -78 -25 -7 -111 -10 -215 -9 -170
3 -174 3 -223 -24 -27 -14 -61 -38 -74 -52 -35 -37 -55 -35 -46 7 10 48 16
116 15 172 0 39 4 56 21 74 31 33 104 63 144 60 19 -2 37 0 41 4 13 12 42 8
59 -9 15 -15 15 -18 0 -34 -15 -16 -15 -20 3 -49 16 -27 21 -29 32 -16 13 16
25 12 70 -25 18 -14 22 -22 13 -28 -9 -6 -8 -12 7 -25 19 -16 20 -16 20 3 0
11 6 20 14 20 23 0 24 22 4 58 -10 18 -15 39 -11 45 4 7 7 21 8 32 0 29 45 34
52 6 5 -21 33 -30 33 -11 0 6 14 10 30 10 35 0 80 -38 80 -68 0 -11 7 -22 15
-26 12 -4 15 3 15 30 0 97 -181 158 -398 134 -109 -12 -143 -20 -322 -80 -69
-23 -143 -48 -165 -55 -22 -7 -79 -29 -126 -49 -156 -64 -782 -241 -924 -262
-27 -4 -68 -13 -90 -21 -21 -7 -84 -20 -140 -28 -55 -7 -189 -32 -298 -54
-109 -23 -253 -48 -320 -56 -191 -23 -618 -38 -867 -31 -314 8 -458 33 -515
86 -37 35 -95 49 -156 38 -64 -12 -241 -4 -354 16 -161 28 -413 89 -525 126
-166 55 -215 67 -309 74 -47 4 -90 11 -97 17 -6 5 -54 10 -105 10 -85 1 -107
-3 -224 -42 -125 -42 -135 -43 -255 -43 -105 0 -136 3 -193 23 -76 26 -96 48
-98 106 l-1 40 -9 -50 c-10 -58 -5 -81 25 -113 37 -41 90 -62 156 -62 34 0 70
-4 80 -10 14 -7 19 -5 23 10 4 14 14 20 35 20 17 0 34 -5 37 -10 11 -18 -6
-50 -26 -50 -17 0 -19 -5 -13 -35 6 -33 2 -38 -64 -104 -76 -75 -126 -99 -254
-126 -135 -29 -327 -15 -364 26 -29 32 -5 45 46 25 49 -19 70 -20 70 -3 0 7
10 21 22 31 l21 19 -24 17 c-23 18 -23 19 -6 54 17 37 22 39 101 40 22 1 41 7
43 14 3 6 -2 12 -10 12 -25 0 -44 42 -42 93 1 29 -3 51 -12 58 -7 6 -13 22
-13 35 0 17 -6 24 -19 24 -29 0 -45 25 -32 49 9 17 8 22 -9 31 -25 13 -26 30
-1 37 27 7 15 40 -17 48 -15 4 -33 11 -39 17 -18 15 -16 68 4 90 13 14 14 23
5 41 -6 12 -16 40 -23 62 -7 22 -26 53 -43 68 -31 27 -31 28 -8 33 24 7 29 20
10 26 -16 6 -1 58 17 58 24 0 17 14 -14 31 -25 14 -29 23 -29 63 -1 26 -4 51
-6 55 -3 5 1 31 9 58 13 43 13 64 -1 178 -8 72 -17 147 -20 168 -5 31 -3 37
12 37 15 1 12 4 -9 16 -30 16 -32 40 -3 38 10 -1 16 6 16 17 0 15 5 18 23 14
21 -6 22 -4 23 79 l2 84 -33 -5 c-18 -3 -35 0 -39 5 -9 15 31 34 54 27 14 -4
20 -2 20 8 0 8 -8 14 -18 13 -12 -1 -18 7 -20 27 -4 29 14 37 36 15 9 -9 17
-7 35 10 36 34 44 14 53 -121 3 -65 9 -116 11 -113 2 2 1 84 -3 181 -7 169 -8
176 -24 155 -15 -20 -19 -21 -38 -9 -30 19 -28 37 6 45 15 3 31 7 37 8 5 1 8
25 6 52 -1 28 3 162 9 299 9 183 16 259 27 282 8 18 13 38 11 45 -9 25 -47
-102 -58 -188 -6 -48 -10 -168 -8 -267 3 -167 2 -179 -16 -193 -11 -8 -31 -14
-44 -14 -19 0 -23 4 -19 18 28 85 30 97 14 135 -23 55 -87 82 -176 74 -71 -6
-161 -36 -201 -67 -24 -18 -25 -24 -25 -115 0 -110 -8 -122 -73 -110 -86 15
-88 20 -37 115 19 35 35 71 35 79 0 8 11 33 24 55 13 23 29 67 35 98 11 51 20
64 82 126 73 73 74 75 69 177 -3 59 -30 100 -108 157 -69 51 -128 78 -172 77
l-35 -1 31 -8 c55 -13 161 -79 202 -125 51 -58 75 -141 47 -161 -18 -13 -45
-9 -45 7 0 5 -9 4 -20 -3 -11 -7 -20 -19 -20 -26 0 -7 -12 -18 -27 -25 -16 -6
-33 -19 -40 -27 -17 -22 -27 -101 -14 -110 14 -8 0 -82 -16 -87 -6 -2 -15 6
-19 19 -7 23 -7 23 -16 -4 -5 -16 -14 -28 -19 -28 -17 0 -9 -16 22 -48 19 -19
29 -38 25 -47 -8 -22 -37 -18 -43 5 -8 31 -23 24 -24 -12 -3 -107 -16 -145
-43 -135 -14 6 -50 -22 -58 -45 -4 -9 -1 -22 8 -28 16 -14 19 -40 3 -40 -6 0
-19 5 -30 11 -16 8 -23 7 -33 -6 -13 -18 -59 -17 -145 1 -26 5 -33 4 -29 -7 2
-8 18 -15 35 -17 53 -5 69 -82 18 -82 -13 0 -31 -3 -40 -6 -11 -5 -19 2 -28
25 -11 30 -27 42 -27 21 0 -6 -11 -22 -25 -35 -17 -18 -35 -25 -64 -25 -22 0
-42 4 -46 10 -3 5 -19 1 -38 -10 -50 -31 -107 -25 -107 11 0 23 -28 25 -37 3
-7 -19 50 -74 77 -74 10 0 22 -5 26 -11 5 -8 10 -6 16 5 5 9 17 16 26 16 10 0
23 5 29 11 15 15 73 -10 73 -31 0 -9 -16 -32 -36 -51 -33 -31 -36 -33 -48 -17
-18 25 -22 23 -40 -23 -16 -39 -16 -43 0 -60 9 -10 14 -25 10 -35 -3 -9 -1
-23 5 -30 9 -11 8 -25 -6 -59 -18 -50 -25 -53 -55 -28 -23 20 -25 57 -5 93 24
41 19 53 -13 36 -42 -22 -56 -7 -56 57 l0 55 -23 -15 c-21 -14 -22 -17 -7 -28
16 -12 16 -26 -1 -68 -6 -13 -3 -16 9 -11 20 8 21 -14 1 -42 -30 -44 -129 -71
-141 -40 -7 17 -34 10 -34 -9 0 -8 14 -23 31 -35 28 -20 31 -21 48 -6 20 18
31 12 32 -18 0 -15 2 -17 6 -6 3 8 10 26 15 39 6 17 12 21 20 13 5 -5 25 -8
44 -5 27 4 37 0 58 -22 35 -38 53 -99 36 -120 -7 -8 -17 -15 -23 -15 -6 0 -21
-10 -34 -22 -18 -17 -26 -19 -35 -10 -9 9 -16 8 -30 -5 -12 -11 -21 -13 -30
-5 -20 16 -61 19 -65 5 -5 -13 -1 -14 50 -17 52 -3 65 -30 69 -137 2 -78 -1
-100 -15 -123 -12 -18 -25 -26 -40 -24 -18 3 -23 13 -33 81 -7 43 -14 81 -17
83 -2 2 -12 -14 -22 -36 -21 -47 -58 -74 -91 -67 -28 5 -53 -17 -29 -27 13 -5
56 1 126 16 10 2 15 -9 17 -41 3 -38 42 -115 42 -82 0 18 28 13 40 -8 5 -11
10 -31 10 -46 0 -15 4 -24 10 -20 6 4 31 -14 57 -39 25 -25 52 -46 59 -46 16
0 24 -23 24 -70 0 -43 -16 -62 -48 -53 -22 5 -22 5 -7 -31 19 -46 19 -66 -1
-66 -11 0 -14 -5 -10 -16 3 -8 2 -23 -3 -32 -7 -13 0 -24 32 -47 65 -49 113
-102 125 -140 15 -51 -2 -53 -73 -10 -55 33 -64 35 -143 35 -123 0 -170 -26
-357 -195 -225 -204 -321 -266 -470 -301 -62 -15 -82 -16 -107 -6 -35 13 -48
8 -30 -10 6 -6 38 -14 70 -16 68 -5 180 29 280 84 101 57 259 182 309 245 45
58 83 77 83 42 0 -26 17 -3 27 37 7 26 15 36 34 38 13 2 32 11 42 19 15 15 19
14 38 -3 19 -17 21 -18 30 -1 12 20 46 22 68 3 31 -26 59 -29 66 -6 5 16 12
20 28 16 12 -3 27 -6 34 -6 19 0 43 -30 43 -55 0 -14 -13 -34 -32 -50 -30 -26
-34 -26 -127 -20 -74 5 -109 2 -151 -10 -99 -29 -100 -29 -101 -9 -1 23 -49
-73 -49 -98 0 -39 52 -77 134 -99 113 -29 220 -11 388 67 108 50 129 51 149 2
22 -54 48 -70 99 -63 28 4 68 0 105 -9 69 -19 259 -21 334 -5 96 20 122 66
123 215 0 68 3 86 16 94 27 15 -4 12 -45 -5 -44 -18 -73 -43 -73 -61 0 -7 11
-26 25 -42 50 -60 38 -134 -27 -168 -65 -34 -337 -27 -390 10 -12 9 -33 12
-53 9 -45 -7 -75 11 -75 46 0 28 -2 29 -60 36 -53 6 -65 4 -102 -18 -24 -13
-101 -39 -172 -57 -107 -27 -140 -32 -194 -27 -91 9 -151 33 -159 65 -7 28 7
56 28 58 8 0 22 4 31 8 11 5 27 1 44 -13 31 -25 44 -27 44 -7 0 8 -10 16 -22
18 -13 2 -23 10 -23 18 0 17 56 19 156 5 39 -5 58 -4 63 4 4 6 22 11 41 11 32
0 66 27 78 63 6 19 60 -4 73 -32 l12 -24 16 37 c8 20 18 53 22 74 8 45 31 92
44 92 6 0 10 7 10 15 0 8 9 15 20 15 14 0 25 -12 37 -40 23 -52 38 -56 78 -21
34 29 34 29 13 43 -27 18 -15 42 18 35 18 -3 24 0 24 14 0 11 6 19 13 19 21 0
70 73 54 81 -7 5 -12 28 -12 60 l0 52 48 14 c28 8 47 19 47 28 0 8 5 15 11 15
6 0 8 7 5 16 -3 9 -3 21 1 27 9 15 11 47 3 47 -16 0 -28 71 -17 106 8 25 8 41
0 52 -11 18 -11 117 0 128 3 4 -1 17 -10 30 -12 18 -13 27 -4 38 9 10 8 15 -4
20 -31 12 -16 29 21 23 l36 -6 -36 37 c-25 24 -35 42 -32 54 3 10 9 27 12 38
5 14 2 20 -10 20 -9 0 -16 7 -16 15 0 18 12 19 27 4 21 -21 22 19 1 46 -24 30
-51 140 -43 172 4 16 1 23 -9 23 -7 0 -20 7 -27 16 -11 13 -10 18 9 32 21 17
29 77 10 88 -15 9 -9 24 10 24 22 0 37 27 52 98 9 40 18 56 35 62 22 8 40 49
36 82 -2 20 53 58 83 58 16 0 17 5 12 33 -4 17 -9 64 -13 104 l-6 72 34 20
c110 67 357 62 312 -7 -6 -9 -19 -16 -29 -14 -11 2 -32 6 -48 9 l-28 6 17 -27
c15 -22 24 -26 54 -24 33 3 36 1 33 -22 -1 -14 -9 -30 -17 -36 -8 -6 -12 -19
-8 -32 6 -26 -4 -28 -29 -5 -13 12 -22 13 -29 6 -8 -8 -8 -13 0 -17 6 -4 11
-14 11 -22 0 -9 6 -21 13 -28 7 -8 13 -36 12 -66 0 -53 -1 -54 -35 -64 -32 -9
-33 -10 -10 -14 33 -5 47 -19 33 -33 -7 -7 -7 -25 -1 -57 5 -26 11 -73 13
-105 3 -52 1 -59 -17 -66 -18 -7 -19 -8 -5 -14 11 -4 17 -18 17 -40 0 -18 5
-38 10 -43 7 -7 8 -25 1 -54 -7 -33 -6 -48 4 -64 17 -26 19 -284 3 -303 -7 -9
-7 -17 1 -27 6 -8 14 -47 16 -87 7 -118 15 -178 41 -279 13 -52 25 -113 27
-135 2 -22 13 -60 25 -83 12 -24 24 -65 28 -90 3 -26 12 -54 19 -62 6 -8 12
-34 13 -58 1 -36 -2 -42 -19 -42 -19 0 -19 -1 2 -29 12 -16 18 -34 15 -40 -9
-14 -163 -90 -170 -83 -13 12 -5 90 9 102 12 10 13 15 4 20 -6 4 -8 13 -5 19
10 16 36 14 36 -3 0 -16 33 -11 63 9 15 11 13 13 -23 19 -23 4 -64 4 -91 0
-45 -6 -48 -8 -28 -18 22 -10 23 -16 20 -111 -2 -91 0 -103 21 -135 35 -53 79
-70 175 -70 152 0 371 57 463 121 98 67 130 106 145 179 10 48 33 90 49 90 7
0 56 13 107 29 52 15 126 31 164 35 88 8 380 -18 426 -38 53 -23 250 -84 294
-91 22 -4 65 -17 95 -30 100 -41 173 -58 300 -66 69 -5 149 -11 178 -15 30 -4
100 -1 156 6 l102 12 54 -34 c110 -70 165 -82 425 -99 356 -23 1069 17 1345
76 251 53 355 78 550 131 238 66 319 86 372 94 31 4 96 24 145 44 49 19 132
47 184 61 52 14 150 45 218 70 145 54 250 80 264 66 6 -6 4 -57 -7 -144 -24
-203 -23 -219 20 -257 37 -32 94 -61 147 -74 33 -8 192 11 221 26 12 6 53 42
92 80 66 64 73 68 98 58 15 -5 35 -10 44 -9 9 0 2 6 -17 13 -45 16 -55 34 -42
69 13 33 38 35 51 3 6 -16 21 -26 47 -33 44 -10 54 -35 21 -51 -21 -10 -20
-11 15 -11 33 -1 50 -11 113 -66 76 -66 134 -92 177 -80 12 4 58 20 102 36 44
16 113 38 153 49 63 18 76 26 103 63 16 22 35 61 41 85 13 51 25 58 72 42 51
-17 60 -32 36 -63 -11 -14 -20 -34 -20 -45 0 -28 126 -199 159 -217 16 -8 48
-17 72 -21 47 -7 164 -62 214 -99 39 -30 174 -41 300 -25 155 20 253 16 304
-9 40 -21 52 -22 145 -16 56 4 123 13 150 21 83 23 103 20 125 -24 26 -51 80
-97 149 -129 96 -43 121 -39 247 42 65 42 116 83 126 100 10 17 21 58 25 93 6
57 5 62 -11 56 -13 -5 -16 -2 -13 12 3 16 12 19 63 18 l60 -1 -62 15 c-70 17
-103 10 -123 -28 -10 -18 -6 -25 24 -52 47 -42 48 -75 2 -126 -19 -20 -67 -54
-108 -74 -40 -21 -85 -46 -101 -55 -27 -18 -28 -17 -92 16 -64 33 -115 80
-115 106 0 22 108 87 148 89 10 1 52 57 52 71 0 2 -26 -7 -57 -21 -83 -37
-226 -73 -334 -84 -52 -5 -123 -14 -158 -19 -50 -8 -73 -7 -105 4 -23 8 -52
15 -66 15 -54 0 -285 52 -302 67 -29 26 -23 47 10 39 70 -18 82 -18 82 -4 0
17 -81 41 -94 27 -6 -5 -25 -9 -43 -9 -32 0 -73 -28 -73 -50 0 -5 -9 -10 -20
-10 -21 0 -27 -15 -10 -25 16 -10 11 -33 -9 -40 -25 -8 -66 9 -112 46 -22 17
-78 44 -126 60 -112 38 -136 54 -223 145 -52 55 -70 80 -64 92 3 9 13 34 21
56 16 44 13 48 -62 88 -54 29 -184 37 -238 15 -48 -21 -49 -39 -1 -25 76 21
176 -14 132 -46 -8 -6 -15 -26 -15 -43 0 -47 -8 -49 -51 -19 -21 14 -52 26
-69 26 -43 0 -63 9 -63 29 0 9 -5 22 -11 28 -27 27 56 105 178 165 l82 41 27
-22 c42 -33 64 -28 64 14 0 20 -6 38 -13 41 -21 7 -103 -14 -176 -45 -36 -16
-97 -35 -134 -42 l-68 -13 -72 37 c-73 37 -96 42 -132 27 -33 -13 59 -51 106
-44 34 6 37 4 48 -27 6 -18 21 -44 33 -56 31 -33 13 -48 -40 -34 -34 9 -43 17
-52 46 -10 29 -16 35 -40 35 -19 0 -29 -6 -33 -20 -3 -11 -12 -20 -20 -20 -17
0 -67 55 -67 74 0 7 -18 38 -40 69 -23 31 -48 73 -56 92 -17 42 -17 43 76 48
36 2 86 9 111 17 l47 14 36 -39 36 -38 21 21 c11 12 28 22 37 22 31 0 44 21
26 41 -14 16 -14 19 10 34 37 25 33 38 -10 31 -22 -5 -41 -3 -50 5 -21 18 1
39 42 39 19 0 34 4 34 9 0 17 -38 22 -59 9 -11 -7 -24 -9 -28 -5 -12 12 12 42
36 45 31 5 23 36 -10 40 -14 2 -31 -4 -39 -12 -20 -25 -31 -19 -28 17 5 50
-15 41 -34 -15 -19 -59 -16 -70 29 -121 35 -40 37 -45 24 -66 -14 -22 -47 -4
-100 56 -91 102 -99 144 -47 249 18 38 37 83 42 99 19 61 167 123 263 109 56
-8 141 -34 141 -43 0 -4 19 -26 42 -50 35 -37 40 -46 30 -62 -8 -12 -8 -19 -2
-19 5 0 16 -15 24 -34 8 -18 19 -37 25 -40 12 -8 184 -37 214 -37 24 0 31 -22
17 -49 -10 -20 -17 -21 -58 -15 -65 9 -148 40 -195 71 -21 14 -41 23 -44 20
-3 -3 11 -15 31 -27 20 -11 36 -27 36 -35 0 -8 12 -19 27 -25 41 -16 55 -30
43 -44 -7 -9 -6 -16 6 -26 13 -10 17 -10 23 0 10 15 80 21 88 7 4 -5 -4 -18
-17 -28 -23 -19 -65 -24 -74 -9 -4 5 -23 5 -46 -1 -50 -13 -70 -5 -70 26 0 19
-16 36 -35 36 -2 0 -12 -16 -24 -35 -11 -19 -27 -35 -36 -35 -19 0 -19 13 0
50 19 36 10 60 -21 60 -16 0 -28 -9 -39 -30 -12 -24 -19 -28 -33 -21 -28 15
-49 43 -71 94 -25 58 -26 85 -5 115 18 27 4 29 -19 4 -10 -10 -17 -32 -17 -49
0 -46 56 -148 100 -183 47 -38 148 -90 173 -90 11 0 64 -45 119 -101 89 -90
99 -104 93 -127 -4 -15 -7 -40 -8 -55 -4 -58 -71 -74 -133 -32 -20 14 -45 25
-56 25 -15 0 -12 -6 15 -29 18 -16 45 -33 60 -37 38 -9 77 -62 74 -99 -2 -28
0 -30 36 -31 20 -1 40 -4 44 -7 9 -10 -17 -37 -36 -37 -20 0 -41 -19 -41 -37
0 -7 10 -17 21 -24 19 -9 25 -7 44 17 23 29 42 20 30 -15 -4 -14 0 -21 15 -26
31 -10 32 -4 7 46 -18 37 -22 61 -22 149 -1 144 25 189 64 113 10 -21 28 -56
40 -78 24 -45 26 -74 9 -122 -14 -38 -12 -41 33 -49 33 -5 33 -5 10 8 -35 19
-35 29 -1 69 29 36 30 36 80 27 66 -12 74 -9 74 33 1 30 5 34 31 39 24 4 30
10 30 30 0 16 6 26 19 28 15 3 18 0 12 -21 -4 -19 0 -28 19 -41 14 -9 30 -14
35 -11 27 17 -7 109 -36 98 -26 -10 -104 7 -104 23 0 8 9 14 19 14 45 0 29 42
-16 45 -15 1 -34 3 -42 6 -22 6 -25 -30 -5 -53 18 -19 18 -20 1 -33 -27 -19
-22 -43 8 -37 19 3 25 0 25 -14 0 -30 -13 -41 -47 -42 -26 0 -38 8 -68 44 -27
32 -43 44 -64 44 -31 0 -51 16 -51 42 0 10 -4 26 -9 36 -14 25 -24 73 -22 102
1 23 0 24 -12 7 -17 -21 -33 -22 -40 -3 -9 23 17 117 53 188 l34 68 40 -3 c36
-2 41 1 44 21 2 12 -1 22 -7 22 -20 0 -11 26 17 52 16 16 45 29 72 33 57 9 64
13 49 31 -17 20 7 41 98 89 67 35 75 36 104 25 36 -15 49 -4 49 42 0 30 24 48
64 48 22 0 26 -4 26 -31 0 -28 -3 -31 -25 -27 -21 4 -25 1 -25 -18 0 -31 20
-41 37 -18 9 12 23 18 38 16 20 -3 25 1 25 18 0 11 8 23 18 26 58 19 59 20 25
40 -43 25 -41 37 5 58 49 22 93 18 107 -11 11 -21 11 -21 52 -3 22 10 44 23
47 29 4 6 19 11 33 11 22 0 24 3 19 24 -5 20 0 29 24 46 40 29 40 52 0 44 -36
-8 -37 -2 -9 35 23 31 19 51 -10 51 -47 0 -53 79 -11 160 11 22 16 40 11 40
-23 0 -41 -14 -41 -31 0 -28 -38 -124 -62 -154 -27 -34 -40 -28 -44 20 -2 22
-5 52 -7 68 -1 15 -7 27 -13 27 -6 0 -9 -10 -7 -24 3 -13 -2 -37 -11 -54 -21
-41 -20 -51 4 -45 19 5 20 0 20 -73 0 -88 -4 -98 -42 -113 -32 -12 -50 4 -37
34 13 34 11 49 -5 36 -11 -9 -18 -8 -30 4 -17 17 -17 17 10 120 7 27 11 51 10
52 -1 1 -11 0 -23 -3 -24 -7 -31 -37 -29 -136 1 -55 5 -71 25 -92 20 -21 22
-28 11 -41 -18 -22 -44 -18 -80 12 -30 25 -32 30 -26 76 7 63 44 177 57 177 6
0 8 4 5 9 -3 5 1 14 9 21 13 10 13 14 0 27 -8 8 -15 25 -15 38 0 13 -13 37
-29 53 -38 37 -34 54 33 129 28 32 59 70 69 86 17 26 21 27 70 21 42 -5 56 -3
66 10 8 9 28 16 47 16 32 0 34 2 34 35 0 41 15 44 98 20 42 -13 54 -22 68 -50
8 -18 13 -43 9 -54 -4 -14 0 -21 13 -26 17 -5 19 -14 18 -59 0 -29 -7 -60 -14
-68 -10 -13 -10 -17 4 -22 9 -4 14 -12 10 -21 -7 -19 29 -81 38 -66 4 6 13 11
20 11 20 0 108 -81 102 -95 -5 -14 37 -48 72 -59 37 -12 54 -58 44 -116 l-9
-49 31 -3 c29 -3 33 -8 55 -73 18 -52 24 -93 25 -160 1 -106 -7 -145 -32 -145
-10 0 -25 -13 -34 -28 -15 -26 -127 -100 -200 -133 -26 -11 -58 -7 -58 8 0 4
23 32 51 62 34 37 47 57 40 64 -7 7 -16 5 -29 -6 -28 -25 -42 -21 -42 13 0 32
19 80 32 80 4 0 8 9 8 21 0 11 4 28 9 38 11 20 4 35 -21 44 -10 3 -18 15 -18
26 0 33 -11 51 -31 51 -26 0 -24 -23 6 -58 37 -44 34 -95 -7 -132 -26 -24 -29
-32 -19 -44 18 -22 6 -50 -47 -112 -26 -29 -56 -65 -67 -79 -23 -30 -89 -49
-117 -34 -10 6 -16 14 -13 18 7 12 -33 21 -64 15 -14 -3 -34 1 -45 9 -19 14
-19 15 3 46 18 26 20 35 11 46 -17 20 -23 19 -72 -14 -40 -27 -48 -28 -115
-24 -89 7 -94 21 -23 61 51 28 62 50 35 72 -26 22 -50 8 -47 -28 2 -34 -5 -37
-80 -32 -33 2 -32 2 -13 -36 13 -27 28 -34 124 -63 120 -37 171 -62 171 -86 0
-12 8 -14 39 -9 50 8 64 -11 27 -38 -29 -22 -26 -44 4 -28 10 5 30 10 45 10
18 0 28 7 35 25 17 44 100 41 100 -4 0 -10 7 -24 15 -31 21 -17 19 -29 -6 -39
-14 -5 -23 -18 -25 -34 -4 -36 15 -35 51 3 26 27 35 30 99 32 57 1 61 2 21 5
-76 5 -91 10 -103 38 -14 31 -6 100 14 116 9 7 31 9 59 5 25 -3 65 -9 90 -12
37 -5 45 -4 45 9 0 17 61 41 144 56 34 6 64 5 98 -4 46 -12 70 -3 27 10 -18 6
-20 12 -14 41 7 39 7 39 -40 17 -32 -15 -37 -16 -51 -1 -15 15 -13 19 17 52
27 29 45 38 91 47 86 15 172 9 176 -14 3 -12 -7 -22 -33 -33 -59 -24 -35 -26
51 -3 49 13 125 23 200 26 l121 6 11 -32 c14 -38 38 -50 56 -26 15 21 36 12
36 -15 0 -12 9 -22 23 -25 28 -7 67 -78 67 -123 0 -28 5 -35 45 -54 25 -12 47
-30 50 -39 4 -10 15 -21 26 -24 10 -4 26 -19 34 -34 13 -26 13 -30 -10 -51
-34 -32 -31 -40 10 -40 25 0 44 -8 60 -25 46 -45 33 -74 -56 -126 -42 -24 -75
-51 -84 -69 -9 -17 -20 -30 -25 -30 -6 0 -10 -5 -10 -11 0 -7 14 -8 43 -4 33
6 51 17 83 53 42 45 74 52 74 16 0 -22 -142 -167 -202 -205 -27 -18 -46 -34
-44 -37 12 -11 118 53 179 109 72 65 96 114 79 158 -5 16 -4 36 4 60 8 23 9
43 3 59 -17 45 -154 235 -191 264 -21 18 -47 53 -62 86 -14 32 -49 83 -78 114
-45 49 -62 60 -108 71 -36 9 -56 20 -58 31 -4 19 23 105 51 161 40 81 159 255
175 255 8 0 24 -7 34 -16 14 -13 21 -14 32 -5 22 18 9 40 -22 38 -24 -2 -27 1
-25 26 2 31 33 100 61 134 9 11 32 24 50 28 33 7 33 6 30 -27 -2 -23 3 -38 15
-48 16 -13 20 -36 24 -137 3 -68 10 -120 14 -117 5 3 14 -7 19 -21 7 -20 15
-25 29 -20 12 4 21 0 25 -12 14 -35 20 -378 7 -401 -13 -25 -28 -21 -41 12 -5
12 -9 15 -9 6 0 -8 8 -26 18 -38 16 -22 19 -22 33 -9 23 23 30 134 22 335 l-7
178 -28 17 c-33 18 -37 41 -12 56 16 8 15 12 -10 31 -32 25 -35 46 -7 53 26 7
26 25 -1 29 -12 2 -31 19 -43 40 -26 45 -14 73 30 73 28 0 74 23 74 37 0 3
-13 9 -30 13 -29 6 -35 14 -31 43 1 8 -5 19 -14 26 -18 13 -17 85 4 251 5 44
10 88 10 98 2 31 30 18 47 -20 15 -37 15 -75 -2 -188 -3 -21 6 -9 31 40 41 82
44 124 15 235 -28 106 -26 127 25 232 65 135 73 173 51 240 -23 73 -79 167
-130 217 -33 32 -61 46 -146 73 l-105 34 -1 69 c-1 39 -9 86 -17 106 -10 23
-14 50 -10 73 3 20 3 36 0 36 -3 0 -19 -19 -35 -42z m-3612 -387 c0 -37 -13
-46 -35 -25 -15 15 -15 18 1 35 24 27 34 24 34 -10z m390 -46 c10 -12 10 -16
-1 -18 -8 -3 -30 -9 -50 -16 -19 -6 -49 -11 -66 -11 -24 0 -36 -8 -57 -38 -56
-82 -10 -103 49 -23 42 58 68 70 96 45 26 -24 24 -30 -16 -56 -40 -26 -43 -34
-15 -43 24 -8 25 -29 2 -75 -15 -30 -22 -35 -50 -32 -31 2 -32 1 -32 -36 0
-46 -19 -76 -46 -70 -15 2 -20 13 -22 56 -3 51 -3 52 25 52 27 0 29 2 25 35
-3 21 -10 35 -18 35 -7 0 -17 6 -21 13 -4 6 -17 17 -28 23 -17 9 -20 22 -20
75 l0 64 50 7 c28 4 64 12 80 17 47 14 101 13 115 -4z m-280 -130 c0 -49 -3
-65 -14 -65 -26 0 -39 28 -32 72 8 49 13 58 32 58 11 0 14 -15 14 -65z m-80
-49 c0 -8 -5 -18 -11 -22 -14 -8 -33 11 -25 25 10 16 36 13 36 -3z m64 -85
c31 -35 -11 -88 -51 -63 -12 8 -16 24 -14 60 1 28 40 30 65 3z m-84 -40 c0
-29 -21 -57 -33 -44 -9 8 -9 58 0 66 16 17 33 5 33 -22z m148 -12 c-3 -24 -33
-48 -44 -36 -4 4 -2 18 4 32 14 31 45 34 40 4z m-7004 -28 c3 -5 -1 -14 -8
-20 -16 -13 -32 2 -21 19 8 12 22 13 29 1z m6880 -43 c16 -26 -16 -57 -38 -38
-17 13 -21 42 -9 54 11 11 35 3 47 -16z m92 -66 c6 -4 14 -17 18 -30 6 -16 3
-24 -11 -29 -10 -3 -22 -12 -26 -20 -4 -7 -15 -13 -22 -13 -8 0 -15 -6 -15
-14 0 -8 -9 -18 -21 -21 -13 -4 -18 -12 -15 -22 9 -21 -12 -53 -29 -47 -30 12
-14 117 27 177 14 20 28 27 51 27 18 0 37 -4 43 -8z m53 -106 c49 -26 53 -38
26 -77 l-23 -36 34 -12 c41 -15 54 -42 43 -90 -12 -53 -35 -65 -76 -40 l-33
21 0 -45 c0 -50 -10 -58 -56 -45 -40 10 -44 22 -26 82 13 45 15 48 42 43 23
-5 29 -2 34 16 12 44 7 55 -29 61 -25 5 -35 12 -35 26 0 10 5 22 10 25 6 3 10
19 10 34 0 49 29 62 79 37z m-111 -173 c3 -34 -21 -51 -44 -32 -18 15 -18 28
3 51 22 25 37 18 41 -19z m2187 11 c9 -9 14 -23 11 -31 -3 -8 -6 -26 -6 -39 0
-33 -10 -30 -56 12 l-38 37 23 18 c28 23 45 24 66 3z m-1755 -73 c15 -29 12
-81 -5 -87 -9 -4 -15 -19 -15 -39 0 -50 -9 -65 -39 -65 -22 0 -29 -7 -39 -34
-7 -18 -21 -41 -32 -51 -43 -39 -64 32 -29 97 5 10 21 18 35 18 22 0 24 3 17
28 -4 15 -7 38 -8 52 0 20 5 25 25 24 14 -1 32 -4 40 -8 13 -5 15 2 12 39 -3
36 -1 45 12 45 8 0 20 -9 26 -19z m1678 -8 c5 -17 -26 -29 -40 -15 -6 6 -7 15
-3 22 9 14 37 9 43 -7z m-2145 -45 c14 -22 -20 -108 -43 -108 -38 0 -53 120
-18 141 14 9 46 -8 61 -33z m542 32 c3 -6 -1 -13 -10 -16 -19 -8 -30 0 -20 15
8 14 22 14 30 1z m-7077 -102 c-7 -20 -58 -23 -58 -4 0 11 10 16 31 16 20 0
29 -4 27 -12z m-709 -39 c34 -12 37 -36 5 -31 -10 2 -28 4 -39 5 -23 2 -34 37
-12 37 8 0 28 -5 46 -11z m7285 -44 c3 -8 1 -25 -4 -38 -5 -12 -11 -34 -14
-48 -7 -31 -30 -43 -56 -29 -27 14 -33 43 -19 92 18 64 26 70 59 53 15 -8 30
-21 34 -30z m434 -22 c-2 -39 -7 -50 -25 -58 -16 -7 -23 -18 -23 -37 0 -56
-70 -81 -92 -33 -18 40 3 75 46 75 31 0 35 3 41 33 10 45 23 67 41 67 12 0 14
-10 12 -47z m2622 -15 c0 -44 -32 -144 -52 -161 -16 -14 -18 -20 -8 -31 9 -12
7 -25 -9 -62 -12 -25 -21 -51 -21 -55 0 -12 -50 -90 -72 -111 -21 -22 -38 -23
-38 -4 0 23 -39 31 -54 10 -21 -28 -36 -7 -36 52 0 43 -4 56 -17 61 -29 10
-65 51 -58 64 5 7 21 9 44 5 29 -4 39 -2 49 14 7 11 19 20 27 20 11 0 12 6 3
30 -5 17 -7 37 -4 46 5 13 11 12 37 -10 26 -22 42 -27 87 -26 4 0 7 11 7 24 0
13 3 28 7 32 4 4 3 13 -3 20 -16 19 0 59 30 77 16 9 30 14 33 11 3 -2 11 2 18
11 15 18 30 11 30 -17z m-10526 -1 c-1 -12 6 -17 27 -17 16 0 29 -5 29 -11 0
-6 9 -8 21 -4 23 8 53 -15 75 -57 8 -15 24 -28 36 -30 29 -4 58 -52 41 -69 -9
-9 -19 -4 -43 20 -17 17 -36 31 -42 31 -6 0 -26 16 -45 37 l-35 36 15 -34 c8
-20 11 -43 7 -54 -16 -43 -21 -125 -11 -157 11 -32 -2 -127 -25 -182 -5 -14
-4 -17 5 -12 7 5 17 19 22 33 6 16 15 23 24 19 10 -3 16 2 19 17 16 79 16 79
37 74 15 -4 19 -2 15 10 -3 8 -6 21 -6 28 0 9 -14 15 -37 17 -28 2 -37 7 -35
18 2 8 5 32 7 53 1 21 9 45 17 54 14 13 18 11 37 -13 15 -19 20 -36 17 -54 -6
-25 -6 -25 9 3 18 32 30 29 38 -10 10 -50 43 -130 61 -148 21 -21 17 -59 -6
-63 -11 -2 -22 6 -29 22 -7 14 -16 26 -21 26 -14 0 -9 -48 7 -54 11 -4 15 -21
15 -65 0 -49 4 -64 22 -80 18 -18 20 -24 10 -46 -6 -14 -18 -25 -26 -25 -14 0
-50 39 -59 63 -9 24 -20 -4 -20 -48 0 -29 6 -52 18 -65 14 -15 16 -25 9 -41
-12 -26 14 -119 32 -119 19 0 26 -35 12 -64 -18 -40 -47 -30 -69 24 -10 25
-18 38 -18 29 -1 -9 -4 -37 -7 -63 -6 -41 -5 -46 12 -46 11 0 25 -9 31 -19 7
-11 23 -21 35 -23 19 -2 22 -8 20 -32 -2 -16 -10 -39 -17 -50 -10 -14 -11 -23
-4 -32 14 -17 -6 -80 -28 -88 -24 -10 -44 13 -37 41 6 22 4 24 -15 18 -29 -9
-37 15 -17 54 17 32 22 106 7 97 -5 -3 -9 -22 -8 -41 1 -53 -31 -81 -93 -83
-29 0 -50 4 -50 10 0 5 28 37 62 69 l62 59 -46 -6 c-28 -4 -48 -2 -52 4 -7 11
62 142 92 175 13 15 14 22 4 37 -18 30 -14 113 9 174 23 62 33 73 54 56 13
-11 15 -6 15 29 l0 42 -31 -17 c-21 -10 -35 -12 -41 -6 -6 6 -17 8 -26 5 -8
-4 -20 1 -27 10 -7 10 -20 14 -33 10 -27 -7 -28 -21 -4 -39 16 -12 16 -14 -2
-27 -13 -9 -17 -20 -13 -32 5 -10 -1 -31 -14 -51 -11 -19 -17 -35 -12 -35 4
-1 19 -2 33 -3 31 -1 37 -28 15 -62 -11 -18 -22 -23 -36 -19 -30 10 -37 -24
-9 -45 23 -17 23 -19 11 -96 -21 -126 -38 -142 -73 -69 -12 25 -29 47 -37 50
-32 11 -72 56 -74 83 -2 24 1 27 25 24 24 -2 27 1 30 30 2 18 -3 46 -10 61 -7
16 -11 34 -9 40 2 7 -4 23 -14 36 -11 13 -19 30 -19 37 0 8 -8 14 -19 14 -32
0 -43 23 -27 56 9 17 14 58 14 100 0 39 8 103 18 142 15 59 16 78 7 103 -11
29 -10 33 20 60 17 16 37 29 44 29 18 0 53 60 53 90 0 37 28 72 53 68 14 -2
21 -10 21 -21z m7544 -99 c15 -13 16 -74 1 -84 -22 -13 -130 -12 -135 1 -5 13
17 66 39 93 12 15 72 8 95 -10z m2649 -37 c-3 -13 2 -21 16 -25 17 -4 18 -7 7
-21 -19 -22 -76 -16 -72 8 2 13 -4 17 -25 17 -15 0 -34 4 -42 9 -27 17 1 31
61 31 54 0 60 -2 55 -19z m-2412 -26 c0 -25 -46 -33 -64 -11 -19 22 -4 38 32
34 24 -2 32 -8 32 -23z m1593 -12 c-5 -26 -38 -29 -38 -4 0 15 6 21 21 21 14
0 19 -5 17 -17z m-913 -67 c26 -24 26 -25 10 -50 -11 -17 -26 -26 -43 -26 -14
0 -34 -7 -44 -16 -15 -15 -16 -18 -3 -28 8 -6 17 -25 21 -41 5 -28 2 -32 -41
-54 -37 -19 -52 -21 -70 -13 -17 8 -21 16 -18 36 5 22 10 25 36 23 29 -2 32 1
33 28 1 42 -15 85 -32 85 -8 0 -14 5 -14 10 0 6 -9 10 -20 10 -11 0 -20 7 -20
15 0 9 9 15 25 15 16 0 23 4 19 14 -3 8 6 17 23 24 63 25 81 20 138 -32z
m-760 27 c13 -12 15 -26 10 -60 -3 -23 -4 -43 -2 -43 2 0 18 5 35 11 28 9 30
13 25 45 -7 43 10 64 51 64 38 0 56 -15 56 -48 0 -17 -9 -27 -37 -39 -21 -8
-39 -16 -41 -17 -1 -2 3 -17 9 -35 8 -22 16 -30 26 -27 8 3 24 6 35 6 17 0 19
5 14 33 -7 39 1 52 37 66 42 16 47 14 63 -25 15 -37 7 -64 -20 -64 -24 0 -36
-22 -24 -44 16 -30 29 -37 59 -31 15 4 30 1 36 -7 18 -22 24 -83 11 -101 -12
-15 -18 -15 -63 -4 -48 13 -50 15 -55 53 -5 38 -6 39 -40 35 -87 -11 -95 -9
-98 27 l-3 32 -61 0 c-53 0 -59 -2 -53 -17 4 -10 10 -31 13 -46 4 -27 7 -28
56 -27 74 2 74 2 78 -22 3 -20 9 -23 53 -23 61 0 75 -8 75 -44 0 -15 5 -32 11
-38 15 -15 -16 -43 -49 -43 -53 0 -102 20 -102 40 0 18 -7 20 -68 20 -77 0
-92 9 -92 57 0 31 -2 33 -34 33 -39 0 -86 33 -86 61 0 31 36 59 75 59 30 0 35
3 35 23 0 13 6 29 13 36 10 11 9 14 -1 18 -40 15 -48 54 -20 91 15 17 54 15
73 -5z m820 7 c-3 -5 -10 -10 -16 -10 -5 0 -9 5 -9 10 0 6 7 10 16 10 8 0 12
-4 9 -10z m69 -13 c18 -13 18 -15 1 -48 -22 -42 -30 -47 -61 -41 -29 5 -30 19
-4 52 11 14 20 31 20 38 0 16 21 15 44 -1z m-1035 -27 c46 0 53 -16 21 -45
-12 -11 -20 -31 -20 -52 0 -41 -21 -44 -71 -10 -38 26 -49 56 -25 69 9 5 14
14 10 19 -3 6 -3 17 0 25 4 11 10 12 25 4 11 -5 38 -10 60 -10z m2135 -58 c-4
-15 -13 -34 -20 -43 -8 -8 -14 -27 -14 -42 0 -30 -13 -41 -39 -32 -26 8 -31
26 -20 71 8 29 19 45 47 61 44 25 54 21 46 -15z m611 -131 c7 -12 -12 -24 -25
-16 -11 7 -4 25 10 25 5 0 11 -4 15 -9z m-2681 -170 c20 -22 12 -48 -17 -57
-22 -7 -47 17 -47 46 0 35 37 41 64 11z m-7886 -29 c3 -26 8 -32 27 -32 27 0
85 -61 85 -90 0 -32 -26 -50 -58 -39 -15 5 -34 15 -43 22 -41 32 -66 108 -49
153 13 34 34 26 38 -14z m10598 -50 c1 -21 -3 -32 -12 -32 -8 0 -14 6 -14 13
0 6 -3 23 -7 36 -5 19 -2 22 13 19 13 -2 19 -13 20 -36z m-2648 -28 c26 -18
31 -71 7 -80 -20 -8 -62 20 -70 46 -7 22 9 50 29 50 6 0 22 -7 34 -16z m132 1
c10 -12 9 -20 -4 -40 -30 -46 -67 -24 -47 28 12 30 32 35 51 12z m-7549 -29
c7 -19 20 -37 30 -39 15 -4 16 -14 12 -73 -3 -38 -9 -73 -13 -77 -13 -14 -47
32 -59 78 -16 65 -14 145 3 145 8 0 20 -15 27 -34z m8454 14 c0 -9 -11 -16
-27 -18 -30 -4 -36 6 -16 26 16 16 43 11 43 -8z m-8977 -90 c6 0 12 -7 12 -15
0 -9 -9 -15 -25 -15 -14 0 -25 -3 -25 -7 1 -20 27 -40 50 -39 24 1 25 -2 28
-61 2 -43 7 -63 18 -67 8 -3 16 0 18 7 12 40 17 47 30 47 9 0 22 -13 31 -30 8
-16 31 -46 51 -65 39 -39 37 -55 -7 -55 -45 0 -90 23 -126 64 -17 20 -34 36
-38 36 -17 0 -79 58 -100 95 -30 50 -31 61 -5 102 19 31 20 32 47 18 15 -8 34
-15 41 -15z m8082 0 c21 -21 27 -65 10 -75 -14 -9 -75 12 -90 30 -10 12 -9 20
4 40 20 30 49 32 76 5z m2370 -45 c0 -8 -7 -15 -15 -15 -16 0 -20 12 -8 23 11
12 23 8 23 -8z m-2333 -170 c3 -9 -3 -25 -13 -36 -14 -15 -28 -19 -63 -17 -55
4 -63 21 -19 48 39 24 86 26 95 5z m736 -34 c21 -36 21 -41 1 -41 -18 0 -53
38 -54 58 0 23 36 12 53 -17z m85 -4 c2 -10 -3 -17 -12 -17 -18 0 -29 16 -21
31 9 14 29 6 33 -14z m-8785 -81 c30 -1 45 -8 68 -34 35 -39 36 -49 4 -64 -20
-9 -33 -6 -82 18 -62 31 -80 52 -70 79 5 12 13 15 25 10 9 -4 34 -8 55 -9z
m194 -83 c6 -16 -40 -38 -61 -30 -23 9 -20 26 7 37 28 11 49 9 54 -7z m-273
-23 c22 -11 50 -30 63 -42 23 -21 25 -22 34 -5 14 25 40 21 86 -12 22 -16 49
-32 61 -35 28 -9 28 -31 1 -50 -18 -12 -26 -12 -52 -1 -17 7 -34 22 -39 34 -4
12 -16 21 -27 21 -17 0 -19 -5 -14 -35 4 -27 2 -36 -11 -41 -10 -4 -22 -2 -29
5 -6 6 -19 11 -28 11 -9 0 -35 20 -57 44 -36 39 -41 50 -37 83 3 41 4 43 8 43
1 0 20 -9 41 -20z m8366 -99 c0 -10 -7 -22 -16 -25 -44 -17 -82 6 -49 31 28
20 65 17 65 -6z m-7961 -5 c9 -10 8 -16 -4 -26 -19 -15 -47 3 -38 26 7 18 27
18 42 0z m8836 -16 c-5 -8 -11 -8 -17 -2 -6 6 -7 16 -3 22 5 8 11 8 17 2 6 -6
7 -16 3 -22z m-1174 -4 c10 -20 8 -29 -10 -52 -27 -34 -27 -54 0 -54 17 0 20
-4 14 -28 -4 -22 0 -33 22 -53 63 -58 114 -76 127 -44 3 9 0 15 -9 15 -26 0
-115 63 -121 85 -9 37 0 87 18 99 37 23 107 -37 108 -92 0 -20 4 -31 10 -27 6
3 10 17 10 30 0 13 5 27 12 31 14 9 48 -31 48 -57 0 -25 43 -69 68 -69 11 0
24 -5 28 -11 12 -20 -30 -48 -121 -78 l-90 -30 -88 41 c-96 46 -126 73 -152
142 -22 57 -15 79 21 70 32 -8 44 7 44 57 0 20 3 39 7 42 14 15 44 6 54 -17z
m-375 -117 c13 -13 10 -22 -24 -75 -44 -66 -57 -79 -124 -117 -55 -32 -125
-36 -208 -11 -75 22 -144 94 -90 94 13 0 20 7 20 19 0 34 23 42 55 21 40 -27
49 -25 62 11 10 26 16 30 36 26 19 -5 25 -1 35 25 l11 31 106 -5 c75 -3 110
-9 121 -19z m-6821 -149 c-5 -8 -11 -8 -17 -2 -6 6 -7 16 -3 22 5 8 11 8 17 2
6 -6 7 -16 3 -22z m12 -46 c8 -21 -13 -42 -28 -27 -13 13 -5 43 11 43 6 0 13
-7 17 -16z"/>
<path d="M11715 3310 c-3 -5 -1 -10 4 -10 6 0 11 5 11 10 0 6 -2 10 -4 10 -3
0 -8 -4 -11 -10z"/>
<path d="M11683 3252 l-21 -7 24 -18 c13 -10 24 -14 24 -8 0 5 3 16 6 25 6 17
2 18 -33 8z"/>
<path d="M11595 3231 c-10 -17 10 -20 35 -5 l25 13 -27 1 c-15 0 -29 -4 -33
-9z"/>
<path d="M8568 1913 c6 -2 18 -2 25 0 6 3 1 5 -13 5 -14 0 -19 -2 -12 -5z"/>
<path d="M8446 1892 c-3 -5 6 -14 20 -21 22 -10 25 -9 22 6 -4 19 -33 30 -42
15z"/>
<path d="M8535 1860 c-3 -5 1 -10 10 -10 9 0 13 5 10 10 -3 6 -8 10 -10 10 -2
0 -7 -4 -10 -10z"/>
<path d="M10490 4930 c-8 -6 -32 -15 -52 -20 -43 -12 -108 -81 -144 -153 l-25
-48 24 6 c16 4 29 0 42 -15 12 -13 25 -18 38 -14 36 11 108 -82 93 -122 -5
-13 -9 -14 -21 -4 -8 6 -22 10 -31 8 -15 -3 -15 -5 2 -25 34 -39 114 -73 157
-66 20 3 37 9 37 14 0 5 -17 17 -38 28 -21 10 -59 46 -85 80 -26 33 -75 84
-107 112 -33 29 -60 56 -60 61 0 5 13 17 29 26 17 9 32 25 35 34 3 12 14 18
34 18 24 0 31 5 36 26 6 23 11 26 37 20 19 -3 42 0 59 9 16 8 39 15 52 16 22
0 22 1 3 9 -28 12 -97 12 -115 0z"/>
<path d="M10626 4895 c-4 -14 -4 -30 -1 -35 9 -15 42 -12 49 5 3 8 12 15 21
15 16 0 55 -55 55 -80 0 -8 4 -21 9 -29 8 -12 13 -12 36 3 15 10 35 16 45 13
31 -8 12 21 -35 53 -40 27 -148 80 -165 80 -4 0 -11 -11 -14 -25z"/>
<path d="M10541 4859 c-15 -6 -21 -14 -17 -25 3 -9 6 -20 6 -25 0 -16 26 -10
45 11 9 10 15 26 12 35 -7 17 -12 18 -46 4z"/>
<path d="M10457 4823 c-4 -3 -7 -19 -7 -35 0 -18 -5 -28 -15 -28 -8 0 -15 5
-15 10 0 6 -7 10 -16 10 -26 0 -9 -24 24 -34 38 -10 62 5 62 39 0 24 -22 49
-33 38z"/>
<path d="M10657 4803 c-4 -3 -7 -21 -7 -40 0 -42 24 -54 51 -26 17 17 18 23 8
46 -11 25 -37 35 -52 20z"/>
<path d="M10566 4748 c-3 -7 -7 -34 -11 -60 -7 -55 1 -59 41 -24 25 21 27 27
18 57 -10 34 -41 52 -48 27z"/>
<path d="M10484 4706 c-6 -26 1 -46 17 -46 5 0 9 16 9 35 0 40 -17 47 -26 11z"/>
<path d="M10775 4708 c-12 -33 -9 -63 5 -63 10 0 16 12 18 38 3 35 -13 53 -23
25z"/>
<path d="M1202 4691 c-8 -5 10 -10 49 -15 56 -5 80 -3 68 8 -10 9 -105 15
-117 7z"/>
<path d="M10680 4666 c-21 -23 -22 -56 -2 -56 17 0 41 26 48 53 8 35 -14 37
-46 3z"/>
<path d="M350 4670 c14 -4 45 -8 70 -8 l45 0 -40 9 c-22 4 -53 8 -70 7 -29 0
-29 0 -5 -8z"/>
<path d="M483 4653 c9 -2 23 -2 30 0 6 3 -1 5 -18 5 -16 0 -22 -2 -12 -5z"/>
<path d="M10253 4614 c4 -22 7 -52 8 -69 0 -29 1 -29 11 -7 6 12 19 22 30 22
25 0 23 8 -7 32 -14 11 -24 27 -23 35 2 9 -3 18 -11 21 -11 4 -13 -3 -8 -34z"/>
<path d="M1357 4634 c-12 -12 -8 -24 8 -24 9 0 18 -7 22 -16 8 -22 -17 -64
-40 -64 -15 0 -18 -5 -13 -25 5 -19 2 -25 -10 -25 -13 0 -15 -7 -9 -39 6 -39
5 -40 -34 -60 -50 -26 -166 -54 -191 -46 -22 7 -60 68 -60 95 0 13 9 21 25 25
14 3 37 8 52 11 14 3 38 18 54 35 17 19 37 29 56 29 26 1 27 1 9 15 -16 12
-23 12 -45 1 -14 -8 -37 -26 -50 -40 -19 -21 -34 -26 -70 -26 -68 0 -90 -9
-107 -42 -8 -16 -20 -28 -27 -25 -6 2 -22 35 -34 73 -17 57 -21 63 -22 36 -1
-18 12 -59 29 -92 17 -33 30 -69 30 -80 0 -13 7 -20 19 -20 10 0 35 -7 54 -15
48 -20 180 -4 257 31 54 25 217 131 275 179 l30 25 -40 -16 c-22 -9 -44 -20
-49 -25 -6 -5 -18 -9 -28 -9 -14 0 -18 8 -18 33 -1 33 -59 115 -73 101z"/>
<path d="M990 4610 c-13 -9 -13 -10 0 -10 8 0 22 5 30 10 13 9 13 10 0 10 -8
0 -22 -5 -30 -10z"/>
<path d="M10590 4602 c-23 -19 -24 -22 -8 -38 15 -15 17 -15 28 5 6 12 10 29
8 38 -3 13 -7 12 -28 -5z"/>
<path d="M10762 4580 c-13 -22 -16 -50 -4 -50 16 0 29 16 36 43 8 33 -13 38
-32 7z"/>
<path d="M905 4580 c-3 -6 1 -7 9 -4 18 7 21 14 7 14 -6 0 -13 -4 -16 -10z"/>
<path d="M10678 4564 c-35 -18 -36 -34 -3 -34 14 0 29 8 35 19 19 36 11 39
-32 15z"/>
<path d="M376 4545 c-17 -13 -16 -14 16 -8 31 4 38 1 54 -23 11 -15 46 -55 80
-88 33 -34 67 -71 75 -83 9 -12 35 -32 60 -43 118 -56 140 -70 135 -88 -4 -13
2 -21 24 -29 35 -13 39 -31 8 -37 -13 -2 -47 -9 -76 -15 -76 -16 -85 -14 -141
20 l-50 31 -87 -31 c-81 -28 -90 -29 -111 -16 -14 9 -23 25 -23 41 0 13 -7 27
-14 30 -8 3 -22 28 -31 55 -9 27 -21 51 -26 54 -19 12 -8 35 24 48 59 25 85
74 67 122 -7 19 -14 25 -21 18 -6 -6 -6 -19 1 -37 19 -51 -18 -86 -90 -86 -46
0 -62 -20 -37 -48 20 -23 118 -183 120 -196 1 -7 -12 -10 -33 -8 -20 2 -43 -4
-55 -12 -18 -14 -14 -15 53 -13 65 2 75 0 90 -20 l17 -22 24 24 c13 14 27 25
33 25 20 0 55 -24 90 -64 l38 -41 -11 33 c-17 51 -7 62 55 62 30 0 85 7 121
15 48 11 71 13 80 5 16 -13 40 21 66 98 24 70 24 75 -2 60 -19 -12 -25 -8 -70
42 -28 30 -47 47 -44 38 5 -13 0 -20 -21 -28 -38 -15 -56 -6 -49 23 4 15 1 28
-9 36 -14 11 -16 11 -16 -6 0 -23 -18 -43 -40 -43 -17 0 -114 98 -178 178 -35
45 -63 52 -96 27z m477 -283 c26 -25 36 -52 18 -52 -8 0 -73 50 -105 80 -4 5
-5 13 -1 20 8 13 42 -6 88 -48z"/>
<path d="M8171 4544 c0 -11 3 -14 6 -6 3 7 2 16 -1 19 -3 4 -6 -2 -5 -13z"/>
<path d="M191 4534 c0 -11 3 -14 6 -6 3 7 2 16 -1 19 -3 4 -6 -2 -5 -13z"/>
<path d="M2608 4520 c-21 -11 -38 -23 -38 -26 0 -3 30 -4 68 -3 37 2 73 0 80
-4 20 -13 14 -48 -8 -54 -28 -7 -20 -27 13 -31 38 -5 34 -19 -10 -38 -32 -13
-47 -14 -96 -3 -58 12 -71 21 -72 49 0 17 -44 41 -65 36 -8 -2 -27 -7 -42 -10
-33 -7 -37 -35 -10 -59 23 -21 358 -60 463 -55 71 4 181 33 304 79 28 10 61
19 74 19 14 0 38 4 55 10 97 30 272 51 536 66 117 6 409 -18 550 -45 152 -29
483 -112 499 -125 8 -6 22 -10 32 -8 12 2 41 -17 75 -50 l56 -53 257 -6 c141
-3 261 -8 267 -11 15 -10 669 10 754 22 41 6 121 20 178 31 57 10 126 19 155
20 29 0 70 4 92 9 28 6 9 7 -60 3 -55 -3 -120 -9 -145 -15 -25 -5 -97 -13
-160 -19 -63 -5 -140 -13 -170 -18 -82 -14 -749 -12 -952 3 -191 14 -190 13
-279 88 -26 21 -55 38 -65 38 -11 1 -37 8 -59 16 -22 8 -62 19 -90 24 -74 12
-166 39 -197 55 -15 9 -53 15 -90 15 -34 0 -81 5 -103 11 -22 6 -69 12 -105
14 -36 3 -100 11 -142 19 -54 10 -93 12 -130 7 -44 -7 -135 -2 -173 10 -22 7
-468 -62 -625 -97 -63 -14 -149 -37 -190 -50 -93 -30 -194 -42 -214 -25 -8 7
-27 44 -42 82 -20 54 -32 73 -53 81 -50 19 -85 19 -123 -2z"/>
<path d="M1277 4509 c7 -7 15 -10 18 -7 3 3 -2 9 -12 12 -14 6 -15 5 -6 -5z"/>
<path d="M8147 4509 c-9 -6 -21 -8 -26 -5 -11 7 -36 -22 -27 -31 3 -3 17 0 31
7 31 17 44 6 26 -22 -9 -14 -10 -23 -2 -31 17 -17 22 -3 19 46 -3 40 -5 45
-21 36z"/>
<path d="M2462 4500 c-66 -16 -43 -28 27 -14 17 4 28 10 25 15 -6 10 -6 10
-52 -1z"/>
<path d="M12175 4480 c-3 -6 1 -17 10 -26 9 -10 16 -30 15 -48 -3 -55 -1 -57
35 -17 40 43 43 61 17 84 -20 19 -67 23 -77 7z"/>
<path d="M10279 4435 c-1 -5 -3 -14 -4 -20 -2 -5 -3 -15 -4 -22 -2 -20 -82
-61 -151 -77 -89 -21 -234 -20 -433 5 -225 27 -264 20 -57 -11 118 -17 208
-25 315 -25 164 0 230 13 299 60 20 14 46 25 56 25 21 0 40 -27 33 -47 -2 -6
1 -14 8 -19 22 -13 -1 70 -26 91 -13 11 -25 27 -28 35 -3 8 -6 11 -8 5z"/>
<path d="M11023 4429 c-6 -6 -9 -17 -7 -23 3 -7 -4 -20 -15 -30 -17 -16 -33
-18 -98 -14 -43 3 -69 2 -58 -3 11 -4 33 -8 48 -8 15 -1 30 -8 33 -16 4 -10
14 -13 30 -9 30 8 56 -13 49 -37 -7 -22 11 -35 19 -13 3 8 14 14 24 12 10 -2
33 9 51 24 28 24 38 27 79 22 82 -9 134 -27 169 -57 18 -16 33 -35 33 -42 0
-7 -20 -18 -44 -24 -30 -7 -47 -18 -51 -32 -4 -11 -16 -24 -28 -29 -19 -7 -16
-9 14 -9 29 -1 38 3 42 19 3 11 14 20 25 20 11 0 25 7 32 15 8 10 31 15 67 15
36 0 52 4 47 11 -3 6 -16 8 -29 5 -18 -5 -28 2 -48 27 -43 57 -211 122 -283
110 -34 -5 -54 11 -36 29 8 8 4 16 -13 29 -27 22 -37 23 -52 8z m47 -29 c0
-21 -24 -28 -35 -10 -8 14 3 30 21 30 8 0 14 -9 14 -20z"/>
<path d="M8110 4386 c0 -17 38 -41 48 -30 4 4 1 9 -6 11 -7 3 -19 11 -27 20
-13 13 -15 13 -15 -1z"/>
<path d="M12117 4365 c-4 -8 -2 -17 3 -20 6 -4 10 3 10 14 0 25 -6 27 -13 6z"/>
<path d="M40 4357 c0 -28 33 -86 38 -66 1 9 -6 32 -17 50 -14 23 -21 28 -21
16z"/>
<path d="M11705 4357 c-4 -10 -5 -21 -1 -24 10 -10 18 4 13 24 -4 17 -4 17
-12 0z"/>
<path d="M8146 4321 c-4 -7 -5 -15 -2 -18 9 -9 19 4 14 18 -4 11 -6 11 -12 0z"/>
<path d="M10465 4300 c-47 -22 -36 -25 19 -6 21 7 34 16 29 19 -5 3 -27 -3
-48 -13z"/>
<path d="M505 4284 c22 -8 46 -13 55 -11 22 5 -35 27 -68 26 -24 0 -22 -2 13
-15z"/>
<path d="M9187 4280 c-3 -11 -2 -20 3 -20 4 0 10 9 13 20 3 11 2 20 -3 20 -4
0 -10 -9 -13 -20z"/>
<path d="M11190 4281 c0 -9 24 -21 41 -21 5 0 9 7 9 15 0 9 -9 15 -25 15 -14
0 -25 -4 -25 -9z"/>
<path d="M10925 4243 c-9 -37 12 -53 25 -19 13 34 13 33 -4 39 -9 4 -16 -3
-21 -20z"/>
<path d="M11066 4248 c-16 -18 -16 -22 -2 -36 20 -20 46 0 39 29 -8 29 -17 31
-37 7z"/>
<path d="M11142 4243 c2 -17 9 -28 18 -28 23 0 23 32 0 45 -20 11 -21 9 -18
-17z"/>
<path d="M393 4227 c-18 -12 -31 -26 -29 -32 5 -20 27 -9 47 23 12 17 19 32
17 31 -1 0 -17 -11 -35 -22z"/>
<path d="M600 4238 c0 -9 18 -13 53 -14 36 -2 44 0 27 5 -66 20 -80 21 -80 9z"/>
<path d="M730 4210 c8 -5 24 -9 35 -9 l20 0 -20 9 c-11 5 -27 9 -35 9 -13 1
-13 0 0 -9z"/>
<path d="M9295 4170 c-3 -5 -1 -10 4 -10 6 0 11 5 11 10 0 6 -2 10 -4 10 -3 0
-8 -4 -11 -10z"/>
<path d="M9347 4173 c-4 -3 -7 -14 -7 -24 0 -26 -33 -79 -49 -79 -11 0 -11 -4
2 -18 10 -10 17 -26 17 -35 0 -9 6 -17 13 -17 8 0 13 16 15 46 1 25 7 64 12
86 11 39 10 54 -3 41z"/>
<path d="M9656 4162 c-2 -4 13 -6 35 -4 21 2 39 6 39 8 0 7 -69 4 -74 -4z"/>
<path d="M10931 4118 c-1 -60 10 -78 35 -57 10 8 11 14 4 19 -5 3 -16 26 -24
51 l-14 44 -1 -57z"/>
<path d="M11667 4155 c-4 -8 -2 -17 3 -20 13 -8 40 6 40 21 0 19 -36 18 -43
-1z"/>
<path d="M1020 4134 c-43 -36 -63 -79 -55 -115 6 -28 8 -29 25 -14 9 9 18 26
18 39 0 35 31 76 58 76 33 0 73 -20 79 -40 7 -23 -13 -67 -34 -75 -10 -4 -21
1 -30 14 -12 19 -41 29 -41 15 0 -3 20 -26 45 -51 41 -41 45 -43 45 -21 0 13
5 29 12 36 20 20 15 117 -6 141 -27 30 -77 27 -116 -5z"/>
<path d="M9745 4150 c3 -5 11 -10 16 -10 6 0 7 5 4 10 -3 6 -11 10 -16 10 -6
0 -7 -4 -4 -10z"/>
<path d="M180 4140 c0 -5 10 -15 23 -21 22 -12 22 -12 3 10 -21 23 -26 26 -26
11z"/>
<path d="M11100 4110 c0 -5 7 -10 16 -10 8 0 12 5 9 10 -3 6 -10 10 -16 10 -5
0 -9 -4 -9 -10z"/>
<path d="M11271 4109 c-89 -11 -92 -13 -36 -34 28 -10 57 -24 65 -32 12 -11
16 -7 27 29 7 23 11 43 10 43 -1 1 -31 -2 -66 -6z"/>
<path d="M10631 4094 c0 -11 3 -14 6 -6 3 7 2 16 -1 19 -3 4 -6 -2 -5 -13z"/>
<path d="M12084 3970 c3 -80 8 -158 13 -175 12 -38 4 222 -8 280 -5 26 -7 -11
-5 -105z"/>
<path d="M11403 4078 c-32 -15 -29 -28 7 -28 23 0 30 4 30 20 0 22 -5 23 -37
8z"/>
<path d="M11946 3991 c-28 -85 -43 -206 -27 -215 9 -6 24 52 36 144 3 25 11
67 17 93 17 78 2 65 -26 -22z"/>
<path d="M798 4036 c-23 -10 -25 -13 -12 -21 14 -9 13 -16 -7 -58 -13 -26 -31
-49 -41 -53 -14 -4 -15 -9 -7 -23 9 -13 5 -29 -16 -70 -14 -29 -24 -55 -22
-57 7 -7 84 146 113 222 13 37 23 68 22 69 -2 1 -15 -3 -30 -9z"/>
<path d="M9757 4044 c-4 -4 -7 -14 -7 -23 0 -11 3 -12 11 -4 6 6 10 16 7 23
-2 6 -7 8 -11 4z"/>
<path d="M402 4033 c13 -28 44 -73 51 -73 15 0 6 20 -24 49 -17 17 -29 28 -27
24z"/>
<path d="M11464 4029 c-3 -5 6 -9 20 -9 31 0 34 6 6 13 -11 3 -23 1 -26 -4z"/>
<path d="M696 4021 c-17 -7 -18 -8 -3 -14 9 -3 29 0 44 8 l28 15 -25 -1 c-14
0 -34 -4 -44 -8z"/>
<path d="M623 4003 c-23 -3 -33 -10 -33 -22 0 -10 -14 -24 -32 -33 l-33 -15
37 -16 c20 -8 44 -28 54 -44 10 -15 19 -30 20 -32 2 -2 16 7 31 19 24 19 25
22 8 20 -35 -4 -38 -1 -21 25 16 25 16 25 -13 23 -39 -4 -43 13 -8 30 16 8 27
21 27 33 0 10 -1 18 -2 17 -2 0 -18 -3 -35 -5z"/>
<path d="M11355 3983 c12 -23 22 -28 50 -28 30 0 35 3 35 24 0 21 -3 23 -35
17 -22 -4 -35 -3 -35 4 0 5 -6 10 -14 10 -13 0 -13 -4 -1 -27z"/>
<path d="M10955 3990 c-3 -5 -13 -10 -21 -10 -16 0 -53 -37 -54 -53 0 -5 12 1
26 12 14 11 41 25 60 31 19 6 32 16 29 21 -8 12 -32 12 -40 -1z"/>
<path d="M11863 3985 c-8 -22 6 -33 17 -15 13 20 12 30 0 30 -6 0 -13 -7 -17
-15z"/>
<path d="M308 3960 c18 -17 40 -30 49 -30 9 0 -1 12 -25 30 -53 38 -67 38 -24
0z"/>
<path d="M220 3940 c0 -5 5 -10 11 -10 5 0 7 5 4 10 -3 6 -8 10 -11 10 -2 0
-4 -4 -4 -10z"/>
<path d="M10536 3941 c-3 -5 0 -14 8 -20 11 -9 15 -8 20 5 3 8 6 18 6 20 0 8
-29 4 -34 -5z"/>
<path d="M424 3932 c-7 -4 -2 -20 13 -41 27 -39 27 -39 10 11 -7 21 -17 34
-23 30z"/>
<path d="M11530 3932 c0 -9 43 -52 52 -52 4 0 1 14 -5 30 -10 27 -47 44 -47
22z"/>
<path d="M1040 3898 c0 -20 5 -40 10 -43 13 -8 13 45 0 65 -7 11 -10 6 -10
-22z"/>
<path d="M9691 3911 c-9 -6 -10 -11 -2 -15 13 -8 31 1 31 15 0 11 -11 11 -29
0z"/>
<path d="M162 3898 c-22 -22 -13 -30 24 -24 40 8 75 -9 153 -73 38 -33 55 -40
99 -43 47 -3 52 -1 52 18 0 29 -7 33 -40 21 -21 -8 -39 -7 -69 3 -54 18 -69
35 -42 50 25 13 27 26 5 34 -9 4 -21 0 -28 -9 -10 -13 -17 -13 -63 2 -29 9
-53 20 -53 25 0 12 -24 10 -38 -4z"/>
<path d="M10793 3889 c-43 -20 -52 -32 -33 -44 5 -3 26 10 47 29 44 41 43 41
-14 15z"/>
<path d="M9440 3896 c0 -2 8 -10 18 -17 15 -13 16 -12 3 4 -13 16 -21 21 -21
13z"/>
<path d="M10477 3859 c-10 -6 -25 -8 -34 -4 -32 12 -45 -53 -18 -89 17 -23 20
-72 5 -81 -5 -3 -10 -18 -10 -32 0 -35 -37 -93 -60 -93 -9 0 -23 7 -30 15 -20
24 -23 11 -6 -30 9 -21 16 -49 16 -62 l0 -25 31 19 c16 11 51 37 75 57 44 37
45 39 28 57 -27 30 -25 110 4 148 12 17 18 31 13 31 -22 0 -23 43 -2 71 22 30
19 36 -12 18z"/>
<path d="M9630 3841 c0 -6 5 -13 10 -16 6 -3 10 1 10 9 0 9 -4 16 -10 16 -5 0
-10 -4 -10 -9z"/>
<path d="M9496 3823 c-3 -10 -9 -24 -12 -30 -3 -8 2 -13 14 -13 25 0 37 29 19
48 -12 12 -15 11 -21 -5z"/>
<path d="M1181 3824 c-1 -19 32 -109 36 -98 2 6 -5 33 -16 60 -11 27 -20 44
-20 38z"/>
<path d="M2094 3815 c25 -19 37 -19 30 0 -4 8 -16 15 -28 15 -21 -1 -21 -1 -2
-15z"/>
<path d="M11352 3822 c-1 -8 -9 -29 -18 -48 -15 -31 -15 -36 3 -66 24 -42 63
-51 63 -14 0 15 -8 30 -19 36 -15 7 -21 23 -24 58 -2 26 -4 41 -5 34z"/>
<path d="M598 3779 c-42 -22 -56 -37 -30 -35 28 2 20 -28 -11 -38 -19 -7 -34
-7 -46 1 -12 7 -23 8 -35 1 -23 -13 -127 -2 -174 18 -40 17 -78 18 -87 4 -4
-7 2 -9 19 -4 20 5 26 2 26 -9 0 -9 8 -17 17 -19 14 -3 18 -14 18 -48 0 -44 1
-45 53 -69 28 -14 52 -31 52 -38 0 -23 -54 -93 -69 -87 -7 2 -20 -1 -27 -7 -8
-6 -20 -9 -28 -6 -8 3 -17 -1 -20 -9 -9 -24 -8 -25 18 -18 13 3 27 1 31 -6 4
-7 16 -2 32 17 l26 27 38 -42 c26 -30 38 -53 38 -75 1 -18 2 -45 2 -62 2 -44
-19 -113 -42 -136 -10 -10 -19 -30 -19 -43 0 -13 -7 -43 -16 -67 -43 -122 -89
-375 -99 -544 -4 -66 -16 -160 -26 -209 -11 -49 -18 -91 -15 -93 4 -5 27 90
46 192 6 33 14 116 19 185 10 135 49 340 77 405 9 22 32 87 50 145 39 126 56
173 70 191 16 20 161 330 168 359 4 14 -32 -50 -79 -142 -47 -93 -89 -168 -95
-168 -5 0 -17 15 -26 33 -9 17 -27 45 -40 60 -23 27 -23 29 -7 62 16 34 16 36
-4 63 -11 15 -35 32 -54 38 -26 9 -34 17 -34 35 0 43 89 64 164 38 28 -10 38
-8 86 17 46 25 53 32 49 51 -5 19 -2 23 15 23 12 0 21 4 21 9 0 19 -16 19 -52
0z"/>
<path d="M9556 3764 c-9 -8 -16 -23 -16 -32 1 -15 2 -15 11 1 5 9 17 17 24 17
17 0 20 16 6 25 -5 3 -17 -2 -25 -11z"/>
<path d="M1011 3762 c-2 -26 27 -78 52 -95 45 -29 54 -18 13 16 -21 18 -44 46
-51 62 -7 17 -14 24 -14 17z"/>
<path d="M9375 3750 c-7 -12 2 -30 16 -30 5 0 9 9 9 20 0 21 -15 27 -25 10z"/>
<path d="M9457 3753 c-4 -3 -7 -13 -7 -21 0 -12 3 -12 15 -2 8 7 15 16 15 21
0 11 -14 12 -23 2z"/>
<path d="M11634 3713 c3 -26 14 -54 23 -63 15 -14 16 -13 5 1 -10 13 -8 21 7
41 18 23 19 27 5 46 -8 12 -22 22 -31 22 -13 0 -15 -8 -9 -47z"/>
<path d="M12111 3744 c0 -11 3 -14 6 -6 3 7 2 16 -1 19 -3 4 -6 -2 -5 -13z"/>
<path d="M9722 3713 c2 -10 13 -18 26 -19 27 -2 29 12 3 26 -27 14 -33 13 -29
-7z"/>
<path d="M11043 3719 c-16 -16 -16 -29 -1 -79 14 -44 43 -67 32 -25 -5 21 -3
25 15 25 29 0 27 18 -3 30 -16 6 -26 18 -28 35 -2 21 -5 24 -15 14z"/>
<path d="M11542 3708 c-16 -16 -15 -33 1 -46 18 -15 62 20 54 42 -7 19 -38 21
-55 4z"/>
<path d="M9636 3695 c4 -8 11 -15 16 -15 6 0 5 6 -2 15 -7 8 -14 15 -16 15 -2
0 -1 -7 2 -15z"/>
<path d="M12410 3668 c1 -14 34 -58 45 -58 3 0 4 4 0 10 -3 5 3 18 15 30 27
27 26 30 -20 30 -26 0 -40 -5 -40 -12z"/>
<path d="M161 3647 c-8 -12 -21 -33 -30 -47 -15 -24 -15 -24 2 -11 19 15 51
70 45 76 -2 2 -10 -6 -17 -18z"/>
<path d="M1857 3655 c-4 -8 -2 -17 3 -20 6 -4 10 3 10 14 0 25 -6 27 -13 6z"/>
<path d="M10857 3649 c-9 -6 -17 -18 -17 -28 0 -10 -7 -24 -15 -31 -19 -15
-20 -40 -2 -40 22 0 60 48 62 76 1 31 -5 35 -28 23z"/>
<path d="M9682 3640 c-23 -10 -39 -36 -29 -46 9 -9 67 29 67 43 0 15 -6 15
-38 3z"/>
<path d="M1132 3628 c7 -21 50 -38 93 -37 40 0 40 0 15 14 -14 8 -37 14 -52
15 -15 0 -30 5 -33 10 -9 14 -27 12 -23 -2z"/>
<path d="M11539 3633 c-11 -3 -15 -11 -12 -24 4 -12 -1 -25 -13 -34 -18 -13
-17 -14 13 -15 20 0 36 -7 42 -17 8 -15 12 -16 23 -5 11 11 10 16 -6 27 -10 8
-23 16 -29 18 -6 2 -6 11 2 24 12 24 6 32 -20 26z"/>
<path d="M1871 3594 c0 -11 3 -14 6 -6 3 7 2 16 -1 19 -3 4 -6 -2 -5 -13z"/>
<path d="M8950 3578 c0 -13 -3 -32 -6 -44 -3 -13 -1 -21 8 -21 7 0 19 -2 26
-4 26 -7 33 37 11 65 -25 32 -39 33 -39 4z"/>
<path d="M11634 3584 c3 -9 6 -20 6 -25 0 -14 46 -10 59 5 10 12 8 17 -8 25
-31 17 -64 14 -57 -5z"/>
<path d="M10973 3582 c-35 -3 -59 -32 -49 -58 8 -21 79 -18 100 5 17 19 13 47
-7 53 -7 2 -27 2 -44 0z"/>
<path d="M103 3555 c-3 -9 -3 -18 -1 -21 3 -3 8 4 11 16 6 23 -1 27 -10 5z"/>
<path d="M9760 3550 c-14 -10 -22 -21 -19 -25 8 -7 59 15 59 26 0 17 -17 17
-40 -1z"/>
<path d="M1881 3544 c0 -11 3 -14 6 -6 3 7 2 16 -1 19 -3 4 -6 -2 -5 -13z"/>
<path d="M9877 3503 c-8 -10 -19 -30 -22 -45 -8 -33 12 -46 45 -28 21 11 21
12 4 25 -16 11 -16 17 -6 39 13 30 3 34 -21 9z"/>
<path d="M100 3496 c0 -10 8 -16 22 -16 12 0 19 1 17 3 -2 1 -12 9 -21 16 -15
12 -18 11 -18 -3z"/>
<path d="M1891 3494 c0 -11 3 -14 6 -6 3 7 2 16 -1 19 -3 4 -6 -2 -5 -13z"/>
<path d="M1901 3444 c0 -11 3 -14 6 -6 3 7 2 16 -1 19 -3 4 -6 -2 -5 -13z"/>
<path d="M11080 3449 c0 -5 5 -7 10 -4 6 3 10 8 10 11 0 2 -4 4 -10 4 -5 0
-10 -5 -10 -11z"/>
<path d="M11121 3456 c2 -2 14 -9 27 -15 18 -10 22 -9 22 4 0 10 -9 15 -27 15
-14 0 -24 -2 -22 -4z"/>
<path d="M1718 3433 c7 -3 16 -2 19 1 4 3 -2 6 -13 5 -11 0 -14 -3 -6 -6z"/>
<path d="M12697 3428 c4 -7 9 -53 11 -103 5 -193 7 -224 13 -217 10 12 31 250
24 274 -8 26 -34 58 -47 58 -5 0 -6 -6 -1 -12z"/>
<path d="M10933 3405 c-8 -22 6 -33 17 -15 13 20 12 30 0 30 -6 0 -13 -7 -17
-15z"/>
<path d="M11107 3400 c7 -25 23 -37 23 -17 0 8 -6 20 -14 26 -12 10 -13 8 -9
-9z"/>
<path d="M221 3374 c0 -11 3 -14 6 -6 3 7 2 16 -1 19 -3 4 -6 -2 -5 -13z"/>
<path d="M10140 3381 c0 -5 7 -14 16 -22 13 -10 17 -10 24 1 6 9 4 17 -3 22
-16 10 -37 10 -37 -1z"/>
<path d="M11232 3357 c8 -16 12 -17 19 -6 13 21 11 25 -10 25 -16 0 -18 -4 -9
-19z"/>
<path d="M10782 3358 c6 -18 25 -20 31 -3 5 10 0 15 -14 15 -12 0 -19 -5 -17
-12z"/>
<path d="M1030 3350 c0 -5 4 -10 9 -10 6 0 13 5 16 10 3 6 -1 10 -9 10 -9 0
-16 -4 -16 -10z"/>
<path d="M10275 3320 c-22 -16 -57 -34 -77 -40 -40 -11 -51 -30 -18 -30 11 0
29 -11 40 -23 18 -21 26 -23 66 -17 71 11 126 74 92 108 -9 9 -24 0 -64 -38
-29 -28 -60 -50 -68 -50 -31 0 -15 29 34 65 28 20 50 41 50 46 0 15 -13 10
-55 -21z"/>
<path d="M2331 3292 c-5 -136 174 -994 196 -935 2 6 -3 27 -11 47 -8 19 -18
57 -22 83 -3 26 -9 52 -12 57 -3 6 -7 37 -9 70 -2 33 -9 67 -16 75 -8 9 -14
31 -16 50 -1 19 -6 39 -10 45 -11 13 -41 171 -41 214 0 17 -4 34 -10 37 -5 3
-10 22 -10 40 0 19 -5 54 -10 77 -6 24 -14 72 -19 108 -5 36 -9 51 -10 32z"/>
<path d="M10010 3298 c0 -31 17 -45 33 -29 8 8 5 17 -11 33 l-22 22 0 -26z"/>
<path d="M12481 3279 c-31 -37 -32 -41 -15 -53 9 -7 14 -18 10 -24 -3 -6 -3
-13 2 -16 8 -5 47 123 39 130 -2 2 -18 -14 -36 -37z"/>
<path d="M11372 3253 c-31 -4 -33 -7 -27 -31 14 -58 39 -87 78 -90 32 -3 37 0
37 17 0 28 -34 45 -60 31 -16 -9 -22 -8 -26 4 -8 21 3 36 27 36 12 0 19 7 19
20 0 11 -3 19 -7 18 -5 0 -23 -3 -41 -5z"/>
<path d="M12160 3220 c0 -5 4 -10 9 -10 6 0 13 5 16 10 3 6 -1 10 -9 10 -9 0
-16 -4 -16 -10z"/>
<path d="M12482 3130 c0 -14 2 -19 5 -12 2 6 2 18 0 25 -3 6 -5 1 -5 -13z"/>
<path d="M956 3081 c-3 -21 -9 -46 -12 -55 -3 -9 -2 -16 4 -16 6 0 13 23 17
51 8 59 1 78 -9 20z"/>
<path d="M12466 3023 c-11 -137 -8 -174 16 -200 12 -13 22 -35 23 -50 0 -14 6
-28 14 -31 10 -3 12 0 8 11 -3 9 1 21 9 27 18 16 18 34 -1 27 -8 -4 -25 7 -41
25 -26 32 -26 32 -19 150 8 131 2 162 -9 41z"/>
<path d="M9452 3051 c4 -13 18 -16 19 -4 0 4 -5 9 -11 12 -7 2 -11 -2 -8 -8z"/>
<path d="M9954 3035 c-3 -14 -10 -25 -15 -25 -5 0 -9 -6 -9 -13 0 -13 64 -39
73 -30 10 9 -6 43 -20 43 -10 0 -14 7 -10 20 3 11 1 22 -4 25 -4 3 -11 -6 -15
-20z"/>
<path d="M826 3031 c-23 -25 -20 -32 9 -19 26 12 31 23 16 32 -4 3 -16 -3 -25
-13z"/>
<path d="M12104 3038 c-3 -5 -2 -14 4 -20 12 -12 42 -4 42 11 0 13 -39 21 -46
9z"/>
<path d="M11496 2928 c5 -45 3 -64 -10 -85 l-17 -28 25 28 c37 41 42 71 17
109 l-21 33 6 -57z"/>
<path d="M10190 2960 c-8 -5 -10 -10 -5 -10 6 0 17 5 25 10 8 5 11 10 5 10 -5
0 -17 -5 -25 -10z"/>
<path d="M773 2865 c-7 -38 -10 -71 -8 -73 8 -9 26 75 23 108 -2 29 -5 23 -15
-35z"/>
<path d="M11192 2908 c2 -15 11 -24 26 -26 25 -4 27 5 8 31 -19 24 -38 21 -34
-5z"/>
<path d="M12005 2900 c3 -5 10 -10 16 -10 5 0 9 5 9 10 0 6 -7 10 -16 10 -8 0
-12 -4 -9 -10z"/>
<path d="M12552 2865 c0 -16 2 -22 5 -12 2 9 2 23 0 30 -3 6 -5 -1 -5 -18z"/>
<path d="M11160 2840 c0 -11 5 -20 10 -20 6 0 10 -9 10 -19 0 -11 -4 -23 -10
-26 -17 -11 -11 -35 9 -35 27 0 45 25 33 47 -7 12 -7 24 0 37 7 13 6 21 -3 27
-25 16 -49 10 -49 -11z"/>
<path d="M11958 2833 c7 -3 16 -2 19 1 4 3 -2 6 -13 5 -11 0 -14 -3 -6 -6z"/>
<path d="M10780 2701 c0 -12 5 -21 10 -21 6 0 10 6 10 14 0 8 -4 18 -10 21 -5
3 -10 -3 -10 -14z"/>
<path d="M10275 2670 c-3 -11 -10 -20 -15 -20 -10 0 -19 -35 -11 -48 3 -5 15
-12 26 -14 17 -2 20 2 17 30 -2 32 -2 33 32 27 38 -8 55 7 36 30 -19 23 -77
19 -85 -5z"/>
<path d="M12470 2666 c0 -13 6 -29 14 -35 11 -9 14 -8 12 6 -1 13 5 17 22 16
16 -2 22 2 22 18 0 18 -2 20 -16 8 -12 -10 -20 -10 -35 -1 -17 11 -19 9 -19
-12z"/>
<path d="M10816 2665 c-3 -9 0 -15 9 -15 8 0 15 7 15 15 0 8 -4 15 -9 15 -5 0
-11 -7 -15 -15z"/>
<path d="M11855 2648 c-2 -7 -5 -22 -7 -33 -2 -13 -13 -22 -33 -25 -28 -5 -30
-8 -27 -45 2 -22 10 -45 19 -52 8 -7 13 -19 10 -27 -8 -20 20 -27 93 -23 48 2
55 0 58 -18 2 -11 7 -29 12 -40 16 -36 28 -92 21 -102 -3 -6 -16 -13 -28 -17
-13 -4 -23 -11 -23 -16 0 -16 44 -40 72 -40 31 0 36 11 13 30 -10 8 -13 21 -9
39 9 37 19 44 42 32 38 -20 52 -42 52 -81 0 -48 -28 -71 -74 -64 l-31 5 23
-19 c12 -11 22 -26 22 -32 0 -7 32 18 71 54 39 36 75 66 79 66 4 0 13 -7 20
-15 7 -8 19 -15 26 -15 18 0 18 -14 -2 -51 -14 -29 -14 -31 3 -27 10 2 23 18
29 38 13 40 32 47 75 28 27 -12 30 -16 24 -48 -3 -19 -17 -45 -31 -57 -31 -28
-20 -30 22 -4 38 23 70 73 79 124 7 34 5 37 -15 37 -13 0 -29 8 -37 18 -12 15
-13 14 -7 -9 8 -37 -9 -40 -105 -18 -106 25 -191 69 -252 129 -57 57 -62 88
-23 127 24 23 24 26 9 43 -13 14 -14 23 -6 39 15 27 14 31 -7 31 -23 0 -42
-19 -35 -35 7 -19 -15 -55 -33 -55 -11 0 -13 -6 -9 -20 9 -27 -25 -27 -50 0
-11 13 -25 18 -37 14 -27 -8 -23 25 7 66 25 34 34 80 15 80 -6 0 -12 -6 -15
-12z"/>
<path d="M11927 2653 c-12 -12 -7 -43 7 -43 13 0 26 20 26 41 0 10 -23 12 -33
2z"/>
<path d="M821 2579 c0 -13 4 -33 9 -44 7 -14 8 -8 3 20 -7 46 -13 59 -12 24z"/>
<path d="M11719 2508 c4 -12 19 -29 32 -37 22 -15 22 -14 -5 22 -33 43 -39 46
-27 15z"/>
<path d="M11460 2500 c8 -5 20 -10 25 -10 6 0 3 5 -5 10 -8 5 -19 10 -25 10
-5 0 -3 -5 5 -10z"/>
<path d="M943 2459 c-8 -19 -9 -39 -3 -54 10 -26 14 -30 54 -39 l28 -7 -26 47
c-14 25 -26 52 -26 60 0 26 -16 22 -27 -7z"/>
<path d="M12646 2482 c-5 -9 -18 -11 -38 -7 -23 6 -29 4 -26 -6 3 -8 13 -12
24 -11 10 2 24 -4 31 -14 11 -15 13 -15 19 -1 9 23 1 56 -10 39z"/>
<path d="M890 2430 c0 -5 7 -10 16 -10 8 0 12 5 9 10 -3 6 -10 10 -16 10 -5 0
-9 -4 -9 -10z"/>
<path d="M11604 2397 c19 -37 26 -42 53 -40 41 4 57 -18 56 -76 -1 -50 -20
-98 -49 -122 -9 -7 -27 -30 -40 -50 -12 -20 -49 -65 -81 -99 -32 -35 -49 -60
-38 -55 11 4 43 13 70 19 28 6 55 15 62 19 6 4 30 5 52 1 50 -8 91 2 91 21 0
8 7 15 16 15 12 0 15 -6 10 -24 -8 -32 4 -38 43 -25 29 10 31 14 25 43 -3 17
-7 32 -8 33 -1 1 -19 -2 -41 -7 -22 -5 -75 -12 -117 -16 -67 -6 -79 -4 -84 10
-4 11 2 26 14 39 22 24 61 88 88 147 19 42 14 102 -14 139 -20 27 -53 47 -102
61 l-28 8 22 -41z"/>
<path d="M12385 2419 c-9 -14 4 -26 38 -34 36 -9 35 6 -2 28 -21 12 -32 14
-36 6z"/>
<path d="M10498 2369 c-14 -21 -19 -22 -37 -11 -31 18 -86 5 -120 -28 -27 -28
-27 -28 -7 -38 42 -20 58 -21 80 -7 12 8 25 12 29 9 3 -3 20 -3 37 1 23 5 35
15 42 36 5 16 14 29 19 29 19 0 22 -34 6 -62 -9 -17 -17 -37 -17 -46 -1 -9 -7
-28 -14 -41 -12 -22 -11 -26 13 -47 24 -20 28 -21 53 -8 32 17 37 34 9 34 -27
0 -45 24 -28 38 9 8 22 6 46 -5 32 -16 34 -16 47 2 19 25 18 71 -1 79 -9 3
-15 18 -15 35 0 37 -4 39 -72 47 -49 6 -55 4 -70 -17z m122 -69 c0 -12 -28
-25 -36 -17 -9 9 6 27 22 27 8 0 14 -5 14 -10z m10 -45 c0 -8 -7 -15 -15 -15
-8 0 -15 7 -15 15 0 8 7 15 15 15 8 0 15 -7 15 -15z"/>
<path d="M11378 2380 c12 -5 22 -15 22 -21 0 -8 12 -10 35 -6 19 3 37 1 40 -4
4 -5 17 -9 30 -9 28 0 45 -26 45 -67 0 -40 -17 -55 -44 -40 -11 7 -23 13 -24
14 -2 1 1 9 6 19 10 17 -3 64 -17 64 -14 0 -71 -41 -71 -50 0 -6 11 -15 24
-22 14 -6 26 -20 28 -31 2 -13 13 -23 28 -27 21 -5 25 -12 28 -49 4 -52 -15
-78 -65 -87 -23 -4 -38 -15 -45 -30 -8 -18 -19 -24 -43 -24 -26 0 -34 -6 -48
-36 -23 -47 -15 -56 41 -48 l46 7 -18 -28 -18 -28 53 31 c42 24 54 37 54 55 1
14 13 43 28 66 15 22 27 45 27 50 0 6 9 28 21 50 41 80 48 242 9 233 -7 -2
-30 4 -52 13 -21 8 -62 15 -91 14 -41 0 -47 -2 -29 -9z"/>
<path d="M10970 2365 c-10 -12 -10 -19 -2 -27 16 -16 66 2 70 25 4 22 -50 24
-68 2z"/>
<path d="M12413 2336 c5 -14 78 -15 75 -1 -2 5 -20 10 -41 10 -22 1 -36 -3
-34 -9z"/>
<path d="M11052 2328 c-16 -16 -15 -38 1 -38 17 0 37 20 37 37 0 16 -22 17
-38 1z"/>
<path d="M900 2313 c0 -27 82 -94 97 -80 2 3 -5 8 -16 12 -11 3 -34 22 -50 41
-17 19 -31 31 -31 27z"/>
<path d="M2541 2283 c2 -40 14 -63 28 -54 9 6 10 11 2 15 -6 4 -11 16 -11 26
0 10 -4 22 -10 25 -5 3 -10 -2 -9 -12z"/>
<path d="M1662 2245 c-16 -35 -16 -53 0 -37 7 7 20 12 29 12 15 0 15 4 6 25
-15 31 -21 31 -35 0z"/>
<path d="M9900 2242 c0 -18 18 -32 42 -32 5 0 8 10 6 23 -4 29 -48 38 -48 9z"/>
<path d="M11885 2190 c-8 -14 13 -40 32 -40 20 0 26 -25 13 -50 -16 -31 -4
-38 20 -12 12 12 27 22 35 22 24 0 17 18 -7 22 -18 2 -22 9 -20 27 1 14 -3 28
-10 33 -18 11 -56 10 -63 -2z"/>
<path d="M8661 2156 c-10 -11 -8 -16 9 -21 26 -8 58 14 38 26 -19 13 -34 11
-47 -5z"/>
<path d="M11326 2125 c4 -27 8 -52 10 -54 9 -10 3 75 -6 89 -7 10 -8 -1 -4
-35z"/>
<path d="M1998 2112 c-10 -2 -18 -10 -18 -18 0 -8 0 -17 -1 -21 -2 -21 22 -11
31 13 12 31 11 32 -12 26z"/>
<path d="M12210 2095 c-10 -12 -10 -15 4 -15 9 0 16 7 16 15 0 8 -2 15 -4 15
-2 0 -9 -7 -16 -15z"/>
<path d="M12035 2080 c-3 -5 -17 -10 -31 -10 -14 0 -24 -6 -24 -14 0 -8 -9
-21 -20 -29 -18 -13 -19 -16 -5 -27 13 -11 20 -9 41 11 25 23 60 79 50 79 -3
0 -8 -4 -11 -10z"/>
<path d="M12265 2060 c-3 -5 1 -10 9 -10 8 0 18 5 21 10 3 6 -1 10 -9 10 -8 0
-18 -4 -21 -10z"/>
<path d="M10386 2025 c-3 -9 0 -15 9 -15 16 0 20 16 6 24 -5 3 -11 -1 -15 -9z"/>
<path d="M10850 1990 c-13 -25 -5 -40 20 -40 34 0 50 12 50 36 0 20 -5 24 -30
24 -19 0 -33 -7 -40 -20z"/>
<path d="M10967 1982 c-21 -23 -22 -38 -1 -46 9 -4 14 -9 10 -13 -10 -11 55
-34 76 -27 25 8 19 38 -9 42 -15 2 -23 11 -25 30 -4 33 -28 39 -51 14z"/>
<path d="M152 1938 c-10 -38 -9 -41 4 -24 12 18 20 66 10 66 -2 0 -8 -19 -14
-42z"/>
<path d="M11635 1927 c9 -54 39 -77 51 -39 3 9 9 24 14 33 7 13 0 20 -31 32
l-41 16 7 -42z"/>
<path d="M10780 1941 c0 -5 7 -12 16 -15 22 -9 24 -8 24 9 0 8 -9 15 -20 15
-11 0 -20 -4 -20 -9z"/>
<path d="M11862 1918 c3 -29 0 -33 -22 -32 -14 1 -31 -7 -38 -17 -10 -14 -20
-17 -38 -13 -18 5 -35 0 -56 -16 -24 -18 -39 -21 -75 -17 -24 2 -53 13 -63 22
-19 17 -20 17 -20 -2 0 -22 -25 -37 -42 -26 -7 3 -8 1 -4 -5 4 -7 33 -12 67
-12 65 0 79 -12 59 -49 -7 -14 -7 -21 0 -21 5 0 10 -6 10 -14 0 -8 7 -17 16
-20 14 -5 15 -15 10 -56 -4 -32 -2 -56 6 -69 10 -17 9 -23 -6 -40 -24 -27 -10
-27 32 -1 54 33 59 67 19 122 -19 25 -19 32 -8 82 6 29 20 60 29 68 9 8 51 27
92 42 105 37 104 37 83 74 -25 44 -54 43 -51 0z"/>
<path d="M1417 1914 c-11 -11 3 -24 25 -24 18 0 19 -4 13 -37 -8 -48 -18 -58
-44 -44 -27 15 -27 1 0 -33 38 -48 51 -36 64 56 5 39 3 50 -14 67 -22 22 -33
25 -44 15z"/>
<path d="M10720 1884 c-11 -12 -11 -18 3 -31 16 -16 47 -13 77 7 13 9 12 12
-4 25 -26 19 -60 19 -76 -1z"/>
<path d="M12074 1885 c-3 -8 4 -26 15 -41 12 -15 21 -25 22 -23 0 2 1 21 3 42
2 31 0 37 -16 37 -10 0 -21 -7 -24 -15z"/>
<path d="M12177 1888 c-23 -12 -22 -48 1 -48 21 0 42 18 42 36 0 17 -23 24
-43 12z"/>
<path d="M10417 1866 c-4 -10 -19 -16 -41 -16 -35 0 -55 -13 -36 -25 17 -10
11 -33 -9 -40 -18 -5 -18 -9 -6 -37 14 -34 47 -52 77 -42 27 8 13 19 -25 19
-38 0 -45 28 -9 33 18 3 21 6 12 17 -14 17 -3 38 15 31 13 -5 63 8 97 25 29
15 36 11 59 -35 21 -42 23 -44 51 -34 16 6 38 8 50 5 40 -11 -2 19 -89 62 -99
50 -138 60 -146 37z"/>
<path d="M10993 1869 c-32 -12 -28 -26 8 -34 39 -9 56 6 32 27 -13 11 -25 13
-40 7z"/>
<path d="M131 1863 c-1 -6 -4 -20 -7 -30 -5 -17 -5 -17 6 0 6 10 9 23 6 30 -3
9 -5 9 -5 0z"/>
<path d="M12026 1838 c-3 -7 -9 -28 -15 -47 -18 -55 -15 -61 27 -60 20 1 48 4
61 8 21 6 22 8 8 20 -9 7 -21 10 -26 6 -6 -3 -21 -1 -33 6 l-22 12 21 16 c17
14 18 20 8 34 -15 20 -24 22 -29 5z"/>
<path d="M10789 1810 c-18 -14 -20 -19 -8 -20 22 0 54 25 42 33 -6 4 -22 -2
-34 -13z"/>
<path d="M12223 1816 c-13 -6 -23 -19 -23 -28 0 -21 6 -22 49 -7 22 8 30 16
27 26 -3 8 -6 17 -6 19 0 7 -24 2 -47 -10z"/>
<path d="M10120 1812 c0 -13 99 -104 143 -131 57 -35 55 -19 -3 18 -28 18 -50
36 -50 41 0 4 -20 24 -45 44 -25 21 -45 33 -45 28z"/>
<path d="M10854 1805 c-11 -27 12 -41 34 -22 14 13 28 15 52 11 25 -6 32 -4
28 7 -7 22 -106 25 -114 4z"/>
<path d="M92 1741 c-6 -17 -9 -31 -6 -31 7 0 25 52 20 57 -2 2 -8 -10 -14 -26z"/>
<path d="M10730 1722 c44 -38 139 -97 146 -90 3 3 -30 28 -73 55 -104 66 -114
71 -73 35z"/>
<path d="M11130 1715 c-14 -8 -20 -14 -14 -15 5 0 19 7 30 15 24 18 16 19 -16
0z"/>
<path d="M28 1598 c-27 -50 -27 -51 -4 -29 21 20 42 68 34 76 -2 2 -15 -19
-30 -47z"/>
<path d="M224 1615 c-19 -14 -19 -14 2 -15 12 0 27 7 34 15 17 20 -9 21 -36 0z"/>
</g>
</svg>
